<svg width="24" height="24" viewBox="0 0 24 24" fill="none" xmlns="http://www.w3.org/2000/svg">
<g clip-path="url(#clip0)">
<path d="M15.1549 16.6273L15.094 16.4994C14.9984 16.2987 14.8679 16.1105 14.7019 15.9444C13.9185 15.161 12.6435 15.1611 11.8602 15.9444L11.1009 16.7038C10.8409 16.9638 10.418 16.9638 10.158 16.7038L10.1308 16.6766L10.1307 16.6766C10.005 16.5508 9.93548 16.3831 9.93548 16.2051C9.93548 16.0272 10.005 15.8595 10.1307 15.7337L10.1308 15.7337L10.3931 15.4714C10.7285 15.136 10.913 14.6906 10.913 14.2162C10.913 13.7419 10.7284 13.2965 10.393 12.9611C9.70102 12.2691 8.57483 12.2692 7.88287 12.9611L7.62055 13.2234L7.62055 13.2235C7.36053 13.4834 6.93778 13.4834 6.67786 13.2235L6.67779 13.2234L6.65059 13.1962C6.65056 13.1962 6.65054 13.1961 6.65051 13.1961M15.1549 16.6273L6.72123 12.324C6.61422 12.431 6.55525 12.5734 6.55525 12.7247C6.55525 12.8761 6.61422 13.0184 6.72128 13.1255L6.65051 13.1961M15.1549 16.6273L15.255 16.5271L16.3349 15.4471L16.4056 15.3764L16.3349 15.3057L8.04843 7.01935L7.97772 6.94864L7.90701 7.01935L6.82715 8.09921L6.72704 8.19932L6.85486 8.2602C7.05564 8.35583 7.24383 8.48626 7.40985 8.65228C8.19322 9.43565 8.19322 10.7106 7.40985 11.4939L6.65052 12.2533L6.65051 12.2533C6.52476 12.3791 6.45525 12.5468 6.45525 12.7247C6.45525 12.9026 6.52473 13.0703 6.65051 13.1961M15.1549 16.6273L6.65051 13.1961M19.939 0.103246L19.939 0.103245C20.826 0.0628969 21.6969 0.400356 22.3254 1.0289C22.9539 1.65741 23.2913 2.52729 23.251 3.4152C23.2107 4.30313 22.7959 5.13892 22.1131 5.70795L16.9102 10.0437L16.8261 10.1138L16.9035 10.1912L18.0164 11.3041C19.1653 12.453 19.1653 14.3227 18.0164 15.4716L17.6847 15.8033L14.7019 18.7861L14.7018 18.7862L13.3761 20.112L13.3755 20.1125L13.3751 20.1129L13.4458 20.1836L13.3751 20.1129C12.9004 20.5877 12.6388 21.2193 12.6388 21.8906C12.6388 22.9985 11.7373 23.9 10.6294 23.9C9.52151 23.9 8.62002 22.9985 8.62002 21.8906C8.62002 21.2193 8.35837 20.5877 7.88367 20.1129L7.81295 20.1836L7.88366 20.1129L0.922164 13.1514C0.686622 12.9158 0.686622 12.534 0.922164 12.2984L7.55127 5.6693L7.88273 5.33785C9.03167 4.18894 10.9013 4.18899 12.0502 5.33784L13.1631 6.4507L13.2405 6.52813L13.3106 6.44401L17.6463 1.24116C18.2153 0.558311 19.0511 0.143505 19.939 0.103246ZM2.27231 12.6541L2.20159 12.7249L2.2723 12.7956L8.7366 19.2599C9.4394 19.9627 9.82627 20.8967 9.82627 21.8906C9.82627 22.3335 10.1865 22.6937 10.6294 22.6937C11.0723 22.6937 11.4325 22.3335 11.4325 21.8906C11.4325 20.8967 11.8194 19.9628 12.5222 19.26L13.8492 17.933L13.8492 17.933C14.0006 17.7815 14.0842 17.5796 14.0842 17.3653C14.0842 17.1509 14.0005 16.9489 13.849 16.7974L13.849 16.7974C13.5358 16.4843 13.0265 16.4842 12.7132 16.7974L12.7131 16.7974L11.9538 17.5568C11.2236 18.287 10.0352 18.287 9.30506 17.5568L9.27782 17.5295C8.54761 16.7994 8.54761 15.611 9.27782 14.8808L9.54013 14.6185C9.64743 14.5112 9.70672 14.3681 9.70672 14.2163C9.70672 14.0646 9.64743 13.9215 9.54013 13.8142L9.54012 13.8142C9.3183 13.5924 8.95768 13.5924 8.73582 13.8141L8.7358 13.8142L8.47349 14.0765C7.74337 14.8066 6.55508 14.8066 5.82496 14.0765L5.79763 14.0492L5.72692 14.1199L5.79763 14.0492C5.44373 13.6953 5.249 13.2253 5.249 12.7248C5.249 12.2244 5.44368 11.7543 5.79759 11.4004L6.55691 10.6411C6.70846 10.4896 6.79217 10.2875 6.79217 10.0732C6.79217 9.85887 6.70846 9.65686 6.55691 9.50532C6.40536 9.35376 6.20335 9.2701 5.98905 9.2701C5.7747 9.2701 5.57269 9.35376 5.42113 9.50532L2.27231 12.6541ZM17.1761 14.4412L17.2576 14.5227L17.3268 14.4306C17.5518 14.1311 17.6733 13.7685 17.6733 13.3878C17.6733 12.9231 17.4922 12.4856 17.1635 12.157L11.1973 6.19078C10.5782 5.57161 9.60528 5.51742 8.924 6.02751L8.83163 6.09667L8.91323 6.17827L17.1761 14.4412ZM15.9052 9.19271L15.9697 9.25728L16.0399 9.19882L21.341 4.78127C21.7701 4.42367 22.0208 3.91856 22.0461 3.36052C22.0714 2.80253 21.8674 2.2768 21.4724 1.88184C21.0775 1.48687 20.551 1.28238 19.9936 1.30825L19.9983 1.40815L19.9937 1.30825C19.4357 1.33352 18.9306 1.58425 18.573 2.01336L14.1555 7.31441L14.097 7.38457L14.1616 7.44914L15.9052 9.19271Z" fill="#9E9AA4" stroke="#FBFBFB" stroke-width="0.2"/>
<path d="M20.0825 3.97461C20.4708 3.97461 20.7856 3.65981 20.7856 3.27148C20.7856 2.88316 20.4708 2.56836 20.0825 2.56836C19.6942 2.56836 19.3794 2.88316 19.3794 3.27148C19.3794 3.65981 19.6942 3.97461 20.0825 3.97461Z" fill="black"/>
</g>
<defs>
<clipPath id="clip0">
<rect width="24" height="24" fill="white"/>
</clipPath>
</defs>
</svg>
