<svg width="48" height="48" viewBox="0 0 48 48" fill="none" xmlns="http://www.w3.org/2000/svg">
<g clip-path="url(#clip0)">
<path d="M42.4999 47.7999H5.50012C2.57652 47.7999 0.2 45.4234 0.2 42.4998V9.49976C0.2 6.57617 2.5765 4.2 5.50012 4.2H42.4999C45.4235 4.2 47.8 6.57617 47.8 9.49976V42.4998C47.8 45.4234 45.4235 47.7999 42.4999 47.7999ZM5.50012 6.8C4.01165 6.8 2.8 8.01121 2.8 9.49976V42.4998C2.8 43.9883 4.01161 45.1999 5.50012 45.1999H42.4999C43.9884 45.1999 45.2 43.9883 45.2 42.4998V9.49976C45.2 8.01121 43.9883 6.8 42.4999 6.8H5.50012Z" fill="#9E0059" stroke="#FAF2F7" stroke-width="0.4"/>
<path d="M46.5 18.8H1.5C0.782454 18.8 0.2 18.2175 0.2 17.5C0.2 16.7825 0.782454 16.2 1.5 16.2H46.5C47.2175 16.2 47.8 16.7825 47.8 17.5C47.8 18.2175 47.2175 18.8 46.5 18.8Z" fill="#9E0059" stroke="#FAF2F7" stroke-width="0.4"/>
<path d="M11.5 11.8C10.7825 11.8 10.2 11.2175 10.2 10.5V1.5C10.2 0.782454 10.7825 0.2 11.5 0.2C12.2175 0.2 12.8 0.782454 12.8 1.5V10.5C12.8 11.2175 12.2175 11.8 11.5 11.8Z" fill="#9E0059" stroke="#FAF2F7" stroke-width="0.4"/>
<path d="M36.5 11.8C35.7825 11.8 35.2 11.2175 35.2 10.5V1.5C35.2 0.782454 35.7825 0.2 36.5 0.2C37.2175 0.2 37.8 0.782454 37.8 1.5V10.5C37.8 11.2175 37.2175 11.8 36.5 11.8Z" fill="#9E0059" stroke="#FAF2F7" stroke-width="0.4"/>
<path d="M13.5 38.7349C13.5684 37.4702 13.8281 36.3696 14.2793 35.4331C14.7373 34.4966 15.626 33.6455 16.9453 32.8799L18.9141 31.7417C19.7959 31.229 20.4146 30.7915 20.77 30.4292C21.3306 29.8618 21.6108 29.2124 21.6108 28.481C21.6108 27.6265 21.3545 26.9497 20.8418 26.4507C20.3291 25.9448 19.6455 25.6919 18.791 25.6919C17.5264 25.6919 16.6514 26.1704 16.166 27.1274C15.9062 27.6401 15.7627 28.3511 15.7354 29.2603H13.8589C13.8794 27.9819 14.1152 26.9395 14.5664 26.1328C15.3662 24.7109 16.7778 24 18.8013 24C20.4829 24 21.71 24.4546 22.4824 25.3638C23.2617 26.2729 23.6514 27.2847 23.6514 28.3989C23.6514 29.5747 23.2378 30.5796 22.4106 31.4136C21.9321 31.8989 21.0742 32.4868 19.8369 33.1772L18.4321 33.9565C17.7622 34.3257 17.2358 34.6777 16.853 35.0127C16.1694 35.6074 15.7388 36.2671 15.561 36.9917H23.5796V38.7349H13.5Z" fill="#9E0059"/>
<path d="M30.2139 24.0513C32.1143 24.0513 33.4883 24.834 34.3359 26.3994C34.9922 27.6094 35.3203 29.2671 35.3203 31.3726C35.3203 33.3687 35.0229 35.0195 34.4282 36.3252C33.5669 38.1982 32.1587 39.1348 30.2036 39.1348C28.4399 39.1348 27.1274 38.3691 26.2661 36.8379C25.5483 35.5596 25.1895 33.8438 25.1895 31.6904C25.1895 30.0225 25.4048 28.5903 25.8354 27.394C26.6421 25.1655 28.1016 24.0513 30.2139 24.0513ZM30.1934 37.4531C31.1504 37.4531 31.9126 37.0293 32.48 36.1816C33.0474 35.334 33.3311 33.7549 33.3311 31.4443C33.3311 29.7764 33.126 28.4058 32.7158 27.3325C32.3057 26.2524 31.5093 25.7124 30.3267 25.7124C29.2397 25.7124 28.4434 26.2251 27.9375 27.2505C27.4385 28.269 27.189 29.7729 27.189 31.7622C27.189 33.2593 27.3496 34.4624 27.6709 35.3716C28.1631 36.7593 29.0039 37.4531 30.1934 37.4531Z" fill="#9E0059"/>
</g>
<defs>
<clipPath id="clip0">
<rect width="48" height="48" fill="white"/>
</clipPath>
</defs>
</svg>
