<svg width="15" height="12" viewBox="0 0 15 12" fill="none" xmlns="http://www.w3.org/2000/svg">
<g id="Icon">
<path id="Icon_2" d="M5.09764 11.3613L0.205078 6.49803C0.0683591 6.36131 0 6.18553 0 5.97069C0 5.75585 0.0683591 5.58007 0.205078 5.44335L1.28906 4.38866C1.42578 4.23241 1.59668 4.1543 1.80175 4.1543C2.00683 4.1543 2.1875 4.23241 2.34374 4.38866L5.62499 7.6699L12.6562 0.638671C12.8125 0.482422 12.9931 0.404297 13.1982 0.404297C13.4033 0.404297 13.5742 0.482422 13.7109 0.638671L14.7949 1.69336C14.9316 1.83007 15 2.00586 15 2.2207C15 2.43554 14.9316 2.61132 14.7949 2.74804L6.15233 11.3613C6.01561 11.5176 5.83983 11.5957 5.62499 11.5957C5.41014 11.5957 5.23436 11.5176 5.09764 11.3613Z" fill="#F89C86"/>
</g>
</svg>
