<svg width="18" height="18" viewBox="0 0 18 18" fill="none" xmlns="http://www.w3.org/2000/svg">
<path d="M8.96484 0.1C4.07728 0.1 0.1 4.0922 0.1 9C0.1 13.9078 4.07728 17.9 8.96484 17.9C10.0502 17.9 10.7711 17.6425 11.2499 17.3163C11.7289 16.99 11.9731 16.5898 12.0964 16.2921C12.4642 15.4038 12.2343 14.2914 11.5346 13.5916C10.9944 13.0514 10.9944 12.1732 11.5346 11.633C12.0739 11.0936 12.9765 11.0917 13.5177 11.633C13.5177 11.633 13.5177 11.633 13.5177 11.633M8.96484 0.1L13.447 11.7037L13.5177 11.633M8.96484 0.1C13.8337 0.1 17.7766 4.03596 17.8647 8.83388M8.96484 0.1L17.8647 8.83388M13.5177 11.633C14.2342 12.3494 15.3609 12.5883 16.2524 12.219C17.1494 11.8474 17.5505 11.0317 17.7284 10.2828C17.8171 9.90943 17.849 9.55729 17.8598 9.29429C17.8652 9.16295 17.8653 9.05413 17.8647 8.97612L17.8636 8.88228C17.8635 8.87085 17.8635 8.86034 17.8638 8.85184C17.8639 8.84765 17.8641 8.84273 17.8645 8.83781L17.8645 8.8375C17.8646 8.83699 17.8646 8.83619 17.8647 8.83516M13.5177 11.633L17.8647 8.83516M17.8647 8.83516C17.8648 8.83476 17.8648 8.83434 17.8649 8.83388L17.8647 8.83388M17.8647 8.83516L17.9367 8.83256L17.9647 8.83205L17.9364 8.83245L17.8698 8.81059C17.8668 8.81975 17.8655 8.82836 17.8649 8.83345L17.8647 8.83346L17.8647 8.83388M17.8647 8.83516L17.8647 8.83388M17.8647 8.83516L17.8647 8.83388M14.1221 11.0287L14.1221 11.0288C14.5139 11.4204 15.2752 11.6988 15.9255 11.4295L15.8872 11.3371L15.9255 11.4295C16.5482 11.1715 16.8106 10.5208 16.9229 9.95902C16.9797 9.67467 17 9.4043 17.0069 9.20141C17.0103 9.09981 17.0104 9.01484 17.01 8.95334L17.0094 8.88029L17.0095 8.86048C17.0095 8.85984 17.0095 8.8593 17.0095 8.85883L17.0103 8.85393L17.0101 8.84484C16.9275 4.49329 13.3198 0.954687 8.96484 0.954687C4.54749 0.954687 0.954688 4.56412 0.954688 9C0.954688 13.4359 4.54749 17.0453 8.96484 17.0453C10.1545 17.0453 11.0104 16.6804 11.3068 15.965L11.2144 15.9267L11.3068 15.965C11.5764 15.3144 11.3191 14.5848 10.9303 14.196C10.056 13.3217 10.056 11.9029 10.9303 11.0288L10.9303 11.0287C11.8046 10.1543 13.2477 10.1542 14.1221 11.0287Z" fill="#9E9AA4" stroke="#FBFBFB" stroke-width="0.2"/>
<path d="M14.2734 9.42734C13.4564 9.42734 12.7914 8.7624 12.7914 7.94531C12.7914 7.12823 13.4564 6.46328 14.2734 6.46328C15.0905 6.46328 15.7555 7.12823 15.7555 7.94531C15.7555 8.7624 15.0905 9.42734 14.2734 9.42734ZM14.2734 8.57266C14.6194 8.57266 14.9008 8.29127 14.9008 7.94531C14.9008 7.59936 14.6194 7.31797 14.2734 7.31797C13.9275 7.31797 13.6461 7.59936 13.6461 7.94531C13.6461 8.29127 13.9275 8.57266 14.2734 8.57266Z" fill="#9E9AA4" stroke="#FBFBFB" stroke-width="0.2"/>
<path d="M6.42813 3.72656C6.42813 2.90948 7.09307 2.24453 7.91016 2.24453C8.72724 2.24453 9.39219 2.90948 9.39219 3.72656C9.39219 4.54365 8.72724 5.20859 7.91016 5.20859C7.09307 5.20859 6.42813 4.54365 6.42813 3.72656ZM7.28281 3.72656C7.28281 4.07252 7.5642 4.35391 7.91016 4.35391C8.25611 4.35391 8.5375 4.07252 8.5375 3.72656C8.5375 3.38061 8.25611 3.09922 7.91016 3.09922C7.5642 3.09922 7.28281 3.38061 7.28281 3.72656Z" fill="#9E9AA4" stroke="#FBFBFB" stroke-width="0.2"/>
<path d="M6.22813 6.89062C6.22813 7.70771 5.56318 8.37266 4.74609 8.37266C3.92901 8.37266 3.26406 7.70771 3.26406 6.89062C3.26406 6.07354 3.92901 5.40859 4.74609 5.40859C5.56318 5.40859 6.22813 6.07354 6.22813 6.89062ZM5.37344 6.89062C5.37344 6.54467 5.09205 6.26328 4.74609 6.26328C4.40014 6.26328 4.11875 6.54467 4.11875 6.89062C4.11875 7.23658 4.40014 7.51797 4.74609 7.51797C5.09205 7.51797 5.37344 7.23658 5.37344 6.89062Z" fill="#9E9AA4" stroke="#FBFBFB" stroke-width="0.2"/>
<path d="M3.26406 11.1094C3.26406 10.2923 3.92901 9.62734 4.74609 9.62734C5.56318 9.62734 6.22813 10.2923 6.22813 11.1094C6.22813 11.9265 5.56318 12.5914 4.74609 12.5914C3.92901 12.5914 3.26406 11.9265 3.26406 11.1094ZM4.11875 11.1094C4.11875 11.4553 4.40014 11.7367 4.74609 11.7367C5.09205 11.7367 5.37344 11.4553 5.37344 11.1094C5.37344 10.7634 5.09205 10.482 4.74609 10.482C4.40014 10.482 4.11875 10.7634 4.11875 11.1094Z" fill="#9E9AA4" stroke="#FBFBFB" stroke-width="0.2"/>
<path d="M6.42813 14.2734C6.42813 13.4564 7.09307 12.7914 7.91016 12.7914C8.72724 12.7914 9.39219 13.4564 9.39219 14.2734C9.39219 15.0905 8.72724 15.7555 7.91016 15.7555C7.09307 15.7555 6.42813 15.0905 6.42813 14.2734ZM7.28281 14.2734C7.28281 14.6194 7.5642 14.9008 7.91016 14.9008C8.25611 14.9008 8.5375 14.6194 8.5375 14.2734C8.5375 13.9275 8.25611 13.6461 7.91016 13.6461C7.5642 13.6461 7.28281 13.9275 7.28281 14.2734Z" fill="#9E9AA4" stroke="#FBFBFB" stroke-width="0.2"/>
</svg>
