<svg width="32" height="32" viewBox="0 0 32 32" fill="none" xmlns="http://www.w3.org/2000/svg">
<g clip-path="url(#clip0)">
<path d="M27.4741 24.8586C26.9318 24.859 26.4016 24.6986 25.9505 24.3976C25.4995 24.0966 25.1478 23.6686 24.94 23.1678C24.7322 22.6669 24.6776 22.1156 24.7832 21.5837C24.8887 21.0518 25.1497 20.5632 25.533 20.1796C25.9163 19.796 26.4047 19.5347 26.9365 19.4288C27.4684 19.3228 28.0196 19.377 28.5207 19.5844C29.0217 19.7919 29.45 20.1432 29.7513 20.5941C30.0526 21.0449 30.2134 21.575 30.2134 22.1173C30.2131 22.8439 29.9244 23.5407 29.4108 24.0546C28.8972 24.5686 28.2007 24.8578 27.4741 24.8586ZM27.4741 20.376C27.1296 20.3756 26.7927 20.4774 26.5061 20.6685C26.2195 20.8596 25.996 21.1314 25.8639 21.4495C25.7318 21.7677 25.697 22.1179 25.764 22.4558C25.8309 22.7937 25.9966 23.1042 26.2401 23.3479C26.4835 23.5916 26.7938 23.7577 27.1316 23.825C27.4695 23.8924 27.8197 23.858 28.138 23.7263C28.4563 23.5945 28.7284 23.3713 28.9198 23.0849C29.1112 22.7985 29.2134 22.4618 29.2134 22.1173C29.2132 21.6559 29.03 21.2134 28.7039 20.8869C28.3778 20.5604 27.9355 20.3767 27.4741 20.376Z" fill="#9E0059"/>
<path d="M13.0281 24.8586C12.4858 24.8592 11.9556 24.6988 11.5044 24.3979C11.0532 24.097 10.7015 23.6691 10.4936 23.1682C10.2857 22.6673 10.231 22.1161 10.3365 21.5841C10.4419 21.0522 10.7028 20.5635 11.0861 20.1798C11.4694 19.7962 11.9578 19.5348 12.4897 19.4288C13.0215 19.3228 13.5728 19.377 14.0739 19.5844C14.575 19.7918 15.0033 20.1431 15.3046 20.594C15.6059 21.0449 15.7668 21.575 15.7668 22.1173C15.7663 22.8437 15.4776 23.5403 14.9642 24.0542C14.4508 24.5681 13.7545 24.8574 13.0281 24.8586ZM13.0281 20.376C12.6836 20.3754 12.3467 20.4771 12.06 20.6681C11.7732 20.8592 11.5496 21.1309 11.4174 21.4491C11.2852 21.7672 11.2504 22.1174 11.3173 22.4554C11.3841 22.7933 11.5498 23.1039 11.7932 23.3477C12.0366 23.5915 12.3469 23.7576 12.6848 23.825C13.0226 23.8924 13.3729 23.8581 13.6912 23.7263C14.0096 23.5946 14.2817 23.3714 14.4731 23.085C14.6646 22.7986 14.7668 22.4618 14.7668 22.1173C14.7664 21.656 14.5832 21.2137 14.2573 20.8873C13.9314 20.5609 13.4894 20.377 13.0281 20.376Z" fill="#9E0059"/>
<path d="M31.0807 22.6173H29.7134C29.5808 22.6173 29.4536 22.5646 29.3598 22.4708C29.2661 22.3771 29.2134 22.2499 29.2134 22.1173C29.2134 21.9847 29.2661 21.8575 29.3598 21.7637C29.4536 21.67 29.5808 21.6173 29.7134 21.6173H30.9394V18.966C30.9391 18.6075 30.8473 18.255 30.6727 17.942L27.9661 13.0893C27.9429 13.0479 27.9092 13.0134 27.8683 12.9894C27.8274 12.9653 27.7808 12.9527 27.7334 12.9526H24.0447V21.6193H25.2354C25.368 21.6193 25.4952 21.672 25.589 21.7657C25.6827 21.8595 25.7354 21.9867 25.7354 22.1193C25.7354 22.2519 25.6827 22.3791 25.589 22.4728C25.4952 22.5666 25.368 22.6193 25.2354 22.6193H23.5447C23.4121 22.6193 23.285 22.5666 23.1912 22.4728C23.0974 22.3791 23.0447 22.2519 23.0447 22.1193V12.4526C23.0447 12.32 23.0974 12.1928 23.1912 12.0991C23.285 12.0053 23.4121 11.9526 23.5447 11.9526H27.7334C27.959 11.9525 28.1805 12.0126 28.375 12.1268C28.5696 12.241 28.7301 12.405 28.8401 12.602L31.5461 17.4553C31.8033 17.9172 31.9385 18.4372 31.9387 18.966V21.7593C31.9384 21.9867 31.8479 22.2048 31.687 22.3656C31.5262 22.5264 31.3082 22.6169 31.0807 22.6173Z" fill="#9E0059"/>
<path d="M10.7888 22.6173H5.99475C5.86214 22.6173 5.73497 22.5646 5.6412 22.4709C5.54743 22.3771 5.49475 22.2499 5.49475 22.1173V18.272C5.49475 18.1394 5.54743 18.0122 5.6412 17.9184C5.73497 17.8246 5.86214 17.772 5.99475 17.772C6.12736 17.772 6.25454 17.8246 6.34831 17.9184C6.44208 18.0122 6.49475 18.1394 6.49475 18.272V21.6173H10.7888C10.9214 21.6173 11.0485 21.67 11.1423 21.7638C11.2361 21.8575 11.2888 21.9847 11.2888 22.1173C11.2888 22.2499 11.2361 22.3771 11.1423 22.4709C11.0485 22.5646 10.9214 22.6173 10.7888 22.6173Z" fill="#9E0059"/>
<path d="M5.99475 16.498C5.86214 16.498 5.73497 16.4453 5.6412 16.3515C5.54743 16.2577 5.49475 16.1306 5.49475 15.998V12.6406C5.49475 12.508 5.54743 12.3808 5.6412 12.2871C5.73497 12.1933 5.86214 12.1406 5.99475 12.1406C6.12736 12.1406 6.25454 12.1933 6.34831 12.2871C6.44208 12.3808 6.49475 12.508 6.49475 12.6406V16C6.49422 16.1322 6.44131 16.2589 6.3476 16.3522C6.25389 16.4455 6.12702 16.498 5.99475 16.498Z" fill="#9E0059"/>
<path d="M23.5448 22.6173H15.2668C15.1341 22.6173 15.007 22.5646 14.9132 22.4708C14.8194 22.3771 14.7668 22.2499 14.7668 22.1173C14.7668 21.9847 14.8194 21.8575 14.9132 21.7637C15.007 21.67 15.1341 21.6173 15.2668 21.6173H23.0448V8.53662H6.49475V10.596C6.49475 10.7286 6.44208 10.8557 6.34831 10.9495C6.25454 11.0433 6.12736 11.096 5.99475 11.096C5.86215 11.096 5.73497 11.0433 5.6412 10.9495C5.54743 10.8557 5.49475 10.7286 5.49475 10.596V8.44462C5.49511 8.2038 5.59098 7.97295 5.76133 7.80272C5.93168 7.6325 6.1626 7.5368 6.40342 7.53662H23.1368C23.3775 7.53697 23.6082 7.63275 23.7784 7.80296C23.9486 7.97316 24.0444 8.20391 24.0448 8.44462V22.1173C24.0448 22.2499 23.9921 22.3771 23.8983 22.4708C23.8045 22.5646 23.6774 22.6173 23.5448 22.6173Z" fill="#9E0059"/>
<path d="M7.97139 18.772H1.6254C1.49279 18.772 1.36561 18.7193 1.27184 18.6255C1.17808 18.5317 1.1254 18.4046 1.1254 18.272C1.1254 18.1394 1.17808 18.0122 1.27184 17.9184C1.36561 17.8246 1.49279 17.772 1.6254 17.772H7.97139C8.104 17.772 8.23118 17.8246 8.32495 17.9184C8.41871 18.0122 8.47139 18.1394 8.47139 18.272C8.47139 18.4046 8.41871 18.5317 8.32495 18.6255C8.23118 18.7193 8.104 18.772 7.97139 18.772Z" fill="#9E0059"/>
<path d="M13.0281 16.498H4.17274C4.04013 16.498 3.91295 16.4453 3.81918 16.3515C3.72542 16.2577 3.67274 16.1306 3.67274 15.998C3.67274 15.8653 3.72542 15.7382 3.81918 15.6444C3.91295 15.5506 4.04013 15.498 4.17274 15.498H13.0281C13.1607 15.498 13.2879 15.5506 13.3816 15.6444C13.4754 15.7382 13.5281 15.8653 13.5281 15.998C13.5281 16.1306 13.4754 16.2577 13.3816 16.3515C13.2879 16.4453 13.1607 16.498 13.0281 16.498Z" fill="#9E0059"/>
<path d="M3.89745 13.858H0.439453C0.306845 13.858 0.179668 13.8053 0.0858997 13.7115C-0.00786847 13.6177 -0.0605469 13.4906 -0.0605469 13.358C-0.0605469 13.2253 -0.00786847 13.0982 0.0858997 13.0044C0.179668 12.9106 0.306845 12.858 0.439453 12.858H3.89745C4.03006 12.858 4.15724 12.9106 4.25101 13.0044C4.34477 13.0982 4.39745 13.2253 4.39745 13.358C4.39745 13.4906 4.34477 13.6177 4.25101 13.7115C4.15724 13.8053 4.03006 13.858 3.89745 13.858Z" fill="#9E0059"/>
<path d="M9.44212 11.096H3.33812C3.20552 11.096 3.07834 11.0433 2.98457 10.9495C2.8908 10.8557 2.83812 10.7286 2.83812 10.596C2.83812 10.4634 2.8908 10.3362 2.98457 10.2424C3.07834 10.1486 3.20552 10.096 3.33812 10.096H9.44212C9.57473 10.096 9.70191 10.1486 9.79568 10.2424C9.88944 10.3362 9.94212 10.4634 9.94212 10.596C9.94212 10.7286 9.88944 10.8557 9.79568 10.9495C9.70191 11.0433 9.57473 11.096 9.44212 11.096Z" fill="#9E0059"/>
</g>
<defs>
<clipPath id="clip0">
<rect width="32" height="32" fill="white"/>
</clipPath>
</defs>
</svg>
