<svg width="24" height="24" viewBox="0 0 24 24" fill="none" xmlns="http://www.w3.org/2000/svg">
<path d="M15.73 23.0271H14.7765C14.6905 23.0271 14.608 22.9929 14.5471 22.9321C14.4863 22.8713 14.4521 22.7888 14.4521 22.7027C14.4521 22.6167 14.4863 22.5342 14.5471 22.4734C14.608 22.4126 14.6905 22.3784 14.7765 22.3784H15.73C15.816 22.3784 15.8985 22.4126 15.9593 22.4734C16.0201 22.5342 16.0543 22.6167 16.0543 22.7027C16.0543 22.7888 16.0201 22.8713 15.9593 22.9321C15.8985 22.9929 15.816 23.0271 15.73 23.0271Z" fill="#9E9AA4"/>
<path d="M12.5057 23.0271H1.29709C1.12505 23.0271 0.960067 22.9587 0.838422 22.8371C0.716777 22.7154 0.648438 22.5505 0.648438 22.3784V10.7027C0.648438 10.6167 0.682607 10.5342 0.74343 10.4734C0.804252 10.4126 0.886746 10.3784 0.972762 10.3784C1.05878 10.3784 1.14127 10.4126 1.20209 10.4734C1.26292 10.5342 1.29709 10.6167 1.29709 10.7027V22.3784H12.5057C12.5918 22.3784 12.6742 22.4126 12.7351 22.4734C12.7959 22.5342 12.8301 22.6167 12.8301 22.7027C12.8301 22.7888 12.7959 22.8713 12.7351 22.9321C12.6742 22.9929 12.5918 23.0271 12.5057 23.0271Z" fill="#9E9AA4"/>
<path d="M22.7027 23.0271H21.2237C21.1377 23.0271 21.0552 22.9929 20.9944 22.9321C20.9336 22.8713 20.8994 22.7888 20.8994 22.7027C20.8994 22.6167 20.9336 22.5342 20.9944 22.4734C21.0552 22.4126 21.1377 22.3784 21.2237 22.3784H22.7027V11.0271H13.9459C13.8599 11.0271 13.7774 10.9929 13.7166 10.9321C13.6558 10.8713 13.6216 10.7888 13.6216 10.7027C13.6216 10.6167 13.6558 10.5342 13.7166 10.4734C13.7774 10.4126 13.8599 10.3784 13.9459 10.3784H22.7027C22.8747 10.3784 23.0397 10.4468 23.1613 10.5684C23.283 10.69 23.3513 10.855 23.3513 11.0271V22.3784C23.3513 22.5505 23.283 22.7154 23.1613 22.8371C23.0397 22.9587 22.8747 23.0271 22.7027 23.0271Z" fill="#9E9AA4"/>
<path d="M18.9504 23.0271H18.0001C17.9141 23.0271 17.8316 22.9929 17.7708 22.9321C17.71 22.8713 17.6758 22.7888 17.6758 22.7027C17.6758 22.6167 17.71 22.5342 17.7708 22.4734C17.8316 22.4126 17.9141 22.3784 18.0001 22.3784H18.9504C19.0364 22.3784 19.1189 22.4126 19.1797 22.4734C19.2405 22.5342 19.2747 22.6167 19.2747 22.7027C19.2747 22.7888 19.2405 22.8713 19.1797 22.9321C19.1189 22.9929 19.0364 23.0271 18.9504 23.0271Z" fill="#9E9AA4"/>
<path d="M21.0813 11.027H17.5138C17.4278 11.027 17.3453 10.9928 17.2844 10.932C17.2236 10.8712 17.1895 10.7887 17.1895 10.7027V1.94591C17.1895 1.85989 17.2236 1.7774 17.2844 1.71657C17.3453 1.65575 17.4278 1.62158 17.5138 1.62158H21.0813C21.1674 1.62158 21.2498 1.65575 21.3107 1.71657C21.3715 1.7774 21.4057 1.85989 21.4057 1.94591V10.7027C21.4057 10.7887 21.3715 10.8712 21.3107 10.932C21.2498 10.9928 21.1674 11.027 21.0813 11.027ZM17.8381 10.3783H20.757V2.27023H17.8381V10.3783Z" fill="#9E9AA4"/>
<path d="M21.0813 4.21603H17.5138C17.4278 4.21603 17.3453 4.18186 17.2844 4.12104C17.2236 4.06022 17.1895 3.97772 17.1895 3.89171C17.1895 3.80569 17.2236 3.7232 17.2844 3.66238C17.3453 3.60155 17.4278 3.56738 17.5138 3.56738H21.0813C21.1674 3.56738 21.2498 3.60155 21.3107 3.66238C21.3715 3.7232 21.4057 3.80569 21.4057 3.89171C21.4057 3.97772 21.3715 4.06022 21.3107 4.12104C21.2498 4.18186 21.1674 4.21603 21.0813 4.21603Z" fill="#9E9AA4"/>
<path d="M7.45945 11.0271C7.38488 11.0272 7.31255 11.0016 7.25466 10.9546C7.19676 10.9076 7.15684 10.842 7.1416 10.769C7.12637 10.696 7.13676 10.62 7.17103 10.5538C7.20529 10.4875 7.26134 10.4351 7.32972 10.4054L13.8162 7.59446C13.8656 7.57291 13.9195 7.564 13.9732 7.56853C14.0269 7.57306 14.0786 7.59089 14.1236 7.6204C14.1687 7.64992 14.2057 7.69019 14.2313 7.73758C14.2569 7.78498 14.2703 7.838 14.2703 7.89186V10.7028C14.2703 10.7888 14.2361 10.8713 14.1753 10.9321C14.1144 10.9929 14.032 11.0271 13.9459 11.0271C13.8599 11.0271 13.7774 10.9929 13.7166 10.9321C13.6558 10.8713 13.6216 10.7888 13.6216 10.7028V8.38581L7.58918 11.0002C7.54833 11.0182 7.50411 11.0274 7.45945 11.0271Z" fill="#9E9AA4"/>
<path d="M0.973124 11.0271C0.898549 11.0272 0.826223 11.0016 0.768329 10.9546C0.710434 10.9076 0.670509 10.842 0.655276 10.769C0.640043 10.696 0.650434 10.62 0.684699 10.5538C0.718964 10.4875 0.775008 10.4351 0.843394 10.4054L7.32988 7.59446C7.37925 7.57291 7.43321 7.564 7.48688 7.56853C7.54056 7.57306 7.59226 7.59089 7.63732 7.6204C7.68238 7.64992 7.71938 7.69019 7.74497 7.73758C7.77057 7.78498 7.78396 7.838 7.78394 7.89186V10.7028C7.78394 10.7888 7.74977 10.8713 7.68894 10.9321C7.62812 10.9929 7.54563 11.0271 7.45961 11.0271C7.37359 11.0271 7.2911 10.9929 7.23028 10.9321C7.16946 10.8713 7.13529 10.7888 7.13529 10.7028V8.38581L1.10285 11.0002C1.062 11.0182 1.01778 11.0274 0.973124 11.0271Z" fill="#9E9AA4"/>
<path d="M8.43225 23.027H3.89171C3.80569 23.027 3.7232 22.9928 3.66238 22.932C3.60155 22.8712 3.56738 22.7887 3.56738 22.7027V16.8649C3.56738 16.7788 3.60155 16.6963 3.66238 16.6355C3.7232 16.5747 3.80569 16.5405 3.89171 16.5405H8.43225C8.51827 16.5405 8.60076 16.5747 8.66159 16.6355C8.72241 16.6963 8.75658 16.7788 8.75658 16.8649V22.7027C8.75658 22.7887 8.72241 22.8712 8.66159 22.932C8.60076 22.9928 8.51827 23.027 8.43225 23.027ZM4.21603 22.3784H8.10793V17.1892H4.21603V22.3784Z" fill="#9E9AA4"/>
<path d="M20.7571 17.8919H19.0274C18.9414 17.8919 18.8589 17.8578 18.7981 17.7969C18.7373 17.7361 18.7031 17.6536 18.7031 17.5676V15.838C18.7031 15.752 18.7373 15.6695 18.7981 15.6087C18.8589 15.5478 18.9414 15.5137 19.0274 15.5137H20.7571C20.8431 15.5137 20.9256 15.5478 20.9864 15.6087C21.0472 15.6695 21.0814 15.752 21.0814 15.838V17.5676C21.0814 17.6536 21.0472 17.7361 20.9864 17.7969C20.9256 17.8578 20.8431 17.8919 20.7571 17.8919ZM19.3518 17.2433H20.4327V16.1623H19.3518V17.2433Z" fill="#9E9AA4"/>
<path d="M17.0811 17.8919H15.3512C15.2652 17.8919 15.1827 17.8578 15.1218 17.7969C15.061 17.7361 15.0269 17.6536 15.0269 17.5676V15.838C15.0269 15.752 15.061 15.6695 15.1218 15.6087C15.1827 15.5478 15.2652 15.5137 15.3512 15.5137H17.0811C17.1671 15.5137 17.2496 15.5478 17.3105 15.6087C17.3713 15.6695 17.4055 15.752 17.4055 15.838V17.5676C17.4055 17.6536 17.3713 17.7361 17.3105 17.7969C17.2496 17.8578 17.1671 17.8919 17.0811 17.8919ZM15.6755 17.2433H16.7568V16.1623H15.6755V17.2433Z" fill="#9E9AA4"/>
<path d="M13.4055 17.8919H11.6759C11.5899 17.8919 11.5074 17.8578 11.4466 17.7969C11.3857 17.7361 11.3516 17.6536 11.3516 17.5676V15.838C11.3516 15.752 11.3857 15.6695 11.4466 15.6087C11.5074 15.5478 11.5899 15.5137 11.6759 15.5137H13.4055C13.4915 15.5137 13.574 15.5478 13.6348 15.6087C13.6956 15.6695 13.7298 15.752 13.7298 15.838V17.5676C13.7298 17.6536 13.6956 17.7361 13.6348 17.7969C13.574 17.8578 13.4915 17.8919 13.4055 17.8919ZM12.0002 17.2433H13.0812V16.1623H12.0002V17.2433Z" fill="#9E9AA4"/>
</svg>
