<svg width="29" height="29" viewBox="0 0 29 29" fill="none" xmlns="http://www.w3.org/2000/svg">
<path d="M14.0225 6.9864L14.3004 4.12386C14.4104 2.97353 15.4846 2.19294 16.5697 2.47328C18.2021 2.89619 19.3488 4.41265 19.3488 6.15145V9.81874C19.3488 10.6344 19.3488 11.0428 19.5252 11.3412C19.6255 11.5116 19.7633 11.6554 19.9276 11.7581C20.2176 11.9406 20.6127 11.9406 21.4018 11.9406H21.8803C23.9381 11.9406 24.9664 11.9406 25.5995 12.4118C26.0744 12.7659 26.4091 13.2842 26.542 13.8715C26.7185 14.6569 26.3233 15.6393 25.5319 17.6016L25.138 18.5804C24.9095 19.1472 24.816 19.7595 24.8649 20.3687C25.1452 23.8414 22.3914 26.7668 19.025 26.5747L6.42933 25.8509C5.05303 25.7724 4.36549 25.7325 3.74441 25.1827C3.12212 24.6329 3.00491 24.0662 2.7717 22.934C2.27536 20.5253 2.29801 18.0385 2.83816 15.6393C3.18012 14.1313 4.62045 13.3193 6.10791 13.5126C10.0519 14.0201 13.6274 11.073 14.0225 6.98761V6.9864Z" stroke="#9E0059" stroke-width="1.5" stroke-linecap="round" stroke-linejoin="round"/>
<path d="M8.45829 13.896L8.29275 14.4482C7.22108 18.0206 7.2789 21.8368 8.45829 25.3752" stroke="#9E0059" stroke-width="1.5" stroke-linecap="round" stroke-linejoin="round"/>
</svg>
