<svg width="32" height="32" viewBox="0 0 32 32" fill="none" xmlns="http://www.w3.org/2000/svg">
<path d="M23.794 13.6687C23.794 9.36875 20.294 5.875 16.0003 5.875C11.7065 5.875 8.20654 9.36875 8.20654 13.6687C8.20654 17.9625 11.7003 21.4625 16.0003 21.4625C20.3003 21.4625 23.794 17.9625 23.794 13.6687ZM16.0003 20.4562C12.2565 20.4562 9.20654 17.4125 9.20654 13.6625C9.20654 9.9125 12.2565 6.875 16.0003 6.875C19.744 6.875 22.794 9.91875 22.794 13.6687C22.794 17.4187 19.744 20.4562 16.0003 20.4562Z" fill="#9E0059"/>
<path d="M25.5502 21.7312C25.8314 21.5874 26.0814 21.3999 26.2752 21.1374C26.7814 20.4437 26.6627 19.5374 26.5502 18.6562C26.4752 18.0874 26.4002 17.4937 26.5314 17.0937C26.6502 16.7187 27.0502 16.2999 27.4314 15.8999C28.0252 15.2749 28.6939 14.5687 28.6939 13.6749C28.6939 12.7812 28.0314 12.0624 27.4377 11.4374C27.0564 11.0312 26.6564 10.6187 26.5377 10.2437C26.4064 9.84365 26.4814 9.2499 26.5564 8.68115C26.6689 7.7999 26.7814 6.89365 26.2814 6.1999C25.7752 5.4999 24.8689 5.33115 23.9939 5.1624C23.4314 5.05615 22.8502 4.9499 22.5189 4.70615C22.1877 4.46865 21.9127 3.95615 21.6439 3.45615C21.2377 2.70615 20.7689 1.85615 19.9377 1.58115C19.1377 1.31865 18.3189 1.70615 17.5252 2.08115C16.9939 2.33115 16.4502 2.5874 16.0127 2.5874C15.5752 2.5874 15.0314 2.33115 14.5002 2.08115C13.7064 1.70615 12.8877 1.31865 12.0877 1.58115C11.2502 1.8499 10.8127 2.66865 10.3814 3.45615C10.1127 3.9499 9.83145 4.46865 9.50645 4.70615C9.16895 4.9499 8.59395 5.0624 8.03145 5.1624C7.15645 5.3249 6.2502 5.4999 5.74395 6.1999C5.2377 6.89365 5.35645 7.7999 5.46895 8.68115C5.54395 9.2499 5.61895 9.84365 5.4877 10.2437C5.36895 10.6187 4.96895 11.0374 4.5877 11.4374C3.99395 12.0624 3.3252 12.7687 3.3252 13.6624C3.3252 14.5562 4.0002 15.2624 4.5877 15.8874C4.96895 16.2937 5.36895 16.7062 5.4877 17.0812C5.61895 17.4811 5.54395 18.0749 5.46895 18.6437C5.35645 19.5249 5.24395 20.4312 5.74395 21.1249C5.9377 21.3874 6.1877 21.5812 6.46895 21.7187L3.74395 26.4374C3.64395 26.6124 3.65645 26.8312 3.78145 26.9937C3.90645 27.1562 4.1127 27.2249 4.30645 27.1749L8.33145 26.0937L9.4127 30.1187C9.4627 30.3124 9.63145 30.4562 9.83145 30.4874C9.85645 30.4874 9.8752 30.4937 9.89395 30.4937C10.0689 30.4937 10.2377 30.3999 10.3252 30.2437L12.8814 25.8124C13.4252 25.7499 13.9752 25.4937 14.5064 25.2437C15.0377 24.9937 15.5814 24.7374 16.0189 24.7374C16.4564 24.7374 17.0002 24.9937 17.5314 25.2437C18.0627 25.4937 18.6127 25.7562 19.1564 25.8124L21.7127 30.2437C21.8002 30.3999 21.9689 30.4937 22.1439 30.4937C22.1627 30.4937 22.1877 30.4937 22.2064 30.4874C22.4064 30.4624 22.5689 30.3187 22.6252 30.1187L23.7064 26.0937L27.7314 27.1749C27.9252 27.2249 28.1314 27.1562 28.2564 26.9937C28.3814 26.8312 28.3939 26.6124 28.2939 26.4374L25.5502 21.7312ZM10.0439 28.7062L9.1502 25.3624C9.08145 25.0937 8.80645 24.9374 8.5377 25.0062L5.19395 25.8999L7.41895 22.0437C7.6127 22.0874 7.8127 22.1249 8.0127 22.1624C8.5752 22.2687 9.15645 22.3749 9.4877 22.6187C9.81895 22.8561 10.0939 23.3687 10.3627 23.8687C10.7252 24.5374 11.1314 25.2812 11.8064 25.6312L10.0439 28.7062ZM16.0002 23.7437C15.3377 23.7437 14.6877 24.0499 14.0627 24.3437C13.4439 24.6374 12.8064 24.9374 12.3877 24.7999C11.9314 24.6499 11.5877 24.0124 11.2502 23.3999C10.9252 22.8062 10.5939 22.1937 10.0814 21.8187C9.5627 21.4437 8.86895 21.3124 8.2002 21.1874C7.51895 21.0562 6.8127 20.9249 6.53145 20.5499C6.2627 20.1812 6.3502 19.4687 6.4377 18.7874C6.5252 18.1062 6.6127 17.4062 6.4127 16.7874C6.21895 16.1999 5.74395 15.6937 5.2877 15.2124C4.8002 14.6999 4.29395 14.1687 4.29395 13.6749C4.29395 13.1812 4.8002 12.6499 5.2877 12.1374C5.7502 11.6499 6.2252 11.1499 6.4127 10.5624C6.6127 9.94365 6.5252 9.24365 6.4377 8.5624C6.3502 7.8749 6.2627 7.16865 6.53145 6.7999C6.80645 6.41865 7.5127 6.2874 8.2002 6.1624C8.86895 6.0374 9.5627 5.90615 10.0814 5.53115C10.5939 5.1624 10.9252 4.54365 11.2502 3.9499C11.5877 3.33115 11.9314 2.6999 12.3877 2.5499C12.8127 2.4124 13.4502 2.7124 14.0627 3.00615C14.6877 3.2999 15.3377 3.60615 16.0002 3.60615C16.6627 3.60615 17.3127 3.2999 17.9377 3.00615C18.5564 2.7124 19.1939 2.4124 19.6127 2.5499C20.0689 2.6999 20.4127 3.3374 20.7502 3.9499C21.0752 4.54365 21.4064 5.15615 21.9189 5.53115C22.4377 5.90615 23.1314 6.0374 23.8002 6.1624C24.4814 6.29365 25.1877 6.4249 25.4689 6.7999C25.7377 7.16865 25.6502 7.88115 25.5627 8.5624C25.4752 9.24365 25.3877 9.94365 25.5877 10.5624C25.7814 11.1499 26.2564 11.6562 26.7127 12.1374C27.2002 12.6499 27.7064 13.1812 27.7064 13.6749C27.7064 14.1687 27.2002 14.6999 26.7127 15.2124C26.2502 15.6999 25.7752 16.1999 25.5877 16.7874C25.3877 17.4062 25.4752 18.1062 25.5627 18.7874C25.6502 19.4749 25.7377 20.1812 25.4689 20.5499C25.1939 20.9312 24.4877 21.0624 23.8002 21.1874C23.1314 21.3124 22.4377 21.4437 21.9189 21.8187C21.4064 22.1874 21.0752 22.8062 20.7502 23.3999C20.4127 24.0187 20.0689 24.6499 19.6127 24.7999C19.1877 24.9374 18.5502 24.6374 17.9377 24.3437C17.3127 24.0499 16.6627 23.7437 16.0002 23.7437ZM23.4627 25.0062C23.1939 24.9374 22.9189 25.0937 22.8502 25.3624L21.9564 28.7062L20.1877 25.6437C20.8564 25.2999 21.2502 24.5812 21.6314 23.8812C21.9002 23.3874 22.1814 22.8687 22.5064 22.6312C22.8439 22.3874 23.4189 22.2749 23.9814 22.1749C24.1814 22.1374 24.3814 22.0999 24.5752 22.0562L26.8002 25.9124L23.4627 25.0062Z" fill="#9E0059"/>
<path d="M20.6879 10.6062C20.4941 10.4125 20.1754 10.4125 19.9816 10.6062L14.9191 15.6687L12.0254 12.775C11.8316 12.5812 11.5129 12.5812 11.3191 12.775C11.1254 12.9687 11.1254 13.2875 11.3191 13.4813L14.5691 16.7313C14.6629 16.825 14.7879 16.875 14.9254 16.875C15.0629 16.875 15.1879 16.825 15.2816 16.7313L20.6879 11.3125C20.8816 11.1188 20.8816 10.8 20.6879 10.6062Z" fill="#9E0059"/>
</svg>
