<svg width="40" height="40" viewBox="0 0 40 40" fill="none" xmlns="http://www.w3.org/2000/svg">
<path d="M20.0001 32.5625C19.5933 32.5625 19.2012 32.4151 18.8956 32.1474C17.7413 31.1382 16.6285 30.1897 15.6467 29.3531L15.6417 29.3488C12.7633 26.8958 10.2776 24.7774 8.54813 22.6907C6.61484 20.3578 5.71436 18.146 5.71436 15.7296C5.71436 13.382 6.51937 11.2161 7.98094 9.63069C9.45995 8.02655 11.4894 7.14307 13.696 7.14307C15.3453 7.14307 16.8557 7.66448 18.1851 8.69271C18.8561 9.21172 19.4643 9.84692 20.0001 10.5878C20.5361 9.84692 21.144 9.21172 21.8152 8.69271C23.1447 7.66448 24.6551 7.14307 26.3043 7.14307C28.5108 7.14307 30.5404 8.02655 32.0194 9.63069C33.481 11.2161 34.2858 13.382 34.2858 15.7296C34.2858 18.146 33.3855 20.3578 31.4522 22.6905C29.7228 24.7774 27.2373 26.8956 24.3593 29.3483C23.3758 30.1862 22.2612 31.1362 21.1044 32.1479C20.799 32.4151 20.4066 32.5625 20.0001 32.5625ZM13.696 8.81674C11.9624 8.81674 10.3698 9.50862 9.21123 10.7651C8.03544 12.0405 7.38781 13.8035 7.38781 15.7296C7.38781 17.7619 8.14312 19.5794 9.83663 21.6228C11.4735 23.5979 13.9081 25.6727 16.7271 28.0751L16.7323 28.0794C17.7178 28.9193 18.835 29.8715 19.9977 30.8881C21.1674 29.8695 22.2863 28.9158 23.2737 28.0746C26.0925 25.6723 28.5269 23.5979 30.1637 21.6228C31.857 19.5794 32.6123 17.7619 32.6123 15.7296C32.6123 13.8035 31.9647 12.0405 30.7889 10.7651C29.6305 9.50862 28.0377 8.81674 26.3043 8.81674C25.0344 8.81674 23.8684 9.22044 22.8389 10.0165C21.9214 10.7263 21.2822 11.6235 20.9075 12.2513C20.7148 12.5741 20.3757 12.7668 20.0001 12.7668C19.6245 12.7668 19.2853 12.5741 19.0926 12.2513C18.7181 11.6235 18.079 10.7263 17.1613 10.0165C16.1317 9.22044 14.9658 8.81674 13.696 8.81674Z" fill="#9E9AA4"/>
</svg>
