<svg width="17" height="15" viewBox="0 0 17 15" fill="none" xmlns="http://www.w3.org/2000/svg">
<path d="M8.5 15C8.25798 15 8.02465 14.913 7.84281 14.7551C7.15605 14.1595 6.49393 13.5998 5.90977 13.1062L5.90678 13.1036C4.1941 11.6561 2.71513 10.406 1.6861 9.17466C0.535789 7.79804 0 6.49281 0 5.06693C0 3.68157 0.478981 2.40348 1.34862 1.46794C2.22863 0.521344 3.43613 0 4.74908 0C5.73039 0 6.62908 0.307687 7.42012 0.914443C7.81934 1.22071 8.1812 1.59555 8.5 2.03277C8.81893 1.59555 9.18066 1.22071 9.58001 0.914443C10.371 0.307687 11.2697 0 12.251 0C13.5639 0 14.7715 0.521344 15.6515 1.46794C16.5211 2.40348 17 3.68157 17 5.06693C17 6.49281 16.4643 7.79804 15.314 9.17453C14.285 10.406 12.8062 11.656 11.0937 13.1033C10.5085 13.5978 9.84538 14.1584 9.15706 14.7553C8.97535 14.913 8.74189 15 8.5 15ZM4.74908 0.987634C3.71758 0.987634 2.77 1.39591 2.08064 2.13734C1.38104 2.88997 0.995705 3.93034 0.995705 5.06693C0.995705 6.26616 1.44511 7.3387 2.45275 8.54449C3.42647 9.70979 4.87471 10.9339 6.55157 12.3511L6.55256 12.352L6.55567 12.3546C7.14204 12.8502 7.80675 13.412 8.49857 14.012C9.19454 13.4109 9.86029 12.8481 10.4478 12.3517C10.4493 12.3505 10.4508 12.3492 10.4524 12.3479C12.1276 10.9319 13.5743 9.70897 14.5474 8.54449C15.5549 7.3387 16.0043 6.26616 16.0043 5.06693C16.0043 3.93034 15.619 2.88997 14.9194 2.13734C14.2301 1.39591 13.2824 0.987634 12.251 0.987634C11.4954 0.987634 10.8017 1.22586 10.1891 1.69562C9.64317 2.11445 9.26289 2.6439 9.03994 3.01436C8.92529 3.20486 8.72347 3.31857 8.5 3.31857C8.27653 3.31857 8.07471 3.20486 7.96006 3.01436C7.73724 2.6439 7.35696 2.11445 6.81092 1.69562C6.19835 1.22586 5.50459 0.987634 4.74908 0.987634Z" fill="#9E0059"/>
<path d="M4.74908 0.987634C3.71758 0.987634 2.77 1.39591 2.08064 2.13734C1.38104 2.88997 0.995705 3.93034 0.995705 5.06693C0.995705 6.26616 1.44511 7.3387 2.45275 8.54449C3.42647 9.70979 4.87471 10.9339 6.55157 12.3511L6.55256 12.352L6.55567 12.3546C7.14204 12.8502 7.80675 13.412 8.49857 14.012C9.19454 13.4109 9.86029 12.8481 10.4478 12.3517L10.4524 12.3479C12.1276 10.9319 13.5743 9.70897 14.5474 8.54449C15.5549 7.3387 16.0043 6.26616 16.0043 5.06693C16.0043 3.93034 15.619 2.88997 14.9194 2.13734C14.2301 1.39591 13.2824 0.987634 12.251 0.987634C11.4954 0.987634 10.8017 1.22586 10.1891 1.69562C9.64317 2.11445 9.26289 2.6439 9.03994 3.01436C8.92529 3.20486 8.72347 3.31857 8.5 3.31857C8.27653 3.31857 8.07471 3.20486 7.96006 3.01436C7.73724 2.6439 7.35696 2.11445 6.81092 1.69562C6.19835 1.22586 5.50459 0.987634 4.74908 0.987634Z" fill="#9E0059"/>
</svg>
