<svg width="24" height="24" viewBox="0 0 24 24" fill="none" xmlns="http://www.w3.org/2000/svg">
<path d="M2.25 0.1H21.75C22.9374 0.1 23.9 1.06257 23.9 2.25V21.75C23.9 22.9374 22.9374 23.9 21.75 23.9H2.25C1.06257 23.9 0.1 22.9374 0.1 21.75V2.25C0.1 1.06257 1.06257 0.1 2.25 0.1ZM21.75 22.6C22.2195 22.6 22.6 22.2195 22.6 21.75V2.25C22.6 1.78054 22.2195 1.4 21.75 1.4H2.25C1.78054 1.4 1.4 1.78054 1.4 2.25V21.75C1.4 22.2195 1.78054 22.6 2.25 22.6H21.75Z" fill="#9E9AA4" stroke="#FBFBFB" stroke-width="0.2"/>
<path d="M16.2827 12.9674C15.9902 12.6766 15.5178 12.6766 15.2252 12.9674L13.5002 14.6924L10.2827 11.4749C9.99016 11.1841 9.51776 11.1841 9.22521 11.4749L3.97521 16.7249C3.68524 17.0207 3.68988 17.4956 3.98566 17.7855C4.12324 17.9204 4.30751 17.9972 4.50021 17.9999H19.5002C19.9144 18.0023 20.2521 17.6685 20.2546 17.2543C20.2557 17.0528 20.1758 16.8593 20.0327 16.7174L16.2827 12.9674Z" fill="#9E9AA4"/>
<path d="M14.25 10.5C15.4926 10.5 16.5 9.49264 16.5 8.25C16.5 7.00736 15.4926 6 14.25 6C13.0074 6 12 7.00736 12 8.25C12 9.49264 13.0074 10.5 14.25 10.5Z" fill="#9E9AA4"/>
</svg>
