<svg width="32" height="32" viewBox="0 0 32 32" fill="none" xmlns="http://www.w3.org/2000/svg">
<path d="M16 32C24.8366 32 32 24.8366 32 16C32 7.16344 24.8366 0 16 0C7.16344 0 0 7.16344 0 16C0 24.8366 7.16344 32 16 32Z" fill="url(#paint0_linear)"/>
<path d="M19.3991 7.11084H12.6079C9.57861 7.11084 7.11816 9.57128 7.11816 12.6006V19.3917C7.11816 22.4211 9.57861 24.8815 12.6079 24.8815H19.3991C22.4284 24.8815 24.8888 22.4211 24.8888 19.3917V12.6006C24.8888 9.57128 22.4284 7.11084 19.3991 7.11084ZM22.9048 19.3988C22.9048 21.3331 21.3333 22.9117 19.3919 22.9117H12.6008C10.6666 22.9117 9.08794 21.3402 9.08794 19.3988V12.6077C9.08794 10.6735 10.6595 9.09484 12.6008 9.09484H19.3919C21.3262 9.09484 22.9048 10.6664 22.9048 12.6077V19.3988Z" fill="white"/>
<path d="M16.0001 11.4561C13.4969 11.4561 11.4561 13.4969 11.4561 16.0001C11.4561 18.5032 13.4969 20.5441 16.0001 20.5441C18.5032 20.5441 20.5441 18.5032 20.5441 16.0001C20.5441 13.4969 18.5032 11.4561 16.0001 11.4561ZM16.0001 18.7592C14.4783 18.7592 13.2409 17.5218 13.2409 16.0001C13.2409 14.4783 14.4783 13.2409 16.0001 13.2409C17.5218 13.2409 18.7592 14.4783 18.7592 16.0001C18.7592 17.5218 17.5218 18.7592 16.0001 18.7592Z" fill="white"/>
<path d="M20.89 11.9537C21.3086 11.8858 21.593 11.4914 21.5251 11.0728C21.4573 10.6542 21.0629 10.3698 20.6442 10.4377C20.2256 10.5055 19.9412 10.8999 20.0091 11.3186C20.077 11.7372 20.4714 12.0216 20.89 11.9537Z" fill="white"/>
<defs>
<linearGradient id="paint0_linear" x1="3.81717" y1="28.1828" x2="26.555" y2="5.44505" gradientUnits="userSpaceOnUse">
<stop stop-color="#FEE411"/>
<stop offset="0.0518459" stop-color="#FEDB16"/>
<stop offset="0.1381" stop-color="#FEC125"/>
<stop offset="0.2481" stop-color="#FE983D"/>
<stop offset="0.3762" stop-color="#FE5F5E"/>
<stop offset="0.5" stop-color="#FE2181"/>
<stop offset="1" stop-color="#9000DC"/>
</linearGradient>
</defs>
</svg>
