<svg width="246" height="28" viewBox="0 0 246 28" fill="none" xmlns="http://www.w3.org/2000/svg">
<path d="M13.9433 28C11.9685 28 10.1309 27.6569 8.43048 26.9706C6.75743 26.2569 5.29009 25.2824 4.02845 24.0471C2.79424 22.7843 1.8343 21.302 1.14863 19.6C0.462954 17.898 0.120117 16.0314 0.120117 14C0.120117 11.9686 0.462954 10.102 1.14863 8.4C1.8343 6.69804 2.79424 5.22941 4.02845 3.99412C5.29009 2.73137 6.75743 1.75686 8.43048 1.07059C10.1309 0.356862 11.9685 0 13.9433 0C15.918 0 17.7419 0.356862 19.415 1.07059C21.1154 1.75686 22.5828 2.73137 23.817 3.99412C25.0786 5.22941 26.0523 6.69804 26.7379 8.4C27.451 10.102 27.8076 11.9686 27.8076 14C27.8076 16.0314 27.451 17.898 26.7379 19.6C26.0523 21.302 25.0786 22.7843 23.817 24.0471C22.5828 25.2824 21.1154 26.2569 19.415 26.9706C17.7419 27.6569 15.918 28 13.9433 28ZM14.7661 25.9412C16.4391 25.9412 17.9065 25.502 19.1681 24.6235C20.4298 23.7451 21.4171 22.5098 22.1302 20.9176C22.8433 19.3255 23.1999 17.4451 23.1999 15.2765C23.1999 12.6137 22.761 10.2941 21.8834 8.31765C21.0057 6.31373 19.8127 4.76275 18.3042 3.66471C16.7957 2.56667 15.1226 2.01765 13.285 2.01765C11.612 2.01765 10.1309 2.45686 8.84188 3.33529C7.55281 4.18627 6.53802 5.40784 5.79749 7C5.08439 8.59216 4.72784 10.4725 4.72784 12.6412C4.72784 15.3039 5.16667 17.6373 6.04433 19.6412C6.94942 21.6451 8.15621 23.1961 9.66469 24.2941C11.2006 25.3922 12.9011 25.9412 14.7661 25.9412Z" fill="#9E0059"/>
<path d="M43.7591 27.5882H32.9392V26.9294L35.9425 25.5706V6.54706L32.9804 5.18823V4.52941H51.5758V11.6118H50.9176L48.7371 6.62941H40.0154V14H43.7591C45.8162 14 47.6126 14.2745 49.1485 14.8235C50.6844 15.3451 51.8775 16.1 52.7277 17.0882C53.6054 18.049 54.0442 19.202 54.0442 20.5471C54.0442 21.9196 53.6054 23.1412 52.7277 24.2118C51.8775 25.2824 50.6707 26.1196 49.1074 26.7235C47.5715 27.3 45.7887 27.5882 43.7591 27.5882ZM43.1009 16.0588H40.0154V25.5294H43.3477C45.4596 25.5294 47.0504 25.1039 48.12 24.2529C49.1897 23.3745 49.7245 22.2216 49.7245 20.7941C49.7245 19.1196 49.1897 17.9118 48.12 17.1706C47.0504 16.4294 45.3773 16.0588 43.1009 16.0588Z" fill="#9E0059"/>
<path d="M70.6267 28C68.3228 28 66.2795 27.4922 64.4968 26.4765C62.714 25.4333 61.3016 24.0196 60.2593 22.2353C59.2445 20.4235 58.7371 18.3647 58.7371 16.0588C58.7371 13.7529 59.2445 11.6941 60.2593 9.88235C61.3016 8.07059 62.714 6.65686 64.4968 5.64118C66.2795 4.59804 68.3228 4.07647 70.6267 4.07647C72.9306 4.07647 74.9739 4.59804 76.7566 5.64118C78.5668 6.65686 79.9793 8.07059 80.9941 9.88235C82.0363 11.6941 82.5574 13.7529 82.5574 16.0588C82.5574 18.3647 82.0363 20.4235 80.9941 22.2353C79.9793 24.0196 78.5668 25.4333 76.7566 26.4765C74.9739 27.4922 72.9306 28 70.6267 28ZM71.285 25.9412C73.5065 25.9412 75.2481 25.1314 76.5098 23.5118C77.7714 21.8922 78.4022 19.751 78.4022 17.0882C78.4022 14.9196 78.0457 13.0118 77.3326 11.3647C76.6469 9.71765 75.6733 8.44118 74.4116 7.53529C73.15 6.60196 71.7101 6.13529 70.0919 6.13529C67.8977 6.13529 66.1424 6.9451 64.8259 8.56471C63.5368 10.1569 62.8923 12.2706 62.8923 14.9059C62.8923 17.102 63.2489 19.0235 63.962 20.6706C64.6751 22.3176 65.6624 23.6078 66.9241 24.5412C68.1857 25.4745 69.6393 25.9412 71.285 25.9412Z" fill="#9E0059"/>
<path d="M87.6993 27.5882V26.9294L90.6614 25.5706V6.54706L87.6993 5.18823V4.52941H97.7376V5.18823L94.7343 6.54706V21.7412L106.706 7.98824V6.54706L103.703 5.18823V4.52941H113.7V5.18823L110.779 6.54706V25.5706L113.7 26.9294V27.5882H103.703V26.9294L106.706 25.5706V10.5824L94.7343 24.3353V25.5706L97.7376 26.9294V27.5882H87.6993Z" fill="#9E0059"/>
<path d="M142.702 27.5882V26.9294L146.034 25.2824V2.67647H136.531V4.9C136.531 9.64902 136.353 13.5059 135.996 16.4706C135.667 19.4353 135.105 21.8784 134.309 23.8C133.542 25.5294 132.691 26.6686 131.759 27.2176C130.826 27.7392 129.962 28 129.167 28C128.564 28 128.18 27.9176 128.015 27.7529C127.85 27.5882 127.768 27.2726 127.768 26.8059V24.3353L127.974 24.1706H128.385C129.839 24.1706 130.963 23.4157 131.759 21.9059C132.582 20.3961 133.158 18.2137 133.487 15.3588C133.843 12.4765 134.021 8.9902 134.021 4.9V2.71765L130.648 1.07059V0.411764H153.645V1.07059L150.313 2.71765V25.2824L153.645 26.9294V27.5882H142.702Z" fill="#9E0059"/>
<path d="M158.57 27.5882V26.9294L161.532 25.5706V6.54706L158.57 5.18823V4.52941H168.608V5.18823L165.605 6.54706V14.6176H169.596C169.788 12.5588 170.405 10.7471 171.447 9.18235C172.489 7.5902 173.833 6.34118 175.479 5.43529C177.124 4.52941 178.962 4.07647 180.992 4.07647C183.213 4.07647 185.188 4.59804 186.916 5.64118C188.671 6.65686 190.042 8.07059 191.03 9.88235C192.045 11.6941 192.552 13.7529 192.552 16.0588C192.552 18.3647 192.045 20.4235 191.03 22.2353C190.042 24.0196 188.671 25.4333 186.916 26.4765C185.188 27.4922 183.213 28 180.992 28C178.852 28 176.932 27.5196 175.232 26.5588C173.559 25.5706 172.215 24.2255 171.2 22.5235C170.185 20.8216 169.623 18.8726 169.513 16.6765H165.605V25.5706L168.608 26.9294V27.5882H158.57ZM181.691 25.9412C183.775 25.9412 185.407 25.1314 186.587 23.5118C187.793 21.8922 188.397 19.751 188.397 17.0882C188.397 14.9196 188.054 13.0118 187.368 11.3647C186.71 9.71765 185.778 8.44118 184.571 7.53529C183.391 6.60196 182.034 6.13529 180.498 6.13529C178.386 6.13529 176.727 6.9451 175.52 8.56471C174.313 10.1569 173.71 12.2706 173.71 14.9059C173.71 17.102 174.039 19.0235 174.697 20.6706C175.383 22.3176 176.315 23.6078 177.495 24.5412C178.701 25.4745 180.1 25.9412 181.691 25.9412Z" fill="#9E0059"/>
<path d="M197.702 27.5882V26.9294L200.705 25.5706V6.54706L197.702 5.18823V4.52941H207.74V5.18823L204.778 6.54706V25.5706L207.74 26.9294V27.5882H197.702ZM215.803 27.5882L204.778 15.8529L214.322 6.34118L211.731 5.18823V4.52941H220V5.18823L217.655 6.09412L208.81 14.5765L219.424 25.8176L222.304 26.9294V27.5882H215.803Z" fill="#9E0059"/>
<path d="M236.727 28C234.341 28 232.202 27.5059 230.31 26.5176C228.445 25.5294 226.977 24.1706 225.908 22.4412C224.838 20.7118 224.303 18.7627 224.303 16.5941C224.303 14.7549 224.646 13.0804 225.332 11.5706C226.045 10.0333 227.005 8.71569 228.211 7.61765C229.418 6.49216 230.803 5.62745 232.367 5.02353C233.93 4.39216 235.576 4.07647 237.303 4.07647C238.483 4.07647 239.484 4.15882 240.307 4.32353C241.157 4.46078 241.911 4.66667 242.569 4.94118C243.255 5.21569 243.927 5.50392 244.585 5.80588L244.75 11.6941H244.092L241.705 7.53529C241.02 7.01373 240.32 6.65686 239.607 6.46471C238.922 6.2451 238.154 6.13529 237.303 6.13529C235.576 6.13529 234.04 6.56078 232.696 7.41177C231.379 8.26274 230.337 9.42941 229.569 10.9118C228.829 12.3941 228.458 14.0686 228.458 15.9353C228.458 19.1471 229.254 21.6176 230.844 23.3471C232.463 25.0765 234.629 25.9412 237.345 25.9412C238.195 25.9412 238.949 25.8863 239.607 25.7765C240.266 25.6392 240.896 25.4059 241.5 25.0765L244.462 20.6706H245.12L244.75 26.2294C243.762 26.751 242.624 27.1765 241.335 27.5059C240.074 27.8353 238.538 28 236.727 28Z" fill="#9E0059"/>
</svg>
