<svg width="18" height="18" viewBox="0 0 18 18" fill="none" xmlns="http://www.w3.org/2000/svg">
<path d="M7.45484 10.5452C7.31444 10.4048 7.0862 10.4048 6.9458 10.5452L4.67996 12.8111V10.8001C4.67996 10.6014 4.51868 10.4401 4.31996 10.4401C4.12124 10.4401 3.95996 10.6014 3.95996 10.8001V13.6801C3.95996 13.7269 3.96932 13.7737 3.98804 13.8176C4.02404 13.9055 4.0946 13.976 4.18316 14.0128C4.22636 14.03 4.27316 14.0401 4.31996 14.0401H7.19996C7.39868 14.0401 7.55996 13.8788 7.55996 13.6801C7.55996 13.4814 7.39868 13.3201 7.19996 13.3201H5.189L7.45412 11.055C7.59524 10.9139 7.59524 10.6864 7.45484 10.5452Z" fill="#9E9AA4"/>
<path d="M13.817 3.98732C13.7731 3.97004 13.7263 3.95996 13.6795 3.95996H10.7995C10.6007 3.95996 10.4395 4.12124 10.4395 4.31996C10.4395 4.51868 10.6007 4.67996 10.7995 4.67996H12.8104L10.5453 6.94508C10.4049 7.08548 10.4049 7.31372 10.5453 7.45412C10.6151 7.52468 10.7073 7.55996 10.7995 7.55996C10.8916 7.55996 10.9838 7.52468 11.0543 7.45484L13.3195 5.189V7.19996C13.3195 7.39868 13.4807 7.55996 13.6795 7.55996C13.8782 7.55996 14.0395 7.39868 14.0395 7.19996V4.31996C14.0395 4.27316 14.0301 4.22636 14.0114 4.18244C13.9754 4.0946 13.9048 4.02404 13.817 3.98732Z" fill="#9E9AA4"/>
<path d="M14.3998 1.80005H3.5998C2.60764 1.80005 1.7998 2.60717 1.7998 3.60005V14.4C1.7998 15.3929 2.60764 16.2 3.5998 16.2H14.3998C15.392 16.2 16.1998 15.3929 16.1998 14.4V3.60005C16.1998 2.60717 15.392 1.80005 14.3998 1.80005ZM15.4798 14.4C15.4798 14.9955 14.9952 15.48 14.3998 15.48H3.5998C3.00436 15.48 2.5198 14.9955 2.5198 14.4V3.60005C2.5198 3.00461 3.00436 2.52005 3.5998 2.52005H14.3998C14.9952 2.52005 15.4798 3.00461 15.4798 3.60005V14.4Z" fill="#9E9AA4"/>
</svg>
