<svg width="18" height="19" viewBox="0 0 18 19" fill="none" xmlns="http://www.w3.org/2000/svg">
<g clip-path="url(#clip0)">
<path d="M17.9969 9.5C17.9969 9.36897 17.924 9.2488 17.8078 9.18829L14.4182 7.4246L17.8078 5.66091C17.924 5.6004 17.9969 5.48022 17.9969 5.34919C17.9969 5.21816 17.924 5.09798 17.8078 5.03747L14.8882 3.51835C14.7159 3.42878 14.5039 3.49572 14.4143 3.66787C14.3247 3.84001 14.3916 4.05221 14.5638 4.14178L16.8843 5.34915L9.0014 9.45081L1.11853 5.34915L9.0014 1.2475L11.7586 2.68215C11.9309 2.77172 12.143 2.70474 12.2326 2.53263C12.3221 2.36049 12.2552 2.14829 12.083 2.05872L9.1636 0.539663C9.06187 0.486779 8.94089 0.486779 8.8392 0.539663L0.195047 5.03744C0.0787725 5.09791 0.00585938 5.21809 0.00585938 5.34915C0.00585938 5.48022 0.0787725 5.60036 0.195047 5.66087L3.58464 7.42456L0.195047 9.18829C0.0787725 9.2488 0.00585938 9.36897 0.00585938 9.5C0.00585938 9.63104 0.0787725 9.75121 0.195047 9.81172L3.58464 11.5754L0.195047 13.3391C0.0787725 13.3996 0.00585938 13.5198 0.00585938 13.6509C0.00585938 13.7819 0.0787725 13.9021 0.195047 13.9626L8.8392 18.4603C8.89005 18.4868 8.94571 18.5 9.0014 18.5C9.05709 18.5 9.11275 18.4868 9.1636 18.4603L17.8078 13.9626C17.924 13.9021 17.9969 13.7819 17.9969 13.6509C17.9969 13.5198 17.924 13.3996 17.8078 13.3391L14.4182 11.5754L17.8078 9.81172C17.924 9.75121 17.9969 9.63104 17.9969 9.5ZM9.1636 10.1586L13.6568 7.82068L14.7045 8.36579L6.83414 12.474L5.43203 11.7444L8.65943 10.0651L8.83916 10.1586C8.89001 10.1851 8.94567 10.1983 9.00136 10.1983C9.05706 10.1983 9.11275 10.1851 9.1636 10.1586ZM7.89815 9.66899L4.67071 11.3483L3.27528 10.6222L6.50271 8.94291L7.89815 9.66899ZM4.34596 7.82068L5.74139 8.54679L2.51396 10.2261L1.1185 9.49997L4.34596 7.82068ZM16.8843 13.6509L9.0014 17.7525L1.11853 13.6509L4.34596 11.9716L8.8392 14.3095C8.89005 14.336 8.94571 14.3492 9.0014 14.3492C9.05709 14.3492 9.11275 14.336 9.1636 14.3095L13.6568 11.9716L16.8843 13.6509ZM9.0014 13.6017L7.59469 12.8697L15.465 8.76156L16.8843 9.5L9.0014 13.6017Z" fill="#9E9AA4"/>
<path d="M13.3221 3.45156C13.4145 3.45156 13.5052 3.41396 13.5705 3.3486C13.6358 3.28324 13.6735 3.19258 13.6735 3.10017C13.6735 3.00775 13.6359 2.91709 13.5705 2.85174C13.5052 2.78638 13.4145 2.74878 13.3221 2.74878C13.2297 2.74878 13.139 2.78638 13.0737 2.85174C13.0083 2.91709 12.9707 3.00775 12.9707 3.10017C12.9707 3.19258 13.0083 3.28324 13.0737 3.3486C13.1391 3.41396 13.2297 3.45156 13.3221 3.45156Z" fill="#9E9AA4"/>
</g>
<defs>
<clipPath id="clip0">
<rect width="18" height="18" fill="white" transform="translate(0 0.5)"/>
</clipPath>
</defs>
</svg>
