<svg width="32" height="32" viewBox="0 0 32 32" fill="none" xmlns="http://www.w3.org/2000/svg">
<path fill-rule="evenodd" clip-rule="evenodd" d="M17.234 19.563C16.242 19.563 15.308 19.027 14.989 18.417C14.989 18.417 14.455 20.535 14.343 20.944C13.945 22.388 12.774 23.833 12.683 23.951C12.62 24.034 12.48 24.008 12.465 23.899C12.44 23.715 12.141 21.892 12.493 20.406C12.669 19.66 13.675 15.398 13.675 15.398C13.675 15.398 13.382 14.811 13.382 13.944C13.382 12.582 14.171 11.565 15.154 11.565C15.99 11.565 16.393 12.193 16.393 12.945C16.393 13.785 15.858 15.042 15.582 16.206C15.351 17.181 16.071 17.976 17.033 17.976C18.773 17.976 19.946 15.74 19.946 13.09C19.946 11.076 18.59 9.568 16.122 9.568C13.335 9.568 11.597 11.647 11.597 13.97C11.597 14.77 11.834 15.335 12.204 15.772C12.374 15.973 12.398 16.054 12.336 16.284C12.291 16.454 12.191 16.86 12.148 17.022C12.087 17.255 11.899 17.338 11.688 17.252C10.405 16.728 9.806 15.321 9.806 13.741C9.806 11.13 12.008 8 16.374 8C19.884 8 22.193 10.538 22.193 13.265C22.193 16.87 20.188 19.563 17.234 19.563ZM16 0C7.163 0 0 7.163 0 16C0 24.836 7.163 32 16 32C24.836 32 32 24.836 32 16C32 7.163 24.836 0 16 0Z" fill="white"/>
<path d="M17.234 19.563C16.242 19.563 15.308 19.027 14.989 18.417C14.989 18.417 14.455 20.535 14.343 20.944C13.945 22.388 12.774 23.833 12.683 23.951C12.62 24.034 12.48 24.008 12.465 23.899C12.44 23.715 12.141 21.892 12.493 20.406L13.675 15.398C13.675 15.398 13.382 14.811 13.382 13.944C13.382 12.582 14.171 11.565 15.154 11.565C15.99 11.565 16.393 12.193 16.393 12.945C16.393 13.785 15.858 15.042 15.582 16.206C15.351 17.181 16.071 17.976 17.033 17.976C18.773 17.976 19.946 15.74 19.946 13.09C19.946 11.076 18.59 9.568 16.122 9.568C13.335 9.568 11.597 11.647 11.597 13.97C11.597 14.77 11.834 15.335 12.204 15.772C12.374 15.973 12.398 16.054 12.336 16.284C12.291 16.454 12.191 16.86 12.148 17.022C12.087 17.255 11.899 17.338 11.688 17.252C10.405 16.728 9.806 15.321 9.806 13.741C9.806 11.13 12.008 8 16.374 8C19.884 8 22.193 10.538 22.193 13.265C22.193 16.87 20.188 19.563 17.234 19.563Z" fill="white"/>
<path fill-rule="evenodd" clip-rule="evenodd" d="M17.234 19.563C16.242 19.563 15.308 19.027 14.989 18.417C14.989 18.417 14.455 20.535 14.343 20.944C13.945 22.388 12.774 23.833 12.683 23.951C12.62 24.034 12.48 24.008 12.465 23.899C12.44 23.715 12.141 21.892 12.493 20.406C12.669 19.66 13.675 15.398 13.675 15.398C13.675 15.398 13.382 14.811 13.382 13.944C13.382 12.582 14.171 11.565 15.154 11.565C15.99 11.565 16.393 12.193 16.393 12.945C16.393 13.785 15.858 15.042 15.582 16.206C15.351 17.181 16.071 17.976 17.033 17.976C18.773 17.976 19.946 15.74 19.946 13.09C19.946 11.076 18.59 9.568 16.122 9.568C13.335 9.568 11.597 11.647 11.597 13.97C11.597 14.77 11.834 15.335 12.204 15.772C12.374 15.973 12.398 16.054 12.336 16.284C12.291 16.454 12.191 16.86 12.148 17.022C12.087 17.255 11.899 17.338 11.688 17.252C10.405 16.728 9.806 15.321 9.806 13.741C9.806 11.13 12.008 8 16.374 8C19.884 8 22.193 10.538 22.193 13.265C22.193 16.87 20.188 19.563 17.234 19.563ZM16 0C7.163 0 0 7.163 0 16C0 24.836 7.163 32 16 32C24.836 32 32 24.836 32 16C32 7.163 24.836 0 16 0" fill="#E8402B"/>
</svg>
