<svg width="12" height="12" viewBox="0 0 12 12" fill="none" xmlns="http://www.w3.org/2000/svg">
<path d="M10.4966 6.79466C10.4078 6.74265 10.2942 6.77236 10.2425 6.86097L8.11302 10.493C7.95919 10.7592 7.61795 10.8509 7.35991 10.7019L6.94508 10.4331C6.8589 10.3772 6.74389 10.4017 6.68816 10.4879C6.63223 10.5739 6.65694 10.6891 6.74295 10.7449L7.16594 11.0187C7.31178 11.103 7.47135 11.143 7.62888 11.143C7.95007 11.143 8.26253 10.9767 8.43399 10.6798L10.5627 7.04875C10.6146 6.96035 10.5851 6.84647 10.4966 6.79466Z" fill="white"/>
<path d="M11.0584 0H8.08611C7.51134 0 7.08315 0.182976 6.65439 0.611735C6.58176 0.684382 6.58176 0.801787 6.65439 0.874411C6.72703 0.947058 6.84444 0.947058 6.91706 0.874411C7.27895 0.51253 7.60682 0.371526 8.08611 0.371526H11.0584C11.3657 0.371526 11.6157 0.621575 11.6157 0.928836V3.90117C11.6157 4.38066 11.4747 4.70834 11.1127 5.07022L5.59567 10.595C5.385 10.8053 5.01792 10.8055 4.80764 10.595L1.39224 7.17964C1.28692 7.07432 1.22895 6.93442 1.22895 6.78543C1.22895 6.63663 1.2869 6.49674 1.39205 6.39159L6.3785 1.41222C6.45521 1.43172 6.53213 1.45123 6.61183 1.47258C7.36755 1.67507 7.96387 1.88425 8.40841 2.07095C8.32092 2.23294 8.27187 2.41444 8.27187 2.60077C8.27187 3.21549 8.77178 3.71539 9.38649 3.71539C10.0012 3.71539 10.5011 3.21549 10.5011 2.60077C10.5011 1.98605 10.0012 1.48615 9.38649 1.48615C9.28376 1.48615 9.20073 1.56937 9.20073 1.67191C9.20073 1.77445 9.28376 1.85767 9.38649 1.85767C9.79631 1.85767 10.1296 2.19095 10.1296 2.60075C10.1296 3.01056 9.79629 3.34382 9.38649 3.34382C8.9767 3.34382 8.64342 3.01054 8.64342 2.60075C8.64342 2.46699 8.68002 2.33639 8.74746 2.22271C9.06922 2.37671 9.27039 2.50657 9.34992 2.58943C9.31592 2.59909 9.26334 2.60987 9.18403 2.61672C9.08187 2.62582 9.00626 2.71593 9.01536 2.8181C9.02391 2.91469 9.1049 2.98771 9.20021 2.98771C9.20558 2.98771 9.21116 2.98734 9.21673 2.98697C9.33098 2.97676 9.67856 2.9461 9.74544 2.69697C9.92841 2.01352 7.2472 1.25817 6.7079 1.11364C5.88288 0.892567 5.09059 0.741354 4.47661 0.687865C3.72219 0.621924 3.35474 0.707741 3.28564 0.965954C3.25257 1.08987 3.16434 1.41886 4.67056 2.01276C4.76587 2.05047 4.87398 2.00366 4.91151 1.90818C4.94904 1.8127 4.90221 1.70476 4.80673 1.66723C4.07907 1.38021 3.77755 1.16992 3.68096 1.07091C3.91003 1.00366 4.69342 1.02317 5.95498 1.30998L1.12957 6.12874C0.954015 6.30429 0.857422 6.53743 0.857422 6.78543C0.857422 7.03363 0.954015 7.26694 1.12957 7.44232L4.54495 10.8577C4.72013 11.033 4.95346 11.1297 5.20146 11.1297C5.44966 11.1297 5.6828 11.0331 5.85835 10.8575L11.3755 5.33289C11.8045 4.90414 11.9873 4.47594 11.9873 3.90117V0.928858C11.9873 0.416677 11.5706 0 11.0584 0Z" fill="white"/>
<path d="M6.93356 4.88456C6.86094 4.81192 6.74351 4.81192 6.67089 4.88456L6.57057 4.98488C6.42363 4.88755 6.24827 4.83014 6.05916 4.83014C5.547 4.83014 5.1303 5.24681 5.1303 5.759C5.1303 6.0358 5.24455 6.25463 5.34413 6.41458C5.43702 6.56374 5.50185 6.77626 5.50185 6.87362C5.50185 7.18088 5.2518 7.43093 4.94454 7.43093C4.63728 7.43093 4.38723 7.18088 4.38723 6.87362C4.38723 6.76085 4.42084 6.65217 4.48439 6.5593C4.54234 6.47477 4.52061 6.35904 4.43608 6.30109C4.35138 6.24331 4.23582 6.26486 4.17787 6.3494C4.07179 6.50433 4.01568 6.68563 4.01568 6.87364C4.01568 7.06275 4.07309 7.23811 4.17043 7.38506L4.07011 7.48537C3.99746 7.558 3.99746 7.67543 4.07011 7.74805C4.10633 7.78427 4.1539 7.80247 4.20145 7.80247C4.24901 7.80247 4.29656 7.78427 4.33278 7.74805L4.4331 7.64773C4.58005 7.74507 4.7554 7.80247 4.94452 7.80247C5.45668 7.80247 5.87337 7.3858 5.87337 6.87362C5.87337 6.69269 5.78346 6.41699 5.65955 6.21804C5.54902 6.04063 5.50183 5.90335 5.50183 5.759C5.50183 5.45173 5.75187 5.20169 6.05913 5.20169C6.20813 5.20169 6.3428 5.26114 6.44274 5.3568C6.4459 5.36015 6.44701 5.36459 6.45016 5.36794C6.45352 5.3711 6.45796 5.37221 6.46131 5.37537C6.55699 5.47531 6.61642 5.61 6.61642 5.75897C6.61642 5.90795 6.55827 6.04821 6.45276 6.15373C6.38011 6.22618 6.38011 6.34378 6.45256 6.4164C6.52481 6.48905 6.64261 6.48885 6.71523 6.4166C6.89098 6.24085 6.98795 6.00735 6.98795 5.75897C6.98795 5.56986 6.93054 5.3945 6.83321 5.24755L6.93352 5.14724C7.00621 5.07461 7.00621 4.95719 6.93356 4.88456Z" fill="white"/>
</svg>
