<svg width="48" height="48" viewBox="0 0 48 48" fill="none" xmlns="http://www.w3.org/2000/svg">
<g clip-path="url(#clip0)">
<path d="M42.1764 9.71868L24.1359 0.105768C23.8682 -0.0370723 23.5475 -0.0350677 23.2818 0.11078L5.74053 9.72369C5.45284 9.88157 5.27441 10.1833 5.27441 10.5116V23.0685C5.28494 33.3906 11.4005 42.7289 20.8581 46.8642L23.2929 47.9252C23.5204 48.0245 23.7795 48.025 24.0076 47.9262L26.7511 46.7414C36.3841 42.6958 42.651 33.2673 42.652 22.8194V10.5116C42.652 10.1798 42.4691 9.87455 42.1764 9.71868ZM40.8557 22.8194C40.8537 32.5471 35.0173 41.3245 26.0479 45.089L26.0419 45.092L23.6527 46.1234L21.5768 45.2178C12.7733 41.3686 7.08022 32.6769 7.07019 23.0685V11.0433L23.7194 1.91859L40.8557 11.0499V22.8194Z" fill="#9E0059"/>
<path d="M17.0933 22.4862C16.771 22.1088 16.2041 22.0642 15.8267 22.3865C15.4494 22.7082 15.4047 23.2756 15.727 23.6525L20.4713 29.2082C20.7881 29.5791 21.3429 29.6297 21.7208 29.322L32.7701 20.3326C33.155 20.0198 33.2132 19.454 32.8999 19.0691C32.5872 18.6847 32.0213 18.626 31.6364 18.9393L21.2677 27.3744L17.0933 22.4862Z" fill="#9E0059"/>
</g>
<defs>
<clipPath id="clip0">
<rect width="48" height="48" fill="white"/>
</clipPath>
</defs>
</svg>
