<svg width="40" height="40" viewBox="0 0 40 40" fill="none" xmlns="http://www.w3.org/2000/svg">
<path d="M12.9119 32.7998H27.0879C29.5759 32.7998 31.5999 30.7758 31.5999 28.2878V14.7998C31.5999 14.3598 31.2399 13.9998 30.7999 13.9998H25.9999V12.7998C25.9999 9.4918 23.3079 6.7998 19.9999 6.7998C16.6919 6.7998 13.9999 9.4918 13.9999 12.7998V13.9998H9.1999C8.7599 13.9998 8.3999 14.3598 8.3999 14.7998V28.2878C8.3999 30.7758 10.4239 32.7998 12.9119 32.7998ZM15.5999 12.7998C15.5999 10.3718 17.5719 8.3998 19.9999 8.3998C22.4279 8.3998 24.3999 10.3718 24.3999 12.7998V13.9998H15.5999V12.7998ZM9.9999 15.5998H13.9999V17.5998C13.9999 18.0398 14.3599 18.3998 14.7999 18.3998C15.2399 18.3998 15.5999 18.0398 15.5999 17.5998V15.5998H24.3999V17.5998C24.3999 18.0398 24.7599 18.3998 25.1999 18.3998C25.6399 18.3998 25.9999 18.0398 25.9999 17.5998V15.5998H29.9999V28.2878C29.9999 29.8918 28.6919 31.1998 27.0879 31.1998H12.9119C11.3079 31.1998 9.9999 29.8918 9.9999 28.2878V15.5998Z" fill="#9E9AA4"/>
</svg>
