<svg width="18" height="18" viewBox="0 0 18 18" fill="none" xmlns="http://www.w3.org/2000/svg">
<g clip-path="url(#clip0)">
<path d="M18 3H0V15.0001H18V3Z" fill="#F0F0F0"/>
<path d="M10.125 2.99988H7.875V7.87485H0V10.1248H7.875V14.9998H10.125V10.1248H18V7.87485H10.125V2.99988Z" fill="#D80027"/>
<path d="M13.8447 11.0868L18.0007 13.3957V11.0868H13.8447Z" fill="#0052B4"/>
<path d="M10.957 11.0868L18.0005 14.9998V13.8933L12.9488 11.0868H10.957Z" fill="#0052B4"/>
<path d="M16.1244 14.9998L10.957 12.1288V14.9998H16.1244Z" fill="#0052B4"/>
<path d="M10.957 11.0868L18.0005 14.9998V13.8933L12.9488 11.0868H10.957Z" fill="#F0F0F0"/>
<path d="M10.957 11.0868L18.0005 14.9998V13.8933L12.9488 11.0868H10.957Z" fill="#D80027"/>
<path d="M3.17605 11.0867L0 12.8512V11.0867H3.17605Z" fill="#0052B4"/>
<path d="M7.0438 11.5843V14.9998H0.896484L7.0438 11.5843Z" fill="#0052B4"/>
<path d="M5.05171 11.0868L0 13.8933V14.9998L7.04348 11.0868H5.05171Z" fill="#D80027"/>
<path d="M4.156 6.9129L0 4.60397V6.9129H4.156Z" fill="#0052B4"/>
<path d="M7.04348 6.91291L0 2.99988V4.10639L5.05171 6.91291H7.04348Z" fill="#0052B4"/>
<path d="M1.87598 2.99988L7.04331 5.87088V2.99988H1.87598Z" fill="#0052B4"/>
<path d="M7.04348 6.91291L0 2.99988V4.10639L5.05171 6.91291H7.04348Z" fill="#F0F0F0"/>
<path d="M7.04348 6.91291L0 2.99988V4.10639L5.05171 6.91291H7.04348Z" fill="#D80027"/>
<path d="M14.8242 6.91296L18.0003 5.14847V6.91296H14.8242Z" fill="#0052B4"/>
<path d="M10.957 6.41537V2.99991H17.1043L10.957 6.41537Z" fill="#0052B4"/>
<path d="M12.9488 6.91291L18.0005 4.10639V2.99988L10.957 6.91291H12.9488Z" fill="#D80027"/>
</g>
<defs>
<clipPath id="clip0">
<rect width="18" height="18" fill="white"/>
</clipPath>
</defs>
</svg>
