<svg width="14" height="14" viewBox="0 0 14 14" fill="none" xmlns="http://www.w3.org/2000/svg">
<g clip-path="url(#clip0)">
<path d="M10.9816 10.2314L13.8392 7.38762C13.8393 7.38746 13.8395 7.38727 13.8396 7.3871C14.0538 7.17333 14.0531 6.82596 13.8396 6.61289C13.8394 6.61273 13.8393 6.61254 13.8391 6.61237L10.9816 3.76862C10.7675 3.55559 10.4212 3.55638 10.2081 3.77048C9.99509 3.98456 9.99591 4.33081 10.21 4.54387L12.1285 6.45312L0.546865 6.45312C0.244826 6.45312 -9.53674e-06 6.69796 -9.53674e-06 7C-9.53674e-06 7.30204 0.244826 7.54687 0.546865 7.54687L12.1285 7.54687L10.21 9.45612C9.99596 9.66919 9.99514 10.0154 10.2082 10.2295C10.4213 10.4436 10.7676 10.4444 10.9816 10.2314Z" fill="#9E0059"/>
</g>
<defs>
<clipPath id="clip0">
<rect width="14" height="14" fill="white" transform="translate(14) rotate(90)"/>
</clipPath>
</defs>
</svg>
