<svg width="24" height="24" viewBox="0 0 24 24" fill="none" xmlns="http://www.w3.org/2000/svg">
<path d="M14.7601 0H10.1201C5.64244 0 2 3.64244 2 8.12009V11.6001C2 14.7467 3.81252 17.5974 6.64005 18.9401V22.8174C6.64005 23.1538 7.06055 23.3278 7.29836 23.09L10.6682 19.7231H14.7601C19.2378 19.7231 22.8802 16.0807 22.8802 11.6001V8.12009C22.8802 3.64244 19.2378 0 14.7601 0ZM17.7994 15.2197L16.6249 16.3681C15.3894 17.5774 12.1646 16.197 9.32258 13.294C6.48055 10.3882 5.23353 7.13437 6.40805 5.92505L7.58256 4.77664C8.01466 4.35324 8.74837 4.36194 9.23267 4.79404L10.9263 6.52536C11.5295 7.14307 11.2743 8.17838 10.4768 8.41618C9.92578 8.59308 9.55168 9.19919 9.72858 9.75019C10.0215 11.0378 11.6542 12.6473 12.8722 12.9663C13.4203 13.0939 14.0351 12.7952 14.2265 12.2471C14.4788 11.4554 15.5199 11.2205 16.126 11.8411L17.8168 13.5695C18.2402 14.0013 18.2344 14.7353 17.7994 15.2197ZM13.4957 5.51006C13.3797 5.51006 13.2637 5.51586 13.1506 5.53036C12.9389 5.55356 12.7475 5.39986 12.7243 5.18815C12.7011 4.97645 12.8548 4.78505 13.0665 4.76185C13.2086 4.74445 13.3536 4.73865 13.4957 4.73865C15.6272 4.73865 17.3615 6.47287 17.3615 8.60439C17.3615 8.74649 17.3557 8.89149 17.3383 9.0336C17.3151 9.2424 17.1208 9.399 16.912 9.3758C16.7032 9.3526 16.5465 9.1583 16.5697 8.94949C16.5814 8.83639 16.5901 8.72039 16.5901 8.60439C16.5901 6.89917 15.2009 5.51006 13.4957 5.51006ZM15.8157 8.60439C15.8157 8.81609 15.6388 8.9901 15.4271 8.9901C15.2183 8.9901 15.0414 8.81609 15.0414 8.60439C15.0414 7.75178 14.3483 7.05867 13.4957 7.05867C13.2811 7.05867 13.1071 6.88467 13.1071 6.67007C13.1071 6.45837 13.2811 6.28437 13.4957 6.28437C14.7746 6.28437 15.8157 7.32548 15.8157 8.60439ZM18.7651 9.8543C18.7158 10.0631 18.4925 10.1936 18.2866 10.1385C18.0865 10.0834 17.9647 9.8746 18.0111 9.6745C18.0952 9.3265 18.1358 8.96689 18.1358 8.60439C18.1358 6.04656 16.0535 3.96434 13.4957 3.96434C13.3768 3.96434 13.255 3.96724 13.1361 3.97884C12.9244 3.99334 12.7388 3.83384 12.7214 3.62214C12.7069 3.40754 12.8664 3.22193 13.0781 3.20743C13.2173 3.19583 13.3565 3.19003 13.4957 3.19003C16.4798 3.19003 18.9101 5.62026 18.9101 8.60439C18.9101 9.02489 18.8608 9.4454 18.7651 9.8543Z" fill="white"/>
<path d="M17.7994 15.2197L16.6249 16.3681C15.3894 17.5774 12.1646 16.197 9.32258 13.294C6.48055 10.3882 5.23353 7.13437 6.40805 5.92505L7.58256 4.77664C8.01466 4.35324 8.74837 4.36194 9.23267 4.79404L10.9263 6.52536C11.5295 7.14307 11.2743 8.17838 10.4768 8.41618C9.92578 8.59308 9.55168 9.19919 9.72858 9.75019C10.0215 11.0378 11.6542 12.6473 12.8722 12.9663C13.4203 13.0939 14.0351 12.7952 14.2265 12.2471C14.4788 11.4554 15.5199 11.2205 16.126 11.8411L17.8168 13.5695C18.2402 14.0013 18.2344 14.7353 17.7994 15.2197Z" fill="white"/>
<path d="M18.7651 9.8543C18.7158 10.0631 18.4925 10.1936 18.2866 10.1385C18.0865 10.0834 17.9647 9.8746 18.0111 9.6745C18.0952 9.3265 18.1358 8.96689 18.1358 8.60439C18.1358 6.04656 16.0535 3.96434 13.4957 3.96434C13.3768 3.96434 13.255 3.96724 13.1361 3.97884C12.9244 3.99334 12.7388 3.83384 12.7214 3.62214C12.7069 3.40754 12.8664 3.22193 13.0781 3.20743C13.2173 3.19583 13.3565 3.19003 13.4957 3.19003C16.4798 3.19003 18.9101 5.62026 18.9101 8.60439C18.9101 9.02489 18.8608 9.4454 18.7651 9.8543Z" fill="white"/>
<path d="M13.4957 5.51006C13.3797 5.51006 13.2637 5.51586 13.1506 5.53036C12.9389 5.55356 12.7475 5.39986 12.7243 5.18815C12.7011 4.97645 12.8548 4.78505 13.0665 4.76185C13.2086 4.74445 13.3536 4.73865 13.4957 4.73865C15.6272 4.73865 17.3615 6.47287 17.3615 8.60439C17.3615 8.74649 17.3557 8.89149 17.3383 9.0336C17.3151 9.2424 17.1208 9.399 16.912 9.3758C16.7032 9.3526 16.5465 9.1583 16.5697 8.94949C16.5814 8.83639 16.5901 8.72039 16.5901 8.60439C16.5901 6.89917 15.2009 5.51006 13.4957 5.51006Z" fill="white"/>
<path d="M15.8157 8.60439C15.8157 8.81609 15.6388 8.9901 15.4271 8.9901C15.2183 8.9901 15.0414 8.81609 15.0414 8.60439C15.0414 7.75178 14.3483 7.05867 13.4957 7.05867C13.2811 7.05867 13.1071 6.88467 13.1071 6.67007C13.1071 6.45837 13.2811 6.28437 13.4957 6.28437C14.7746 6.28437 15.8157 7.32548 15.8157 8.60439Z" fill="white"/>
<path d="M14.7601 0H10.1201C5.64244 0 2 3.64244 2 8.12009V11.6001C2 14.7467 3.81252 17.5974 6.64005 18.9401V22.8174C6.64005 23.1538 7.06055 23.3278 7.29836 23.09L10.6682 19.7231H14.7601C19.2378 19.7231 22.8802 16.0807 22.8802 11.6001V8.12009C22.8802 3.64244 19.2378 0 14.7601 0ZM17.7994 15.2197L16.6249 16.3681C15.3894 17.5774 12.1646 16.197 9.32258 13.294C6.48055 10.3882 5.23353 7.13437 6.40805 5.92505L7.58256 4.77664C8.01466 4.35324 8.74837 4.36194 9.23267 4.79404L10.9263 6.52536C11.5295 7.14307 11.2743 8.17838 10.4768 8.41618C9.92578 8.59308 9.55168 9.19919 9.72858 9.75019C10.0215 11.0378 11.6542 12.6473 12.8722 12.9663C13.4203 13.0939 14.0351 12.7952 14.2265 12.2471C14.4788 11.4554 15.5199 11.2205 16.126 11.8411L17.8168 13.5695C18.2402 14.0013 18.2344 14.7353 17.7994 15.2197ZM13.4957 5.51006C13.3797 5.51006 13.2637 5.51586 13.1506 5.53036C12.9389 5.55356 12.7475 5.39986 12.7243 5.18815C12.7011 4.97645 12.8548 4.78505 13.0665 4.76185C13.2086 4.74445 13.3536 4.73865 13.4957 4.73865C15.6272 4.73865 17.3615 6.47287 17.3615 8.60439C17.3615 8.74649 17.3557 8.89149 17.3383 9.0336C17.3151 9.2424 17.1208 9.399 16.912 9.3758C16.7032 9.3526 16.5465 9.1583 16.5697 8.94949C16.5814 8.83639 16.5901 8.72039 16.5901 8.60439C16.5901 6.89917 15.2009 5.51006 13.4957 5.51006ZM15.8157 8.60439C15.8157 8.81609 15.6388 8.9901 15.4271 8.9901C15.2183 8.9901 15.0414 8.81609 15.0414 8.60439C15.0414 7.75178 14.3483 7.05867 13.4957 7.05867C13.2811 7.05867 13.1071 6.88467 13.1071 6.67007C13.1071 6.45837 13.2811 6.28437 13.4957 6.28437C14.7746 6.28437 15.8157 7.32548 15.8157 8.60439ZM18.7651 9.8543C18.7158 10.0631 18.4925 10.1936 18.2866 10.1385C18.0865 10.0834 17.9647 9.8746 18.0111 9.6745C18.0952 9.3265 18.1358 8.96689 18.1358 8.60439C18.1358 6.04656 16.0535 3.96434 13.4957 3.96434C13.3768 3.96434 13.255 3.96724 13.1361 3.97884C12.9244 3.99334 12.7388 3.83384 12.7214 3.62214C12.7069 3.40754 12.8664 3.22193 13.0781 3.20743C13.2173 3.19583 13.3565 3.19003 13.4957 3.19003C16.4798 3.19003 18.9101 5.62026 18.9101 8.60439C18.9101 9.02489 18.8608 9.4454 18.7651 9.8543Z" fill="#9B5DE5"/>
</svg>
