<svg width="12" height="12" viewBox="0 0 12 12" fill="none" xmlns="http://www.w3.org/2000/svg">
<path d="M11.2969 0H4.73438C4.34665 0 4.03125 0.315399 4.03125 0.703125V2.01562H2.71875C2.33102 2.01562 2.01562 2.33102 2.01562 2.71875V4.03125H0.703125C0.315399 4.03125 0 4.34665 0 4.73438V11.2969C0 11.6846 0.315399 12 0.703125 12H7.26562C7.65335 12 7.96875 11.6846 7.96875 11.2969V9.98438H9.28125C9.66898 9.98438 9.98438 9.66898 9.98438 9.28125V7.96875H11.2969C11.6846 7.96875 12 7.65335 12 7.26562V0.703125C12 0.315399 11.6846 0 11.2969 0ZM7.5 11.2969C7.5 11.4261 7.3949 11.5312 7.26562 11.5312H0.703125C0.573853 11.5312 0.46875 11.4261 0.46875 11.2969V4.73438C0.46875 4.6051 0.573853 4.5 0.703125 4.5H7.26562C7.3949 4.5 7.5 4.6051 7.5 4.73438V11.2969ZM11.5312 7.26562C11.5312 7.3949 11.4261 7.5 11.2969 7.5H9.98438V6.09375C9.98438 5.96429 9.87946 5.85938 9.75 5.85938C9.62054 5.85938 9.51562 5.96429 9.51562 6.09375V9.28125C9.51562 9.41052 9.41052 9.51562 9.28125 9.51562H7.96875V4.73438C7.96875 4.34665 7.65335 4.03125 7.26562 4.03125H2.48438V2.71875C2.48438 2.58948 2.58948 2.48438 2.71875 2.48438H9.28125C9.41052 2.48438 9.51562 2.58948 9.51562 2.71875V3.98438C9.51562 4.11383 9.62054 4.21875 9.75 4.21875C9.87946 4.21875 9.98438 4.11383 9.98438 3.98438V2.71875C9.98438 2.33102 9.66898 2.01562 9.28125 2.01562H4.5V0.703125C4.5 0.573853 4.6051 0.46875 4.73438 0.46875H11.2969C11.4261 0.46875 11.5312 0.573853 11.5312 0.703125V7.26562Z" fill="white"/>
<path d="M1.17978 6.11627C1.23975 6.11627 1.29971 6.09329 1.34549 6.04761L1.92749 5.46552C2.01904 5.37405 2.01904 5.22565 1.92749 5.13409C1.83594 5.04254 1.68753 5.04254 1.59598 5.13409L1.01398 5.71609C0.922424 5.80765 0.922424 5.95605 1.01398 6.04761C1.05975 6.09329 1.11972 6.11627 1.17978 6.11627Z" fill="white"/>
<path d="M1.3454 6.75072C1.25385 6.65926 1.10544 6.65926 1.01398 6.75072C0.922424 6.84228 0.922424 6.99068 1.01398 7.08224L1.59598 7.66424C1.64175 7.71002 1.70172 7.7329 1.76169 7.7329C1.82166 7.7329 1.88162 7.71002 1.9274 7.66424C2.01895 7.57278 2.01895 7.42437 1.9274 7.33282L1.3454 6.75072Z" fill="white"/>
<path d="M1.59598 8.367L1.01398 8.94901C0.922424 9.04056 0.922424 9.18896 1.01398 9.28052C1.05975 9.32629 1.11972 9.34918 1.17969 9.34918C1.23965 9.34918 1.29962 9.32629 1.3454 9.28052L1.9274 8.69843C2.01895 8.60696 2.01895 8.45856 1.9274 8.367C1.83585 8.27545 1.68753 8.27545 1.59598 8.367Z" fill="white"/>
<path d="M1.34542 9.98363C1.25387 9.89217 1.10546 9.89217 1.01391 9.98363C0.922447 10.0752 0.922447 10.2236 1.01391 10.3151L1.596 10.8971C1.64178 10.9429 1.70174 10.9658 1.76171 10.9658C1.82168 10.9658 1.88165 10.9429 1.92742 10.8971C2.01897 10.8056 2.01897 10.6572 1.92742 10.5657L1.34542 9.98363Z" fill="white"/>
<path d="M6.62332 9.98363L6.04132 10.5657C5.94977 10.6572 5.94977 10.8056 6.04132 10.8971C6.0871 10.9429 6.14706 10.9658 6.20703 10.9658C6.267 10.9658 6.32706 10.9429 6.37274 10.8971L6.95483 10.3151C7.0463 10.2236 7.04639 10.0752 6.95483 9.98363C6.86328 9.89217 6.71487 9.89217 6.62332 9.98363Z" fill="white"/>
<path d="M6.37274 8.36697C6.28119 8.27551 6.13278 8.27542 6.04132 8.36697C5.94977 8.45843 5.94977 8.60684 6.04132 8.69839L6.62332 9.28048C6.6691 9.32626 6.72907 9.34915 6.78903 9.34915C6.849 9.34915 6.90906 9.32626 6.95474 9.28048C7.0463 9.18893 7.0463 9.04052 6.95474 8.94897L6.37274 8.36697Z" fill="white"/>
<path d="M6.62332 6.75072L6.04132 7.33282C5.94977 7.42428 5.94977 7.57269 6.04132 7.66424C6.0871 7.71002 6.14706 7.7329 6.20703 7.7329C6.267 7.7329 6.32697 7.71002 6.37274 7.66424L6.95474 7.08224C7.0463 6.99068 7.0463 6.84228 6.95474 6.75072C6.86328 6.65926 6.71488 6.65926 6.62332 6.75072Z" fill="white"/>
<path d="M6.62332 6.04761C6.6691 6.09329 6.72907 6.11627 6.78903 6.11627C6.849 6.11627 6.90906 6.09329 6.95474 6.04761C7.0463 5.95605 7.0463 5.80765 6.95474 5.71609L6.37274 5.13409C6.28119 5.04254 6.13278 5.04254 6.04132 5.13409C5.94977 5.22565 5.94977 5.37405 6.04132 5.46552L6.62332 6.04761Z" fill="white"/>
<path d="M4.94754 5.13409L4.36554 5.71609C4.27399 5.80765 4.27399 5.95605 4.36554 6.04761C4.41132 6.09329 4.47128 6.11627 4.53125 6.11627C4.59122 6.11627 4.65128 6.09329 4.69696 6.04761L5.27905 5.46552C5.37051 5.37405 5.37051 5.22565 5.27905 5.13409C5.1875 5.04254 5.03909 5.04254 4.94754 5.13409Z" fill="white"/>
<path d="M4.69696 6.75072C4.6055 6.65926 4.45709 6.65926 4.36554 6.75072C4.27399 6.84228 4.27399 6.99068 4.36554 7.08224L4.94754 7.66424C4.99332 7.71002 5.05328 7.7329 5.11325 7.7329C5.17331 7.7329 5.23328 7.71002 5.27905 7.66424C5.37051 7.57278 5.3706 7.42437 5.27905 7.33282L4.69696 6.75072Z" fill="white"/>
<path d="M4.94754 8.367L4.36554 8.94901C4.27399 9.04056 4.27399 9.18896 4.36554 9.28052C4.41132 9.32629 4.47128 9.34918 4.53125 9.34918C4.59122 9.34918 4.65128 9.32629 4.69696 9.28052L5.27905 8.69843C5.37051 8.60696 5.37051 8.45856 5.27905 8.367C5.1875 8.27545 5.03909 8.27545 4.94754 8.367Z" fill="white"/>
<path d="M4.69696 9.98363C4.6055 9.89217 4.45709 9.89217 4.36554 9.98363C4.27399 10.0752 4.27399 10.2236 4.36554 10.3151L4.94754 10.8971C4.99332 10.9429 5.05328 10.9658 5.11325 10.9658C5.17322 10.9658 5.23328 10.9429 5.27896 10.8971C5.37051 10.8056 5.37051 10.6572 5.27896 10.5657L4.69696 9.98363Z" fill="white"/>
<path d="M3.27178 9.98363L2.68969 10.5657C2.59823 10.6572 2.59823 10.8056 2.68969 10.8971C2.73547 10.9429 2.79543 10.9658 2.85549 10.9658C2.91546 10.9658 2.97543 10.9429 3.0212 10.8971L3.6032 10.3151C3.69475 10.2236 3.69475 10.0752 3.6032 9.98363C3.51165 9.89217 3.36324 9.89217 3.27178 9.98363Z" fill="white"/>
<path d="M3.02124 8.36697C2.92968 8.27551 2.78128 8.27542 2.68972 8.36697C2.59826 8.45843 2.59817 8.60684 2.68972 8.69839L3.27182 9.28048C3.31759 9.32626 3.37756 9.34915 3.43753 9.34915C3.49749 9.34915 3.55746 9.32626 3.60324 9.28048C3.69479 9.18893 3.69479 9.04052 3.60324 8.94897L3.02124 8.36697Z" fill="white"/>
<path d="M3.27178 6.75072L2.68969 7.33282C2.59823 7.42428 2.59823 7.57269 2.68969 7.66424C2.73547 7.71002 2.79543 7.7329 2.85549 7.7329C2.91546 7.7329 2.97543 7.71002 3.0212 7.66424L3.6032 7.08224C3.69475 6.99068 3.69475 6.84228 3.6032 6.75072C3.51165 6.65926 3.36324 6.65926 3.27178 6.75072Z" fill="white"/>
<path d="M3.02124 5.13409C2.92968 5.04254 2.78128 5.04254 2.68972 5.13409C2.59826 5.22565 2.59817 5.37405 2.68972 5.46552L3.27182 6.04761C3.31759 6.09338 3.37756 6.11627 3.43753 6.11627C3.49749 6.11627 3.55746 6.09338 3.60324 6.04761C3.69479 5.95605 3.69479 5.80765 3.60324 5.71619L3.02124 5.13409Z" fill="white"/>
<path d="M9.75 4.80469C9.68839 4.80469 9.62787 4.82977 9.58429 4.87335C9.54071 4.91693 9.51562 4.97745 9.51562 5.03906C9.51562 5.10068 9.54071 5.16119 9.58429 5.20477C9.62787 5.24835 9.68839 5.27344 9.75 5.27344C9.81161 5.27344 9.87213 5.24835 9.91571 5.20477C9.95929 5.16119 9.98438 5.10068 9.98438 5.03906C9.98438 4.97745 9.95929 4.91693 9.91571 4.87335C9.87213 4.82977 9.81161 4.80469 9.75 4.80469Z" fill="white"/>
</svg>
