<svg width="24" height="24" viewBox="0 0 24 24" fill="none" xmlns="http://www.w3.org/2000/svg">
<path d="M2.57626 17.6398L2.65469 17.6224V17.5421V0.119531H23.9V20.7226C23.9 22.4637 22.4833 23.8804 20.7422 23.8804H3.25781C1.5167 23.8804 0.1 22.4637 0.1 20.7226C0.1 19.2158 1.16161 17.9523 2.57626 17.6398ZM22.6938 1.42578V1.32578H22.5938H3.96094H3.86094V1.42578V17.4648V17.5648H3.96094H20.7422C21.4085 17.5648 22.0266 17.7727 22.5368 18.1265L22.6938 18.2353V18.0443V1.42578ZM18.146 18.928L18.2549 18.7711H18.0638H3.25781C2.18165 18.7711 1.30625 19.6465 1.30625 20.7226C1.30625 21.7988 2.18165 22.6742 3.25781 22.6742H18.0638H18.2549L18.146 22.5172C17.7923 22.0071 17.5844 21.3889 17.5844 20.7226C17.5844 20.0563 17.7923 19.4382 18.146 18.928ZM18.7906 20.7226C18.7906 21.7988 19.666 22.6742 20.7422 22.6742C21.8184 22.6742 22.6938 21.7988 22.6938 20.7226C22.6938 19.6465 21.8184 18.7711 20.7422 18.7711C19.666 18.7711 18.7906 19.6465 18.7906 20.7226Z" fill="#411936" stroke="#FBFBFB" stroke-width="0.2"/>
<path d="M6.67813 2.93203H7.88437V4.15H6.67813V2.93203Z" fill="#411936" stroke="#FBFBFB" stroke-width="0.2"/>
<path d="M10.6781 2.93203H11.8844V4.15H10.6781V2.93203Z" fill="#411936" stroke="#FBFBFB" stroke-width="0.2"/>
<path d="M14.6781 2.93203H15.8844V4.15H14.6781V2.93203Z" fill="#411936" stroke="#FBFBFB" stroke-width="0.2"/>
<path d="M18.6781 2.93203H19.8844V4.15H18.6781V2.93203Z" fill="#411936" stroke="#FBFBFB" stroke-width="0.2"/>
<path d="M6.67813 14.8142H7.88437V16.0322H6.67813V14.8142Z" fill="#411936" stroke="#FBFBFB" stroke-width="0.2"/>
<path d="M10.6781 14.8142H11.8844V16.0322H10.6781V14.8142Z" fill="#411936" stroke="#FBFBFB" stroke-width="0.2"/>
<path d="M14.6781 14.8142H15.8844V16.0322H14.6781V14.8142Z" fill="#411936" stroke="#FBFBFB" stroke-width="0.2"/>
<path d="M18.6781 14.8142H19.8844V16.0322H18.6781V14.8142Z" fill="#411936" stroke="#FBFBFB" stroke-width="0.2"/>
<path d="M8.67813 5.82266H9.88437V7.04062H8.67813V5.82266Z" fill="#411936" stroke="#FBFBFB" stroke-width="0.2"/>
<path d="M12.6781 5.82266H13.8844V7.04062H12.6781V5.82266Z" fill="#411936" stroke="#FBFBFB" stroke-width="0.2"/>
<path d="M16.6781 5.82266H17.8844V7.04062H16.6781V5.82266Z" fill="#411936" stroke="#FBFBFB" stroke-width="0.2"/>
<path d="M6.67813 8.72891H7.88437V9.94687H6.67813V8.72891Z" fill="#411936" stroke="#FBFBFB" stroke-width="0.2"/>
<path d="M10.6781 8.72891H11.8844V9.94687H10.6781V8.72891Z" fill="#411936" stroke="#FBFBFB" stroke-width="0.2"/>
<path d="M14.6781 8.72891H15.8844V9.94687H14.6781V8.72891Z" fill="#411936" stroke="#FBFBFB" stroke-width="0.2"/>
<path d="M18.6781 8.72891H19.8844V9.94687H18.6781V8.72891Z" fill="#411936" stroke="#FBFBFB" stroke-width="0.2"/>
<path d="M8.67813 11.8539H9.88437V13.0719H8.67813V11.8539Z" fill="#411936" stroke="#FBFBFB" stroke-width="0.2"/>
<path d="M12.6781 11.8539H13.8844V13.0719H12.6781V11.8539Z" fill="#411936" stroke="#FBFBFB" stroke-width="0.2"/>
<path d="M16.6781 11.8539H17.8844V13.0719H16.6781V11.8539Z" fill="#411936" stroke="#FBFBFB" stroke-width="0.2"/>
</svg>
