<svg width="24" height="24" viewBox="0 0 24 24" fill="none" xmlns="http://www.w3.org/2000/svg">
<g clip-path="url(#clip0)">
<path d="M8.53706 3.7674L7.59791 3.01611L6.65876 3.7674L5.49805 2.83887L5.94135 2.28479L6.65876 2.85883L7.59791 2.10754L8.53706 2.85883L9.25465 2.28479L9.69777 2.83887L8.53706 3.7674Z" fill="#411936" stroke="#411936" stroke-width="0.2"/>
<path d="M14.4263 3.7674L13.2656 2.83887L13.7087 2.28479L14.4263 2.85883L15.3655 2.10754L16.3046 2.85883L17.0222 2.28479L17.4653 2.83887L16.3046 3.7674L15.3655 3.01611L14.4263 3.7674Z" fill="#411936" stroke="#411936" stroke-width="0.2"/>
<path d="M8.53706 12.4074L7.59791 11.6561L6.65876 12.4074L5.49805 11.4789L5.94135 10.9248L6.65876 11.4988L7.59791 10.7476L8.53706 11.4988L9.25465 10.9248L9.69777 11.4789L8.53706 12.4074Z" fill="#411936" stroke="#411936" stroke-width="0.2"/>
<path d="M14.4263 12.4074L13.2656 11.4789L13.7087 10.9248L14.4263 11.4988L15.3655 10.7476L16.3046 11.4988L17.0222 10.9248L17.4653 11.4789L16.3046 12.4074L15.3655 11.6561L14.4263 12.4074Z" fill="#411936" stroke="#411936" stroke-width="0.2"/>
<path d="M21.2278 18.8429V-0.046875H15.2382V0.66266H19.0157V8.94802H19.7253V0.66266H20.5185V18.7363C20.5113 18.7363 20.5046 18.7358 20.4974 18.7358H19.7253V10.0748H19.0159V18.7358H3.94776V0.66266H14.1112V-0.046875H3.23822V18.7607C1.9671 18.9342 0.984375 20.0265 0.984375 21.3445C0.984375 22.7829 2.1546 23.9532 3.59308 23.9532H7.3495V23.2436H3.59308C2.5459 23.2436 1.69391 22.3916 1.69391 21.3445C1.69391 20.2973 2.5459 19.4453 3.59308 19.4453H18.7119C18.2058 19.9214 17.8887 20.5965 17.8887 21.3445C17.8887 22.0925 18.2057 22.7676 18.7119 23.2436H8.47652V23.9532H20.4974C21.9359 23.9532 23.1061 22.7829 23.1061 21.3445C23.1061 20.1684 22.3325 19.1611 21.2278 18.8429ZM20.4974 23.2436C19.4502 23.2436 18.5982 22.3916 18.5982 21.3445C18.5982 20.2973 19.4502 19.4453 20.4974 19.4453C20.6027 19.4453 20.7058 19.4546 20.8039 19.4731L20.8114 19.4744C21.7299 19.6264 22.3966 20.4128 22.3966 21.3445C22.3966 22.3916 21.5448 23.2436 20.4974 23.2436Z" fill="#411936" stroke="#411936" stroke-width="0.2"/>
<path d="M9.25465 6.41699L8.53706 6.99103L7.59791 6.23975L6.65876 6.99103L5.94135 6.41699L5.49805 6.97107L6.65876 7.8996L7.59791 7.14832L8.53706 7.8996L9.69777 6.97107L9.25465 6.41699Z" fill="#411936" stroke="#411936" stroke-width="0.2"/>
<path d="M15.3655 7.14832L16.3046 7.8996L17.4653 6.97107L17.0222 6.41699L16.3046 6.99103L15.3655 6.23975L14.4263 6.99103L13.7087 6.41699L13.2656 6.97107L14.4263 7.8996L15.3655 7.14832Z" fill="#411936" stroke="#411936" stroke-width="0.2"/>
<path d="M5.94135 15.057L5.49805 15.6111L6.65876 16.5396L7.59791 15.7883L8.53706 16.5396L9.69777 15.6111L9.25465 15.057L8.53706 15.631L7.59791 14.8798L6.65876 15.631L5.94135 15.057Z" fill="#411936" stroke="#411936" stroke-width="0.2"/>
<path d="M15.3655 15.7883L16.3046 16.5396L17.4653 15.6111L17.0222 15.057L16.3046 15.631L15.3655 14.8798L14.4263 15.631L13.7087 15.057L13.2656 15.6111L14.4263 16.5396L15.3655 15.7883Z" fill="#411936" stroke="#411936" stroke-width="0.2"/>
</g>
<defs>
<clipPath id="clip0">
<rect width="24" height="24" fill="white"/>
</clipPath>
</defs>
</svg>
