<svg width="24" height="24" viewBox="0 0 24 24" fill="none" xmlns="http://www.w3.org/2000/svg">
<path d="M22.9991 5.24733C22.9929 4.85593 22.8289 4.48362 22.5441 4.21499C22.3941 4.07943 22.3057 3.88867 22.2992 3.68657C22.3065 3.48426 22.3947 3.29336 22.5441 3.15675C22.9556 2.77679 23.1009 2.18818 22.9137 1.66037C22.8127 1.393 22.6016 1.18199 22.3342 1.08121C21.8065 0.894029 21.2181 1.03924 20.8381 1.4504C20.7021 1.6014 20.5101 1.68996 20.3069 1.69537C20.1044 1.69007 19.9131 1.60144 19.7781 1.4504C19.5091 1.16995 19.1372 1.0114 18.7486 1.0114C18.3599 1.0114 17.9881 1.16995 17.7191 1.4504C17.5837 1.60261 17.3898 1.68969 17.1861 1.68969C16.9824 1.68969 16.7885 1.60261 16.6531 1.4504C16.3842 1.16977 16.0123 1.01109 15.6236 1.01109C15.2349 1.01109 14.863 1.16977 14.594 1.4504C14.4594 1.60266 14.266 1.68985 14.0628 1.68985C13.8596 1.68985 13.6662 1.60266 13.5316 1.4504C13.2626 1.16977 12.8908 1.01109 12.502 1.01109C12.1133 1.01109 11.7415 1.16977 11.4725 1.4504C11.3379 1.60266 11.1445 1.68985 10.9413 1.68985C10.7381 1.68985 10.5446 1.60266 10.4101 1.4504C10.1411 1.16977 9.76922 1.01109 9.38051 1.01109C8.9918 1.01109 8.61993 1.16977 8.35097 1.4504C8.21547 1.60183 8.02189 1.68838 7.8187 1.68838C7.6155 1.68838 7.42192 1.60183 7.28643 1.4504C7.0175 1.16761 6.64433 1.00753 6.25408 1.00753C5.86384 1.00753 5.49067 1.16761 5.22174 1.4504C5.08668 1.60067 4.89414 1.6865 4.69209 1.6865C4.49005 1.6865 4.29751 1.60067 4.16245 1.4504C3.78284 1.03915 3.19476 0.893544 2.66713 1.08016C2.39904 1.18182 2.18758 1.39379 2.08656 1.66212C1.9005 2.18952 2.04621 2.77706 2.45716 3.1564C2.60887 3.29292 2.6975 3.48602 2.70212 3.69006C2.69683 3.89255 2.60819 4.08387 2.45716 4.21884C2.16778 4.48293 2.00291 4.85661 2.00291 5.24838C2.00291 5.64015 2.16778 6.01383 2.45716 6.27792C2.60789 6.41517 2.69632 6.60782 2.70212 6.81159C2.69499 7.01435 2.60673 7.20575 2.45716 7.34281C2.16778 7.60691 2.00291 7.98059 2.00291 8.37236C2.00291 8.76413 2.16778 9.13781 2.45716 9.4019C2.60759 9.53834 2.69602 9.73012 2.70212 9.93312C2.69499 10.1359 2.60673 10.3273 2.45716 10.4643C2.16778 10.7284 2.00291 11.1021 2.00291 11.4939C2.00291 11.8857 2.16778 12.2593 2.45716 12.5234C2.60673 12.6605 2.69499 12.8519 2.70212 13.0546C2.69602 13.2576 2.60759 13.4494 2.45716 13.5859C2.16778 13.85 2.00291 14.2236 2.00291 14.6154C2.00291 15.0072 2.16778 15.3809 2.45716 15.645C2.60673 15.782 2.69499 15.9734 2.70212 16.1762C2.69613 16.3794 2.60769 16.5714 2.45716 16.7081C2.16602 16.9724 2 17.3473 2 17.7404C2 18.1336 2.16602 18.5085 2.45716 18.7728C2.6072 18.9083 2.69563 19.0991 2.70212 19.3012C2.69482 19.5035 2.60655 19.6944 2.45716 19.831C2.07209 20.1858 1.91723 20.7259 2.05577 21.2308C2.1537 21.5952 2.44116 21.8782 2.8071 21.9703C2.89352 21.9902 2.98193 22.0002 3.07061 22C3.46493 21.9837 3.84097 21.8294 4.13305 21.564C4.27397 21.4152 4.4684 21.3287 4.67327 21.3237C4.87813 21.3187 5.07654 21.3956 5.22454 21.5374C5.49365 21.8177 5.86546 21.9762 6.25408 21.9762C6.6427 21.9762 7.01451 21.8177 7.28363 21.5374C7.41891 21.3851 7.61289 21.2979 7.8166 21.2979C8.02031 21.2979 8.21429 21.3851 8.34957 21.5374C8.61853 21.818 8.9904 21.9767 9.37911 21.9767C9.76783 21.9767 10.1397 21.818 10.4087 21.5374C10.5433 21.3852 10.7367 21.2981 10.9399 21.2981C11.143 21.2981 11.3365 21.3852 11.4711 21.5374C11.7401 21.818 12.1119 21.9767 12.5006 21.9767C12.8894 21.9767 13.2612 21.818 13.5302 21.5374C13.6648 21.3852 13.8582 21.2981 14.0614 21.2981C14.2646 21.2981 14.458 21.3852 14.5926 21.5374C14.8616 21.818 15.2335 21.9767 15.6222 21.9767C16.0109 21.9767 16.3827 21.818 16.6517 21.5374C16.7871 21.3862 16.9804 21.2998 17.1833 21.2998C17.3862 21.2998 17.5795 21.3862 17.7149 21.5374C17.9839 21.82 18.357 21.9799 18.7472 21.9799C19.1374 21.9799 19.5105 21.82 19.7795 21.5374C19.9146 21.3871 20.1071 21.3013 20.3092 21.3013C20.5112 21.3013 20.7038 21.3871 20.8388 21.5374C21.2184 21.9486 21.8065 22.0942 22.3342 21.9076C22.6019 21.8063 22.8133 21.5951 22.9147 21.3274C23.1007 20.7999 22.9548 20.2124 22.5438 19.8331C22.3891 19.7002 22.3002 19.5064 22.3002 19.3024C22.3002 19.0985 22.3891 18.9047 22.5438 18.7717C22.8332 18.5076 22.998 18.134 22.998 17.7422C22.998 17.3504 22.8332 16.9767 22.5438 16.7126C22.3875 16.5797 22.2975 16.3848 22.2975 16.1797C22.2975 15.9745 22.3875 15.7797 22.5438 15.6467C22.8332 15.3826 22.998 15.0089 22.998 14.6172C22.998 14.2254 22.8332 13.8517 22.5438 13.5876C22.393 13.4507 22.3047 13.2582 22.2992 13.0546C22.3063 12.8519 22.3945 12.6605 22.5441 12.5234C22.8335 12.2593 22.9984 11.8857 22.9984 11.4939C22.9984 11.1021 22.8335 10.7284 22.5441 10.4643C22.3945 10.3273 22.3063 10.1359 22.2992 9.93312C22.3053 9.73012 22.3937 9.53834 22.5441 9.4019C22.8335 9.13781 22.9984 8.76413 22.9984 8.37236C22.9984 7.98059 22.8335 7.60691 22.5441 7.34281C22.3945 7.20575 22.3063 7.01435 22.2992 6.81159C22.305 6.60812 22.3934 6.4158 22.5441 6.27897C22.8302 6.01158 22.9945 5.63888 22.9991 5.24733ZM22.0542 5.7782C21.7646 6.04335 21.5998 6.41792 21.5998 6.81054C21.5998 7.20316 21.7646 7.57773 22.0542 7.84289C22.2043 7.97881 22.2928 8.16993 22.2992 8.37236C22.292 8.57511 22.2038 8.76651 22.0542 8.90358C21.7648 9.16767 21.5999 9.54135 21.5999 9.93312C21.5999 10.3249 21.7648 10.6986 22.0542 10.9627C22.2101 11.0951 22.2999 11.2893 22.2999 11.4939C22.2999 11.6984 22.2101 11.8927 22.0542 12.0251C21.7648 12.2892 21.5999 12.6629 21.5999 13.0546C21.5999 13.4464 21.7648 13.8201 22.0542 14.0842C22.2038 14.2213 22.292 14.4127 22.2992 14.6154C22.2931 14.8184 22.2046 15.0102 22.0542 15.1466C21.7649 15.4121 21.6004 15.7868 21.6008 16.1794C21.6012 16.5721 21.7665 16.9465 22.0563 17.2113C22.2058 17.3474 22.2934 17.5384 22.2992 17.7404C22.2917 17.9425 22.2035 18.1332 22.0542 18.2696C21.7643 18.534 21.5991 18.9083 21.5991 19.3007C21.5991 19.6931 21.7643 20.0674 22.0542 20.3318C22.2695 20.5168 22.3502 20.8144 22.2579 21.0828C22.2282 21.1603 22.167 21.2216 22.0895 21.2515C21.8205 21.3436 21.5224 21.2625 21.3372 21.0467C21.0681 20.7663 20.6963 20.6077 20.3076 20.6077C19.919 20.6077 19.5471 20.7663 19.2781 21.0467C19.1431 21.1983 18.9499 21.2849 18.747 21.2849C18.5441 21.2849 18.3509 21.1983 18.216 21.0467C17.9463 20.7659 17.5738 20.6071 17.1845 20.6071C16.7952 20.6071 16.4227 20.7659 16.153 21.0467C16.0185 21.199 15.825 21.2862 15.6218 21.2862C15.4186 21.2862 15.2252 21.199 15.0906 21.0467C14.8216 20.7661 14.4498 20.6074 14.0611 20.6074C13.6723 20.6074 13.3005 20.7661 13.0315 21.0467C12.8964 21.1981 12.7032 21.2846 12.5003 21.2846C12.2974 21.2846 12.1042 21.1981 11.9691 21.0467C11.7001 20.7661 11.3282 20.6074 10.9395 20.6074C10.5508 20.6074 10.1789 20.7661 9.90998 21.0467C9.77547 21.199 9.58209 21.2862 9.37894 21.2862C9.17579 21.2862 8.98241 21.199 8.84789 21.0467C8.57802 20.7654 8.20494 20.6066 7.8151 20.607C7.42526 20.6074 7.05251 20.767 6.7832 21.0488C6.64804 21.1986 6.45578 21.284 6.25408 21.284C6.05238 21.284 5.86012 21.1986 5.72496 21.0488C5.17135 20.4781 4.37347 20.4672 3.69212 21.0208C3.50242 21.2148 3.23549 21.3132 2.96528 21.2886C2.84704 21.2533 2.75675 21.1574 2.72872 21.0373C2.66158 20.7794 2.74616 20.5058 2.94708 20.3307C3.23132 20.0629 3.39537 19.6917 3.40201 19.3012C3.39693 18.9104 3.23263 18.5386 2.94708 18.2717C2.79751 18.1346 2.70925 17.9432 2.70212 17.7404C2.70803 17.5375 2.79651 17.3458 2.94708 17.2096C3.23181 16.9405 3.39585 16.5679 3.40201 16.1762C3.39537 15.7857 3.23132 15.4145 2.94708 15.1466C2.79665 15.0102 2.70822 14.8184 2.70212 14.6154C2.70906 14.4124 2.79734 14.2207 2.94708 14.0835C3.23115 13.8158 3.39518 13.4449 3.40201 13.0546C3.39537 12.6642 3.23132 12.2929 2.94708 12.0251C2.79121 11.8927 2.70137 11.6984 2.70137 11.4939C2.70137 11.2893 2.79121 11.0951 2.94708 10.9627C3.23132 10.6948 3.39537 10.3236 3.40201 9.93312C3.39518 9.54289 3.23115 9.17193 2.94708 8.90428C2.79734 8.76704 2.70906 8.57536 2.70212 8.37236C2.70815 8.16944 2.79661 7.97775 2.94708 7.84149C3.23128 7.57349 3.3953 7.20216 3.40201 6.81159C3.39624 6.4193 3.23217 6.04599 2.94708 5.77645C2.79684 5.64075 2.70838 5.44969 2.70212 5.24733C2.70953 5.04525 2.79779 4.85461 2.94708 4.71821C3.23228 4.45165 3.39655 4.0804 3.40201 3.69006C3.39731 3.29784 3.23305 2.92446 2.94708 2.65597C2.73179 2.47114 2.65096 2.17372 2.74306 1.90533C2.77281 1.82752 2.83427 1.76605 2.91209 1.73631C2.98318 1.70971 3.0584 1.69585 3.1343 1.69537C3.33679 1.70149 3.52802 1.78996 3.66377 1.94033C3.93274 2.22097 4.30461 2.37965 4.69332 2.37965C5.08203 2.37965 5.4539 2.22097 5.72286 1.94033C5.85779 1.78881 6.05102 1.70215 6.25391 1.70215C6.4568 1.70215 6.65002 1.78881 6.78495 1.94033C7.05479 2.22146 7.42762 2.38039 7.8173 2.38039C8.20698 2.38039 8.5798 2.22146 8.84964 1.94033C8.98421 1.78819 9.17757 1.70108 9.38069 1.70108C9.5838 1.70108 9.77716 1.78819 9.91173 1.94033C10.1807 2.22097 10.5526 2.37965 10.9413 2.37965C11.33 2.37965 11.7019 2.22097 11.9708 1.94033C12.1059 1.789 12.2992 1.70248 12.502 1.70248C12.7049 1.70248 12.8981 1.789 13.0333 1.94033C13.3022 2.22097 13.6741 2.37965 14.0628 2.37965C14.4515 2.37965 14.8234 2.22097 15.0923 1.94033C15.227 1.78818 15.4204 1.70106 15.6236 1.70106C15.8267 1.70106 16.0202 1.78818 16.1548 1.94033C16.4247 2.22165 16.7977 2.38051 17.1876 2.38011C17.5774 2.37972 17.9502 2.22009 18.2195 1.93823C18.3546 1.78841 18.5469 1.70289 18.7486 1.70289C18.9503 1.70289 19.1426 1.78841 19.2777 1.93823C19.5436 2.22385 19.9143 2.38887 20.3045 2.39526H20.3073C20.6987 2.38995 21.0713 2.22574 21.3393 1.94033C21.5239 1.72519 21.8212 1.64472 22.0892 1.73736C22.1658 1.76675 22.2264 1.8273 22.2558 1.90393C22.3501 2.17252 22.2701 2.47146 22.0542 2.65702C21.77 2.92484 21.6059 3.29609 21.5993 3.68657C21.6043 4.07739 21.7687 4.44922 22.0542 4.71611C22.2038 4.85318 22.292 5.04457 22.2992 5.24733C22.2932 5.45027 22.2048 5.64201 22.0542 5.7782Z" fill="#411936"/>
<path d="M6.20151 4.84486C6.39478 4.84486 6.55146 4.68818 6.55146 4.49491V3.79502C6.55146 3.60175 6.39478 3.44507 6.20151 3.44507C6.00824 3.44507 5.85156 3.60175 5.85156 3.79502V4.49491C5.85156 4.68818 6.00824 4.84486 6.20151 4.84486Z" fill="#411936"/>
<path d="M6.90073 5.54474H7.60063C7.7939 5.54474 7.95057 5.38807 7.95057 5.1948C7.95057 5.00153 7.7939 4.84485 7.60063 4.84485H6.90073C6.70746 4.84485 6.55078 5.00153 6.55078 5.1948C6.55078 5.38807 6.70746 5.54474 6.90073 5.54474Z" fill="#411936"/>
<path d="M6.20151 6.94459C6.39478 6.94459 6.55146 6.78791 6.55146 6.59464V5.89475C6.55146 5.70148 6.39478 5.5448 6.20151 5.5448C6.00824 5.5448 5.85156 5.70148 5.85156 5.89475V6.59464C5.85156 6.78791 6.00824 6.94459 6.20151 6.94459Z" fill="#411936"/>
<path d="M4.8021 5.54474H5.50199C5.69526 5.54474 5.85194 5.38807 5.85194 5.1948C5.85194 5.00153 5.69526 4.84485 5.50199 4.84485H4.8021C4.60883 4.84485 4.45215 5.00153 4.45215 5.1948C4.45215 5.38807 4.60883 5.54474 4.8021 5.54474Z" fill="#411936"/>
<path d="M12.5003 4.84486C12.6936 4.84486 12.8503 4.68818 12.8503 4.49491V3.79502C12.8503 3.60175 12.6936 3.44507 12.5003 3.44507C12.3071 3.44507 12.1504 3.60175 12.1504 3.79502V4.49491C12.1504 4.68818 12.3071 4.84486 12.5003 4.84486Z" fill="#411936"/>
<path d="M13.2005 5.54474H13.9004C14.0937 5.54474 14.2504 5.38807 14.2504 5.1948C14.2504 5.00153 14.0937 4.84485 13.9004 4.84485H13.2005C13.0073 4.84485 12.8506 5.00153 12.8506 5.1948C12.8506 5.38807 13.0073 5.54474 13.2005 5.54474Z" fill="#411936"/>
<path d="M12.5003 6.94459C12.6936 6.94459 12.8503 6.78791 12.8503 6.59464V5.89475C12.8503 5.70148 12.6936 5.5448 12.5003 5.5448C12.3071 5.5448 12.1504 5.70148 12.1504 5.89475V6.59464C12.1504 6.78791 12.3071 6.94459 12.5003 6.94459Z" fill="#411936"/>
<path d="M11.1009 5.54474H11.8008C11.9941 5.54474 12.1508 5.38807 12.1508 5.1948C12.1508 5.00153 11.9941 4.84485 11.8008 4.84485H11.1009C10.9077 4.84485 10.751 5.00153 10.751 5.1948C10.751 5.38807 10.9077 5.54474 11.1009 5.54474Z" fill="#411936"/>
<path d="M18.7992 4.84486C18.9924 4.84486 19.1491 4.68818 19.1491 4.49491V3.79502C19.1491 3.60175 18.9924 3.44507 18.7992 3.44507C18.6059 3.44507 18.4492 3.60175 18.4492 3.79502V4.49491C18.4492 4.68818 18.6059 4.84486 18.7992 4.84486Z" fill="#411936"/>
<path d="M20.1993 4.84485H19.4994C19.3061 4.84485 19.1494 5.00153 19.1494 5.1948C19.1494 5.38807 19.3061 5.54474 19.4994 5.54474H20.1993C20.3925 5.54474 20.5492 5.38807 20.5492 5.1948C20.5492 5.00153 20.3925 4.84485 20.1993 4.84485Z" fill="#411936"/>
<path d="M19.1491 5.89475C19.1491 5.70148 18.9924 5.5448 18.7992 5.5448C18.6059 5.5448 18.4492 5.70148 18.4492 5.89475V6.59464C18.4492 6.78791 18.6059 6.94459 18.7992 6.94459C18.9924 6.94459 19.1491 6.78791 19.1491 6.59464V5.89475Z" fill="#411936"/>
<path d="M17.3998 5.54474H18.0996C18.2929 5.54474 18.4496 5.38807 18.4496 5.1948C18.4496 5.00153 18.2929 4.84485 18.0996 4.84485H17.3998C17.2065 4.84485 17.0498 5.00153 17.0498 5.1948C17.0498 5.38807 17.2065 5.54474 17.3998 5.54474Z" fill="#411936"/>
<path d="M6.55146 10.0941C6.55146 9.90082 6.39478 9.74414 6.20151 9.74414C6.00824 9.74414 5.85156 9.90082 5.85156 10.0941V10.794C5.85156 10.9873 6.00824 11.1439 6.20151 11.1439C6.39478 11.1439 6.55146 10.9873 6.55146 10.794V10.0941Z" fill="#411936"/>
<path d="M6.90073 11.8438H7.60063C7.7939 11.8438 7.95057 11.6871 7.95057 11.4939C7.95057 11.3006 7.7939 11.1439 7.60063 11.1439H6.90073C6.70746 11.1439 6.55078 11.3006 6.55078 11.4939C6.55078 11.6871 6.70746 11.8438 6.90073 11.8438Z" fill="#411936"/>
<path d="M6.55146 12.1938C6.55146 12.0005 6.39478 11.8439 6.20151 11.8439C6.00824 11.8439 5.85156 12.0005 5.85156 12.1938V12.8937C5.85156 13.087 6.00824 13.2437 6.20151 13.2437C6.39478 13.2437 6.55146 13.087 6.55146 12.8937V12.1938Z" fill="#411936"/>
<path d="M4.8021 11.8438H5.50199C5.69526 11.8438 5.85194 11.6871 5.85194 11.4939C5.85194 11.3006 5.69526 11.1439 5.50199 11.1439H4.8021C4.60883 11.1439 4.45215 11.3006 4.45215 11.4939C4.45215 11.6871 4.60883 11.8438 4.8021 11.8438Z" fill="#411936"/>
<path d="M12.8503 10.0941C12.8503 9.90082 12.6936 9.74414 12.5003 9.74414C12.3071 9.74414 12.1504 9.90082 12.1504 10.0941V10.794C12.1504 10.9873 12.3071 11.1439 12.5003 11.1439C12.6936 11.1439 12.8503 10.9873 12.8503 10.794V10.0941Z" fill="#411936"/>
<path d="M13.2005 11.8438H13.9004C14.0937 11.8438 14.2504 11.6871 14.2504 11.4939C14.2504 11.3006 14.0937 11.1439 13.9004 11.1439H13.2005C13.0073 11.1439 12.8506 11.3006 12.8506 11.4939C12.8506 11.6871 13.0073 11.8438 13.2005 11.8438Z" fill="#411936"/>
<path d="M12.8503 12.1938C12.8503 12.0005 12.6936 11.8439 12.5003 11.8439C12.3071 11.8439 12.1504 12.0005 12.1504 12.1938V12.8937C12.1504 13.087 12.3071 13.2437 12.5003 13.2437C12.6936 13.2437 12.8503 13.087 12.8503 12.8937V12.1938Z" fill="#411936"/>
<path d="M11.8008 11.1439H11.1009C10.9077 11.1439 10.751 11.3006 10.751 11.4939C10.751 11.6871 10.9077 11.8438 11.1009 11.8438H11.8008C11.9941 11.8438 12.1508 11.6871 12.1508 11.4939C12.1508 11.3006 11.9941 11.1439 11.8008 11.1439Z" fill="#411936"/>
<path d="M19.1491 10.0941C19.1491 9.90082 18.9924 9.74414 18.7992 9.74414C18.6059 9.74414 18.4492 9.90082 18.4492 10.0941V10.794C18.4492 10.9873 18.6059 11.1439 18.7992 11.1439C18.9924 11.1439 19.1491 10.9873 19.1491 10.794V10.0941Z" fill="#411936"/>
<path d="M20.1993 11.1439H19.4994C19.3061 11.1439 19.1494 11.3006 19.1494 11.4939C19.1494 11.6871 19.3061 11.8438 19.4994 11.8438H20.1993C20.3925 11.8438 20.5492 11.6871 20.5492 11.4939C20.5492 11.3006 20.3925 11.1439 20.1993 11.1439Z" fill="#411936"/>
<path d="M19.1491 12.1938C19.1491 12.0005 18.9924 11.8439 18.7992 11.8439C18.6059 11.8439 18.4492 12.0005 18.4492 12.1938V12.8937C18.4492 13.087 18.6059 13.2437 18.7992 13.2437C18.9924 13.2437 19.1491 13.087 19.1491 12.8937V12.1938Z" fill="#411936"/>
<path d="M18.0996 11.1439H17.3998C17.2065 11.1439 17.0498 11.3006 17.0498 11.4939C17.0498 11.6871 17.2065 11.8438 17.3998 11.8438H18.0996C18.2929 11.8438 18.4496 11.6871 18.4496 11.4939C18.4496 11.3006 18.2929 11.1439 18.0996 11.1439Z" fill="#411936"/>
<path d="M6.20151 16.0432C6.00824 16.0432 5.85156 16.1999 5.85156 16.3932V17.0931C5.85156 17.2863 6.00824 17.443 6.20151 17.443C6.39478 17.443 6.55146 17.2863 6.55146 17.0931V16.3932C6.55146 16.1999 6.39478 16.0432 6.20151 16.0432Z" fill="#411936"/>
<path d="M7.60063 17.443H6.90073C6.70746 17.443 6.55078 17.5997 6.55078 17.7929C6.55078 17.9862 6.70746 18.1429 6.90073 18.1429H7.60063C7.7939 18.1429 7.95057 17.9862 7.95057 17.7929C7.95057 17.5997 7.7939 17.443 7.60063 17.443Z" fill="#411936"/>
<path d="M6.20151 18.1428C6.00824 18.1428 5.85156 18.2995 5.85156 18.4928V19.1927C5.85156 19.3859 6.00824 19.5426 6.20151 19.5426C6.39478 19.5426 6.55146 19.3859 6.55146 19.1927V18.4928C6.55146 18.2995 6.39478 18.1428 6.20151 18.1428Z" fill="#411936"/>
<path d="M5.50199 17.443H4.8021C4.60883 17.443 4.45215 17.5997 4.45215 17.7929C4.45215 17.9862 4.60883 18.1429 4.8021 18.1429H5.50199C5.69526 18.1429 5.85194 17.9862 5.85194 17.7929C5.85194 17.5997 5.69526 17.443 5.50199 17.443Z" fill="#411936"/>
<path d="M12.5003 17.443C12.6936 17.443 12.8503 17.2863 12.8503 17.0931V16.3932C12.8503 16.1999 12.6936 16.0432 12.5003 16.0432C12.3071 16.0432 12.1504 16.1999 12.1504 16.3932V17.0931C12.1504 17.2863 12.3071 17.443 12.5003 17.443Z" fill="#411936"/>
<path d="M13.9004 17.443H13.2005C13.0073 17.443 12.8506 17.5997 12.8506 17.7929C12.8506 17.9862 13.0073 18.1429 13.2005 18.1429H13.9004C14.0937 18.1429 14.2504 17.9862 14.2504 17.7929C14.2504 17.5997 14.0937 17.443 13.9004 17.443Z" fill="#411936"/>
<path d="M12.5003 18.1428C12.3071 18.1428 12.1504 18.2995 12.1504 18.4928V19.1927C12.1504 19.3859 12.3071 19.5426 12.5003 19.5426C12.6936 19.5426 12.8503 19.3859 12.8503 19.1927V18.4928C12.8503 18.2995 12.6936 18.1428 12.5003 18.1428Z" fill="#411936"/>
<path d="M11.8008 17.443H11.1009C10.9077 17.443 10.751 17.5997 10.751 17.7929C10.751 17.9862 10.9077 18.1429 11.1009 18.1429H11.8008C11.9941 18.1429 12.1508 17.9862 12.1508 17.7929C12.1508 17.5997 11.9941 17.443 11.8008 17.443Z" fill="#411936"/>
<path d="M9.35092 12.8937C9.15765 12.8937 9.00098 13.0504 9.00098 13.2436V13.9435C9.00098 14.1368 9.15765 14.2935 9.35092 14.2935C9.5442 14.2935 9.70087 14.1368 9.70087 13.9435V13.2436C9.70087 13.0504 9.5442 12.8937 9.35092 12.8937Z" fill="#411936"/>
<path d="M11.101 14.6434C11.101 14.4501 10.9443 14.2935 10.751 14.2935H10.0511C9.85785 14.2935 9.70117 14.4501 9.70117 14.6434C9.70117 14.8367 9.85785 14.9933 10.0511 14.9933H10.751C10.9443 14.9933 11.101 14.8367 11.101 14.6434Z" fill="#411936"/>
<path d="M9.35092 14.9934C9.15765 14.9934 9.00098 15.1501 9.00098 15.3434V16.0433C9.00098 16.2365 9.15765 16.3932 9.35092 16.3932C9.5442 16.3932 9.70087 16.2365 9.70087 16.0433V15.3434C9.70087 15.1501 9.5442 14.9934 9.35092 14.9934Z" fill="#411936"/>
<path d="M8.65141 14.2935H7.95151C7.75824 14.2935 7.60156 14.4501 7.60156 14.6434C7.60156 14.8367 7.75824 14.9933 7.95151 14.9933H8.65141C8.84468 14.9933 9.00135 14.8367 9.00135 14.6434C9.00135 14.4501 8.84468 14.2935 8.65141 14.2935Z" fill="#411936"/>
<path d="M15.6507 12.8937C15.4575 12.8937 15.3008 13.0504 15.3008 13.2436V13.9435C15.3008 14.1368 15.4575 14.2935 15.6507 14.2935C15.844 14.2935 16.0007 14.1368 16.0007 13.9435V13.2436C16.0007 13.0504 15.844 12.8937 15.6507 12.8937Z" fill="#411936"/>
<path d="M17.3998 14.6434C17.3998 14.4501 17.2431 14.2935 17.0498 14.2935H16.3499C16.1567 14.2935 16 14.4501 16 14.6434C16 14.8367 16.1567 14.9933 16.3499 14.9933H17.0498C17.2431 14.9933 17.3998 14.8367 17.3998 14.6434Z" fill="#411936"/>
<path d="M15.6507 14.9934C15.4575 14.9934 15.3008 15.1501 15.3008 15.3434V16.0433C15.3008 16.2365 15.4575 16.3932 15.6507 16.3932C15.844 16.3932 16.0007 16.2365 16.0007 16.0433V15.3434C16.0007 15.1501 15.844 14.9934 15.6507 14.9934Z" fill="#411936"/>
<path d="M14.9502 14.2935H14.2503C14.0571 14.2935 13.9004 14.4501 13.9004 14.6434C13.9004 14.8367 14.0571 14.9933 14.2503 14.9933H14.9502C15.1435 14.9933 15.3002 14.8367 15.3002 14.6434C15.3002 14.4501 15.1435 14.2935 14.9502 14.2935Z" fill="#411936"/>
<path d="M9.35092 7.9944C9.5442 7.9944 9.70087 7.83772 9.70087 7.64445V6.94455C9.70087 6.75128 9.5442 6.5946 9.35092 6.5946C9.15765 6.5946 9.00098 6.75128 9.00098 6.94455V7.64445C9.00098 7.83772 9.15765 7.9944 9.35092 7.9944Z" fill="#411936"/>
<path d="M10.0511 8.69428H10.751C10.9443 8.69428 11.101 8.5376 11.101 8.34433C11.101 8.15106 10.9443 7.99438 10.751 7.99438H10.0511C9.85785 7.99438 9.70117 8.15106 9.70117 8.34433C9.70117 8.5376 9.85785 8.69428 10.0511 8.69428Z" fill="#411936"/>
<path d="M9.70087 9.04428C9.70087 8.85101 9.5442 8.69434 9.35092 8.69434C9.15765 8.69434 9.00098 8.85101 9.00098 9.04428V9.74418C9.00098 9.93745 9.15765 10.0941 9.35092 10.0941C9.5442 10.0941 9.70087 9.93745 9.70087 9.74418V9.04428Z" fill="#411936"/>
<path d="M7.60156 8.34433C7.60156 8.5376 7.75824 8.69428 7.95151 8.69428H8.65141C8.84468 8.69428 9.00135 8.5376 9.00135 8.34433C9.00135 8.15106 8.84468 7.99438 8.65141 7.99438H7.95151C7.75824 7.99438 7.60156 8.15106 7.60156 8.34433Z" fill="#411936"/>
<path d="M15.6507 7.9944C15.844 7.9944 16.0007 7.83772 16.0007 7.64445V6.94455C16.0007 6.75128 15.844 6.5946 15.6507 6.5946C15.4575 6.5946 15.3008 6.75128 15.3008 6.94455V7.64445C15.3008 7.83772 15.4575 7.9944 15.6507 7.9944Z" fill="#411936"/>
<path d="M16.3499 8.69428H17.0498C17.2431 8.69428 17.3998 8.5376 17.3998 8.34433C17.3998 8.15106 17.2431 7.99438 17.0498 7.99438H16.3499C16.1567 7.99438 16 8.15106 16 8.34433C16 8.5376 16.1567 8.69428 16.3499 8.69428Z" fill="#411936"/>
<path d="M16.0007 9.04428C16.0007 8.85101 15.844 8.69434 15.6507 8.69434C15.4575 8.69434 15.3008 8.85101 15.3008 9.04428V9.74418C15.3008 9.93745 15.4575 10.0941 15.6507 10.0941C15.844 10.0941 16.0007 9.93745 16.0007 9.74418V9.04428Z" fill="#411936"/>
<path d="M13.9004 8.34433C13.9004 8.5376 14.0571 8.69428 14.2503 8.69428H14.9502C15.1435 8.69428 15.3002 8.5376 15.3002 8.34433C15.3002 8.15106 15.1435 7.99438 14.9502 7.99438H14.2503C14.0571 7.99438 13.9004 8.15106 13.9004 8.34433Z" fill="#411936"/>
<path d="M18.7992 17.443C18.9924 17.443 19.1491 17.2863 19.1491 17.0931V16.3932C19.1491 16.1999 18.9924 16.0432 18.7992 16.0432C18.6059 16.0432 18.4492 16.1999 18.4492 16.3932V17.0931C18.4492 17.2863 18.6059 17.443 18.7992 17.443Z" fill="#411936"/>
<path d="M20.1993 17.443H19.4994C19.3061 17.443 19.1494 17.5997 19.1494 17.7929C19.1494 17.9862 19.3061 18.1429 19.4994 18.1429H20.1993C20.3925 18.1429 20.5492 17.9862 20.5492 17.7929C20.5492 17.5997 20.3925 17.443 20.1993 17.443Z" fill="#411936"/>
<path d="M18.7992 18.1428C18.6059 18.1428 18.4492 18.2995 18.4492 18.4928V19.1927C18.4492 19.3859 18.6059 19.5426 18.7992 19.5426C18.9924 19.5426 19.1491 19.3859 19.1491 19.1927V18.4928C19.1491 18.2995 18.9924 18.1428 18.7992 18.1428Z" fill="#411936"/>
<path d="M18.0996 17.443H17.3998C17.2065 17.443 17.0498 17.5997 17.0498 17.7929C17.0498 17.9862 17.2065 18.1429 17.3998 18.1429H18.0996C18.2929 18.1429 18.4496 17.9862 18.4496 17.7929C18.4496 17.5997 18.2929 17.443 18.0996 17.443Z" fill="#411936"/>
</svg>
