<svg width="24" height="24" viewBox="0 0 24 24" fill="none" xmlns="http://www.w3.org/2000/svg">
<path d="M20.248 19.3553V0.46875C20.248 0.209859 20.038 0 19.7792 0H2.34189C2.083 0 1.87314 0.209859 1.87314 0.46875V21.6543C1.87314 21.6549 1.87305 21.6555 1.87305 21.6561C1.87305 22.9485 2.92445 24 4.2168 24C4.21816 24 4.21956 23.9999 4.22092 23.9999C4.22102 23.9999 4.22111 23.9999 4.2212 23.9999H19.7745C19.7775 24 19.7806 24 19.7837 24C21.076 24 22.1274 22.9485 22.1274 21.6561C22.1274 20.516 21.3172 19.5639 20.248 19.3553ZM15.8887 0.9375H19.3105V2.02739H15.8887V0.9375ZM15.8887 2.96489H19.3105V19.3125H15.8887V2.96489ZM11.5293 0.9375H14.9512V2.02739H14.5744C14.3155 2.02739 14.1057 2.23725 14.1057 2.49614C14.1057 2.75503 14.3155 2.96489 14.5744 2.96489H14.9512V19.3125H11.5293V0.9375ZM7.16992 0.9375H10.5918V19.3125H7.16992V0.9375ZM5.62122 21.7283C5.58358 22.4687 4.96952 23.0608 4.22008 23.0625C4.21998 23.0625 4.21989 23.0625 4.2198 23.0625C4.21881 23.0625 4.21778 23.0626 4.2168 23.0626C3.44181 23.0625 2.8112 22.4323 2.81055 21.6573C2.81055 21.6569 2.81064 21.6565 2.81064 21.6561V0.9375H6.23247V19.3125H4.22116C4.22059 19.3125 4.22017 19.3125 4.2197 19.3125C4.21872 19.3125 4.21778 19.3125 4.21675 19.3125C3.95786 19.3125 3.748 19.5224 3.748 19.7812C3.748 20.0401 3.95786 20.25 4.21675 20.25C4.23011 20.25 4.24338 20.2507 4.25669 20.251C4.26798 20.2514 4.27928 20.2514 4.29058 20.252C4.3022 20.2526 4.31373 20.2537 4.32536 20.2546C4.33759 20.2556 4.34992 20.2563 4.36206 20.2575C4.37148 20.2585 4.38081 20.26 4.39028 20.2612C4.40439 20.2629 4.41855 20.2645 4.43252 20.2666C4.43936 20.2677 4.44602 20.2691 4.45281 20.2703C4.46927 20.2731 4.48577 20.2758 4.50208 20.2792C4.50536 20.2799 4.50859 20.2807 4.51183 20.2815C5.12308 20.4127 5.58864 20.9426 5.62122 21.5841C5.62244 21.608 5.62305 21.632 5.62305 21.6562C5.62305 21.6804 5.62244 21.7044 5.62122 21.7283ZM19.7881 23.0625C19.7852 23.0625 19.7822 23.0624 19.7793 23.0624H6.09053C6.10717 23.0403 6.12306 23.0176 6.139 22.9949C6.14102 22.9919 6.14313 22.989 6.14519 22.9861C6.15925 22.9658 6.1728 22.9451 6.18625 22.9244C6.19117 22.9167 6.19614 22.9091 6.20097 22.9014C6.21344 22.8817 6.22558 22.8617 6.23739 22.8416C6.24255 22.8328 6.24756 22.824 6.25262 22.8151C6.26411 22.795 6.27555 22.7748 6.28652 22.7543C6.29041 22.747 6.29402 22.7395 6.29781 22.7322C6.31881 22.6918 6.33864 22.6507 6.35734 22.6089C6.36147 22.5998 6.36578 22.5907 6.36972 22.5816C6.3775 22.5635 6.38477 22.5452 6.39217 22.527C6.39784 22.5127 6.40361 22.4985 6.40905 22.4841C6.41561 22.4668 6.42184 22.4494 6.42803 22.432C6.43366 22.4159 6.43909 22.3997 6.44444 22.3835C6.44988 22.3669 6.45527 22.3503 6.46038 22.3336C6.46609 22.3146 6.47139 22.2954 6.47669 22.2762C6.48067 22.2618 6.48489 22.2474 6.48859 22.2329C6.49694 22.2002 6.50453 22.1672 6.51147 22.134C6.51213 22.131 6.51278 22.128 6.51339 22.1249H8.48397C8.74286 22.1249 8.95272 21.915 8.95272 21.6562C8.95272 21.3973 8.74286 21.1874 8.48397 21.1874H6.51339C6.51273 21.1843 6.51203 21.1812 6.51138 21.1781C6.50453 21.1451 6.49689 21.1123 6.48869 21.0798C6.4848 21.0646 6.48039 21.0496 6.47622 21.0345C6.47116 21.016 6.46605 20.9976 6.46052 20.9793C6.45536 20.9621 6.44973 20.9451 6.44416 20.928C6.43905 20.9123 6.4337 20.8967 6.42822 20.8811C6.42198 20.8633 6.41552 20.8455 6.40881 20.8277C6.40361 20.8139 6.39808 20.8002 6.3925 20.7864C6.385 20.7677 6.37759 20.749 6.36963 20.7306C6.36606 20.7223 6.36213 20.7142 6.35847 20.706C6.33944 20.6632 6.31919 20.6212 6.29767 20.5798C6.29392 20.5726 6.29041 20.5653 6.28661 20.5582C6.27573 20.5378 6.26434 20.5177 6.25291 20.4977C6.2477 20.4886 6.24255 20.4795 6.23725 20.4705C6.22558 20.4507 6.21363 20.4311 6.20134 20.4116C6.19619 20.4034 6.19089 20.3953 6.18559 20.3871C6.17252 20.3669 6.1593 20.3468 6.14566 20.3271C6.1427 20.3228 6.13966 20.3187 6.1367 20.3145C6.12156 20.2928 6.10642 20.2711 6.09053 20.25H19.7836C19.7856 20.25 19.7876 20.25 19.7896 20.25L19.8073 20.2499C20.5697 20.2499 21.1899 20.8807 21.1899 21.6562C21.1899 22.4301 20.5615 23.0601 19.7881 23.0625Z" fill="#411936"/>
<path d="M9.84207 21.1876H9.83105C9.57216 21.1876 9.3623 21.3975 9.3623 21.6564C9.3623 21.9153 9.57216 22.1251 9.83105 22.1251H9.84207C10.1009 22.1251 10.3108 21.9153 10.3108 21.6564C10.3108 21.3975 10.101 21.1876 9.84207 21.1876Z" fill="#411936"/>
<path d="M13.2279 2.02747H13.2168C12.9579 2.02747 12.748 2.23733 12.748 2.49622C12.748 2.75511 12.9579 2.96497 13.2168 2.96497H13.2279C13.4868 2.96497 13.6966 2.75511 13.6966 2.49622C13.6966 2.23737 13.4868 2.02747 13.2279 2.02747Z" fill="#411936"/>
</svg>
