<svg width="24" height="24" viewBox="0 0 24 24" fill="none" xmlns="http://www.w3.org/2000/svg">
<path d="M22.0001 12.3882C21.8001 12.3882 21.6001 12.5882 21.6001 12.7882C21.6001 13.0282 21.7601 13.1881 22.0001 13.1881C22.2401 13.1881 22.4001 13.0282 22.4001 12.7882C22.4001 12.5482 22.2401 12.3882 22.0001 12.3882Z" fill="#9E9AA4"/>
<path d="M23.1998 11.188C22.9998 11.188 22.7998 11.388 22.7998 11.588C22.7998 11.828 22.9598 11.9879 23.1998 11.9879C23.4398 11.9879 23.5998 11.828 23.5998 11.588C23.5998 11.348 23.4398 11.188 23.1998 11.188Z" fill="#9E9AA4"/>
<path d="M20.7999 11.188C20.5999 11.188 20.3999 11.388 20.3999 11.588C20.3999 11.828 20.5599 11.9879 20.7999 11.9879C21.0399 11.9879 21.1999 11.828 21.1999 11.588C21.1999 11.348 21.0399 11.188 20.7999 11.188Z" fill="#9E9AA4"/>
<path d="M19.6002 12.3882C19.4002 12.3882 19.2002 12.5882 19.2002 12.7882C19.2002 13.0282 19.3602 13.1881 19.6002 13.1881C19.8402 13.1881 20.0002 13.0282 20.0002 12.7882C20.0002 12.5482 19.8402 12.3882 19.6002 12.3882Z" fill="#9E9AA4"/>
<path d="M17.2003 12.3882C17.0003 12.3882 16.8003 12.5882 16.8003 12.7882C16.8003 13.0282 16.9603 13.1881 17.2003 13.1881C17.4403 13.1881 17.6003 13.0282 17.6003 12.7882C17.6003 12.5482 17.4403 12.3882 17.2003 12.3882Z" fill="#9E9AA4"/>
<path d="M18.4 11.188C18.2 11.188 18 11.388 18 11.588C18 11.828 18.16 11.9879 18.4 11.9879C18.64 11.9879 18.8 11.828 18.8 11.588C18.8 11.348 18.64 11.188 18.4 11.188Z" fill="#9E9AA4"/>
<path d="M16.0001 11.188C15.8001 11.188 15.6001 11.388 15.6001 11.588C15.6001 11.828 15.7601 11.9879 16.0001 11.9879C16.2401 11.9879 16.4001 11.828 16.4001 11.588C16.4001 11.348 16.2401 11.188 16.0001 11.188Z" fill="#9E9AA4"/>
<path d="M14.7999 12.3882C14.5999 12.3882 14.3999 12.5882 14.3999 12.7882C14.3999 13.0282 14.5599 13.1881 14.7999 13.1881C15.0399 13.1881 15.1999 13.0282 15.1999 12.7882C15.1999 12.5482 15.0399 12.3882 14.7999 12.3882Z" fill="#9E9AA4"/>
<path d="M12.4 12.3882C12.2 12.3882 12 12.5882 12 12.7882C12 13.0282 12.16 13.1881 12.4 13.1881C12.64 13.1881 12.8 13.0282 12.8 12.7882C12.8 12.5482 12.64 12.3882 12.4 12.3882Z" fill="#9E9AA4"/>
<path d="M13.6002 11.188C13.4002 11.188 13.2002 11.388 13.2002 11.588C13.2002 11.828 13.3602 11.9879 13.6002 11.9879C13.8402 11.9879 14.0002 11.828 14.0002 11.588C14.0002 11.348 13.8402 11.188 13.6002 11.188Z" fill="#9E9AA4"/>
<path d="M22.0001 9.98779C21.8001 9.98775 21.6001 10.1878 21.6001 10.3878C21.6001 10.6278 21.7601 10.7877 22.0001 10.7877C22.2401 10.7877 22.4001 10.6278 22.4001 10.3878C22.4001 10.1478 22.2401 9.98779 22.0001 9.98779Z" fill="#9E9AA4"/>
<path d="M22.0001 7.58789C21.8001 7.58789 21.6001 7.78786 21.6001 7.98787C21.6001 8.22787 21.7601 8.38785 22.0001 8.38785C22.2401 8.38785 22.4001 8.22787 22.4001 7.98787C22.4001 7.74787 22.2401 7.58789 22.0001 7.58789Z" fill="#9E9AA4"/>
<path d="M23.1998 8.78809C22.9998 8.78809 22.7998 8.9881 22.7998 9.18806C22.7998 9.42806 22.9598 9.58804 23.1998 9.58804C23.4398 9.58804 23.5998 9.42806 23.5998 9.18806C23.5998 8.94807 23.4398 8.78809 23.1998 8.78809Z" fill="#9E9AA4"/>
<path d="M20.7999 8.78809C20.5999 8.78809 20.3999 8.9881 20.3999 9.18806C20.3999 9.42806 20.5599 9.58804 20.7999 9.58804C21.0399 9.58804 21.1999 9.42806 21.1999 9.18806C21.1999 8.94807 21.0399 8.78809 20.7999 8.78809Z" fill="#9E9AA4"/>
<path d="M19.6002 9.98779C19.4002 9.98775 19.2002 10.1878 19.2002 10.3878C19.2002 10.6278 19.3602 10.7877 19.6002 10.7877C19.8402 10.7877 20.0002 10.6278 20.0002 10.3878C20.0002 10.1478 19.8402 9.98779 19.6002 9.98779Z" fill="#9E9AA4"/>
<path d="M17.2003 9.98779C17.0003 9.98775 16.8003 10.1878 16.8003 10.3878C16.8003 10.6278 16.9603 10.7877 17.2003 10.7877C17.4403 10.7877 17.6003 10.6278 17.6003 10.3878C17.6003 10.1478 17.4403 9.98779 17.2003 9.98779Z" fill="#9E9AA4"/>
<path d="M19.6002 7.58789C19.4002 7.58789 19.2002 7.78786 19.2002 7.98787C19.2002 8.22787 19.3602 8.38785 19.6002 8.38785C19.8402 8.38785 20.0002 8.22787 20.0002 7.98787C20.0002 7.74787 19.8402 7.58789 19.6002 7.58789Z" fill="#9E9AA4"/>
<path d="M17.2003 7.58789C17.0003 7.58789 16.8003 7.78786 16.8003 7.98787C16.8003 8.22787 16.9603 8.38785 17.2003 8.38785C17.4403 8.38785 17.6003 8.22787 17.6003 7.98787C17.6003 7.74787 17.4403 7.58789 17.2003 7.58789Z" fill="#9E9AA4"/>
<path d="M18.4 8.78809C18.2 8.78809 18 8.9881 18 9.18806C18 9.42806 18.16 9.58804 18.4 9.58804C18.64 9.58804 18.8 9.42806 18.8 9.18806C18.8 8.94807 18.64 8.78809 18.4 8.78809Z" fill="#9E9AA4"/>
<path d="M16.0001 8.78809C15.8001 8.78809 15.6001 8.9881 15.6001 9.18806C15.6001 9.42806 15.7601 9.58804 16.0001 9.58804C16.2401 9.58804 16.4001 9.42806 16.4001 9.18806C16.4001 8.94807 16.2401 8.78809 16.0001 8.78809Z" fill="#9E9AA4"/>
<path d="M14.7999 9.98779C14.5999 9.98775 14.3999 10.1878 14.3999 10.3878C14.3999 10.6278 14.5599 10.7877 14.7999 10.7877C15.0399 10.7877 15.1999 10.6278 15.1999 10.3878C15.1999 10.1478 15.0399 9.98779 14.7999 9.98779Z" fill="#9E9AA4"/>
<path d="M12.4 9.98779C12.2 9.98775 12 10.1878 12 10.3878C12 10.6278 12.16 10.7877 12.4 10.7877C12.64 10.7877 12.8 10.6278 12.8 10.3878C12.8 10.1478 12.64 9.98779 12.4 9.98779Z" fill="#9E9AA4"/>
<path d="M14.7999 7.58789C14.5999 7.58789 14.3999 7.78786 14.3999 7.98787C14.3999 8.22787 14.5599 8.38785 14.7999 8.38785C15.0399 8.38785 15.1999 8.22787 15.1999 7.98787C15.1999 7.74787 15.0399 7.58789 14.7999 7.58789Z" fill="#9E9AA4"/>
<path d="M12.4 7.58789C12.2 7.58789 12 7.78786 12 7.98787C12 8.22787 12.16 8.38785 12.4 8.38785C12.64 8.38785 12.8 8.22787 12.8 7.98787C12.8 7.74787 12.64 7.58789 12.4 7.58789Z" fill="#9E9AA4"/>
<path d="M13.6002 8.78809C13.4002 8.78809 13.2002 8.9881 13.2002 9.18806C13.2002 9.42806 13.3602 9.58804 13.6002 9.58804C13.8402 9.58804 14.0002 9.42806 14.0002 9.18806C14.0002 8.94807 13.8402 8.78809 13.6002 8.78809Z" fill="#9E9AA4"/>
<path d="M22.0001 5.18799C21.8001 5.18799 21.6001 5.388 21.6001 5.58797C21.6001 5.82796 21.7601 5.98795 22.0001 5.98795C22.2401 5.98795 22.4001 5.82796 22.4001 5.58797C22.4001 5.34797 22.2401 5.18799 22.0001 5.18799Z" fill="#9E9AA4"/>
<path d="M23.1998 6.38818C22.9998 6.38814 22.7998 6.58815 22.7998 6.78816C22.7998 7.02816 22.9598 7.18814 23.1998 7.18814C23.4398 7.18814 23.5998 7.02816 23.5998 6.78816C23.5998 6.54817 23.4398 6.38818 23.1998 6.38818Z" fill="#9E9AA4"/>
<path d="M20.7999 6.38818C20.5999 6.38814 20.3999 6.58815 20.3999 6.78816C20.3999 7.02816 20.5599 7.18814 20.7999 7.18814C21.0399 7.18814 21.1999 7.02816 21.1999 6.78816C21.1999 6.54817 21.0399 6.38818 20.7999 6.38818Z" fill="#9E9AA4"/>
<path d="M23.1998 3.98779C22.9998 3.98779 22.7998 4.18776 22.7998 4.38777C22.7998 4.62777 22.9598 4.78775 23.1998 4.78775C23.4398 4.78775 23.5998 4.62777 23.5998 4.38777C23.5998 4.14777 23.4398 3.98779 23.1998 3.98779Z" fill="#9E9AA4"/>
<path d="M20.7999 3.98779C20.5999 3.98779 20.3999 4.18776 20.3999 4.38777C20.3999 4.62777 20.5599 4.78775 20.7999 4.78775C21.0399 4.78775 21.1999 4.62777 21.1999 4.38777C21.1999 4.14777 21.0399 3.98779 20.7999 3.98779Z" fill="#9E9AA4"/>
<path d="M19.6002 5.18799C19.4002 5.18799 19.2002 5.388 19.2002 5.58797C19.2002 5.82796 19.3602 5.98795 19.6002 5.98795C19.8402 5.98795 20.0002 5.82796 20.0002 5.58797C20.0002 5.34797 19.8402 5.18799 19.6002 5.18799Z" fill="#9E9AA4"/>
<path d="M17.2003 5.18799C17.0003 5.18799 16.8003 5.388 16.8003 5.58797C16.8003 5.82796 16.9603 5.98795 17.2003 5.98795C17.4403 5.98795 17.6003 5.82796 17.6003 5.58797C17.6003 5.34797 17.4403 5.18799 17.2003 5.18799Z" fill="#9E9AA4"/>
<path d="M18.4 6.38818C18.2 6.38814 18 6.58815 18 6.78816C18 7.02816 18.16 7.18814 18.4 7.18814C18.64 7.18814 18.8 7.02816 18.8 6.78816C18.8 6.54817 18.64 6.38818 18.4 6.38818Z" fill="#9E9AA4"/>
<path d="M16.0001 6.38818C15.8001 6.38814 15.6001 6.58815 15.6001 6.78816C15.6001 7.02816 15.7601 7.18814 16.0001 7.18814C16.2401 7.18814 16.4001 7.02816 16.4001 6.78816C16.4001 6.54817 16.2401 6.38818 16.0001 6.38818Z" fill="#9E9AA4"/>
<path d="M18.4 3.98779C18.2 3.98779 18 4.18776 18 4.38777C18 4.62777 18.16 4.78775 18.4 4.78775C18.64 4.78775 18.8 4.62777 18.8 4.38777C18.8 4.14777 18.64 3.98779 18.4 3.98779Z" fill="#9E9AA4"/>
<path d="M16.0001 3.98779C15.8001 3.98779 15.6001 4.18776 15.6001 4.38777C15.6001 4.62777 15.7601 4.78775 16.0001 4.78775C16.2401 4.78775 16.4001 4.62777 16.4001 4.38777C16.4001 4.14777 16.2401 3.98779 16.0001 3.98779Z" fill="#9E9AA4"/>
<path d="M14.7999 5.18799C14.5999 5.18799 14.3999 5.388 14.3999 5.58797C14.3999 5.82796 14.5599 5.98795 14.7999 5.98795C15.0399 5.98795 15.1999 5.82796 15.1999 5.58797C15.1999 5.34797 15.0399 5.18799 14.7999 5.18799Z" fill="#9E9AA4"/>
<path d="M12.4 5.18799C12.2 5.18799 12 5.388 12 5.58797C12 5.82796 12.16 5.98795 12.4 5.98795C12.64 5.98795 12.8 5.82796 12.8 5.58797C12.8 5.34797 12.64 5.18799 12.4 5.18799Z" fill="#9E9AA4"/>
<path d="M13.6002 6.38818C13.4002 6.38814 13.2002 6.58815 13.2002 6.78816C13.2002 7.02816 13.3602 7.18814 13.6002 7.18814C13.8402 7.18814 14.0002 7.02816 14.0002 6.78816C14.0002 6.54817 13.8402 6.38818 13.6002 6.38818Z" fill="#9E9AA4"/>
<path d="M13.6002 3.98779C13.4002 3.98779 13.2002 4.18776 13.2002 4.38777C13.2002 4.62777 13.3602 4.78775 13.6002 4.78775C13.8402 4.78775 14.0002 4.62777 14.0002 4.38777C14.0002 4.14777 13.8402 3.98779 13.6002 3.98779Z" fill="#9E9AA4"/>
<path d="M22.0001 2.78809C21.8001 2.78804 21.6001 2.98805 21.6001 3.18806C21.6001 3.42806 21.7601 3.58804 22.0001 3.58804C22.2401 3.58804 22.4001 3.42806 22.4001 3.18806C22.4001 2.94807 22.2401 2.78809 22.0001 2.78809Z" fill="#9E9AA4"/>
<path d="M22.0001 0.388184C21.8001 0.388184 21.6001 0.588149 21.6001 0.788162C21.6001 1.02816 21.7601 1.18814 22.0001 1.18814C22.2401 1.18814 22.4001 1.02816 22.4001 0.788162C22.4001 0.548165 22.2401 0.388184 22.0001 0.388184Z" fill="#9E9AA4"/>
<path d="M23.1998 1.58789C22.9998 1.58789 22.7998 1.7879 22.7998 1.98787C22.7998 2.22787 22.9598 2.38785 23.1998 2.38785C23.4398 2.38785 23.5998 2.22787 23.5998 1.98787C23.5998 1.74787 23.4398 1.58789 23.1998 1.58789Z" fill="#9E9AA4"/>
<path d="M20.7999 1.58789C20.5999 1.58789 20.3999 1.7879 20.3999 1.98787C20.3999 2.22787 20.5599 2.38785 20.7999 2.38785C21.0399 2.38785 21.1999 2.22787 21.1999 1.98787C21.1999 1.74787 21.0399 1.58789 20.7999 1.58789Z" fill="#9E9AA4"/>
<path d="M19.6002 2.78809C19.4002 2.78804 19.2002 2.98805 19.2002 3.18806C19.2002 3.42806 19.3602 3.58804 19.6002 3.58804C19.8402 3.58804 20.0002 3.42806 20.0002 3.18806C20.0002 2.94807 19.8402 2.78809 19.6002 2.78809Z" fill="#9E9AA4"/>
<path d="M17.2003 2.78809C17.0003 2.78804 16.8003 2.98805 16.8003 3.18806C16.8003 3.42806 16.9603 3.58804 17.2003 3.58804C17.4403 3.58804 17.6003 3.42806 17.6003 3.18806C17.6003 2.94807 17.4403 2.78809 17.2003 2.78809Z" fill="#9E9AA4"/>
<path d="M19.6002 0.388184C19.4002 0.388184 19.2002 0.588149 19.2002 0.788162C19.2002 1.02816 19.3602 1.18814 19.6002 1.18814C19.8402 1.18814 20.0002 1.02816 20.0002 0.788162C20.0002 0.548165 19.8402 0.388184 19.6002 0.388184Z" fill="#9E9AA4"/>
<path d="M17.2003 0.388184C17.0003 0.388184 16.8003 0.588149 16.8003 0.788162C16.8003 1.02816 16.9603 1.18814 17.2003 1.18814C17.4403 1.18814 17.6003 1.02816 17.6003 0.788162C17.6003 0.548165 17.4403 0.388184 17.2003 0.388184Z" fill="#9E9AA4"/>
<path d="M18.4 1.58789C18.2 1.58789 18 1.7879 18 1.98787C18 2.22787 18.16 2.38785 18.4 2.38785C18.64 2.38785 18.8 2.22787 18.8 1.98787C18.8 1.74787 18.64 1.58789 18.4 1.58789Z" fill="#9E9AA4"/>
<path d="M16.0001 1.58789C15.8001 1.58789 15.6001 1.7879 15.6001 1.98787C15.6001 2.22787 15.7601 2.38785 16.0001 2.38785C16.2401 2.38785 16.4001 2.22787 16.4001 1.98787C16.4001 1.74787 16.2401 1.58789 16.0001 1.58789Z" fill="#9E9AA4"/>
<path d="M14.7999 2.78809C14.5999 2.78804 14.3999 2.98805 14.3999 3.18806C14.3999 3.42806 14.5599 3.58804 14.7999 3.58804C15.0399 3.58804 15.1999 3.42806 15.1999 3.18806C15.1999 2.94807 15.0399 2.78809 14.7999 2.78809Z" fill="#9E9AA4"/>
<path d="M12.4 2.78809C12.2 2.78804 12 2.98805 12 3.18806C12 3.42806 12.16 3.58804 12.4 3.58804C12.64 3.58804 12.8 3.42806 12.8 3.18806C12.8 2.94807 12.64 2.78809 12.4 2.78809Z" fill="#9E9AA4"/>
<path d="M14.7999 0.388184C14.5999 0.388184 14.3999 0.588149 14.3999 0.788162C14.3999 1.02816 14.5599 1.18814 14.7999 1.18814C15.0399 1.18814 15.1999 1.02816 15.1999 0.788162C15.1999 0.548165 15.0399 0.388184 14.7999 0.388184Z" fill="#9E9AA4"/>
<path d="M12.4 0.388184C12.2 0.388184 12 0.588149 12 0.788162C12 1.02816 12.16 1.18814 12.4 1.18814C12.64 1.18814 12.8 1.02816 12.8 0.788162C12.8 0.548165 12.64 0.388184 12.4 0.388184Z" fill="#9E9AA4"/>
<path d="M13.6002 1.58789C13.4002 1.58789 13.2002 1.7879 13.2002 1.98787C13.2002 2.22787 13.3602 2.38785 13.6002 2.38785C13.8402 2.38785 14.0002 2.22787 14.0002 1.98787C14.0002 1.74787 13.8402 1.58789 13.6002 1.58789Z" fill="#9E9AA4"/>
<path d="M24 0.399979C24 0.159982 23.84 0 23.6 0H12H0.399979C0.159982 0 0 0.159982 0 0.399979V23.6C0 23.84 0.159982 24 0.399979 24H12C12.24 24 12.4 23.84 12.4 23.5999V18.8H22C23.12 18.8 24 17.56 24 16C24 16 24 16 24 16V0.399979ZM12.4001 0.800005H23.2V13.7491C23.0908 13.6355 22.9726 13.5378 22.8472 13.4572C22.8289 13.4453 22.8105 13.4335 22.7919 13.4225C22.7803 13.4157 22.7686 13.4094 22.7569 13.4028C22.7413 13.3941 22.7256 13.3853 22.7098 13.3771C22.695 13.3694 22.68 13.3622 22.665 13.3549C22.6531 13.3493 22.6413 13.3436 22.6293 13.3383C22.6113 13.3301 22.5932 13.3222 22.5749 13.3148C22.5676 13.3118 22.5602 13.309 22.5528 13.3061C22.4595 13.2695 22.3632 13.242 22.2644 13.2243C22.2545 13.2225 22.2446 13.2207 22.2347 13.2191C22.217 13.2163 22.1994 13.2138 22.1815 13.2116C22.1655 13.2096 22.1495 13.2081 22.1334 13.2066C22.1199 13.2054 22.1064 13.2041 22.0928 13.2032C22.0619 13.2012 22.031 13.2 22 13.2H22H12.4001V0.800005ZM10.4 17.9999C10.02 17.9999 9.66821 17.6756 9.44508 17.186C9.29244 16.851 9.19998 16.4387 9.19998 16C9.19998 15.7637 9.22677 15.5351 9.27533 15.3221C9.4488 14.5615 9.89991 14 10.4 14H11.9989C11.9993 14 11.9996 14 12 14H20.5912C20.2247 14.5061 20 15.2121 20 16C20 16.7879 20.2247 17.4938 20.5912 17.9999H10.4ZM11.6 23.2H0.800005V0.800005H11.6V13.2H10.4H10.4C9.28 13.2 8.39998 14.44 8.39998 16C8.39998 17.56 9.27995 18.8 10.4 18.8H10.4H11.6V23.2H11.6ZM22 17.9999C21.6201 17.9999 21.2683 17.6756 21.0451 17.186C20.8925 16.851 20.8 16.4387 20.8 16C20.8 15.7637 20.8268 15.5351 20.8754 15.3221C21.0487 14.562 21.4994 14.0008 21.999 14H22.0001C22.4332 14 22.8294 14.4217 23.0405 15.0289C23.1413 15.3188 23.2 15.6509 23.2 16C23.2 17.0799 22.64 17.9999 22 17.9999Z" fill="#9E9AA4"/>
</svg>
