<svg width="24" height="24" viewBox="0 0 24 24" fill="none" xmlns="http://www.w3.org/2000/svg">
<g clip-path="url(#clip0)">
<path d="M23.9549 21.8129L23.2529 20.4763L23.9549 19.1398C24.0162 19.0232 24.0162 18.8839 23.9549 18.7673L23.2529 17.4335L23.9549 16.1001C24.0162 15.9835 24.0162 15.844 23.9549 15.7275L23.2529 14.3943L23.9549 13.0605C24.0162 12.9439 24.0162 12.8044 23.9549 12.6878L23.2529 11.3542L23.9549 10.0206C24.0162 9.90406 24.0162 9.76456 23.9549 9.64798L23.2529 8.31495L23.9549 6.98291C24.0365 6.82742 24.0076 6.63702 23.8834 6.51318L22.2822 4.91671C22.158 4.79287 21.9682 4.76437 21.8138 4.84579L20.4771 5.54811L19.2009 4.87757V0.399984C19.2009 0.179062 19.022 0 18.801 0H0.40096C0.179898 0 0.000976562 0.179109 0.000976562 0.399984V18.7999C0.000976562 19.0209 0.179898 19.1999 0.40096 19.1999H4.8747L5.549 20.4804L4.84705 21.8124C4.76539 21.9675 4.79394 22.1573 4.91773 22.2814L6.5142 23.8823C6.59117 23.9595 6.69349 23.9999 6.79742 23.9999C6.8607 23.9999 6.92478 23.9849 6.98337 23.954L8.3201 23.2517L9.65641 23.954C9.7728 24.0153 9.91225 24.0151 10.0287 23.9538L11.3627 23.2517L12.6962 23.9538C12.8126 24.0151 12.9525 24.0151 13.0689 23.9538L14.4021 23.2519L15.7357 23.9538C15.8521 24.0151 15.992 24.0151 16.1084 23.9538L17.442 23.2517L18.7755 23.9538C18.8919 24.0151 19.0318 24.0151 19.1482 23.9538L20.481 23.2519L21.8134 23.9538C21.9673 24.0355 22.1583 24.0069 22.2825 23.8827L23.8837 22.2818C24.0076 22.158 24.0365 21.9679 23.9549 21.8129ZM4.84709 10.0279L5.54904 11.3617L4.84709 12.6953C4.78578 12.8119 4.78578 12.9514 4.84709 13.0679L5.54904 14.4011L4.84709 15.7347C4.78578 15.8513 4.78578 15.9908 4.84709 16.1074L5.54904 17.4412L5.04439 18.3999H0.800991V0.800014H18.401V5.03943L17.4346 5.54825L16.101 4.84612C15.9846 4.7848 15.8447 4.7848 15.7283 4.84612L14.3951 5.54807L13.0615 4.84612C12.9451 4.7848 12.8052 4.7848 12.6888 4.84612L11.3553 5.54825L10.0217 4.84612C9.90527 4.7848 9.7654 4.7848 9.649 4.84612L8.31579 5.54807L6.98374 4.84612C6.83023 4.76446 6.63884 4.79277 6.51462 4.91722L4.91815 6.51369C4.79431 6.63753 4.76544 6.82757 4.84705 6.98263L5.549 8.31894L4.84705 9.65548C4.78573 9.77206 4.78573 9.91132 4.84709 10.0279ZM22.447 11.5406L23.149 12.8742L22.447 14.208C22.3857 14.3246 22.3857 14.4641 22.447 14.5806L23.149 15.9138L22.447 17.2472C22.3857 17.3638 22.3857 17.5033 22.447 17.6199L23.149 18.9539L22.447 20.2902C22.3857 20.4068 22.3857 20.5458 22.447 20.6625L23.1099 21.9244L21.9255 23.1088L20.6673 22.4459C20.5509 22.3846 20.4111 22.3846 20.2947 22.4459L18.9619 23.1478L17.6283 22.4459C17.5119 22.3846 17.372 22.3846 17.2556 22.4459L15.922 23.148L14.5884 22.4459C14.4721 22.3846 14.3322 22.3846 14.2158 22.4459L12.8826 23.1478L11.549 22.4459C11.4326 22.3846 11.2927 22.3846 11.1763 22.4459L9.84236 23.148L8.50605 22.4457C8.44783 22.415 8.38418 22.3998 8.3201 22.3998C8.25602 22.3998 8.19237 22.415 8.13415 22.4457L6.87242 23.1088L5.69197 21.925L6.35487 20.667C6.41618 20.5502 6.41618 20.4107 6.35487 20.2942L5.65292 18.9611L6.35487 17.6275C6.41618 17.511 6.41618 17.3715 6.35487 17.2549L5.65292 15.9211L6.35487 14.5875C6.41618 14.4709 6.41618 14.3314 6.35487 14.2149L5.65292 12.8816L6.35487 11.5481C6.41618 11.4315 6.41618 11.292 6.35487 11.1754L5.65292 9.84143L6.35487 8.50512C6.41618 8.38855 6.41618 8.24947 6.35487 8.13284L5.69197 6.87111L6.87167 5.69141L8.12946 6.35413C8.24585 6.41544 8.38573 6.41544 8.50212 6.35413L9.83533 5.65218L11.1689 6.35413C11.2853 6.41544 11.4252 6.41544 11.5416 6.35413L12.8752 5.65199L14.2088 6.35413C14.3252 6.41544 14.465 6.41544 14.5814 6.35413L15.9146 5.65218L17.2482 6.35413C17.3646 6.41544 17.5045 6.41544 17.6209 6.35413L18.9545 5.65199L20.2912 6.35432C20.4076 6.41563 20.5467 6.41563 20.6631 6.35432L21.9255 5.69085L23.1095 6.8713L22.447 8.12853C22.3857 8.24534 22.3857 8.3848 22.447 8.50137L23.149 9.8344L22.447 11.168C22.3857 11.2845 22.3857 11.424 22.447 11.5406Z" fill="#411936"/>
</g>
<defs>
<clipPath id="clip0">
<rect width="24" height="24" fill="white"/>
</clipPath>
</defs>
</svg>
