<svg width="24" height="24" viewBox="0 0 24 24" fill="none" xmlns="http://www.w3.org/2000/svg">
<path d="M23.5129 18.2183C23.8273 17.8812 24 17.4437 24 16.9814V2.50122C24 1.48389 23.1724 0.65625 22.155 0.65625H2.77515C2.77094 0.65625 2.76654 0.65625 2.76233 0.656433C1.18671 0.660461 0 1.39362 0 2.36499V21.7132C0 22.6871 1.19293 23.4218 2.77496 23.4218C4.35718 23.4218 5.55048 22.6871 5.55048 21.7132V21.449H19.5969C19.8532 21.449 20.1059 21.3935 20.3373 21.29C20.3456 21.2867 20.3536 21.2833 20.3615 21.2796C20.5479 21.193 20.7164 21.0771 20.8625 20.9346C20.8629 20.9343 20.8632 20.9339 20.8636 20.9337C20.8683 20.929 20.8729 20.9244 20.8777 20.9196C20.8784 20.9191 20.8792 20.9183 20.8799 20.9176C20.8852 20.9123 20.8903 20.907 20.8954 20.9017L23.4844 18.2483C23.4895 18.243 23.4944 18.2377 23.4996 18.2325C23.5005 18.2314 23.5014 18.2305 23.5023 18.2296C23.5058 18.2258 23.5095 18.2221 23.5129 18.2183ZM2.77496 1.59393C3.38983 1.59393 3.88971 1.73767 4.21198 1.91803C4.46869 2.06195 4.61279 2.22894 4.61279 2.36517V2.36993C4.6051 2.67719 3.87396 3.1366 2.77496 3.1366C1.67047 3.1366 0.9375 2.67224 0.9375 2.36499C0.9375 2.05811 1.67047 1.59393 2.77496 1.59393ZM5.55048 20.5115V11.5267C5.55048 11.458 5.53564 11.3926 5.50909 11.3339C5.43549 11.1711 5.27179 11.0577 5.08154 11.0577C4.82281 11.0577 4.61279 11.2678 4.61279 11.5265V20.9802C4.61279 20.9826 4.61298 20.985 4.61298 20.9874V21.7132C4.61298 22.0203 3.87982 22.4843 2.77496 22.4843C1.67047 22.4843 0.9375 22.0203 0.9375 21.7132V3.66687C1.41998 3.92285 2.05756 4.0741 2.77496 4.0741C3.49274 4.0741 4.13031 3.92285 4.61279 3.66687V7.77649C4.61279 7.84534 4.62762 7.91071 4.65436 7.96948C4.72778 8.13226 4.89148 8.24542 5.08173 8.24542C5.34064 8.24542 5.55048 8.03558 5.55048 7.77667V2.36499C5.55048 2.08411 5.45123 1.823 5.27197 1.59375H22.155C22.6555 1.59375 23.0625 2.00079 23.0625 2.50122V16.9814C23.0625 17.0079 23.0614 17.0341 23.059 17.0603H21.3245C20.4261 17.0603 19.6952 17.7911 19.6952 18.6894V20.506C19.6628 20.5096 19.6298 20.5115 19.5969 20.5115H5.55048ZM22.1025 18.3221L20.6327 19.8285V18.6894C20.6327 18.308 20.9431 17.9976 21.3245 17.9976H22.4191L22.1025 18.3221Z" fill="#411936"/>
<path d="M11.933 4.42657C11.2047 4.30682 10.6348 3.73682 10.5151 3.00861C10.4744 2.76141 10.2629 2.58179 10.0125 2.58179C9.76196 2.58179 9.55048 2.76141 9.50983 3.00861C9.38989 3.737 8.82007 4.30682 8.09167 4.42676C7.84448 4.46741 7.66504 4.67871 7.66504 4.9292C7.66504 5.17987 7.84448 5.39117 8.09167 5.43182C8.82007 5.55176 9.38989 6.12158 9.50983 6.85016C9.55066 7.09735 9.76196 7.27661 10.0125 7.27661H10.0126C10.2631 7.27661 10.4744 7.09717 10.5151 6.84998C10.6348 6.12158 11.2048 5.55176 11.933 5.43182C12.1804 5.39117 12.3599 5.17987 12.3599 4.9292C12.3599 4.67871 12.1804 4.46722 11.933 4.42657ZM10.0125 5.63745C9.82349 5.35876 9.58289 5.11835 9.3042 4.9292C9.58289 4.74023 9.82349 4.49963 10.0125 4.22095C10.2014 4.49963 10.442 4.74023 10.7207 4.9292C10.442 5.11816 10.2014 5.35876 10.0125 5.63745Z" fill="#411936"/>
<path d="M11.933 10.55C11.2047 10.4302 10.6348 9.86023 10.5151 9.13202C10.4744 8.88464 10.2629 8.7052 10.0125 8.7052C9.76196 8.7052 9.55048 8.88464 9.50983 9.13202C9.38989 9.86023 8.82007 10.4302 8.09167 10.55C7.84448 10.5908 7.66504 10.8021 7.66504 11.0526C7.66504 11.3033 7.84448 11.5146 8.09167 11.5552C8.82007 11.6752 9.38989 12.245 9.50983 12.9736C9.55066 13.2208 9.76196 13.4 10.0125 13.4H10.0126C10.2629 13.4 10.4744 13.2206 10.5151 12.9734C10.6348 12.245 11.2048 11.6752 11.933 11.5552C12.1804 11.5146 12.3599 11.3033 12.3599 11.0526C12.3599 10.8021 12.1804 10.5906 11.933 10.55ZM10.0125 11.7609C9.82349 11.4822 9.58289 11.2416 9.3042 11.0526C9.58289 10.8636 9.82349 10.623 10.0125 10.3444C10.2014 10.623 10.442 10.8636 10.7207 11.0526C10.442 11.2416 10.2014 11.4822 10.0125 11.7609Z" fill="#411936"/>
<path d="M11.933 16.6734C11.2047 16.5535 10.6348 15.9836 10.5151 15.2552C10.4744 15.0081 10.2629 14.8286 10.0125 14.8286C9.76196 14.8286 9.55048 15.0081 9.50983 15.2552C9.38989 15.9836 8.82007 16.5536 8.09167 16.6734C7.84448 16.7141 7.66504 16.9255 7.66504 17.176C7.66504 17.4265 7.84448 17.638 8.09167 17.6786C8.82007 17.7984 9.38989 18.3684 9.50983 19.097C9.55066 19.3442 9.76196 19.5234 10.0125 19.5234H10.0126C10.2629 19.5233 10.4744 19.344 10.5151 19.0968C10.6348 18.3684 11.2048 17.7984 11.933 17.6786C12.1804 17.638 12.3599 17.4265 12.3599 17.176C12.3599 16.9255 12.1804 16.7141 11.933 16.6734ZM10.0125 17.8843C9.82349 17.6056 9.58289 17.365 9.3042 17.176C9.58289 16.9871 9.82349 16.7465 10.0125 16.4678C10.2014 16.7465 10.442 16.9871 10.7207 17.176C10.442 17.365 10.2014 17.6056 10.0125 17.8843Z" fill="#411936"/>
<path d="M15.3514 5.43182C16.0798 5.55176 16.6497 6.12158 16.7696 6.84998C16.8102 7.09717 17.0215 7.27661 17.2722 7.27661C17.5227 7.27661 17.734 7.09717 17.7747 6.84998C17.8946 6.12158 18.4644 5.55176 19.1928 5.43182C19.44 5.39117 19.6194 5.17987 19.6194 4.9292C19.6194 4.67871 19.44 4.46722 19.1928 4.42657C18.4644 4.30682 17.8946 3.73682 17.7747 3.00861C17.734 2.76141 17.5227 2.58179 17.272 2.58179C17.0215 2.58179 16.8101 2.76141 16.7694 3.00861C16.6497 3.737 16.0797 4.30682 15.3514 4.42676C15.1042 4.46741 14.9248 4.67871 14.9248 4.92938C14.9248 5.17987 15.1042 5.39117 15.3514 5.43182ZM17.2722 4.22095C17.4612 4.49963 17.7018 4.74023 17.9803 4.9292C17.7018 5.11816 17.4612 5.35876 17.2722 5.63745C17.0831 5.35876 16.8427 5.11835 16.564 4.9292C16.8427 4.74023 17.0833 4.49963 17.2722 4.22095Z" fill="#411936"/>
<path d="M19.1928 10.55C18.4644 10.4302 17.8946 9.86023 17.7747 9.13202C17.734 8.88464 17.5227 8.7052 17.2722 8.7052C17.0215 8.7052 16.8102 8.88464 16.7696 9.13202C16.6497 9.86023 16.0798 10.4302 15.3514 10.55C15.1042 10.5908 14.9248 10.8021 14.9248 11.0526C14.9248 11.3033 15.1042 11.5146 15.3514 11.5552C16.0798 11.6752 16.6497 12.245 16.7696 12.9734C16.8102 13.2206 17.0215 13.4 17.2722 13.4C17.5227 13.4 17.734 13.2206 17.7747 12.9734C17.8946 12.245 18.4644 11.6752 19.1928 11.5554C19.44 11.5148 19.6194 11.3033 19.6194 11.0528C19.6194 10.8021 19.44 10.5906 19.1928 10.55ZM17.2722 11.7609C17.0831 11.4822 16.8427 11.2416 16.564 11.0526C16.8427 10.8636 17.0831 10.623 17.2722 10.3444C17.4612 10.623 17.7018 10.8636 17.9803 11.0526C17.7018 11.2416 17.4612 11.4822 17.2722 11.7609Z" fill="#411936"/>
<path d="M19.1928 16.6734C18.4644 16.5535 17.8946 15.9836 17.7747 15.2552C17.734 15.0081 17.5227 14.8286 17.2722 14.8286C17.0215 14.8286 16.8102 15.0081 16.7696 15.2552C16.6497 15.9836 16.0798 16.5536 15.3514 16.6734C15.1042 16.7141 14.9248 16.9255 14.9248 17.176C14.9248 17.4267 15.1042 17.638 15.3514 17.6786C16.0798 17.7986 16.6497 18.3684 16.7696 19.0968C16.8102 19.344 17.0215 19.5234 17.2722 19.5234C17.5227 19.5234 17.734 19.344 17.7747 19.0968C17.8946 18.3684 18.4644 17.7986 19.1928 17.6786C19.44 17.638 19.6194 17.4267 19.6194 17.1762C19.6194 16.9255 19.44 16.7141 19.1928 16.6734ZM17.2722 17.8843C17.0831 17.6056 16.8427 17.365 16.564 17.176C16.8427 16.9871 17.0831 16.7465 17.2722 16.4678C17.4612 16.7465 17.7018 16.9871 17.9803 17.176C17.7018 17.365 17.4612 17.6056 17.2722 17.8843Z" fill="#411936"/>
<path d="M5.08203 9.18335C4.8233 9.18335 4.61328 9.39392 4.61328 9.65283C4.61328 9.91174 4.8233 10.1216 5.08203 10.1216C5.34094 10.1216 5.55078 9.91174 5.55078 9.65283V9.65155C5.55078 9.39264 5.34094 9.18335 5.08203 9.18335Z" fill="#411936"/>
</svg>
