<svg width="64" height="64" viewBox="0 0 64 64" fill="none" xmlns="http://www.w3.org/2000/svg">
<g clip-path="url(#clip0)">
<path d="M50.4999 55.8001H13.5001C10.5765 55.8001 8.2 53.4236 8.2 50.5V17.5C8.2 14.5764 10.5765 12.2002 13.5001 12.2002H50.4999C53.4235 12.2002 55.8 14.5764 55.8 17.5V50.5C55.8 53.4236 53.4235 55.8001 50.4999 55.8001ZM13.5001 14.8002C12.0117 14.8002 10.8 16.0115 10.8 17.5V50.5C10.8 51.9885 12.0116 53.2001 13.5001 53.2001H50.4999C51.9884 53.2001 53.2 51.9885 53.2 50.5V17.5C53.2 16.0115 51.9883 14.8002 50.4999 14.8002H13.5001Z" fill="#9E0059" stroke="#FAF2F7" stroke-width="0.4"/>
<path d="M54.5 26.8002H9.5C8.78245 26.8002 8.2 26.2178 8.2 25.5002C8.2 24.7827 8.78245 24.2002 9.5 24.2002H54.5C55.2175 24.2002 55.8 24.7827 55.8 25.5002C55.8 26.2178 55.2175 26.8002 54.5 26.8002Z" fill="#9E0059" stroke="#FAF2F7" stroke-width="0.4"/>
<path d="M19.5 19.8C18.7825 19.8 18.2 19.2175 18.2 18.5V9.5C18.2 8.78245 18.7825 8.2 19.5 8.2C20.2175 8.2 20.8 8.78245 20.8 9.5V18.5C20.8 19.2175 20.2175 19.8 19.5 19.8Z" fill="#9E0059" stroke="#FAF2F7" stroke-width="0.4"/>
<path d="M44.5 19.8C43.7825 19.8 43.2 19.2175 43.2 18.5V9.5C43.2 8.78245 43.7825 8.2 44.5 8.2C45.2175 8.2 45.8 8.78245 45.8 9.5V18.5C45.8 19.2175 45.2175 19.8 44.5 19.8Z" fill="#9E0059" stroke="#FAF2F7" stroke-width="0.4"/>
<path d="M21.5 46.7349C21.5684 45.4702 21.8281 44.3696 22.2793 43.4331C22.7373 42.4966 23.626 41.6455 24.9453 40.8799L26.9141 39.7417C27.7959 39.229 28.4146 38.7915 28.77 38.4292C29.3306 37.8618 29.6108 37.2124 29.6108 36.481C29.6108 35.6265 29.3545 34.9497 28.8418 34.4507C28.3291 33.9448 27.6455 33.6919 26.791 33.6919C25.5264 33.6919 24.6514 34.1704 24.166 35.1274C23.9062 35.6401 23.7627 36.3511 23.7354 37.2603H21.8589C21.8794 35.9819 22.1152 34.9395 22.5664 34.1328C23.3662 32.7109 24.7778 32 26.8013 32C28.4829 32 29.71 32.4546 30.4824 33.3638C31.2617 34.2729 31.6514 35.2847 31.6514 36.3989C31.6514 37.5747 31.2378 38.5796 30.4106 39.4136C29.9321 39.8989 29.0742 40.4868 27.8369 41.1772L26.4321 41.9565C25.7622 42.3257 25.2358 42.6777 24.853 43.0127C24.1694 43.6074 23.7388 44.2671 23.561 44.9917H31.5796V46.7349H21.5Z" fill="#9E0059"/>
<path d="M38.2139 32.0513C40.1143 32.0513 41.4883 32.834 42.3359 34.3994C42.9922 35.6094 43.3203 37.2671 43.3203 39.3726C43.3203 41.3687 43.0229 43.0195 42.4282 44.3252C41.5669 46.1982 40.1587 47.1348 38.2036 47.1348C36.4399 47.1348 35.1274 46.3691 34.2661 44.8379C33.5483 43.5596 33.1895 41.8438 33.1895 39.6904C33.1895 38.0225 33.4048 36.5903 33.8354 35.394C34.6421 33.1655 36.1016 32.0513 38.2139 32.0513ZM38.1934 45.4531C39.1504 45.4531 39.9126 45.0293 40.48 44.1816C41.0474 43.334 41.3311 41.7549 41.3311 39.4443C41.3311 37.7764 41.126 36.4058 40.7158 35.3325C40.3057 34.2524 39.5093 33.7124 38.3267 33.7124C37.2397 33.7124 36.4434 34.2251 35.9375 35.2505C35.4385 36.269 35.189 37.7729 35.189 39.7622C35.189 41.2593 35.3496 42.4624 35.6709 43.3716C36.1631 44.7593 37.0039 45.4531 38.1934 45.4531Z" fill="#9E0059"/>
</g>
<defs>
<clipPath id="clip0">
<rect width="48" height="48" fill="white" transform="translate(8 8)"/>
</clipPath>
</defs>
</svg>
