<svg width="64" height="64" viewBox="0 0 64 64" fill="none" xmlns="http://www.w3.org/2000/svg">
<path d="M48.4198 24.4196C48.4198 15.3513 41.0684 8 32.0001 8C22.9318 8 15.5805 15.3513 15.5805 24.4196C13.2362 24.7115 11.0195 26.244 11.0195 29.8016V38.3763C11.0195 42.39 13.8291 43.8495 16.4927 43.8495H19.1381C19.6419 43.8495 20.0503 43.441 20.0503 42.9373V25.2771C20.0503 24.7733 19.6419 24.3649 19.1381 24.3649H17.4049C17.4049 16.3042 23.9395 9.76967 32.0001 9.76967C40.0608 9.76967 46.5954 16.3042 46.5954 24.3649H44.8622C44.3584 24.3649 43.95 24.7733 43.95 25.2771V42.9099C43.95 43.4137 44.3584 43.8221 44.8622 43.8221H46.5954C46.3399 50.0889 43.3297 51.5576 37.3183 51.8221V51.2109C37.3183 50.2033 36.5015 49.3865 35.4939 49.3865H29.7561C28.7485 49.3865 27.9317 50.2033 27.9317 51.2109V54.1756C27.9317 55.1832 28.7485 56 29.7561 56H35.5121C36.5198 56 37.3365 55.1832 37.3365 54.1756V53.6465C43.1199 53.382 48.1187 52.187 48.4198 43.7674C50.7641 43.4755 52.9808 41.943 52.9808 38.3854V29.8107C52.9808 26.2349 50.7732 24.7115 48.4198 24.4196ZM18.2259 26.1254V41.9977H16.4471C15.0971 41.9977 12.7983 41.5234 12.7983 38.3489V29.7742C12.7983 26.6271 15.0697 26.1254 16.4471 26.1254H18.2259ZM35.5121 52.7982V54.1847H29.7561V51.2201H35.5121V52.7982ZM51.1564 38.3763C51.1564 41.5234 48.885 42.0251 47.5076 42.0251H45.7744V26.1893H47.5532C48.9032 26.1893 51.202 26.6636 51.202 29.8381L51.1564 38.3763Z" fill="#9E0059"/>
</svg>
