<svg width="64" height="64" viewBox="0 0 64 64" fill="none" xmlns="http://www.w3.org/2000/svg">
<g clip-path="url(#clip0)">
<path d="M50.1764 17.7187L32.1359 8.10577C31.8682 7.96293 31.5475 7.96493 31.2818 8.11078L13.7405 17.7237C13.4528 17.8816 13.2744 18.1833 13.2744 18.5116V31.0685C13.2849 41.3906 19.4005 50.7289 28.8581 54.8642L31.2929 55.9252C31.5204 56.0245 31.7795 56.025 32.0076 55.9262L34.7511 54.7414C44.3841 50.6958 50.651 41.2673 50.652 30.8194V18.5116C50.652 18.1798 50.4691 17.8745 50.1764 17.7187ZM48.8557 30.8194C48.8537 40.5471 43.0173 49.3245 34.0479 53.089L34.0419 53.092L31.6527 54.1234L29.5768 53.2178C20.7733 49.3686 15.0802 40.6769 15.0702 31.0685V19.0433L31.7194 9.91859L48.8557 19.0499V30.8194Z" fill="#9E0059"/>
<path d="M25.0933 30.4862C24.771 30.1088 24.2041 30.0642 23.8267 30.3865C23.4494 30.7082 23.4047 31.2756 23.727 31.6525L28.4713 37.2082C28.7881 37.5791 29.3429 37.6297 29.7208 37.322L40.7701 28.3326C41.155 28.0198 41.2132 27.454 40.8999 27.0691C40.5872 26.6847 40.0213 26.626 39.6364 26.9393L29.2677 35.3744L25.0933 30.4862Z" fill="#9E0059"/>
</g>
<defs>
<clipPath id="clip0">
<rect width="48" height="48" fill="white" transform="translate(8 8)"/>
</clipPath>
</defs>
</svg>
