<svg width="64" height="64" viewBox="0 0 64 64" fill="none" xmlns="http://www.w3.org/2000/svg">
<g clip-path="url(#clip0)">
<path d="M52.0796 47.1468C51.1307 47.1475 50.2028 46.8667 49.4134 46.34C48.624 45.8133 48.0086 45.0643 47.645 44.1877C47.2813 43.3112 47.1858 42.3465 47.3705 41.4157C47.5553 40.4849 48.0119 39.6297 48.6827 38.9585C49.3534 38.2872 50.2082 37.8299 51.1389 37.6445C52.0696 37.4592 53.0344 37.5539 53.9112 37.9169C54.788 38.2799 55.5374 38.8948 56.0647 39.6838C56.592 40.4728 56.8735 41.4005 56.8735 42.3494C56.8728 43.621 56.3677 44.8403 55.4689 45.7398C54.5701 46.6392 53.3512 47.1452 52.0796 47.1468ZM52.0796 39.3021C51.4768 39.3014 50.8873 39.4796 50.3857 39.814C49.8841 40.1484 49.493 40.6241 49.2618 41.1809C49.0306 41.7376 48.9697 42.3505 49.0869 42.9418C49.2041 43.5332 49.4941 44.0765 49.9201 44.503C50.3461 44.9295 50.8891 45.2201 51.4803 45.338C52.0716 45.4558 52.6845 45.3957 53.2415 45.1652C53.7985 44.9346 54.2747 44.544 54.6096 44.0428C54.9446 43.5416 55.1235 42.9523 55.1235 42.3494C55.1232 41.5419 54.8025 40.7676 54.2318 40.1962C53.6612 39.6249 52.8871 39.3033 52.0796 39.3021Z" fill="#9E0059"/>
<path d="M26.7992 47.1468C25.8502 47.1477 24.9222 46.8671 24.1327 46.3405C23.3432 45.814 22.7275 45.0651 22.3637 44.1885C21.9999 43.312 21.9042 42.3473 22.0888 41.4164C22.2734 40.4855 22.7299 39.6303 23.4007 38.9589C24.0714 38.2875 24.9262 37.8301 25.8569 37.6446C26.7876 37.4591 27.7524 37.5539 28.6293 37.9168C29.5062 38.2798 30.2557 38.8947 30.783 39.6837C31.3104 40.4727 31.5919 41.4004 31.5919 42.3494C31.5909 43.6207 31.0859 44.8397 30.1874 45.739C29.2889 46.6383 28.0704 47.1446 26.7992 47.1468ZM26.7992 39.3021C26.1963 39.3012 25.6067 39.4791 25.1049 39.8134C24.6032 40.1477 24.2119 40.6233 23.9805 41.18C23.7492 41.7368 23.6881 42.3496 23.8052 42.9411C23.9222 43.5325 24.2121 44.0759 24.6381 44.5026C25.0641 44.9292 25.6071 45.2199 26.1983 45.3379C26.7896 45.4558 27.4025 45.3958 27.9596 45.1653C28.5167 44.9347 28.9929 44.5442 29.328 44.0429C29.663 43.5417 29.8419 42.9523 29.8419 42.3494C29.8413 41.5422 29.5206 40.7682 28.9503 40.197C28.38 39.6258 27.6064 39.304 26.7992 39.3021Z" fill="#9E0059"/>
<path d="M58.3913 43.2244H55.9985C55.7664 43.2244 55.5438 43.1322 55.3797 42.9681C55.2156 42.804 55.1235 42.5815 55.1235 42.3494C55.1235 42.1174 55.2156 41.8948 55.3797 41.7307C55.5438 41.5666 55.7664 41.4744 55.9985 41.4744H58.1439V36.8346C58.1434 36.2073 57.9828 35.5905 57.6773 35.0426L52.9406 26.5504C52.9002 26.478 52.8411 26.4176 52.7695 26.3755C52.6979 26.3335 52.6165 26.3113 52.5335 26.3113H46.0783V41.4779H48.162C48.394 41.4779 48.6166 41.5701 48.7807 41.7342C48.9448 41.8983 49.037 42.1209 49.037 42.3529C49.037 42.585 48.9448 42.8075 48.7807 42.9716C48.6166 43.1357 48.394 43.2279 48.162 43.2279H45.2033C44.9712 43.2279 44.7487 43.1357 44.5846 42.9716C44.4205 42.8075 44.3283 42.585 44.3283 42.3529V25.4363C44.3283 25.2042 44.4205 24.9816 44.5846 24.8175C44.7487 24.6535 44.9712 24.5613 45.2033 24.5613H52.5335C52.9282 24.5611 53.3158 24.6663 53.6563 24.8661C53.9968 25.0658 54.2777 25.3529 54.4701 25.6976L59.2056 34.1909C59.6558 34.9993 59.8923 35.9093 59.8928 36.8346V41.7229C59.8922 42.121 59.7338 42.5025 59.4523 42.784C59.1709 43.0654 58.7893 43.2238 58.3913 43.2244Z" fill="#9E0059"/>
<path d="M22.8803 43.2245H14.4908C14.2588 43.2245 14.0362 43.1323 13.8721 42.9682C13.708 42.8041 13.6158 42.5815 13.6158 42.3495V35.6201C13.6158 35.388 13.708 35.1655 13.8721 35.0014C14.0362 34.8373 14.2588 34.7451 14.4908 34.7451C14.7229 34.7451 14.9454 34.8373 15.1095 35.0014C15.2736 35.1655 15.3658 35.388 15.3658 35.6201V41.4745H22.8803C23.1124 41.4745 23.3349 41.5666 23.499 41.7307C23.6631 41.8948 23.7553 42.1174 23.7553 42.3495C23.7553 42.5815 23.6631 42.8041 23.499 42.9682C23.3349 43.1323 23.1124 43.2245 22.8803 43.2245Z" fill="#9E0059"/>
<path d="M14.4908 32.5156C14.2588 32.5156 14.0362 32.4234 13.8721 32.2593C13.708 32.0952 13.6158 31.8726 13.6158 31.6406V25.7653C13.6158 25.5332 13.708 25.3106 13.8721 25.1465C14.0362 24.9825 14.2588 24.8903 14.4908 24.8903C14.7229 24.8903 14.9454 24.9825 15.1095 25.1465C15.2736 25.3106 15.3658 25.5332 15.3658 25.7653V31.6441C15.3649 31.8755 15.2723 32.0972 15.1083 32.2605C14.9443 32.4239 14.7223 32.5156 14.4908 32.5156Z" fill="#9E0059"/>
<path d="M45.2033 43.2244H30.7168C30.4848 43.2244 30.2622 43.1322 30.0981 42.9681C29.934 42.8041 29.8419 42.5815 29.8419 42.3494C29.8419 42.1174 29.934 41.8948 30.0981 41.7307C30.2622 41.5666 30.4848 41.4744 30.7168 41.4744H44.3283V18.5833H15.3658V22.1871C15.3658 22.4192 15.2736 22.6417 15.1095 22.8058C14.9454 22.9699 14.7229 23.0621 14.4908 23.0621C14.2588 23.0621 14.0362 22.9699 13.8721 22.8058C13.708 22.6417 13.6158 22.4192 13.6158 22.1871V18.4223C13.6164 18.0008 13.7842 17.5968 14.0823 17.2989C14.3804 17.001 14.7845 16.8336 15.206 16.8333H44.4893C44.9106 16.8339 45.3144 17.0015 45.6122 17.2993C45.9101 17.5972 46.0777 18.001 46.0783 18.4223V42.3494C46.0783 42.5815 45.9861 42.8041 45.822 42.9681C45.6579 43.1322 45.4354 43.2244 45.2033 43.2244Z" fill="#9E0059"/>
<path d="M17.9499 36.4951H6.84445C6.61238 36.4951 6.38982 36.4029 6.22573 36.2388C6.06163 36.0747 5.96945 35.8522 5.96945 35.6201C5.96945 35.388 6.06163 35.1655 6.22573 35.0014C6.38982 34.8373 6.61238 34.7451 6.84445 34.7451H17.9499C18.182 34.7451 18.4046 34.8373 18.5687 35.0014C18.7327 35.1655 18.8249 35.388 18.8249 35.6201C18.8249 35.8522 18.7327 36.0747 18.5687 36.2388C18.4046 36.4029 18.182 36.4951 17.9499 36.4951Z" fill="#9E0059"/>
<path d="M26.7991 32.5156H11.3023C11.0702 32.5156 10.8477 32.4234 10.6836 32.2593C10.5195 32.0952 10.4273 31.8726 10.4273 31.6406C10.4273 31.4085 10.5195 31.186 10.6836 31.0219C10.8477 30.8578 11.0702 30.7656 11.3023 30.7656H26.7991C27.0312 30.7656 27.2537 30.8578 27.4178 31.0219C27.5819 31.186 27.6741 31.4085 27.6741 31.6406C27.6741 31.8726 27.5819 32.0952 27.4178 32.2593C27.2537 32.4234 27.0312 32.5156 26.7991 32.5156Z" fill="#9E0059"/>
<path d="M10.8205 27.8956H4.76904C4.53698 27.8956 4.31442 27.8034 4.15032 27.6393C3.98623 27.4752 3.89404 27.2526 3.89404 27.0206C3.89404 26.7885 3.98623 26.566 4.15032 26.4019C4.31442 26.2378 4.53698 26.1456 4.76904 26.1456H10.8205C11.0526 26.1456 11.2752 26.2378 11.4393 26.4019C11.6034 26.566 11.6955 26.7885 11.6955 27.0206C11.6955 27.2526 11.6034 27.4752 11.4393 27.6393C11.2752 27.8034 11.0526 27.8956 10.8205 27.8956Z" fill="#9E0059"/>
<path d="M20.5237 23.0621H9.84172C9.60965 23.0621 9.38709 22.9699 9.223 22.8058C9.0589 22.6417 8.96672 22.4192 8.96672 22.1871C8.96672 21.955 9.0589 21.7325 9.223 21.5684C9.38709 21.4043 9.60965 21.3121 9.84172 21.3121H20.5237C20.7558 21.3121 20.9783 21.4043 21.1424 21.5684C21.3065 21.7325 21.3987 21.955 21.3987 22.1871C21.3987 22.4192 21.3065 22.6417 21.1424 22.8058C20.9783 22.9699 20.7558 23.0621 20.5237 23.0621Z" fill="#9E0059"/>
</g>
<defs>
<clipPath id="clip0">
<rect width="56" height="56" fill="white" transform="translate(4 4)"/>
</clipPath>
</defs>
</svg>
