<!-- Generated by IcoMoon.io -->
<svg version="1.1" xmlns="http://www.w3.org/2000/svg" width="1024" height="1024" viewBox="0 0 1024 1024">
<title></title>
<g id="icomoon-ignore">
</g>
<path d="M710.263 779.669c-3.204 0.67-6.366 1.481-9.476 2.423-19.307-25.638-46.857-43.034-77.346-49.788l20.676-39.991 42.065-42.031c32.175-32.192 32.175-84.578 0-116.77l-44.941-44.962 228.595-228.72c0.196-0.182 0.401-0.346 0.593-0.536 0.196-0.194 0.363-0.406 0.55-0.606l88.853-88.906c0.004-0.002 0.004-0.004 0.009-0.004 0-0.002 0-0.004 0.004-0.006l41.681-41.708c29.252-29.188 29.269-76.79 0.021-106.13-14.14-14.146-32.977-21.934-53.060-21.934-0.017 0-0.038 0-0.055 0-20.070 0.014-38.891 7.81-52.966 21.934l-41.694 41.716c0 0 0 0-0.004 0v0.002l-88.879 88.924c-0.192 0.18-0.397 0.344-0.589 0.532-0.192 0.194-0.358 0.402-0.542 0.602l-50.402 50.428c-7.808 7.814-7.808 20.476 0.004 28.286 7.812 7.806 20.48 7.804 28.284-0.008l36.821-36.84 49.519 49.544-215.019 215.138-49.519-49.544 51.285-51.312c7.808-7.814 7.804-20.476-0.009-28.286-7.817-7.808-20.48-7.806-28.288 0.008l-51.268 51.296-44.919-44.946c-15.535-15.542-36.267-24.102-58.372-24.102s-42.833 8.56-58.377 24.112l-42 42.078-80.99 41.97c-0.086 0.044-0.172 0.088-0.256 0.132l-78.010 40.425c-0.344 0.166-0.682 0.341-1.018 0.529l-125.87 65.229c-27.024 13.99-41.67 30.524-44.78 50.551-3.008 19.375 5.798 39.539 26.17 59.921l55.394 55.441c0.206 0.226 0.426 0.427 0.64 0.64l246.268 246.404c0.306 0.324 0.622 0.644 0.952 0.951l55.462 55.475c17.782 17.792 35.392 26.769 52.461 26.769 2.492 0 4.971-0.192 7.437-0.576 20.028-3.106 36.561-17.762 50.543-44.804l9.084-17.562c5.047 4.57 10.47 8.794 16.265 12.608 21.999 14.498 47.194 21.999 72.926 21.999 9.020 0 18.112-0.922 27.149-2.79 17.067-3.511 33.207-10.295 47.467-19.883 24.341 17.634 55.023 24.418 85.065 18.24 28.25-5.824 52.535-22.302 68.39-46.4 15.846-24.085 21.367-52.902 15.548-81.139-11.985-58.278-69.158-95.983-127.531-84.023zM948.463 40h0.021c9.395 0 18.193 3.626 24.755 10.192 13.666 13.71 13.683 35.942 0.017 49.578l-27.554 27.57-49.519-49.544 27.588-27.606c6.545-6.564 15.313-10.184 24.691-10.19zM806.746 167.282l61.163-61.194 49.515 49.544-61.158 61.194-49.519-49.544zM498.829 769.822l-284.39-284.544 41.428-21.466 279.22 279.373c-13.696 6.831-25.903 15.893-36.258 26.637zM339.665 420.382l263.637 263.782-23.718 45.875c-0.324 0.038-0.649 0.073-0.973 0.111l-285.488-285.649 46.542-24.119zM401.803 365.752c7.978-7.982 18.66-12.378 30.077-12.378s22.097 4.396 30.080 12.378l195.93 196.036c16.593 16.602 16.593 43.618 0.009 60.211l-30.106 30.084-256.062-256.203 30.072-30.128zM460.378 960.247c-7.279 14.076-14.989 22.699-21.146 23.65-5.807 0.909-15.085-4.544-25.477-14.942l-45.62-45.632 43.682-84.322c5.082-9.809 1.25-21.879-8.558-26.957-9.81-5.082-21.878-1.25-26.958 8.559l-37.838 73.037-89.92-89.941 63.306-63.526c7.796-7.821 7.774-20.489-0.050-28.284s-20.488-7.774-28.284 0.051l-63.248 63.467-89.968-90.044 73.018-37.871c9.806-5.086 13.632-17.156 8.546-26.961-5.084-9.805-17.16-13.636-26.962-8.546l-84.256 43.695-45.598-45.636c-10.396-10.398-15.84-19.699-14.938-25.51 0.958-6.165 9.574-13.879 23.65-21.167l113.426-58.782 298.233 298.398c-12.894 25.796-17.6 55.915-11.362 86.306 2.735 13.257 7.381 25.801 13.713 37.342l-17.391 33.617zM788.838 922.85c-9.98 15.168-25.267 25.54-43.042 29.205-22.643 4.663-45.879-2.389-62.144-18.846-7.479-7.565-19.567-7.957-27.516-0.887-12.019 10.688-26.842 18.082-42.884 21.38-24.35 5.030-49.207 0.26-69.99-13.431-20.783-13.696-35.004-34.671-40.034-59.042-10.342-50.385 22.174-99.785 72.486-110.123 0 0 0.004 0 0.009 0 6.332-1.306 12.668-1.937 18.935-1.937 33.071 0 64.119 17.617 80.934 47.309 5.235 9.237 16.777 12.774 26.291 8.060 5.193-2.577 10.769-4.501 16.491-5.696 36.698-7.514 72.7 16.222 80.252 52.928 3.665 17.775 0.188 35.917-9.788 51.081z"></path>
<path d="M954.496 843.874c-38.366 0-69.581 31.202-69.581 69.551 0 38.379 31.215 69.602 69.581 69.602 38.332 0 69.517-31.223 69.517-69.602 0-38.349-31.185-69.551-69.517-69.551zM954.496 943.027c-16.311 0-29.581-13.282-29.581-29.602 0-16.294 13.269-29.551 29.581-29.551 16.277 0 29.517 13.257 29.517 29.551 0 16.32-13.244 29.602-29.517 29.602z"></path>
<path d="M949.538 631.151c0-48.132-39.142-87.292-87.258-87.292-48.081 0-87.198 39.159-87.198 87.292s39.117 87.292 87.198 87.292c48.115 0 87.258-39.159 87.258-87.292zM862.281 678.443c-26.027 0-47.198-21.214-47.198-47.292s21.171-47.292 47.198-47.292c26.057 0 47.258 21.214 47.258 47.292s-21.197 47.292-47.258 47.292z"></path>
<path d="M664 301.787c5.137 0 10.274-1.96 14.187-5.872 7.808-7.81 7.808-20.474 0-28.286-7.812-7.81-20.476-7.81-28.288 0l-0.055 0.056c-7.808 7.81-7.782 20.446 0.030 28.256 3.9 3.9 9.011 5.846 14.127 5.846z"></path>
</svg>
