<!-- Generated by IcoMoon.io -->
<svg version="1.1" xmlns="http://www.w3.org/2000/svg" width="1024" height="1024" viewBox="0 0 1024 1024">
<title></title>
<g id="icomoon-ignore">
</g>
<path d="M646.609 709.431l-2.598-5.457c-4.079-8.563-9.647-16.593-16.73-23.68-33.425-33.425-87.825-33.421-121.246 0l-32.397 32.401c-11.093 11.093-29.137 11.093-40.23 0l-1.161-1.161h-0.004c-5.363-5.367-8.329-12.523-8.329-20.117 0-7.59 2.966-14.746 8.329-20.113h0.004l11.191-11.191c14.31-14.31 22.182-33.314 22.182-53.555 0-20.237-7.876-39.241-22.187-53.551-29.524-29.525-77.575-29.521-107.099 0l-11.192 11.196c-11.094 11.089-29.132 11.089-40.221 0l-0.003-0.004-1.161-1.161c-0.001 0-0.002-0.004-0.003-0.004M646.609 709.431l-359.837-183.607c-4.566 4.565-7.082 10.641-7.082 17.097 0 6.46 2.516 12.531 7.084 17.101l-3.020 3.012M646.609 709.431l53.363-53.372-359.59-359.584-53.362 53.362 5.454 2.598c8.567 4.080 16.596 9.645 23.68 16.729 33.424 33.424 33.424 87.822 0 121.242l-32.399 32.401c-5.365 5.367-8.331 12.523-8.331 20.113s2.964 14.746 8.331 20.113M646.609 709.431l-362.854-146.398M850.731 4.405v0c37.845-1.722 75.004 12.677 101.82 39.495 26.816 26.816 41.212 63.931 39.492 101.815s-19.418 73.545-48.55 97.824l-225.579 187.983 50.786 50.786c49.020 49.020 49.020 128.794 0 177.813l-198.029 198.029c-20.254 20.258-31.415 47.206-31.415 75.849 0 47.27-38.464 85.734-85.734 85.734s-85.734-38.464-85.734-85.734c0-28.642-11.164-55.59-31.418-75.849v0l-297.024-297.024c-10.050-10.052-10.050-26.342 0-36.395l296.984-296.983c49.021-49.020 128.792-49.018 177.812 0l50.786 50.786 187.981-225.577c24.277-29.135 59.938-46.833 97.822-48.551zM96.952 539.908l-3.017 3.021 278.827 278.827c29.986 29.986 46.493 69.837 46.493 112.243 0 18.897 15.37 34.266 34.267 34.266s34.266-15.369 34.266-34.266c0-42.406 16.508-82.253 46.494-112.239l56.619-56.619c6.46-6.464 10.027-15.078 10.027-24.222 0-9.148-3.571-17.766-10.035-24.23v0c-13.363-13.359-35.093-13.363-48.461 0h-0.004l-32.397 32.401c-31.155 31.155-81.86 31.155-113.013 0l-1.162-1.165c-31.156-31.151-31.156-81.856 0-113.011l11.192-11.191c4.578-4.578 7.108-10.684 7.108-17.161 0-6.473-2.53-12.578-7.108-17.156v0c-9.464-9.463-24.851-9.463-34.317-0.004l-0.001 0.004-11.192 11.191c-31.152 31.151-81.852 31.151-113.004 0l-1.166-1.165c-15.1-15.1-23.408-35.153-23.408-56.508 0-21.35 8.306-41.408 23.407-56.508l32.398-32.397c6.466-6.464 10.038-15.087 10.038-24.23 0-9.145-3.572-17.764-10.038-24.23s-15.085-10.036-24.229-10.036c-9.146 0-17.765 3.569-24.231 10.036l-134.35 134.348zM732.847 616.158l3.477 3.477 2.953-3.93c9.6-12.779 14.784-28.25 14.784-44.493 0-19.827-7.727-38.494-21.751-52.514l-254.558-254.559c-26.415-26.418-67.926-28.73-96.994-6.966l-3.941 2.951 356.031 356.033zM678.622 392.222l2.752 2.755 229.175-190.976c18.308-15.258 29.005-36.809 30.084-60.619 1.079-23.808-7.625-46.239-24.478-63.090-16.849-16.852-39.313-25.577-63.095-24.473h0.004c-23.808 1.078-45.359 11.776-60.617 30.085l-190.976 229.172 77.15 77.147z"></path>
<path d="M856.853 169.583c16.567 0 29.999-13.431 29.999-30s-13.431-30-29.999-30c-16.567 0-29.999 13.431-29.999 30s13.431 30 29.999 30z"></path>
</svg>
