<!-- Generated by IcoMoon.io -->
<svg version="1.1" xmlns="http://www.w3.org/2000/svg" width="1024" height="1024" viewBox="0 0 1024 1024">
<title></title>
<g id="icomoon-ignore">
</g>
<path d="M906.665 1019.731h-789.329c-62.37 0-113.069-50.699-113.069-113.069v-704.001c0-62.37 50.699-113.062 113.069-113.062h789.329c62.37 0 113.069 50.692 113.069 113.062v704.001c0 62.37-50.699 113.069-113.069 113.069zM117.336 145.067c-31.754 0-57.603 25.839-57.603 57.595v704.001c0 31.755 25.848 57.602 57.603 57.602h789.329c31.755 0 57.602-25.847 57.602-57.602v-704.001c0-31.756-25.85-57.595-57.602-57.595h-789.329z"></path>
<path d="M992 401.067h-960c-15.308 0-27.733-12.427-27.733-27.733s12.426-27.733 27.733-27.733h960c15.307 0 27.733 12.427 27.733 27.733s-12.427 27.733-27.733 27.733z"></path>
<path d="M245.333 251.733c-15.307 0-27.733-12.427-27.733-27.733v-192c0-15.308 12.427-27.733 27.733-27.733s27.733 12.426 27.733 27.733v192c0 15.307-12.427 27.733-27.733 27.733z"></path>
<path d="M778.667 251.733c-15.307 0-27.733-12.427-27.733-27.733v-192c0-15.308 12.427-27.733 27.733-27.733s27.733 12.426 27.733 27.733v192c0 15.307-12.427 27.733-27.733 27.733z"></path>
<path d="M288 826.345c1.459-26.98 6.999-50.46 16.625-70.438 9.771-19.979 28.73-38.135 56.875-54.468l42.001-24.282c18.812-10.938 32.011-20.271 39.593-28 11.959-12.105 17.937-25.958 17.937-41.562 0-18.229-5.468-32.668-16.405-43.313-10.938-10.793-25.521-16.188-43.75-16.188-26.978 0-45.645 10.208-56 30.624-5.542 10.938-8.604 26.106-9.186 45.502h-40.032c0.437-27.273 5.468-49.51 15.093-66.72 17.062-30.334 47.177-45.5 90.345-45.5 35.874 0 62.052 9.698 78.53 29.094 16.625 19.394 24.939 40.979 24.939 64.749 0 25.084-8.823 46.522-26.47 64.314-10.208 10.353-28.51 22.895-54.906 37.623l-29.969 16.625c-14.291 7.876-25.521 15.386-33.687 22.532-14.583 12.687-23.77 26.761-27.563 42.219h171.063v37.188h-215.031z"></path>
<path d="M644.563 513.094c40.542 0 69.854 16.698 87.936 50.093 14.001 25.813 21.001 61.178 21.001 106.095 0 42.583-6.345 77.801-19.031 105.655-18.374 39.957-48.416 59.938-90.125 59.938-37.626 0-65.626-16.335-84-49.001-15.313-27.27-22.967-63.874-22.967-109.813 0-35.582 4.593-66.135 13.779-91.657 17.21-47.541 48.346-71.311 93.408-71.311zM644.126 798.999c20.416 0 36.676-9.041 48.781-27.125 12.105-18.082 18.157-51.77 18.157-101.062 0-35.582-4.375-64.821-13.126-87.718-8.749-23.042-25.739-34.562-50.967-34.562-23.189 0-40.177 10.938-50.97 32.813-10.645 21.728-15.968 53.811-15.968 96.25 0 31.938 3.426 57.604 10.281 77.001 10.5 29.604 28.437 44.405 53.813 44.405z"></path>
</svg>
