<!-- Generated by IcoMoon.io -->
<svg version="1.1" xmlns="http://www.w3.org/2000/svg" width="1024" height="1024" viewBox="0 0 1024 1024">
<title></title>
<g id="icomoon-ignore">
</g>
<path d="M469.333 682.667c-4.267 0-12.8-4.267-17.067-4.267l-128-128c-8.533-8.533-8.533-21.333 0-29.867s21.333-8.533 29.867 0l110.933 110.933 196.267-238.933c8.533-8.533 21.333-8.533 29.867-4.267 8.533 8.533 8.533 21.333 4.267 29.867l-213.333 256c0 4.267-4.267 8.533-12.8 8.533 0 0 0 0 0 0z"></path>
<path d="M512 960c-247.467 0-448-200.533-448-448s200.533-448 448-448c247.467 0 448 200.533 448 448s-200.533 448-448 448zM512 106.667c-221.867 0-405.333 183.467-405.333 405.333s183.467 405.333 405.333 405.333 405.333-183.467 405.333-405.333-183.467-405.333-405.333-405.333z"></path>
</svg>
