<!-- Generated by IcoMoon.io -->
<svg version="1.1" xmlns="http://www.w3.org/2000/svg" width="1024" height="1024" viewBox="0 0 1024 1024">
<title></title>
<g id="icomoon-ignore">
</g>
<path d="M347.999 877.998l-333.999-331.999c-9.333-9.333-14-21.333-14-36s4.667-26.666 14-36l74-72c9.333-10.667 21-15.999 35-15.999s26.334 5.332 37 15.999l224 223.999 479.997-479.999c10.67-10.667 22.999-16 37.001-16s25.668 5.333 35 16l74.001 72c9.332 9.333 14.001 21.333 14.001 36s-4.669 26.666-14.001 36l-589.999 587.999c-9.333 10.67-21.333 16.002-36 16.002s-26.667-5.332-36-16.002z"></path>
</svg>
