<!-- Generated by IcoMoon.io -->
<svg version="1.1" xmlns="http://www.w3.org/2000/svg" width="1024" height="1024" viewBox="0 0 1024 1024">
<title></title>
<g id="icomoon-ignore">
</g>
<path d="M853.333 896c-12.8 0-21.333-4.267-29.867-12.8l-311.467-311.467-311.467 311.467c-17.067 17.067-42.667 17.067-59.733 0s-17.067-42.667 0-59.733l311.467-311.467-311.467-311.467c-8.533-8.533-12.8-17.067-12.8-29.867s4.267-21.333 12.8-29.867c17.067-17.067 42.667-17.067 59.733 0l311.467 311.467 311.467-311.467c17.067-17.067 42.667-17.067 59.733 0s17.067 42.667 0 59.733l-311.467 311.467 311.467 311.467c8.533 8.533 12.8 21.333 12.8 29.867s-4.267 21.333-12.8 29.867-17.067 12.8-29.867 12.8z"></path>
</svg>
