<!-- Generated by IcoMoon.io -->
<svg version="1.1" xmlns="http://www.w3.org/2000/svg" width="1024" height="1024" viewBox="0 0 1024 1024">
<title></title>
<g id="icomoon-ignore">
</g>
<path d="M4.267 512c0-281.6 226.133-507.733 507.733-507.733 277.333 0 503.467 226.133 507.733 499.2v0c0 0 0 0 0 0s0 0 0 0 0 0 0 0 0 0 0 4.267c0 0 0 0 0 4.267s0 8.533 0 17.067c0 17.067-4.267 34.133-8.533 55.467-8.533 42.667-34.133 89.6-85.333 110.933s-115.2 8.533-157.867-34.133c-29.867-29.867-81.067-29.867-110.933 0s-29.867 81.067 0 110.933c38.4 38.4 55.467 102.4 34.133 153.6-8.533 17.067-21.333 38.4-46.933 59.733-25.6 17.067-68.267 34.133-132.267 34.133-281.6 0-507.733-226.133-507.733-507.733zM806.4 627.2v0c21.333 21.333 64 38.4 102.4 21.333v0c34.133-12.8 51.2-51.2 55.467-81.067 4.267-17.067 4.267-29.867 4.267-42.667 0-4.267 0-8.533 0-12.8v-4.267c0 0 0 0 0 0s0 0 0 0v0 0c-8.533-251.733-213.333-452.267-456.533-452.267-251.733 0-456.533 204.8-456.533 456.533s204.8 456.533 452.267 456.533c68.267 0 115.2-21.333 132.267-59.733v0c17.067-38.4 0-76.8-21.333-98.133-51.2-51.2-51.2-132.267 0-183.467v0c51.2-51.2 136.533-51.2 187.733 0z"></path>
<path d="M512 1024c-281.6 0-512-230.4-512-512s230.4-512 512-512c277.333 0 507.733 226.133 512 503.467v8.533c0 4.267 0 12.8 0 17.067 0 21.333-4.267 38.4-8.533 55.467-12.8 55.467-42.667 93.867-85.333 115.2-51.2 21.333-119.467 8.533-162.133-34.133-29.867-29.867-76.8-29.867-106.667 0-12.8 12.8-21.333 34.133-21.333 51.2s8.533 38.4 21.333 51.2c42.667 42.667 55.467 106.667 34.133 157.867-8.533 17.067-21.333 42.667-51.2 59.733-34.133 25.6-81.067 38.4-132.267 38.4zM512 8.533c-277.333 0-503.467 226.133-503.467 503.467s226.133 503.467 503.467 503.467c51.2 0 98.133-12.8 128-34.133 25.6-17.067 42.667-42.667 46.933-55.467 21.333-51.2 8.533-110.933-29.867-149.333-17.067-17.067-25.6-34.133-25.6-59.733s8.533-42.667 25.6-59.733c29.867-29.867 85.333-29.867 115.2 0 38.4 38.4 102.4 51.2 153.6 34.133 42.667-17.067 68.267-55.467 81.067-106.667 4.267-17.067 8.533-34.133 8.533-55.467 0-8.533 0-12.8 0-17.067v-4.267c0 0 0 0 0-4.267v0c-8.533-273.067-234.667-494.933-503.467-494.933zM512 972.8c-256 0-460.8-204.8-460.8-460.8s204.8-460.8 460.8-460.8c247.467 0 456.533 200.533 460.8 452.267v0 4.267c0 4.267 0 8.533 0 12.8 0 17.067 0 29.867-4.267 42.667-8.533 42.667-25.6 72.533-55.467 85.333v0h-4.267c0 0 0 0 0 0h-4.267c-38.4 12.8-81.067-4.267-102.4-25.6-46.933-46.933-128-46.933-179.2 0-46.933 46.933-46.933 128 0 174.933 21.333 21.333 38.4 64 25.6 98.133v0 4.267c0 0 0 0 0 0v4.267c-21.333 46.933-68.267 68.267-136.533 68.267zM512 59.733c-251.733 0-452.267 204.8-452.267 452.267s200.533 452.267 448 452.267c68.267 0 110.933-21.333 128-55.467v-4.267c12.8-34.133 0-72.533-21.333-93.867-51.2-51.2-51.2-136.533 0-187.733s136.533-51.2 187.733 0c21.333 21.333 59.733 34.133 93.867 21.333h4.267c25.6-12.8 42.667-38.4 51.2-76.8 4.267-12.8 4.267-25.6 4.267-42.667 0-4.267 0-8.533 0-12.8v-4.267c0 0 0 0 0 0 0-247.467-200.533-448-443.733-448z"></path>
<path d="M810.667 537.6c-46.933 0-85.333-38.4-85.333-85.333s38.4-85.333 85.333-85.333c46.933 0 85.333 38.4 85.333 85.333s-38.4 85.333-85.333 85.333zM810.667 486.4c17.067 0 34.133-17.067 34.133-34.133s-17.067-34.133-34.133-34.133c-17.067 0-34.133 17.067-34.133 34.133s17.067 34.133 34.133 34.133z"></path>
<path d="M810.667 541.867c-51.2 0-89.6-38.4-89.6-89.6s38.4-89.6 89.6-89.6 89.6 38.4 89.6 89.6-38.4 89.6-89.6 89.6zM810.667 371.2c-46.933 0-81.067 38.4-81.067 81.067s38.4 81.067 81.067 81.067 81.067-38.4 81.067-81.067-34.133-81.067-81.067-81.067zM810.667 490.667c-21.333 0-38.4-17.067-38.4-38.4s17.067-38.4 38.4-38.4 38.4 17.067 38.4 38.4-17.067 38.4-38.4 38.4zM810.667 422.4c-17.067 0-29.867 12.8-29.867 29.867s12.8 29.867 29.867 29.867 29.867-12.8 29.867-29.867-12.8-29.867-29.867-29.867z"></path>
<path d="M362.667 213.333c0-46.933 38.4-85.333 85.333-85.333s85.333 38.4 85.333 85.333-38.4 85.333-85.333 85.333c-46.933 0-85.333-38.4-85.333-85.333zM413.867 213.333c0 17.067 17.067 34.133 34.133 34.133s34.133-17.067 34.133-34.133-12.8-34.133-34.133-34.133c-17.067 0-34.133 12.8-34.133 34.133z"></path>
<path d="M448 302.933c-46.933 0-89.6-42.667-89.6-89.6s38.4-89.6 89.6-89.6 89.6 38.4 89.6 89.6-38.4 89.6-89.6 89.6zM448 132.267c-42.667 0-81.067 34.133-81.067 81.067s38.4 81.067 81.067 81.067 85.333-38.4 85.333-81.067-38.4-81.067-85.333-81.067zM448 251.733c-21.333 0-38.4-17.067-38.4-38.4s17.067-38.4 38.4-38.4 38.4 17.067 38.4 38.4-17.067 38.4-38.4 38.4zM448 183.467c-17.067 0-29.867 12.8-29.867 29.867s12.8 29.867 29.867 29.867 29.867-12.8 29.867-29.867-12.8-29.867-29.867-29.867z"></path>
<path d="M354.133 392.533c0 46.933-38.4 85.333-85.333 85.333s-85.333-38.4-85.333-85.333c0-46.933 38.4-85.333 85.333-85.333s85.333 38.4 85.333 85.333zM302.933 392.533c0-17.067-17.067-34.133-34.133-34.133s-34.133 17.067-34.133 34.133 17.067 34.133 34.133 34.133c21.333 0 34.133-17.067 34.133-34.133z"></path>
<path d="M268.8 482.133c-51.2 0-89.6-38.4-89.6-89.6s38.4-89.6 89.6-89.6 89.6 38.4 89.6 89.6-38.4 89.6-89.6 89.6zM268.8 311.467c-46.933 0-81.067 38.4-81.067 81.067s38.4 81.067 81.067 81.067 81.067-38.4 81.067-81.067-34.133-81.067-81.067-81.067zM268.8 430.933c-21.333 0-38.4-17.067-38.4-38.4s17.067-38.4 38.4-38.4 38.4 17.067 38.4 38.4-17.067 38.4-38.4 38.4zM268.8 362.667c-17.067 0-29.867 12.8-29.867 29.867s12.8 29.867 29.867 29.867 29.867-12.8 29.867-29.867-12.8-29.867-29.867-29.867z"></path>
<path d="M183.467 631.467c0-46.933 38.4-85.333 85.333-85.333s85.333 38.4 85.333 85.333-38.4 85.333-85.333 85.333c-46.933 0-85.333-38.4-85.333-85.333zM234.667 631.467c0 17.067 17.067 34.133 34.133 34.133s34.133-17.067 34.133-34.133-12.8-34.133-34.133-34.133c-17.067 0-34.133 17.067-34.133 34.133z"></path>
<path d="M268.8 721.067c-51.2 0-89.6-38.4-89.6-89.6s38.4-89.6 89.6-89.6 89.6 38.4 89.6 89.6-38.4 89.6-89.6 89.6zM268.8 550.4c-46.933 0-81.067 38.4-81.067 81.067s38.4 81.067 81.067 81.067 81.067-38.4 81.067-81.067-34.133-81.067-81.067-81.067zM268.8 669.867c-21.333 0-38.4-17.067-38.4-38.4s17.067-38.4 38.4-38.4 38.4 17.067 38.4 38.4-17.067 38.4-38.4 38.4zM268.8 601.6c-17.067 0-29.867 12.8-29.867 29.867s12.8 29.867 29.867 29.867 29.867-12.8 29.867-29.867-12.8-29.867-29.867-29.867z"></path>
<path d="M362.667 810.667c0-46.933 38.4-85.333 85.333-85.333s85.333 38.4 85.333 85.333c0 46.933-38.4 85.333-85.333 85.333s-85.333-38.4-85.333-85.333zM413.867 810.667c0 17.067 17.067 34.133 34.133 34.133s34.133-17.067 34.133-34.133c0-17.067-17.067-34.133-34.133-34.133s-34.133 17.067-34.133 34.133z"></path>
<path d="M448 900.267c-51.2 0-89.6-38.4-89.6-89.6s38.4-89.6 89.6-89.6 89.6 38.4 89.6 89.6-38.4 89.6-89.6 89.6zM448 729.6c-46.933 0-81.067 38.4-81.067 81.067s38.4 81.067 81.067 81.067 81.067-38.4 81.067-81.067-34.133-81.067-81.067-81.067zM448 849.067c-21.333 0-38.4-17.067-38.4-38.4s17.067-38.4 38.4-38.4 38.4 17.067 38.4 38.4-17.067 38.4-38.4 38.4zM448 780.8c-17.067 0-29.867 12.8-29.867 29.867s12.8 29.867 29.867 29.867 29.867-12.8 29.867-29.867-12.8-29.867-29.867-29.867z"></path>
</svg>
