<!-- Generated by IcoMoon.io -->
<svg version="1.1" xmlns="http://www.w3.org/2000/svg" width="1024" height="1024" viewBox="0 0 1024 1024">
<title></title>
<g id="icomoon-ignore">
</g>
<path d="M333.816 496.418c44.286 0 80.314-36.028 80.314-80.316 0-44.286-36.030-80.316-80.314-80.316-44.288 0-80.316 36.030-80.316 80.316 0 44.288 36.028 80.316 80.316 80.316zM333.816 365.786c27.744 0 50.314 22.572 50.314 50.316 0 27.746-22.57 50.317-50.314 50.317s-50.316-22.571-50.316-50.317c0-27.744 22.572-50.316 50.316-50.316z"></path>
<path d="M510.66 412.348c43.204 0 78.362-35.154 78.362-78.364s-35.153-78.364-78.362-78.364c-43.213 0-78.37 35.154-78.37 78.364s35.157 78.364 78.37 78.364zM510.66 285.62c26.667 0 48.363 21.696 48.363 48.364s-21.696 48.364-48.363 48.364c-26.671 0-48.367-21.696-48.367-48.364s21.696-48.364 48.367-48.364z"></path>
<path d="M366.074 876.945c43.208 0 78.363-35.153 78.363-78.362 0-43.213-35.153-78.366-78.363-78.366s-78.366 35.153-78.366 78.366c0 43.209 35.156 78.362 78.366 78.362zM366.074 750.221c26.668 0 48.364 21.696 48.364 48.363 0 26.671-21.696 48.367-48.364 48.367s-48.366-21.696-48.366-48.367c0-26.667 21.698-48.363 48.366-48.363z"></path>
<path d="M550.618 936.175c43.209 0 78.362-35.153 78.362-78.362 0-43.213-35.153-78.366-78.362-78.366-43.213 0-78.366 35.153-78.366 78.366 0 43.209 35.153 78.362 78.366 78.362zM550.618 809.446c26.667 0 48.363 21.696 48.363 48.367 0 26.667-21.696 48.363-48.363 48.363-26.671 0-48.367-21.696-48.367-48.363 0-26.671 21.696-48.367 48.367-48.367z"></path>
<path d="M169.917 613.854c0 50.428 41.024 91.452 91.449 91.452s91.449-41.024 91.449-91.452c0-50.423-41.024-91.447-91.449-91.447s-91.449 41.024-91.449 91.447zM261.366 552.405c33.882 0 61.449 27.567 61.449 61.449 0 33.886-27.566 61.449-61.449 61.449s-61.449-27.563-61.449-61.449c0-33.882 27.566-61.449 61.449-61.449z"></path>
<path d="M92.292 598.118c0 226.278 194.932 398.272 422.4 412.13 0.311 0.017 0.619 0.026 0.926 0.026 7.868 0 14.473-6.131 14.959-14.089 0.503-8.265-5.794-15.377-14.059-15.881-221.063-13.47-394.227-181.342-394.227-382.187 0-227.554 216.663-403.138 464.26-380.71 11.264 11.738 25.122 21.146 39.625 28.032-1.19 5.482-0.981 11.33 0.461 16.616l29.687 109.193c-6.912 8.078-9.314 19.076-6.558 29.202l7.066 25.996c4.301 15.833 20.122 25.962 36.292 23.159l14.012 60.676c-50.667 23.083-78.374 53.99-78.374 87.842 0 33.967 28.318 65.391 79.731 88.478 18.287 8.205 34.108 19.456 47.087 33.463 16.499 72.431 21.572 95.411 33.664 131.823-11.196 48.836-44.668 86.272-92.369 103.070-36.399 12.813-74.278 21.026-112.589 24.401-8.252 0.725-14.353 8.004-13.623 16.256 0.725 8.256 8.030 14.345 16.256 13.628 40.811-3.597 81.156-12.339 119.919-25.993 44.126-15.535 78.963-47.014 98.611-87.607 20.062 49.216 38.345 79.629 55.343 109.269 8.593 14.993 26.24 22.298 42.918 17.762 16.674-4.535 28.19-19.767 28.015-37.047-0.516-50.244 0.811-125.777-34.496-238.319-2.479-7.906-10.893-12.301-18.799-9.822s-12.301 10.897-9.822 18.799c33.139 105.634 32.567 175.714 33.122 229.653 0.038 3.631-2.385 6.831-5.888 7.787-3.503 0.951-7.219-0.585-9.024-3.733-63.113-110.063-71.066-142.707-102.882-280.461 0 0-61.807-267.665-61.807-267.665l44.079-11.985 81.438 259.593c2.479 7.902 10.893 12.301 18.803 9.822 7.902-2.483 12.301-10.901 9.822-18.803l-54.703-174.366c82.645-33.485 105.762-144.478 35.012-206.264-28.996-25.318-61.495-46.913-96.623-64.367l-2.453-9.024c-1.502-5.516-4.271-10.462-8.038-14.544 15.138-22.358 30.246-56.937 19.247-97.405-10.564-38.841-36.527-53.827-64.017-69.691-16.67-9.622-33.911-19.572-50.543-36.126-16.162-16.078-42.859-8.856-48.657 13.228-5.961 22.698-15.795 40.008-25.297 56.747-15.846 27.906-35.145 60.381-14.703 107.295-254.627-10.962-473.204 173.722-473.204 412.144zM744.495 672.073c-7.479-4.796-15.377-9.101-23.714-12.843-39.415-17.698-62.020-39.97-62.020-61.111 0-20.122 19.917-40.798 55.275-57.95l30.46 131.904zM836.843 322.461c53.103 46.369 35.977 129.076-24.277 154.975-15.492-49.382-11.294-35.994-17.434-55.57 15.689-6.006 23.787-22.82 19.567-38.344l-7.066-25.996c-2.769-10.178-10.458-18.42-20.442-21.862l-16.422-60.405c23.646 13.674 45.777 29.476 66.074 47.202zM776.213 363.983l0.004-0.002c0.964-0.26 2.155 0.268 2.466 1.416l7.066 25.993c0.29 1.072-0.346 2.18-1.417 2.47-20.070 5.458-77.786 21.148-96.085 26.124-1.045 0.292-2.172-0.324-2.47-1.414l-7.066-25.996c-0.307-1.146 0.478-2.216 1.417-2.47l96.085-26.121zM756.783 338.177l-72.969 19.837-28.228-103.833c-0.73-2.67 0.943-5.452 3.524-6.156l63.292-17.207c2.458-0.674 5.376 0.668 6.153 3.524 9.284 34.15 2.773 10.198 28.228 103.835zM606.285 93.498c9.766-17.192 20.8-36.63 27.827-62.419 19.046 18.65 38.443 29.842 55.59 39.739 24.815 14.322 42.748 24.668 50.061 51.58 8.943 32.883-6.451 61.555-19.204 78.389-1.929 0.174-4.194 0.586-6.033 1.086l-63.292 17.208c-1.929 0.524-4.143 1.358-5.743 2.116-26.534-10.89-48.67-29.96-56.26-57.871-7.313-26.912 2.906-44.913 17.054-69.827z"></path>
</svg>
