<!-- Generated by IcoMoon.io -->
<svg version="1.1" xmlns="http://www.w3.org/2000/svg" width="1024" height="1024" viewBox="0 0 1024 1024">
<title></title>
<g id="icomoon-ignore">
</g>
<path fill="#9e9aa4" d="M4.3 512c0-281.6 226.1-507.7 507.7-507.7 277.3 0 503.5 226.1 507.7 499.2v0 0 0 0c0 0 0 0 0 4.3 0 0 0 0 0 4.3s0 8.5 0 17.1c0 17.1-4.3 34.1-8.5 55.5-8.5 42.7-34.1 89.6-85.3 110.9s-115.2 8.4-157.9-34.3c-29.9-29.9-81.1-29.9-110.9 0s-29.9 81.1 0 110.9c38.4 38.4 55.5 102.4 34.1 153.6-8.5 17.1-21.3 38.4-46.9 59.7-25.6 17.1-68.3 34.1-132.3 34.1-281.6 0.1-507.7-226-507.7-507.6v0zM806.4 627.2v0c21.3 21.3 64 38.4 102.4 21.3v0c34.1-12.8 51.2-51.2 55.5-81.1 4.3-17.1 4.3-29.9 4.3-42.7 0-4.3 0-8.5 0-12.8v-4.3c-8.6-251.6-213.4-452.1-456.6-452.1-251.7 0-456.5 204.8-456.5 456.5s204.8 456.5 452.3 456.5c68.3 0 115.2-21.3 132.3-59.7v0c17.1-38.4 0-76.8-21.3-98.1-51.2-51.2-51.2-132.3 0-183.5v0c51.1-51.2 136.4-51.2 187.6 0v0z"></path>
<path fill="#fbfbfb" d="M512 1024c-281.6 0-512-230.4-512-512s230.4-512 512-512c277.3 0 507.7 226.1 512 503.5v8.5c0 4.3 0 12.8 0 17.1 0 21.3-4.3 38.4-8.5 55.5-12.8 55.5-42.7 93.9-85.3 115.2-51.2 21.3-119.5 8.5-162.1-34.1-29.9-29.9-76.8-29.9-106.7 0-12.8 12.8-21.3 34.1-21.3 51.2s8.5 38.4 21.3 51.2c42.7 42.7 55.5 106.7 34.1 157.9-8.5 17.1-21.3 42.7-51.2 59.7-34.2 25.5-81.1 38.3-132.3 38.3v0zM512 8.5c-277.3 0-503.5 226.2-503.5 503.5s226.1 503.5 503.5 503.5c51.2 0 98.1-12.8 128-34.1 25.6-17.1 42.7-42.7 46.9-55.5 21.3-51.2 8.5-110.9-29.9-149.3-17.1-17.1-25.6-34.1-25.6-59.7s8.5-42.7 25.6-59.7c29.9-29.9 85.3-29.9 115.2 0 38.4 38.4 102.4 51.2 153.6 34.1 42.7-17.1 68.3-55.5 81.1-106.7 4.3-17.1 8.5-34.1 8.5-55.5 0-8.5 0-12.8 0-17.1v-4.3c0 0 0 0 0-4.3v0c-8.5-273-234.6-494.9-503.4-494.9v0zM512 972.8c-256 0-460.8-204.8-460.8-460.8s204.8-460.8 460.8-460.8c247.5 0 456.5 200.5 460.8 452.3v0 4.3c0 4.3 0 8.5 0 12.8 0 17.1 0 29.9-4.3 42.7-8.5 42.7-25.6 72.5-55.5 85.3v0h-8.6c-38.4 12.8-81.1-4.3-102.4-25.6-46.9-46.9-128-46.9-179.2 0-46.9 46.9-46.9 128 0 174.9 21.3 21.3 38.4 64 25.6 98.1v0 8.6c-21.2 46.9-68.1 68.2-136.4 68.2v0zM512 59.7c-251.7 0-452.3 204.8-452.3 452.3s200.5 452.3 448 452.3c68.3 0 110.9-21.3 128-55.5v-4.3c12.8-34.1 0-72.5-21.3-93.9-51.2-51.2-51.2-136.5 0-187.7s136.5-51.2 187.7 0c21.3 21.3 59.7 34.1 93.9 21.3h4.3c25.6-12.8 42.7-38.4 51.2-76.8 4.3-12.8 4.3-25.6 4.3-42.7 0-4.3 0-8.5 0-12.8v-4.3c-0.1-247.3-200.6-447.9-443.8-447.9v0z"></path>
<path fill="#9e9aa4" d="M810.7 537.6c-46.9 0-85.3-38.4-85.3-85.3s38.4-85.3 85.3-85.3 85.3 38.4 85.3 85.3-38.4 85.3-85.3 85.3zM810.7 486.4c17.1 0 34.1-17.1 34.1-34.1s-17.1-34.1-34.1-34.1c-17.1 0-34.1 17.1-34.1 34.1s17 34.1 34.1 34.1z"></path>
<path fill="#fbfbfb" d="M810.7 541.9c-51.2 0-89.6-38.4-89.6-89.6s38.4-89.6 89.6-89.6 89.6 38.4 89.6 89.6-38.4 89.6-89.6 89.6zM810.7 371.2c-46.9 0-81.1 38.4-81.1 81.1s38.4 81.1 81.1 81.1 81.1-38.4 81.1-81.1-34.2-81.1-81.1-81.1zM810.7 490.7c-21.3 0-38.4-17.1-38.4-38.4s17.1-38.4 38.4-38.4 38.4 17.1 38.4 38.4-17.1 38.4-38.4 38.4zM810.7 422.4c-17.1 0-29.9 12.8-29.9 29.9s12.8 29.9 29.9 29.9 29.9-12.8 29.9-29.9-12.9-29.9-29.9-29.9z"></path>
<path fill="#9e9aa4" d="M362.7 213.3c0-46.9 38.4-85.3 85.3-85.3s85.3 38.4 85.3 85.3-38.4 85.3-85.3 85.3-85.3-38.3-85.3-85.3v0zM413.9 213.3c0 17.1 17.1 34.1 34.1 34.1s34.1-17.1 34.1-34.1-12.8-34.1-34.1-34.1c-17.1 0-34.1 12.8-34.1 34.1z"></path>
<path fill="#fbfbfb" d="M448 302.9c-46.9 0-89.6-42.7-89.6-89.6s38.4-89.6 89.6-89.6 89.6 38.4 89.6 89.6-38.4 89.6-89.6 89.6v0zM448 132.3c-42.7 0-81.1 34.1-81.1 81.1s38.4 81.1 81.1 81.1 85.3-38.4 85.3-81.1-38.4-81.1-85.3-81.1zM448 251.7c-21.3 0-38.4-17.1-38.4-38.4s17.1-38.4 38.4-38.4 38.4 17.1 38.4 38.4-17.1 38.4-38.4 38.4zM448 183.5c-17.1 0-29.9 12.8-29.9 29.9s12.8 29.9 29.9 29.9 29.9-12.8 29.9-29.9-12.8-29.9-29.9-29.9z"></path>
<path fill="#9e9aa4" d="M354.1 392.5c0 46.9-38.4 85.3-85.3 85.3s-85.3-38.4-85.3-85.3 38.4-85.3 85.3-85.3 85.3 38.4 85.3 85.3zM302.9 392.5c0-17.1-17.1-34.1-34.1-34.1s-34.1 17.1-34.1 34.1 17.1 34.1 34.1 34.1c21.3 0.1 34.1-17 34.1-34.1z"></path>
<path fill="#fbfbfb" d="M268.8 482.1c-51.2 0-89.6-38.4-89.6-89.6s38.4-89.6 89.6-89.6 89.6 38.4 89.6 89.6-38.4 89.6-89.6 89.6zM268.8 311.5c-46.9 0-81.1 38.4-81.1 81.1s38.4 81.1 81.1 81.1 81.1-38.4 81.1-81.1-34.2-81.1-81.1-81.1v0zM268.8 430.9c-21.3 0-38.4-17.1-38.4-38.4s17.1-38.4 38.4-38.4 38.4 17.1 38.4 38.4-17.1 38.4-38.4 38.4zM268.8 362.7c-17.1 0-29.9 12.8-29.9 29.9s12.8 29.9 29.9 29.9 29.9-12.8 29.9-29.9-12.8-29.9-29.9-29.9z"></path>
<path fill="#9e9aa4" d="M183.5 631.5c0-46.9 38.4-85.3 85.3-85.3s85.3 38.4 85.3 85.3-38.4 85.3-85.3 85.3-85.3-38.4-85.3-85.3v0zM234.7 631.5c0 17.1 17.1 34.1 34.1 34.1s34.1-17.1 34.1-34.1-12.8-34.1-34.1-34.1c-17.1-0.1-34.1 17-34.1 34.1v0z"></path>
<path fill="#fbfbfb" d="M268.8 721.1c-51.2 0-89.6-38.4-89.6-89.6s38.4-89.6 89.6-89.6 89.6 38.4 89.6 89.6-38.4 89.6-89.6 89.6zM268.8 550.4c-46.9 0-81.1 38.4-81.1 81.1s38.4 81.1 81.1 81.1 81.1-38.4 81.1-81.1-34.2-81.1-81.1-81.1zM268.8 669.9c-21.3 0-38.4-17.1-38.4-38.4s17.1-38.4 38.4-38.4 38.4 17.1 38.4 38.4-17.1 38.4-38.4 38.4zM268.8 601.6c-17.1 0-29.9 12.8-29.9 29.9s12.8 29.9 29.9 29.9 29.9-12.8 29.9-29.9-12.8-29.9-29.9-29.9z"></path>
<path fill="#9e9aa4" d="M362.7 810.7c0-46.9 38.4-85.3 85.3-85.3s85.3 38.4 85.3 85.3-38.4 85.3-85.3 85.3-85.3-38.4-85.3-85.3zM413.9 810.7c0 17.1 17.1 34.1 34.1 34.1s34.1-17.1 34.1-34.1c0-17.1-17.1-34.1-34.1-34.1s-34.1 17-34.1 34.1z"></path>
<path fill="#fbfbfb" d="M448 900.3c-51.2 0-89.6-38.4-89.6-89.6s38.4-89.6 89.6-89.6 89.6 38.4 89.6 89.6-38.4 89.6-89.6 89.6v0zM448 729.6c-46.9 0-81.1 38.4-81.1 81.1s38.4 81.1 81.1 81.1 81.1-38.4 81.1-81.1-34.2-81.1-81.1-81.1zM448 849.1c-21.3 0-38.4-17.1-38.4-38.4s17.1-38.4 38.4-38.4 38.4 17.1 38.4 38.4-17.1 38.4-38.4 38.4zM448 780.8c-17.1 0-29.9 12.8-29.9 29.9s12.8 29.9 29.9 29.9 29.9-12.8 29.9-29.9-12.8-29.9-29.9-29.9z"></path>
</svg>
