<!-- Generated by IcoMoon.io -->
<svg version="1.1" xmlns="http://www.w3.org/2000/svg" width="1024" height="1024" viewBox="0 0 1024 1024">
<title></title>
<g id="icomoon-ignore">
</g>
<path d="M512 0c-282.77 0-512 229.23-512 512s229.23 512 512 512c282.769 0 512-229.231 512-512-0.311-282.64-229.359-511.688-512-512zM512 986.185c-261.885 0-474.186-212.301-474.186-474.185s212.302-474.186 474.186-474.186c261.884 0 474.185 212.302 474.185 474.186-0.311 261.756-212.429 473.873-474.185 474.185z"></path>
<path d="M605.598 577.792c-9.749-13.85-21.47-26.206-34.79-36.676-18.906-16.073-31.953-26.85-42.726-121.763-4.54-39.704-13.235-80.165-43.298-80.165s-48.401 43.108-61.448 79.787c-1.548 2.761-3.455 5.303-5.672 7.563-4.497-5.646-7.955-12.048-10.21-18.907l-3.971-9.453-10.021-1.891c-6.929-1.196-13.953-1.765-20.987-1.702-34.080-0.643-66.462 14.847-87.35 41.784-5.996 3.708-13.010 5.427-20.041 4.915-3.066-1.242-6.336-1.882-9.643-1.89-18.907 0-24.957 17.395-29.306 28.74-7.563 18.906-12.101 26.091-24.768 26.091-29.577-1.165-57.841 12.262-75.628 35.921-14.636 22.844-16.976 51.469-6.24 76.386l4.16 10.778c15.18 33.481 23.414 69.692 24.201 106.445-0.851 24.943 18.68 45.85 43.623 46.699 1.026 0.038 2.051 0.038 3.077 0 37.814 0 87.161-35.166 116.656-69.956 7.135-9.954 18.399-16.141 30.629-16.823 18.865 2.441 35.613 13.282 45.566 29.491 10.777 23.070 73.738 68.446 124.029 68.446 11.716 0.132 23.3-2.458 33.843-7.565 37.265-22.114 63.945-58.415 73.929-100.582 9.681-32.346 4.706-67.311-13.615-95.671zM582.34 663.253l-0.188 0.755c-7.565 31.305-27.029 58.436-54.263 75.627-5.312 2.505-11.14 3.733-17.015 3.593-34.534-4.403-66.372-20.958-89.808-46.699-16.146-29.197-45.946-48.256-79.22-50.671-23.395 0.567-45.254 11.776-59.368 30.438-29.684 34.978-68.632 56.721-87.728 56.721-4.727 0-8.13 0-8.887-11.341-1.099-40.567-10.158-80.525-26.659-117.602l-4.16-10.778c-6.544-13.534-5.833-29.457 1.891-42.351 10.848-13.052 27.311-20.087 44.242-18.91 29.060-1.425 53.589-22.084 59.935-50.479v-2.458c16.473 0.512 32.707-4.041 46.511-13.047l2.836-1.89 2.080-2.837c13.951-18.5 36.237-28.791 59.368-27.413h4.538c6.615 17.429 22.485 29.645 41.028 31.573 24.199 0 37.814-25.903 40.271-31.006v-1.89c5.875-17.549 13.875-34.31 23.825-49.915 4.1 13.419 6.763 27.235 7.94 41.217 11.908 104.557 29.116 123.838 56.721 146.341 10.59 8.358 19.887 18.236 27.601 29.303 11.759 19.068 14.852 42.236 8.508 63.718z"></path>
<path d="M442.999 795.601l-3.213-6.050-6.997-2.645c-9.785-3.422-20.070-5.214-30.438-5.295-14.109-0.358-27.758 5.030-37.814 14.938-10.918 12.527-16.125 29.039-14.369 45.564 1.324 33.088 21.743 44.809 37.814 44.809 21.103-1.711 40.029-13.645 50.67-31.953 11.985-17.579 13.641-40.226 4.348-59.366zM406.7 834.739c-4.153 7.066-10.961 12.173-18.907 14.178-1.028-2.718-1.541-5.602-1.513-8.508-0.974-6.246 0.371-12.634 3.781-17.958 3.261-2.423 7.298-3.567 11.344-3.217 2.893-0.247 5.804-0.247 8.697 0 0.473 5.419-0.785 10.846-3.592 15.505h0.189z"></path>
<path d="M620.715 252.027c-9.263-25.335-44.429-37.057-67.686-42.54-1.506-11.29-6.084-21.951-13.235-30.819-17.015-21.175-47.266-32.331-90.185-32.709-22.912-20.070-51.692-32.204-82.056-34.6-25.898 0.154-50.068 13.017-64.662 34.41-15.020 15.587-19.462 38.549-11.344 58.612 14.18 29.684 58.99 37.814 81.111 40.083 13.438 24.846 38.421 41.312 66.554 43.864 11.025-0.121 21.858-2.909 31.573-8.13 17.775 15.693 52.941 42.351 88.486 42.351 18.662 0.147 36.446-7.948 48.589-22.121 13.478-12.176 18.513-31.145 12.855-48.402zM579.878 275.661v-0.567c-4.937 6.091-12.395 9.577-20.233 9.454-26.658 0-61.449-29.873-72.414-41.406-6.647-6.835-17.353-7.645-24.956-1.891-6.276 5.483-14.182 8.74-22.498 9.264-21.933 0-37.815-31.953-37.815-32.142-3.006-6.327-9.262-10.475-16.26-10.777-24.201-1.134-54.641-9.264-59.368-18.907-1.702-3.781 1.135-11.155 7.563-18.907 7.478-11.682 20.351-18.793 34.222-18.907 23.293 2.952 45.027 13.289 62.016 29.495 3.58 3.354 8.329 5.185 13.235 5.105h3.593c31.194 0 53.696 6.429 63.339 18.907 4.348 5.287 6.391 12.098 5.67 18.907-1.51 9.964 5.060 19.363 14.938 21.365 24.388 3.214 51.238 13.613 53.884 20.798 0.943 0.756 0.567 3.97-4.915 10.21z"></path>
<path d="M886.558 662.315c-10.21-31.573-26.85-37.815-38.95-37.815-18.231 2.577-33.937 14.161-41.783 30.818-13.18 16.107-27.797 30.976-43.678 44.433h-33.843c-10.441-0.051-18.948 8.371-18.999 18.812-0.004 0.666 0.030 1.327 0.094 1.984l3.78 36.681-32.896 33.088c-3.635 3.661-5.615 8.644-5.483 13.803 1.101 27.75 24.495 49.357 52.25 48.256 0.29-0.013 0.585-0.030 0.879-0.043 9.681-0.162 19.294-1.69 28.548-4.54 2.18-0.636 4.233-1.66 6.050-3.025 24.58-18.906 145.963-114.765 124.032-182.451zM742.485 812.625c-4.749 1.28-9.643 1.975-14.558 2.078-5.214 0.602-10.368-1.549-13.615-5.67l32.141-32.333c4.045-4.015 6.059-9.643 5.487-15.313l-2.65-24.768h20.041c4.599-0.009 9.033-1.69 12.48-4.727 20.732-17.067 39.676-36.198 56.533-57.101l-0.192-0.563c2.261-3.746 4.924-7.232 7.945-10.402 1.83 3.294 3.29 6.784 4.348 10.402 9.83 30.438-56.721 99.639-107.959 138.398z"></path>
</svg>
