<!-- Generated by IcoMoon.io -->
<svg version="1.1" xmlns="http://www.w3.org/2000/svg" width="1024" height="1024" viewBox="0 0 1024 1024">
<title></title>
<g id="icomoon-ignore">
</g>
<path d="M879.171 795.475c-17.354 0.013-34.32-5.12-48.755-14.752-14.432-9.632-25.686-23.328-32.336-39.354-6.65-16.029-8.397-33.67-5.018-50.691 3.376-17.021 11.728-32.656 23.994-44.931s27.894-20.637 44.912-24.026c17.021-3.392 34.659-1.658 50.694 4.979 16.032 6.64 29.738 17.882 39.379 32.31 9.642 14.426 14.787 31.389 14.787 48.742-0.010 23.251-9.248 45.549-25.683 61.994-16.435 16.448-38.723 25.702-61.974 25.728zM879.171 652.032c-11.024-0.013-21.805 3.245-30.976 9.36s-16.323 14.813-20.55 24.992c-4.227 10.182-5.341 21.389-3.197 32.202 2.141 10.813 7.443 20.749 15.235 28.547 7.789 7.798 17.718 13.114 28.528 15.267 10.813 2.157 22.019 1.056 32.205-3.158 10.186-4.218 18.893-11.36 25.018-20.525s9.395-19.939 9.395-30.963c-0.006-14.765-5.869-28.925-16.304-39.373s-24.589-16.326-39.354-16.349z"></path>
<path d="M416.899 795.475c-17.354 0.019-34.32-5.114-48.758-14.742s-25.693-23.322-32.346-39.35c-6.653-16.029-8.403-33.667-5.027-50.691 3.373-17.021 11.722-32.659 23.987-44.938 12.266-12.275 27.894-20.64 44.915-24.032 17.018-3.392 34.659-1.658 50.694 4.979s29.741 17.878 39.382 32.307c9.642 14.429 14.79 31.392 14.79 48.746-0.016 23.245-9.254 45.536-25.683 61.981s-38.71 25.702-61.955 25.741zM416.899 652.032c-11.024-0.019-21.805 3.235-30.979 9.347-9.178 6.115-16.333 14.81-20.563 24.992-4.23 10.179-5.344 21.386-3.203 32.202 2.138 10.813 7.44 20.752 15.229 28.554s17.718 13.117 28.531 15.274c10.81 2.157 22.019 1.059 32.205-3.158 10.189-4.214 18.896-11.357 25.021-20.522 6.128-9.165 9.398-19.942 9.398-30.966-0.013-14.762-5.875-28.915-16.304-39.36s-24.573-16.33-39.334-16.362z"></path>
<path d="M994.582 723.754h-43.754c-4.243 0-8.314-1.686-11.315-4.688-2.998-2.998-4.685-7.069-4.685-11.312s1.686-8.314 4.685-11.315c3.002-2.998 7.072-4.685 11.315-4.685h39.232v-84.842c-0.010-11.472-2.947-22.752-8.534-32.768l-86.611-155.286c-0.742-1.325-1.821-2.429-3.13-3.197-1.309-0.771-2.8-1.174-4.317-1.178h-118.038v277.334h38.102c4.243 0 8.314 1.686 11.315 4.685 2.998 3.002 4.685 7.072 4.685 11.315s-1.686 8.314-4.685 11.312c-3.002 3.002-7.072 4.688-11.315 4.688h-54.102c-4.243 0-8.31-1.686-11.312-4.688-3.002-2.998-4.688-7.069-4.688-11.312v-309.334c0-4.243 1.686-8.314 4.688-11.312 3.002-3.002 7.069-4.688 11.312-4.688h134.038c7.219-0.003 14.307 1.92 20.531 5.574 6.227 3.654 11.363 8.902 14.883 15.206l86.592 155.306c8.23 14.781 12.557 31.421 12.563 48.342v89.386c-0.010 7.277-2.906 14.256-8.054 19.402-5.146 5.146-12.122 8.042-19.402 8.054z"></path>
<path d="M345.242 723.754h-153.41c-4.244 0-8.313-1.686-11.314-4.685-3.001-3.002-4.686-7.072-4.686-11.315v-123.050c0-4.243 1.686-8.314 4.686-11.315s7.070-4.685 11.314-4.685c4.244 0 8.313 1.683 11.314 4.685s4.686 7.072 4.686 11.315v107.050h137.41c4.243 0 8.31 1.686 11.312 4.688 3.002 2.998 4.688 7.069 4.688 11.312s-1.686 8.314-4.688 11.315c-3.002 2.998-7.069 4.685-11.312 4.685z"></path>
<path d="M191.832 527.936c-4.244 0-8.313-1.686-11.314-4.688s-4.686-7.069-4.686-11.312v-107.437c0-4.243 1.686-8.314 4.686-11.312 3.001-3.002 7.070-4.688 11.314-4.688s8.313 1.686 11.314 4.688c3.001 2.998 4.686 7.069 4.686 11.312v107.501c-0.017 4.23-1.71 8.285-4.709 11.27s-7.059 4.666-11.291 4.666z"></path>
<path d="M753.434 723.754h-264.896c-4.246 0-8.314-1.686-11.315-4.688-3.002-2.998-4.685-7.069-4.685-11.312s1.683-8.314 4.685-11.315c3.002-2.998 7.069-4.685 11.315-4.685h248.896v-418.582h-529.602v65.9c0 4.243-1.685 8.31-4.686 11.312s-7.070 4.688-11.314 4.688c-4.243 0-8.313-1.686-11.314-4.688s-4.686-7.069-4.686-11.312v-68.844c0.012-7.706 3.079-15.093 8.531-20.541s12.841-8.509 20.547-8.515h535.468c7.702 0.011 15.085 3.076 20.531 8.523s8.512 12.83 8.525 20.533v437.526c0 4.243-1.686 8.314-4.688 11.312-3.002 3.002-7.069 4.688-11.312 4.688z"></path>
<path d="M255.084 600.704h-203.072c-4.244 0-8.313-1.686-11.314-4.688s-4.686-7.069-4.686-11.312c0-4.243 1.686-8.314 4.686-11.315s7.070-4.685 11.314-4.685h203.072c4.244 0 8.313 1.683 11.314 4.685s4.686 7.072 4.686 11.315c0 4.243-1.686 8.31-4.686 11.312s-7.070 4.688-11.314 4.688z"></path>
<path d="M416.899 527.936h-283.372c-4.244 0-8.313-1.686-11.314-4.688s-4.686-7.069-4.686-11.312c0-4.246 1.686-8.314 4.686-11.315s7.070-4.685 11.314-4.685h283.372c4.243 0 8.314 1.683 11.312 4.685 3.002 3.002 4.688 7.069 4.688 11.315 0 4.243-1.686 8.31-4.688 11.312-2.998 3.002-7.069 4.688-11.312 4.688z"></path>
<path d="M124.718 443.456h-110.656c-4.243 0-8.313-1.686-11.314-4.688s-4.686-7.069-4.686-11.312c0-4.246 1.686-8.314 4.686-11.315s7.070-4.685 11.314-4.685h110.656c4.244 0 8.313 1.683 11.314 4.685s4.686 7.069 4.686 11.315c0 4.243-1.686 8.31-4.686 11.312s-7.070 4.688-11.314 4.688z"></path>
<path d="M302.148 355.072h-195.328c-4.243 0-8.313-1.686-11.314-4.688s-4.686-7.069-4.686-11.312c0-4.243 1.686-8.314 4.686-11.315s7.070-4.685 11.314-4.685h195.328c4.244 0 8.313 1.683 11.314 4.685s4.686 7.072 4.686 11.315c0 4.243-1.686 8.31-4.686 11.312s-7.070 4.688-11.314 4.688z"></path>
</svg>
