<!-- Generated by IcoMoon.io -->
<svg version="1.1" xmlns="http://www.w3.org/2000/svg" width="1024" height="1024" viewBox="0 0 1024 1024">
<title></title>
<g id="icomoon-ignore">
</g>
<path d="M512 1024c-136.76 0-265.336-53.257-362.040-149.961s-149.96-225.28-149.96-362.039c0-136.76 53.258-265.334 149.96-362.040s225.28-149.96 362.040-149.96c136.759 0 265.335 53.256 362.039 149.96s149.961 225.28 149.961 362.040c0 136.759-53.257 265.335-149.961 362.039-96.7 96.708-225.28 149.961-362.039 149.961zM512 64c-247.028 0-448 200.972-448 448s200.972 448 448 448c247.027 0 448-200.973 448-448s-200.973-448-448-448z"></path>
<path d="M512 480c-44.113 0-80-35.887-80-80s35.887-80 80-80 80 35.888 80 80c0 17.672 14.327 32 32 32s32-14.328 32-32c0-68.402-47.957-125.776-112-140.372v-35.628c0-17.672-14.327-32-32-32s-32 14.328-32 32v35.628c-64.044 14.596-112 71.97-112 140.372 0 79.403 64.597 144 144 144 44.113 0 80 35.887 80 80s-35.887 80-80 80c-44.113 0-80-35.887-80-80 0-17.673-14.326-32-32-32s-32 14.327-32 32c0 68.403 47.956 125.777 112 140.373v35.627c0 17.673 14.327 32 32 32s32-14.327 32-32v-35.627c64.043-14.596 112-71.97 112-140.373 0-79.403-64.597-144-144-144z"></path>
</svg>
