<!-- Generated by IcoMoon.io -->
<svg version="1.1" xmlns="http://www.w3.org/2000/svg" width="1024" height="1024" viewBox="0 0 1024 1024">
<title></title>
<g id="icomoon-ignore">
</g>
<path d="M671.147 982.49h-40.683c-3.669 0-7.189-1.459-9.788-4.053-2.594-2.594-4.053-6.114-4.053-9.788 0-3.669 1.459-7.189 4.053-9.783 2.598-2.594 6.118-4.053 9.788-4.053h40.683c3.669 0 7.189 1.459 9.783 4.053s4.053 6.114 4.053 9.783c0 3.674-1.459 7.194-4.053 9.788s-6.114 4.053-9.783 4.053z"></path>
<path d="M533.577 982.49h-478.234c-7.34 0-14.38-2.918-19.57-8.107-5.19-5.193-8.106-12.228-8.106-19.571v-498.163c0-3.669 1.458-7.189 4.053-9.783s6.115-4.053 9.785-4.053c3.67 0 7.19 1.459 9.785 4.053s4.053 6.114 4.053 9.783v498.163h478.234c3.674 0 7.189 1.459 9.788 4.053 2.594 2.594 4.053 6.114 4.053 9.783 0 3.674-1.459 7.194-4.053 9.788-2.598 2.594-6.114 4.053-9.788 4.053z"></path>
<path d="M968.649 982.49h-63.104c-3.669 0-7.189-1.459-9.783-4.053s-4.053-6.114-4.053-9.788c0-3.669 1.459-7.189 4.053-9.783s6.114-4.053 9.783-4.053h63.104v-484.322h-373.623c-3.669 0-7.189-1.459-9.783-4.053s-4.053-6.114-4.053-9.788c0-3.669 1.459-7.189 4.053-9.783s6.114-4.053 9.783-4.053h373.623c7.339 0 14.379 2.918 19.567 8.107 5.193 5.188 8.107 12.228 8.107 19.571v484.322c0 7.343-2.914 14.379-8.107 19.571-5.188 5.188-12.228 8.107-19.567 8.107z"></path>
<path d="M808.55 982.49h-40.546c-3.669 0-7.189-1.459-9.783-4.053s-4.053-6.114-4.053-9.788c0-3.669 1.459-7.189 4.053-9.783s6.114-4.053 9.783-4.053h40.546c3.669 0 7.189 1.459 9.783 4.053s4.053 6.114 4.053 9.783c0 3.674-1.459 7.194-4.053 9.788s-6.114 4.053-9.783 4.053z"></path>
<path d="M899.469 470.485h-152.213c-3.669 0-7.189-1.459-9.788-4.053-2.594-2.594-4.049-6.114-4.049-9.783v-373.623c0-3.67 1.455-7.19 4.049-9.785 2.598-2.595 6.118-4.053 9.788-4.053h152.213c3.674 0 7.189 1.458 9.788 4.053 2.594 2.595 4.053 6.115 4.053 9.785v373.623c0 3.669-1.459 7.189-4.053 9.783-2.598 2.594-6.114 4.053-9.788 4.053zM761.092 442.807h124.54v-345.944h-124.54v345.944z"></path>
<path d="M899.469 179.884h-152.213c-3.669 0-7.189-1.458-9.788-4.053-2.594-2.595-4.049-6.115-4.049-9.785s1.455-7.19 4.049-9.785c2.598-2.595 6.118-4.053 9.788-4.053h152.213c3.674 0 7.189 1.458 9.788 4.053 2.594 2.595 4.053 6.115 4.053 9.785s-1.459 7.19-4.053 9.785c-2.598 2.595-6.114 4.053-9.788 4.053z"></path>
<path d="M318.27 470.49c-3.182 0.004-6.268-1.088-8.738-3.093s-4.174-4.804-4.824-7.919c-0.65-3.115-0.207-6.357 1.256-9.182 1.462-2.829 3.853-5.065 6.771-6.332l276.756-119.933c2.108-0.919 4.407-1.3 6.699-1.106s4.497 0.954 6.417 2.213c1.924 1.26 3.503 2.978 4.595 5s1.664 4.285 1.664 6.583v119.933c0 3.669-1.459 7.189-4.053 9.783-2.598 2.594-6.114 4.053-9.788 4.053-3.669 0-7.189-1.459-9.783-4.053s-4.053-6.114-4.053-9.783v-98.858l-257.383 111.547c-1.743 0.768-3.63 1.161-5.535 1.148z"></path>
<path d="M41.52 470.49c-3.182 0.004-6.268-1.088-8.738-3.093s-4.174-4.804-4.824-7.919c-0.65-3.115-0.207-6.357 1.255-9.182 1.462-2.829 3.853-5.065 6.771-6.332l276.757-119.933c2.106-0.919 4.409-1.3 6.699-1.106s4.496 0.954 6.419 2.213c1.923 1.26 3.501 2.978 4.593 5s1.664 4.285 1.663 6.583v119.933c0 3.669-1.458 7.189-4.053 9.783s-6.115 4.053-9.785 4.053c-3.67 0-7.19-1.459-9.785-4.053s-4.053-6.114-4.053-9.783v-98.858l-257.384 111.547c-1.743 0.768-3.63 1.161-5.535 1.148z"></path>
<path d="M359.776 982.485h-193.73c-3.67 0-7.19-1.459-9.785-4.053s-4.053-6.114-4.053-9.783v-249.079c0-3.674 1.458-7.194 4.053-9.788s6.115-4.053 9.785-4.053h193.73c3.67 0 7.19 1.459 9.785 4.053s4.053 6.114 4.053 9.788v249.079c0 3.669-1.458 7.189-4.053 9.783s-6.115 4.053-9.785 4.053zM179.884 954.812h166.054v-221.406h-166.054v221.406z"></path>
<path d="M885.636 763.388h-73.801c-3.669 0-7.189-1.455-9.783-4.053-2.594-2.594-4.053-6.114-4.053-9.783v-73.796c0-3.669 1.459-7.189 4.053-9.783 2.594-2.598 6.114-4.053 9.783-4.053h73.801c3.669 0 7.189 1.455 9.783 4.053 2.594 2.594 4.053 6.114 4.053 9.783v73.796c0 3.669-1.459 7.189-4.053 9.783-2.594 2.598-6.114 4.053-9.783 4.053zM825.677 735.714h46.118v-46.123h-46.118v46.123z"></path>
<path d="M728.794 763.388h-73.809c-3.669 0-7.189-1.455-9.788-4.053-2.594-2.594-4.049-6.114-4.049-9.783v-73.796c0-3.669 1.455-7.189 4.049-9.783 2.598-2.598 6.118-4.053 9.788-4.053h73.809c3.669 0 7.189 1.455 9.788 4.053 2.594 2.594 4.053 6.114 4.053 9.783v73.796c0 3.669-1.459 7.189-4.053 9.783-2.598 2.598-6.118 4.053-9.788 4.053zM668.821 735.714h46.135v-46.123h-46.135v46.123z"></path>
<path d="M571.968 763.388h-73.796c-3.669 0-7.189-1.455-9.783-4.053-2.598-2.594-4.053-6.114-4.053-9.783v-73.796c0-3.669 1.455-7.189 4.053-9.783 2.594-2.598 6.114-4.053 9.783-4.053h73.796c3.669 0 7.189 1.455 9.783 4.053 2.594 2.594 4.053 6.114 4.053 9.783v73.796c0 3.669-1.459 7.189-4.053 9.783-2.594 2.598-6.114 4.053-9.783 4.053zM512.009 735.714h46.123v-46.123h-46.123v46.123z"></path>
</svg>
