<!-- Generated by IcoMoon.io -->
<svg version="1.1" xmlns="http://www.w3.org/2000/svg" width="1024" height="1024" viewBox="0 0 1024 1024">
<title></title>
<g id="icomoon-ignore">
</g>
<path fill="#1abcfe" d="M512 544c0-88.366 71.634-160 160-160s160 71.634 160 160v0c0 88.366-71.634 160-160 160s-160-71.634-160-160v0z"></path>
<path fill="#0acf83" d="M192 864c0-88.366 71.634-160 160-160v0h160v160c0 88.366-71.634 160-160 160s-160-71.634-160-160v0z"></path>
<path fill="#ff7262" d="M512 64v320h160c88.366 0 160-71.634 160-160s-71.634-160-160-160v0h-160z"></path>
<path fill="#f24e1e" d="M192 224c0 88.366 71.634 160 160 160v0h160v-320h-160c-88.366 0-160 71.634-160 160v0z"></path>
<path fill="#f24e1e" d="M192 544c0 88.366 71.634 160 160 160v0h160v-320h-160c-88.366 0-160 71.634-160 160v0z"></path>
</svg>
