<!-- Generated by IcoMoon.io -->
<svg version="1.1" xmlns="http://www.w3.org/2000/svg" width="1024" height="1024" viewBox="0 0 1024 1024">
<title></title>
<g id="icomoon-ignore">
</g>
<path d="M681.49 963.972c-3.531 0-7.062 0-10.593 0l-444.91-24.717c-49.434-3.531-81.214-3.531-109.462-31.779-28.248-24.717-35.31-52.966-42.372-95.338-17.655-88.276-17.655-180.083 3.531-268.359 14.124-63.559 74.152-105.931 144.772-95.338 60.028 7.062 116.524-10.593 162.428-45.903 49.434-38.841 81.214-95.338 84.745-158.897v0l10.593-102.4c3.531-28.248 17.655-52.966 38.841-67.090s49.434-21.186 74.152-14.124c70.621 17.655 116.524 81.214 116.524 155.366v130.648c0 21.186 0 35.31 3.531 38.841 0 3.531 3.531 3.531 7.062 7.062s21.186 3.531 38.841 3.531h17.655c77.683 0 116.524 0 148.303 21.186 21.186 17.655 38.841 38.841 42.372 67.090 7.062 35.31-7.062 74.152-35.31 148.303l-14.124 35.31c-7.062 17.655-10.593 35.31-7.062 49.434 7.062 67.090-17.655 134.179-63.559 180.083-49.434 45.903-105.931 67.090-165.959 67.090zM201.269 501.407c-31.779 0-67.090 17.655-74.152 56.497-17.655 81.214-17.655 165.959-3.531 247.172 7.062 38.841 10.593 52.966 24.717 63.559 14.124 14.124 31.779 14.124 81.214 17.655l444.91 24.717c49.434 3.531 95.338-14.124 127.117-49.434 35.31-35.31 52.966-88.276 49.434-141.241-3.531-24.717 3.531-52.966 10.593-74.152l14.124-35.31c24.717-63.559 38.841-95.338 35.31-116.524-3.531-14.124-10.593-28.248-24.717-35.31-14.124-10.593-52.966-10.593-116.524-10.593h-17.655c-31.779 0-49.434 0-67.090-10.593-10.593-7.062-17.655-14.124-21.186-24.717-10.593-17.655-10.593-35.31-10.593-67.090v-127.117c0-49.434-31.779-91.807-77.683-105.931-10.593-3.531-21.186 0-31.779 7.062s-14.124 17.655-17.655 28.248l-10.593 102.4c-7.062 77.683-45.903 148.303-105.931 197.738-56.497 45.903-130.648 67.090-204.8 56.497 3.531-3.531 0-3.531-3.531-3.531z"></path>
<path d="M300.138 921.6c-10.593 0-21.186-7.062-24.717-17.655-45.903-130.648-45.903-268.359-7.062-402.538l7.062-21.186c3.531-14.124 17.655-21.186 31.779-17.655s21.186 17.655 17.655 31.779l-7.062 24.717c-35.31 120.055-35.31 250.703 7.062 370.759 3.531 14.124-3.531 28.248-17.655 31.779-3.531 0-7.062 0-7.062 0z"></path>
</svg>
