<svg width="269" height="32" viewBox="0 0 269 32" fill="none" xmlns="http://www.w3.org/2000/svg">
<path d="M16.045 31.45C13.885 31.45 11.875 31.075 10.015 30.325C8.185 29.545 6.58 28.48 5.2 27.13C3.85 25.75 2.8 24.13 2.05 22.27C1.3 20.41 0.925 18.37 0.925 16.15C0.925 13.93 1.3 11.89 2.05 10.03C2.8 8.17 3.85 6.565 5.2 5.215C6.58 3.835 8.185 2.77 10.015 2.02C11.875 1.24 13.885 0.849999 16.045 0.849999C18.205 0.849999 20.2 1.24 22.03 2.02C23.89 2.77 25.495 3.835 26.845 5.215C28.225 6.565 29.29 8.17 30.04 10.03C30.82 11.89 31.21 13.93 31.21 16.15C31.21 18.37 30.82 20.41 30.04 22.27C29.29 24.13 28.225 25.75 26.845 27.13C25.495 28.48 23.89 29.545 22.03 30.325C20.2 31.075 18.205 31.45 16.045 31.45ZM16.945 29.2C18.775 29.2 20.38 28.72 21.76 27.76C23.14 26.8 24.22 25.45 25 23.71C25.78 21.97 26.17 19.915 26.17 17.545C26.17 14.635 25.69 12.1 24.73 9.94C23.77 7.75 22.465 6.055 20.815 4.855C19.165 3.655 17.335 3.055 15.325 3.055C13.495 3.055 11.875 3.535 10.465 4.495C9.055 5.425 7.945 6.76 7.135 8.5C6.355 10.24 5.965 12.295 5.965 14.665C5.965 17.575 6.445 20.125 7.405 22.315C8.395 24.505 9.715 26.2 11.365 27.4C13.045 28.6 14.905 29.2 16.945 29.2ZM48.658 31H36.823V30.28L40.108 28.795V8.005L36.868 6.52V5.8H57.208V13.54H56.488L54.103 8.095H44.563V16.15H48.658C50.908 16.15 52.873 16.45 54.553 17.05C56.233 17.62 57.538 18.445 58.468 19.525C59.428 20.575 59.908 21.835 59.908 23.305C59.908 24.805 59.428 26.14 58.468 27.31C57.538 28.48 56.218 29.395 54.508 30.055C52.828 30.685 50.878 31 48.658 31ZM47.938 18.4H44.563V28.75H48.208C50.518 28.75 52.258 28.285 53.428 27.355C54.598 26.395 55.183 25.135 55.183 23.575C55.183 21.745 54.598 20.425 53.428 19.615C52.258 18.805 50.428 18.4 47.938 18.4ZM78.0462 31.45C75.5262 31.45 73.2912 30.895 71.3412 29.785C69.3912 28.645 67.8462 27.1 66.7062 25.15C65.5962 23.17 65.0412 20.92 65.0412 18.4C65.0412 15.88 65.5962 13.63 66.7062 11.65C67.8462 9.67 69.3912 8.125 71.3412 7.015C73.2912 5.875 75.5262 5.305 78.0462 5.305C80.5662 5.305 82.8012 5.875 84.7512 7.015C86.7312 8.125 88.2762 9.67 89.3862 11.65C90.5262 13.63 91.0962 15.88 91.0962 18.4C91.0962 20.92 90.5262 23.17 89.3862 25.15C88.2762 27.1 86.7312 28.645 84.7512 29.785C82.8012 30.895 80.5662 31.45 78.0462 31.45ZM78.7662 29.2C81.1962 29.2 83.1012 28.315 84.4812 26.545C85.8612 24.775 86.5512 22.435 86.5512 19.525C86.5512 17.155 86.1612 15.07 85.3812 13.27C84.6312 11.47 83.5662 10.075 82.1862 9.085C80.8062 8.065 79.2312 7.555 77.4612 7.555C75.0612 7.555 73.1412 8.44 71.7012 10.21C70.2912 11.95 69.5862 14.26 69.5862 17.14C69.5862 19.54 69.9762 21.64 70.7562 23.44C71.5362 25.24 72.6162 26.65 73.9962 27.67C75.3762 28.69 76.9662 29.2 78.7662 29.2ZM96.7205 31V30.28L99.9605 28.795V8.005L96.7205 6.52V5.8H107.701V6.52L104.416 8.005V24.61L117.511 9.58V8.005L114.226 6.52V5.8H125.161V6.52L121.966 8.005V28.795L125.161 30.28V31H114.226V30.28L117.511 28.795V12.415L104.416 27.445V28.795L107.701 30.28V31H96.7205ZM156.883 31V30.28L160.528 28.48V3.775H150.133V6.205C150.133 11.395 149.938 15.61 149.548 18.85C149.188 22.09 148.573 24.76 147.703 26.86C146.863 28.75 145.933 29.995 144.913 30.595C143.893 31.165 142.948 31.45 142.078 31.45C141.418 31.45 140.998 31.36 140.818 31.18C140.638 31 140.548 30.655 140.548 30.145V27.445L140.773 27.265H141.223C142.813 27.265 144.043 26.44 144.913 24.79C145.813 23.14 146.443 20.755 146.803 17.635C147.193 14.485 147.388 10.675 147.388 6.205V3.82L143.698 2.02V1.3H168.853V2.02L165.208 3.82V28.48L168.853 30.28V31H156.883ZM174.24 31V30.28L177.48 28.795V8.005L174.24 6.52V5.8H185.22V6.52L181.935 8.005V16.825H186.3C186.51 14.575 187.185 12.595 188.325 10.885C189.465 9.145 190.935 7.78 192.735 6.79C194.535 5.8 196.545 5.305 198.765 5.305C201.195 5.305 203.355 5.875 205.245 7.015C207.165 8.125 208.665 9.67 209.745 11.65C210.855 13.63 211.41 15.88 211.41 18.4C211.41 20.92 210.855 23.17 209.745 25.15C208.665 27.1 207.165 28.645 205.245 29.785C203.355 30.895 201.195 31.45 198.765 31.45C196.425 31.45 194.325 30.925 192.465 29.875C190.635 28.795 189.165 27.325 188.055 25.465C186.945 23.605 186.33 21.475 186.21 19.075H181.935V28.795L185.22 30.28V31H174.24ZM199.53 29.2C201.81 29.2 203.595 28.315 204.885 26.545C206.205 24.775 206.865 22.435 206.865 19.525C206.865 17.155 206.49 15.07 205.74 13.27C205.02 11.47 204 10.075 202.68 9.085C201.39 8.065 199.905 7.555 198.225 7.555C195.915 7.555 194.1 8.44 192.78 10.21C191.46 11.95 190.8 14.26 190.8 17.14C190.8 19.54 191.16 21.64 191.88 23.44C192.63 25.24 193.65 26.65 194.94 27.67C196.26 28.69 197.79 29.2 199.53 29.2ZM217.043 31V30.28L220.328 28.795V8.005L217.043 6.52V5.8H228.023V6.52L224.783 8.005V28.795L228.023 30.28V31H217.043ZM236.843 31L224.783 18.175L235.223 7.78L232.388 6.52V5.8H241.433V6.52L238.868 7.51L229.193 16.78L240.803 29.065L243.953 30.28V31H236.843ZM259.73 31.45C257.12 31.45 254.78 30.91 252.71 29.83C250.67 28.75 249.065 27.265 247.895 25.375C246.725 23.485 246.14 21.355 246.14 18.985C246.14 16.975 246.515 15.145 247.265 13.495C248.045 11.815 249.095 10.375 250.415 9.175C251.735 7.945 253.25 7 254.96 6.34C256.67 5.65 258.47 5.305 260.36 5.305C261.65 5.305 262.745 5.395 263.645 5.575C264.575 5.725 265.4 5.95 266.12 6.25C266.87 6.55 267.605 6.865 268.325 7.195L268.505 13.63H267.785L265.175 9.085C264.425 8.515 263.66 8.125 262.88 7.915C262.13 7.675 261.29 7.555 260.36 7.555C258.47 7.555 256.79 8.02 255.32 8.95C253.88 9.88 252.74 11.155 251.9 12.775C251.09 14.395 250.685 16.225 250.685 18.265C250.685 21.775 251.555 24.475 253.295 26.365C255.065 28.255 257.435 29.2 260.405 29.2C261.335 29.2 262.16 29.14 262.88 29.02C263.6 28.87 264.29 28.615 264.95 28.255L268.19 23.44H268.91L268.505 29.515C267.425 30.085 266.18 30.55 264.77 30.91C263.39 31.27 261.71 31.45 259.73 31.45Z" fill="#FBFBFB"/>
</svg>
