<!-- Generated by IcoMoon.io -->
<svg version="1.1" xmlns="http://www.w3.org/2000/svg" width="1024" height="1024" viewBox="0 0 1024 1024">
<title></title>
<g id="icomoon-ignore">
</g>
<path d="M761.408 437.398c0-137.598-112-249.398-249.398-249.398-137.402 0-249.4 111.8-249.4 249.398 0 137.402 111.8 249.402 249.4 249.402s249.398-112 249.398-249.402zM512.010 654.598c-119.802 0-217.4-97.398-217.4-217.398s97.599-217.2 217.4-217.2c119.798 0 217.398 97.4 217.398 217.398 0 120-97.6 217.2-217.398 217.2z"></path>
<path d="M817.606 695.398c8.998-4.602 16.998-10.602 23.2-19.002 16.198-22.198 12.4-51.2 8.8-79.398-2.4-18.202-4.8-37.2-0.602-50 3.802-12 16.602-25.402 28.8-38.202 19.002-20 40.4-42.598 40.4-71.2 0-28.598-21.2-51.6-40.198-71.6-12.202-12.998-25.002-26.198-28.8-38.198-4.202-12.802-1.802-31.802 0.598-50.002 3.6-28.2 7.2-57.2-8.8-79.4-16.198-22.4-45.2-27.8-73.2-33.2-18-3.4-36.598-6.8-47.2-14.6-10.598-7.6-19.398-24-28-40-12.998-24-28-51.2-54.598-60-25.6-8.4-51.802 4-77.2 16-17.002 8-34.4 16.2-48.4 16.2s-31.402-8.2-48.4-16.2c-25.402-12-51.6-24.4-77.2-16-26.8 8.6-40.8 34.8-54.602 60-8.598 15.8-17.598 32.4-27.998 40-10.8 7.8-29.2 11.4-47.2 14.6-28 5.2-57 10.8-73.2 33.2-16.2 22.2-12.4 51.2-8.8 79.4 2.4 18.2 4.8 37.2 0.6 50.002-3.8 12-16.6 25.398-28.8 38.198-19 20-40.4 42.602-40.4 71.2 0 28.602 21.6 51.2 40.4 71.2 12.2 13.002 25 26.202 28.8 38.202 4.2 12.797 1.8 31.798-0.6 50-3.6 28.198-7.2 57.2 8.8 79.398 6.2 8.4 14.2 14.602 23.2 19.002l-87.2 150.998c-3.2 5.6-2.8 12.602 1.2 17.802s10.6 7.398 16.8 5.798l128.8-34.598 34.6 128.8c1.6 6.198 7 10.8 13.4 11.798 0.8 0 1.4 0.202 2 0.202 5.598 0 11-3.002 13.8-8l81.798-141.802c17.402-2 35.002-10.198 52-18.198 17.002-8 34.4-16.202 48.4-16.202s31.402 8.202 48.4 16.202c17.002 8 34.602 16.4 52 18.198l81.802 141.802c2.8 4.998 8.198 8 13.798 8 0.602 0 1.402 0 2-0.202 6.4-0.8 11.6-5.398 13.402-11.798l34.598-128.8 128.8 34.598c6.202 1.6 12.8-0.598 16.8-5.798s4.4-12.202 1.2-17.802l-87.798-150.598zM321.405 918.598l-28.598-107.002c-2.2-8.598-11-13.6-19.6-11.398l-107 28.598 71.2-123.398c6.2 1.398 12.6 2.598 19 3.798 18 3.402 36.6 6.8 47.2 14.602 10.6 7.597 19.398 24 28 40 11.6 21.398 24.598 45.2 46.198 56.4l-56.4 98.4zM512.006 759.798c-21.2 0-42 9.798-62 19.2-19.802 9.398-40.202 18.998-53.6 14.598-14.602-4.8-25.6-25.2-36.4-44.8-10.4-18.998-21.002-38.598-37.402-50.598-16.598-12-38.798-16.202-60.198-20.202-21.8-4.198-44.4-8.4-53.4-20.4-8.6-11.798-5.8-34.598-3-56.4 2.8-21.798 5.6-44.198-0.8-64-6.2-18.8-21.4-34.998-36-50.4-15.6-16.4-31.8-33.398-31.8-49.2 0-15.798 16.2-32.8 31.8-49.2 14.8-15.6 30-31.6 36-50.4 6.4-19.8 3.6-42.2 0.8-64-2.8-22-5.6-44.6 3-56.4 8.8-12.2 31.4-16.4 53.4-20.4 21.4-4 43.6-8.2 60.198-20.2 16.4-11.8 27.002-31.6 37.402-50.6 10.8-19.8 21.798-40 36.4-44.8 13.6-4.4 34 5.2 53.6 14.6 20 9.4 40.8 19.2 62 19.2s42-9.8 62-19.2c19.798-9.4 40.198-19 53.6-14.6 14.598 4.8 25.6 25.2 36.4 44.8 10.4 19 20.998 38.6 37.398 50.6 16.602 12 38.8 16.2 60.202 20.2 21.798 4.2 44.4 8.4 53.398 20.4 8.602 11.8 5.802 34.6 3.002 56.4s-5.6 44.2 0.8 64c6.198 18.8 21.398 35.002 36 50.4 15.6 16.4 31.798 33.402 31.798 49.2 0 15.802-16.198 32.8-31.798 49.2-14.8 15.6-30 31.6-36 50.4-6.4 19.802-3.6 42.202-0.8 64 2.8 22 5.6 44.602-3.002 56.4-8.8 12.202-31.398 16.4-53.398 20.4-21.402 4-43.6 8.202-60.202 20.202-16.4 11.798-26.998 31.6-37.398 50.598-10.8 19.802-21.802 40-36.4 44.8-13.6 4.4-34-5.2-53.6-14.598-20-9.402-40.8-19.2-62-19.2zM750.806 800.198c-8.602-2.202-17.402 2.8-19.6 11.398l-28.602 107.002-56.598-98c21.398-11.002 34-34 46.198-56.4 8.602-15.802 17.6-32.4 28-40 10.8-7.802 29.2-11.402 47.2-14.602 6.4-1.2 12.8-2.4 19.002-3.798l71.2 123.398-106.8-28.998z"></path>
<path d="M662.013 339.398c-6.202-6.198-16.4-6.198-22.602 0l-162 162-92.598-92.598c-6.202-6.202-16.4-6.202-22.602 0-6.198 6.198-6.198 16.4 0 22.602l104 104c3.002 2.998 7.002 4.598 11.402 4.598s8.4-1.6 11.398-4.598l173.002-173.402c6.198-6.198 6.198-16.4 0-22.602z"></path>
</svg>
