<svg width="32" height="32" viewBox="0 0 32 32" fill="none" xmlns="http://www.w3.org/2000/svg">
<path d="M15.9999 26.0499C15.6745 26.0499 15.3607 25.932 15.1162 25.7178C14.1929 24.9104 13.3026 24.1517 12.5172 23.4824L12.5132 23.4789C10.2104 21.5165 8.22189 19.8219 6.83831 18.1525C5.29168 16.2862 4.57129 14.5167 4.57129 12.5836C4.57129 10.7055 5.2153 8.97276 6.38456 7.70445C7.56777 6.42114 9.1913 5.71436 10.9566 5.71436C12.276 5.71436 13.4843 6.13149 14.5479 6.95407C15.0847 7.36928 15.5712 7.87744 15.9999 8.47018C16.4287 7.87744 16.915 7.36928 17.452 6.95407C18.5156 6.13149 19.7239 5.71436 21.0433 5.71436C22.8084 5.71436 24.4321 6.42114 25.6153 7.70445C26.7846 8.97276 27.4284 10.7055 27.4284 12.5836C27.4284 14.5167 26.7082 16.2862 25.1616 18.1523C23.778 19.8219 21.7897 21.5164 19.4872 23.4786C18.7004 24.1489 17.8088 24.9089 16.8833 25.7182C16.639 25.932 16.3251 26.0499 15.9999 26.0499ZM10.9566 7.05329C9.56972 7.05329 8.29565 7.60679 7.36879 8.61196C6.42815 9.63229 5.91005 11.0427 5.91005 12.5836C5.91005 14.2094 6.5143 15.6634 7.86911 17.2981C9.17857 18.8782 11.1263 20.5381 13.3815 22.46L13.3856 22.4635C14.174 23.1354 15.0678 23.8971 15.9979 24.7104C16.9337 23.8955 17.8288 23.1326 18.6188 22.4596C20.8738 20.5377 22.8213 18.8782 24.1308 17.2981C25.4854 15.6634 26.0897 14.2094 26.0897 12.5836C26.0897 11.0427 25.5716 9.63229 24.6309 8.61196C23.7042 7.60679 22.43 7.05329 21.0433 7.05329C20.0273 7.05329 19.0945 7.37626 18.2709 8.01311C17.5369 8.58092 17.0256 9.29869 16.7258 9.80092C16.5717 10.0592 16.3003 10.2133 15.9999 10.2133C15.6994 10.2133 15.428 10.0592 15.2739 9.80092C14.9743 9.29869 14.463 8.58092 13.7288 8.01311C12.9052 7.37626 11.9724 7.05329 10.9566 7.05329Z" fill="#FBFBFB"/>
</svg>
