<!-- Generated by IcoMoon.io -->
<svg version="1.1" xmlns="http://www.w3.org/2000/svg" width="1024" height="1024" viewBox="0 0 1024 1024">
<title></title>
<g id="icomoon-ignore">
</g>
<path d="M512.003 833.6c-10.414 0-20.452-3.773-28.275-10.627-29.55-25.836-58.038-50.117-83.172-71.534l-0.128-0.11c-73.687-62.797-137.321-117.028-181.595-170.447-49.492-59.722-72.545-116.344-72.545-178.204 0-60.099 20.608-115.546 58.024-156.132 37.863-41.066 89.817-63.683 146.306-63.683 42.222 0 80.888 13.348 114.921 39.671 17.178 13.287 32.748 29.548 46.464 48.514 13.722-18.967 29.284-35.228 46.467-48.514 34.035-26.323 72.701-39.671 114.921-39.671 56.486 0 108.444 22.617 146.307 63.683 37.417 40.586 58.020 96.034 58.020 156.132 0 61.86-23.048 118.482-72.54 178.199-44.273 53.425-107.901 107.651-181.578 170.44-25.178 21.45-53.711 45.77-83.325 71.67-7.818 6.84-17.864 10.614-28.27 10.614zM350.618 225.709c-44.38 0-85.151 17.712-114.81 49.878-30.1 32.65-46.68 77.783-46.68 127.091 0 52.027 19.336 98.555 62.69 150.866 41.904 50.563 104.23 103.677 176.396 165.179l0.133 0.11c25.229 21.501 53.829 45.878 83.594 71.903 29.944-26.076 58.588-50.491 83.866-72.026 72.161-61.499 134.482-114.604 176.384-165.166 43.348-52.311 62.684-98.839 62.684-150.866 0-49.308-16.579-94.441-46.679-127.091-29.655-32.166-70.431-49.878-114.806-49.878-32.509 0-62.359 10.335-88.714 30.714-23.488 18.171-39.852 41.139-49.444 57.211-4.933 8.264-13.614 13.197-23.229 13.197s-18.299-4.933-23.232-13.197c-9.587-16.072-25.948-39.040-49.441-57.211-26.358-20.379-56.205-30.714-88.712-30.714z"></path>
</svg>
