<!-- Generated by IcoMoon.io -->
<svg version="1.1" xmlns="http://www.w3.org/2000/svg" width="1024" height="1024" viewBox="0 0 1024 1024">
<title></title>
<g id="icomoon-ignore">
</g>
<path d="M512 963.765c-14.578 0-28.633-5.24-39.586-14.752-41.367-35.876-81.25-69.59-116.437-99.322l-0.18-0.157c-103.164-87.191-192.25-162.491-254.234-236.661-69.289-82.921-101.563-161.542-101.563-247.43 0-83.448 28.852-160.434 81.235-216.786 53.008-57.018 125.742-88.422 204.828-88.422 59.109 0 113.242 18.534 160.891 55.082 24.047 18.448 45.844 41.027 65.047 67.363 19.211-26.336 41-48.915 65.055-67.363 47.646-36.548 101.779-55.082 160.888-55.082 79.083 0 151.823 31.403 204.83 88.422 52.381 56.353 81.227 133.339 81.227 216.786 0 85.888-32.268 164.509-101.557 247.422-61.982 74.178-151.058 149.472-254.211 236.651-35.25 29.786-75.193 63.554-116.654 99.509-10.945 9.499-25.008 14.74-39.578 14.74zM286.062 119.726c-62.133 0-119.21 24.593-160.734 69.253-42.141 45.335-65.351 108.002-65.351 176.465 0 72.236 27.070 136.841 87.766 209.472 58.652 70.192 145.887 143.927 246.894 229.292l0.060 0.054 0.187 0.157c35.32 29.853 75.359 63.693 117.031 99.834 41.922-36.207 82.024-70.108 117.412-100.009 0.090-0.072 0.181-0.151 0.277-0.229 100.906-85.293 188.049-158.957 246.664-229.1 60.687-72.631 87.757-137.236 87.757-209.472 0-68.463-23.209-131.13-65.349-176.465-41.52-44.66-98.605-69.253-160.732-69.253-45.514 0-87.299 14.35-124.199 42.646-32.884 25.228-55.791 57.12-69.22 79.435-6.906 11.475-19.063 18.324-32.523 18.324s-25.617-6.849-32.523-18.324c-13.422-22.315-36.328-54.206-69.219-79.435-36.898-28.296-78.687-42.646-124.196-42.646z"></path>
<path d="M286.062 119.726c-62.133 0-119.21 24.593-160.734 69.253-42.141 45.335-65.351 108.002-65.351 176.465 0 72.236 27.070 136.841 87.766 209.472 58.652 70.192 145.887 143.927 246.894 229.292l0.060 0.054 0.187 0.157c35.32 29.853 75.359 63.693 117.031 99.834 41.922-36.207 82.024-70.108 117.412-100.009l0.277-0.229c100.906-85.293 188.049-158.957 246.664-229.1 60.687-72.631 87.757-137.236 87.757-209.472 0-68.463-23.209-131.13-65.349-176.465-41.52-44.66-98.605-69.253-160.732-69.253-45.514 0-87.299 14.35-124.199 42.646-32.884 25.228-55.791 57.12-69.22 79.435-6.906 11.475-19.063 18.324-32.523 18.324s-25.617-6.849-32.523-18.324c-13.422-22.315-36.328-54.206-69.219-79.435-36.898-28.296-78.687-42.646-124.196-42.646z"></path>
</svg>
