<!-- Generated by IcoMoon.io -->
<svg version="1.1" xmlns="http://www.w3.org/2000/svg" width="1024" height="1024" viewBox="0 0 1024 1024">
<title></title>
<g id="icomoon-ignore">
</g>
<path d="M96 4.267h832c50.662 0 91.733 41.070 91.733 91.733v832c0 50.662-41.071 91.733-91.733 91.733h-832c-50.664 0-91.733-41.071-91.733-91.733v-832c0-50.664 41.070-91.733 91.733-91.733zM928 964.267c20.032 0 36.267-16.235 36.267-36.267v-832c0-20.030-16.235-36.267-36.267-36.267h-832c-20.030 0-36.267 16.236-36.267 36.267v832c0 20.032 16.236 36.267 36.267 36.267h832z"></path>
<path d="M694.729 553.276c-12.48-12.407-32.636-12.407-45.12 0l-73.6 73.6-137.28-137.28c-12.482-12.407-32.637-12.407-45.12 0l-224 224c-12.372 12.621-12.174 32.883 0.446 45.252 5.87 5.756 13.732 9.033 21.954 9.148h640c17.673 0.102 32.081-14.14 32.188-31.812 0.047-8.597-3.362-16.853-9.468-22.908l-160-160z"></path>
<path d="M608 448c53.018 0 96-42.981 96-96s-42.982-96-96-96c-53.018 0-96 42.981-96 96s42.982 96 96 96z"></path>
</svg>
