<!-- Generated by IcoMoon.io -->
<svg version="1.1" xmlns="http://www.w3.org/2000/svg" width="1024" height="1024" viewBox="0 0 1024 1024">
<title></title>
<g id="icomoon-ignore">
</g>
<path d="M1023.94 544.081c0-7.957-3.162-15.586-8.789-21.21l-90.876-90.88c-0.299-0.294-11.482-12.345-28.855-7.76v-394.235c0-16.566-13.431-29.997-29.999-29.997h-835.382c-16.566 0-29.997 13.431-29.997 29.997v835.381c0 16.567 13.431 29.999 29.997 29.999h386.783c219.944 284.638 665.204 56.371 558.943-290.701l39.39-39.39c5.623-5.623 8.785-13.252 8.785-21.205zM381.336 59.994h132.785v100.656h-132.785v-100.656zM60.036 835.383v-775.389h261.308v130.653c0 16.566 13.431 29.997 29.997 29.997h192.779c16.567 0 29.999-13.431 29.999-29.997v-130.653h261.308v370.214c-267.831-156.843-579.378 121.306-454.031 405.175h-321.36zM672.64 963.904c-142.908 0-259.174-116.262-259.174-259.174-1.77-207.454 239.5-332.753 407.88-212.233l-148.702 148.706-48.563-48.563c-11.716-11.716-30.72-11.703-42.419 0l-90.88 90.88c-11.716 11.716-11.703 30.716 0 42.419l160.649 160.649c11.712 11.716 30.707 11.716 42.423 0l232.939-232.939c33.233 157.709-92.702 312.055-254.153 310.255zM672.64 822.959l-118.229-118.229 48.457-48.457 48.563 48.563c11.716 11.721 30.716 11.703 42.419 0l209.212-209.212 48.457 48.457-278.878 278.878z"></path>
</svg>
