<!-- Generated by IcoMoon.io -->
<svg version="1.1" xmlns="http://www.w3.org/2000/svg" width="1024" height="1024" viewBox="0 0 1024 1024">
<title></title>
<g id="icomoon-ignore">
</g>
<path fill="#000" d="M512 1024c282.771 0 512-229.229 512-512s-229.229-512-512-512c-282.77 0-512 229.23-512 512s229.23 512 512 512z"></path>
<path fill="#fff" d="M620.771 227.547h-217.318c-96.937 0-175.672 78.734-175.672 175.672v217.315c0 96.941 78.734 175.674 175.672 175.674h217.318c96.938 0 175.67-78.733 175.67-175.674v-217.315c0-96.938-78.733-175.672-175.67-175.672zM732.954 620.762c0 61.898-50.288 112.413-112.413 112.413h-217.315c-61.894 0-112.412-50.288-112.412-112.413v-217.315c0-61.894 50.29-112.412 112.412-112.412h217.315c61.898 0 112.413 50.29 112.413 112.412v217.315z"></path>
<path fill="#fff" d="M512.003 366.595c-80.102 0-145.408 65.306-145.408 145.408 0 80.099 65.306 145.408 145.408 145.408 80.099 0 145.408-65.309 145.408-145.408 0-80.102-65.309-145.408-145.408-145.408zM512.003 600.294c-48.698 0-88.294-39.597-88.294-88.291 0-48.698 39.597-88.294 88.294-88.294 48.694 0 88.291 39.597 88.291 88.294 0 48.694-39.597 88.291-88.291 88.291z"></path>
<path fill="#fff" d="M668.48 382.518c13.395-2.173 22.496-14.794 20.323-28.189-2.17-13.395-14.79-22.496-28.189-20.323-13.395 2.17-22.496 14.79-20.323 28.189 2.173 13.395 14.794 22.496 28.189 20.323z"></path>
</svg>
