<!-- Generated by IcoMoon.io -->
<svg version="1.1" xmlns="http://www.w3.org/2000/svg" width="1024" height="1024" viewBox="0 0 1024 1024">
<title></title>
<g id="icomoon-ignore">
</g>
<path d="M855.040 880.64h-686.080c-61.44 0-112.64-51.2-112.64-112.64v-512c0-61.44 51.2-112.64 112.64-112.64h680.96c61.44 0 112.64 51.2 112.64 112.64v512c0 61.44-46.080 112.64-107.52 112.64zM168.96 194.56c-30.72 0-56.32 30.72-56.32 61.44v512c0 30.72 25.6 61.44 61.44 61.44h680.96c30.72 0 61.44-25.6 61.44-61.44v-512c0-30.72-25.6-61.44-61.44-61.44h-686.080z"></path>
<path d="M512 578.56c-5.12 0-10.24 0-15.36-5.12l-424.96-296.96c-10.24-5.12-15.36-25.6-5.12-35.84 5.12-10.24 20.48-15.36 35.84-5.12l409.6 286.72 409.6-286.72c10.24-10.24 25.6-5.12 35.84 5.12s5.12 25.6-5.12 35.84l-424.96 296.96c-5.12 5.12-10.24 5.12-15.36 5.12z"></path>
</svg>
