<!-- Generated by IcoMoon.io -->
<svg version="1.1" xmlns="http://www.w3.org/2000/svg" width="1024" height="1024" viewBox="0 0 1024 1024">
<title></title>
<g id="icomoon-ignore">
</g>
<path d="M996.886 512c0-7.062-3.929-13.538-10.191-16.8l-182.682-95.054 182.682-95.054c6.263-3.261 10.191-9.738 10.191-16.8s-3.929-13.539-10.191-16.8l-157.351-81.873c-9.286-4.827-20.712-1.22-25.541 8.058s-1.223 20.714 8.057 25.541l125.063 65.071-424.847 221.058-424.845-221.058 424.845-221.057 148.599 77.32c9.286 4.827 20.717 1.217 25.546-8.058 4.824-9.277 1.218-20.714-8.063-25.541l-157.34-81.869c-5.483-2.85-12.003-2.85-17.483 0l-465.874 242.407c-6.267 3.259-10.196 9.736-10.196 16.8s3.93 13.539 10.196 16.8l182.681 95.054-182.681 95.056c-6.267 3.261-10.196 9.738-10.196 16.8s3.93 13.539 10.196 16.8l182.681 95.053-182.681 95.054c-6.267 3.261-10.196 9.739-10.196 16.804 0 7.060 3.93 13.538 10.196 16.799l465.874 242.402c2.741 1.428 5.74 2.14 8.742 2.14s6.001-0.711 8.742-2.14l465.877-242.402c6.263-3.261 10.191-9.739 10.191-16.799 0-7.066-3.929-13.544-10.191-16.804l-182.682-95.054 182.682-95.053c6.263-3.261 10.191-9.738 10.191-16.8zM520.817 547.495l242.16-126.002 56.466 29.379-424.171 221.411-75.566-39.322 173.94-90.505 9.687 5.039c2.741 1.428 5.74 2.14 8.742 2.14s6.003-0.711 8.744-2.14zM452.616 521.108l-173.942 90.506-75.206-39.133 173.941-90.505 75.207 39.132zM261.172 421.493l75.206 39.134-173.941 90.506-75.208-39.135 173.943-90.505zM936.922 735.712l-424.847 221.055-424.845-221.055 173.941-90.505 242.162 126.001c2.741 1.428 5.74 2.14 8.742 2.14s6.001-0.711 8.742-2.14l242.16-126.001 173.945 90.505zM512.075 733.060l-75.814-39.451 424.168-221.407 76.493 39.798-424.847 221.060z"></path>
<path d="M744.938 186.021c4.98 0 9.868-2.026 13.387-5.549s5.551-8.409 5.551-13.389c0-4.981-2.026-9.867-5.551-13.389-3.519-3.523-8.408-5.549-13.387-5.549s-9.868 2.026-13.387 5.549c-3.525 3.522-5.551 8.408-5.551 13.389s2.026 9.867 5.551 13.389c3.525 3.523 8.408 5.549 13.387 5.549z"></path>
</svg>
