<!-- Generated by IcoMoon.io -->
<svg version="1.1" xmlns="http://www.w3.org/2000/svg" width="1024" height="1024" viewBox="0 0 1024 1024">
<title></title>
<g id="icomoon-ignore">
</g>
<path d="M972.8 870.4h-921.6c-28.262 0-51.2 22.938-51.2 51.2s22.938 51.2 51.2 51.2h921.6c28.262 0 51.2-22.938 51.2-51.2s-22.938-51.2-51.2-51.2zM51.2 153.6h921.6c28.262 0 51.2-22.936 51.2-51.2s-22.938-51.2-51.2-51.2h-921.6c-28.262 0.002-51.2 22.938-51.2 51.202 0 28.262 22.938 51.198 51.2 51.198zM972.8 460.8h-921.6c-28.262 0-51.2 22.938-51.2 51.2 0 28.268 22.938 51.2 51.2 51.2h921.6c28.262 0 51.2-22.938 51.2-51.2 0-28.26-22.938-51.2-51.2-51.2z"></path>
</svg>
