<!-- Generated by IcoMoon.io -->
<svg version="1.1" xmlns="http://www.w3.org/2000/svg" width="1024" height="1024" viewBox="0 0 1024 1024">
<title></title>
<g id="icomoon-ignore">
</g>
<path d="M855.040 962.56c-5.12 0-5.12 0-10.24 0-133.12-15.36-266.24-61.44-378.88-133.12-107.52-71.68-199.68-163.84-266.24-266.24-71.68-112.64-122.88-245.76-133.12-384 0-15.36 0-30.72 5.12-46.080s10.24-25.6 25.6-40.96c5.12-10.24 20.48-15.36 35.84-20.48s30.72-10.24 46.080-10.24h128c25.6 0 51.2 10.24 71.68 25.6s30.72 40.96 35.84 66.56c5.12 40.96 15.36 76.8 30.72 112.64 5.12 20.48 10.24 40.96 5.12 61.44-10.24 25.6-20.48 46.080-30.72 61.44l-40.96 35.84c56.32 92.16 128 163.84 220.16 220.16l40.96-40.96c15.36-15.36 35.84-25.6 56.32-30.72s40.96-5.12 61.44 5.12c35.84 15.36 76.8 25.6 112.64 30.72 25.6 5.12 51.2 15.36 71.68 35.84 15.36 20.48 25.6 46.080 25.6 71.68v128c0 15.36-5.12 30.72-10.24 46.080s-15.36 25.6-25.6 35.84c-10.24 10.24-25.6 20.48-40.96 25.6s-25.6 10.24-35.84 10.24zM302.080 112.64c0 0 0 0 0 0h-128c-10.24 0-15.36 0-25.6 5.12-5.12 0-10.24 5.12-15.36 10.24-5.12 10.24-10.24 15.36-15.36 25.6 0 5.12-5.12 15.36 0 20.48 15.36 128 56.32 250.88 128 358.4 61.44 97.28 148.48 184.32 245.76 245.76 107.52 71.68 230.4 112.64 358.4 128 10.24 0 15.36 0 25.6-5.12s15.36-5.12 20.48-10.24c5.12-5.12 10.24-10.24 15.36-20.48s5.12-15.36 5.12-25.6v-128c0 0 0 0 0 0 0-15.36-5.12-30.72-15.36-40.96s-20.48-20.48-35.84-20.48c-40.96-5.12-87.040-15.36-122.88-30.72-10.24-5.12-20.48-5.12-35.84 0-10.24 0-20.48 10.24-30.72 15.36l-56.32 56.32c-10.24 10.24-20.48 10.24-30.72 5.12-112.64-61.44-204.8-153.6-266.24-266.24-5.12-10.24-5.12-20.48 5.12-30.72l56.32-56.32c10.24-10.24 15.36-20.48 15.36-30.72s0-20.48 0-35.84c-20.48-35.84-30.72-76.8-35.84-117.76 0-15.36-10.24-25.6-20.48-35.84s-25.6-15.36-40.96-15.36z"></path>
</svg>
