<!-- Generated by IcoMoon.io -->
<svg version="1.1" xmlns="http://www.w3.org/2000/svg" width="1024" height="1024" viewBox="0 0 1024 1024">
<title></title>
<g id="icomoon-ignore">
</g>
<path fill="#fff" d="M551.488 626.016c-31.744 0-61.632-17.152-71.84-36.672 0 0-17.088 67.776-20.672 80.864-12.736 46.208-50.208 92.448-53.12 96.224-2.016 2.656-6.496 1.824-6.976-1.664-0.8-5.888-10.368-64.224 0.896-111.776l37.824-160.256c0 0-9.376-18.784-9.376-46.528 0-43.584 25.248-76.128 56.704-76.128 26.752 0 39.648 20.096 39.648 44.16 0 26.88-17.12 67.104-25.952 104.352-7.392 31.2 15.648 56.64 46.432 56.64 55.68 0 93.216-71.552 93.216-156.352 0-64.448-43.392-112.704-122.368-112.704-89.184 0-144.8 66.528-144.8 140.864 0 25.6 7.584 43.68 19.424 57.664 5.44 6.432 6.208 9.024 4.224 16.384-1.44 5.44-4.64 18.432-6.016 23.616-1.952 7.456-7.968 10.112-14.72 7.36-41.056-16.768-60.224-61.792-60.224-112.352 0-83.552 70.464-183.712 210.176-183.712 112.32 0 186.208 81.216 186.208 168.48 0 115.36-64.16 201.536-158.688 201.536z"></path>
<path fill="#e8402b" d="M551.488 626.016c-31.744 0-61.632-17.152-71.84-36.672 0 0-17.088 67.776-20.672 80.864-12.736 46.208-50.208 92.448-53.12 96.224-2.016 2.656-6.496 1.824-6.976-1.664-0.8-5.888-10.368-64.224 0.896-111.776 5.632-23.872 37.824-160.256 37.824-160.256s-9.376-18.784-9.376-46.528c0-43.584 25.248-76.128 56.704-76.128 26.752 0 39.648 20.096 39.648 44.16 0 26.88-17.12 67.104-25.952 104.352-7.392 31.2 15.648 56.64 46.432 56.64 55.68 0 93.216-71.552 93.216-156.352 0-64.448-43.392-112.704-122.368-112.704-89.184 0-144.8 66.528-144.8 140.864 0 25.6 7.584 43.68 19.424 57.664 5.44 6.432 6.208 9.024 4.224 16.384-1.44 5.44-4.64 18.432-6.016 23.616-1.952 7.456-7.968 10.112-14.72 7.36-41.056-16.768-60.224-61.792-60.224-112.352 0-83.552 70.464-183.712 210.176-183.712 112.32 0 186.208 81.216 186.208 168.48 0 115.36-64.16 201.536-158.688 201.536zM512 0c-282.784 0-512 229.216-512 512 0 282.752 229.216 512 512 512 282.752 0 512-229.248 512-512 0-282.784-229.248-512-512-512z"></path>
</svg>
