<!-- Generated by IcoMoon.io -->
<svg version="1.1" xmlns="http://www.w3.org/2000/svg" width="1024" height="1024" viewBox="0 0 1024 1024">
<title></title>
<g id="icomoon-ignore">
</g>
<path d="M128 83.2v851.2l748.8-422.4-748.8-428.8z"></path>
<path d="M128 972.8c-6.4 0-12.8 0-19.2-6.4-12.8-6.4-12.8-19.2-12.8-25.6v-857.6c0-12.8 6.4-19.2 12.8-25.6 12.8-6.4 19.2-6.4 32 0l748.8 428.8c12.8 6.4 19.2 19.2 19.2 25.6s-6.4 19.2-19.2 25.6l-748.8 428.8c0 0-6.4 6.4-12.8 6.4zM160 140.8v742.4l652.8-371.2-652.8-371.2z"></path>
</svg>
