<!-- Generated by IcoMoon.io -->
<svg version="1.1" xmlns="http://www.w3.org/2000/svg" width="1024" height="1024" viewBox="0 0 1024 1024">
<title></title>
<g id="icomoon-ignore">
</g>
<path d="M256 870.4c-12.8 0-21.333-8.533-21.333-21.333v-674.133c0-12.8 8.533-21.333 21.333-21.333s21.333 8.533 21.333 21.333v678.4c0 8.533-8.533 17.067-21.333 17.067z"></path>
<path d="M256 870.4c-8.533 0-12.8-4.267-17.067-12.8s-4.267-21.333 8.533-29.867l593.067-337.067c8.533-4.267 21.333-4.267 29.867 8.533 4.267 8.533 4.267 21.333-8.533 29.867l-593.067 341.333c-4.267 0-8.533 0-12.8 0z"></path>
<path d="M849.067 533.333c-4.267 0-8.533 0-8.533-4.267l-593.067-337.067c-8.533-4.267-12.8-17.067-8.533-29.867 4.267-8.533 17.067-12.8 29.867-8.533l593.067 337.067c8.533 4.267 12.8 17.067 8.533 29.867-4.267 8.533-12.8 12.8-21.333 12.8z"></path>
</svg>
