<!-- Generated by IcoMoon.io -->
<svg version="1.1" xmlns="http://www.w3.org/2000/svg" width="1024" height="1024" viewBox="0 0 1024 1024">
<title></title>
<g id="icomoon-ignore">
</g>
<path d="M895.71 579.811c-7.578-4.438-17.271-1.903-21.683 5.658l-181.716 309.933c-13.127 22.716-42.246 30.541-64.265 17.826l-35.399-22.938c-7.354-4.77-17.168-2.679-21.924 4.676-4.773 7.339-2.664 17.169 4.675 21.931l36.095 23.364c12.445 7.194 26.062 10.607 39.504 10.607 27.408 0 54.071-14.191 68.703-39.526l181.65-309.85c4.429-7.543 1.911-17.261-5.641-21.682z"></path>
<path d="M943.65 0h-253.635c-49.047 0-85.586 15.614-122.173 52.201-6.198 6.199-6.198 16.218 0 22.415 6.199 6.199 16.218 6.199 22.415 0 30.881-30.881 58.86-42.913 99.759-42.913h253.635c26.223 0 47.556 21.338 47.556 47.557v253.639c0 40.916-12.032 68.879-42.923 99.759l-470.787 471.448c-17.977 17.946-49.301 17.963-67.245 0l-291.447-291.444c-8.987-8.987-13.934-20.925-13.934-33.639 0-12.698 4.945-24.635 13.918-33.608l425.51-424.906c6.546 1.664 13.11 3.329 19.911 5.151 64.488 17.279 115.374 35.129 153.308 51.061-7.466 13.823-11.651 29.311-11.651 45.211 0 52.456 42.659 95.114 95.114 95.114s95.113-42.658 95.113-95.114c0-52.456-42.658-95.114-95.113-95.114-8.766 0-15.852 7.101-15.852 15.852s7.085 15.852 15.852 15.852c34.971 0 63.412 28.44 63.412 63.409s-28.442 63.409-63.412 63.409c-34.969 0-63.409-28.44-63.409-63.409 0-11.414 3.123-22.559 8.878-32.259 27.457 13.141 44.623 24.223 51.41 31.293-2.901 0.824-7.388 1.744-14.156 2.329-8.718 0.777-15.17 8.466-14.393 17.184 0.73 8.242 7.641 14.473 15.774 14.473 0.458 0 0.934-0.032 1.41-0.063 9.749-0.871 39.409-3.488 45.117-24.747 15.613-58.321-213.183-122.778-259.203-135.111-70.402-18.865-138.010-31.768-190.403-36.333-64.377-5.627-95.733 1.696-101.629 23.73-2.822 10.574-10.351 38.648 118.18 89.327 8.133 3.218 17.359-0.777 20.561-8.924s-0.794-17.359-8.941-20.561c-62.094-24.492-87.823-42.437-96.066-50.886 19.547-5.739 86.397-4.074 194.050 20.401l-411.768 411.201c-14.981 14.98-23.223 34.875-23.223 56.038 0 21.18 8.243 41.089 23.223 56.055l291.446 291.446c14.949 14.959 34.86 23.211 56.022 23.211 21.18 0 41.074-8.243 56.055-23.228l470.797-471.433c36.608-36.587 52.207-73.126 52.207-122.173v-253.637c0-43.706-35.558-79.263-79.266-79.263z"></path>
<path d="M591.664 416.816c-6.197-6.199-16.218-6.199-22.415 0l-8.561 8.561c-12.539-8.305-27.503-13.204-43.64-13.204-43.704 0-79.263 35.556-79.263 79.263 0 23.62 9.749 42.294 18.247 55.943 7.927 12.728 13.459 30.863 13.459 39.171 0 26.22-21.338 47.557-47.557 47.557s-47.557-21.338-47.557-47.557c0-9.623 2.868-18.897 8.291-26.822 4.945-7.213 3.091-17.089-4.122-22.034-7.228-4.931-17.089-3.092-22.034 4.122-9.052 13.221-13.84 28.692-13.84 44.735 0 16.137 4.899 31.101 13.205 43.641l-8.561 8.56c-6.199 6.198-6.199 16.218 0 22.415 3.091 3.091 7.15 4.644 11.208 4.644s8.116-1.553 11.207-4.644l8.561-8.561c12.54 8.306 27.503 13.204 43.641 13.204 43.704 0 79.262-35.556 79.262-79.262 0-15.439-7.672-38.966-18.246-55.943-9.432-15.139-13.459-26.854-13.459-39.171 0-26.22 21.337-47.557 47.556-47.557 12.715 0 24.207 5.073 32.735 13.236 0.27 0.286 0.364 0.665 0.633 0.951 0.287 0.27 0.666 0.364 0.951 0.634 8.165 8.528 13.236 20.022 13.236 32.734s-4.962 24.682-13.966 33.686c-6.199 6.182-6.199 16.218-0.017 22.415 6.165 6.199 16.218 6.182 22.415 0.017 14.997-14.997 23.272-34.923 23.272-56.118 0-16.137-4.899-31.101-13.204-43.641l8.56-8.56c6.203-6.198 6.203-16.218 0.003-22.415z"></path>
</svg>
