<!-- Generated by IcoMoon.io -->
<svg version="1.1" xmlns="http://www.w3.org/2000/svg" width="1024" height="1024" viewBox="0 0 1024 1024">
<title></title>
<g id="icomoon-ignore">
</g>
<path d="M896 936.96c-10.24 0-20.48-5.12-30.72-10.24l-163.84-163.84c-71.68 56.32-158.72 92.16-256 92.16-107.52 0-209.92-40.96-286.72-117.76s-117.76-179.2-117.76-286.72c0-107.52 40.96-209.92 117.76-286.72s179.2-117.76 286.72-117.76c107.52 0 209.92 40.96 286.72 117.76s117.76 179.2 117.76 286.72c0 92.16-30.72 184.32-92.16 256l163.84 163.84c10.24 10.24 10.24 20.48 10.24 30.72s-5.12 20.48-10.24 30.72c-5.12 5.12-15.36 5.12-25.6 5.12zM450.56 128c-87.040 0-163.84 30.72-225.28 92.16-66.56 61.44-97.28 143.36-97.28 230.4s30.72 163.84 92.16 225.28c61.44 56.32 143.36 92.16 230.4 92.16s163.84-30.72 225.28-92.16c0 0 0 0 0 0s0 0 0 0c61.44-61.44 92.16-143.36 92.16-225.28 0-87.040-35.84-163.84-92.16-225.28-61.44-66.56-143.36-97.28-225.28-97.28z"></path>
</svg>
