<!-- Generated by IcoMoon.io -->
<svg version="1.1" xmlns="http://www.w3.org/2000/svg" width="1024" height="1024" viewBox="0 0 1024 1024">
<title></title>
<g id="icomoon-ignore">
</g>
<path d="M899.763 207.332l-384.864-205.075c-5.711-3.047-12.553-3.004-18.221 0.107l-374.214 205.075c-6.137 3.368-9.944 9.805-9.944 16.809v267.881c0.225 220.205 130.69 419.422 332.452 507.642l51.942 22.635c4.853 2.118 10.381 2.129 15.247 0.021l58.528-25.276c205.504-86.306 339.198-287.447 339.219-510.336v-262.566c0-7.078-3.902-13.59-10.146-16.916zM871.588 486.814c-0.043 207.524-124.553 394.775-315.9 475.085l-0.128 0.064-50.97 22.003-44.286-19.319c-187.808-82.116-309.26-267.539-309.474-472.518v-256.538l355.183-194.66 365.574 194.801v251.083z"></path>
<path d="M364.657 479.706c-6.876-8.051-18.97-9.003-27.021-2.127-8.049 6.863-9.003 18.967-2.127 27.008l101.212 118.522c6.758 7.913 18.594 8.992 26.656 2.428l235.718-191.774c8.211-6.673 9.453-18.743 2.769-26.955-6.671-8.201-18.743-9.453-26.955-2.769l-221.199 179.949-89.054-104.282z"></path>
</svg>
