<!-- Generated by IcoMoon.io -->
<svg version="1.1" xmlns="http://www.w3.org/2000/svg" width="1024" height="1024" viewBox="0 0 1024 1024">
<title></title>
<g id="icomoon-ignore">
</g>
<path d="M330.545 839.675h362.906c63.693 0 115.507-51.814 115.507-115.507v-345.293c0-11.264-9.216-20.48-20.48-20.48h-122.88v-30.72c0-84.685-68.915-153.6-153.6-153.6s-153.6 68.915-153.6 153.6v30.72h-122.88c-11.264 0-20.48 9.216-20.48 20.48v345.293c0 63.693 51.814 115.507 115.507 115.507zM399.357 327.675c0-62.157 50.483-112.64 112.64-112.64s112.64 50.483 112.64 112.64v30.72h-225.28v-30.72zM255.997 399.355h102.4v51.2c0 11.264 9.216 20.48 20.48 20.48s20.48-9.216 20.48-20.48v-51.2h225.28v51.2c0 11.264 9.216 20.48 20.48 20.48s20.48-9.216 20.48-20.48v-51.2h102.4v324.813c0 41.062-33.485 74.547-74.547 74.547h-362.906c-41.062 0-74.547-33.485-74.547-74.547v-324.813z"></path>
</svg>
