<svg width="32" height="32" viewBox="0 0 32 32" fill="none" xmlns="http://www.w3.org/2000/svg">
<path d="M10.3298 26.2399H21.6706C23.661 26.2399 25.2802 24.6207 25.2802 22.6303V11.8399C25.2802 11.4879 24.9922 11.1999 24.6402 11.1999H20.8002V10.2399C20.8002 7.59354 18.6466 5.43994 16.0002 5.43994C13.3538 5.43994 11.2002 7.59354 11.2002 10.2399V11.1999H7.36021C7.00821 11.1999 6.72021 11.4879 6.72021 11.8399V22.6303C6.72021 24.6207 8.33941 26.2399 10.3298 26.2399ZM12.4802 10.2399C12.4802 8.29754 14.0578 6.71994 16.0002 6.71994C17.9426 6.71994 19.5202 8.29754 19.5202 10.2399V11.1999H12.4802V10.2399ZM8.00021 12.4799H11.2002V14.0799C11.2002 14.4319 11.4882 14.7199 11.8402 14.7199C12.1922 14.7199 12.4802 14.4319 12.4802 14.0799V12.4799H19.5202V14.0799C19.5202 14.4319 19.8082 14.7199 20.1602 14.7199C20.5122 14.7199 20.8002 14.4319 20.8002 14.0799V12.4799H24.0002V22.6303C24.0002 23.9135 22.9538 24.9599 21.6706 24.9599H10.3298C9.04661 24.9599 8.00021 23.9135 8.00021 22.6303V12.4799Z" fill="#FBFBFB"/>
</svg>
