<!-- Generated by IcoMoon.io -->
<svg version="1.1" xmlns="http://www.w3.org/2000/svg" width="1024" height="1024" viewBox="0 0 1024 1024">
<title></title>
<g id="icomoon-ignore">
</g>
<path fill="#1c8adb" d="M512 1024c282.769 0 512-229.231 512-512s-229.231-512-512-512c-282.77 0-512 229.23-512 512s229.23 512 512 512z"></path>
<path fill="#fff" d="M790.921 264.717l-10.59 3.84-574.72 207.070c-4.073 1.259-7.613 3.836-10.065 7.322s-3.677 7.689-3.485 11.947c0.193 4.258 1.794 8.333 4.551 11.584s6.516 5.495 10.685 6.383l148.771 40.73 55.505 162.906c1.594 3.994 4.139 7.539 7.414 10.325s7.18 4.732 11.378 5.666c4.194 0.934 8.555 0.828 12.706-0.303 4.147-1.135 7.953-3.264 11.093-6.204l76.855-72.61 150.925 102.34c18.445 12.57 44.74 3.26 49.455-17.455l99.955-441.657c4.89-21.876-18.15-39.854-40.435-31.884zM717.551 362.753l-271.881 222.254c-2.684 2.129-4.437 5.214-4.89 8.61l-2.735 22.575-7.505 63.42c0.064 0.772-0.183 1.536-0.687 2.125s-1.216 0.956-1.988 1.015c-0.772 0.064-1.536-0.183-2.126-0.687s-0.955-1.216-1.017-1.988l-21.12-63.36-21.818-64.875c-0.923-2.914-0.8-6.059 0.346-8.896s3.247-5.184 5.937-6.635l321.047-183.973c7.39-4.305 14.955 5.062 8.435 10.415z"></path>
</svg>
