<!-- Generated by IcoMoon.io -->
<svg version="1.1" xmlns="http://www.w3.org/2000/svg" width="1024" height="1024" viewBox="0 0 1024 1024">
<title></title>
<g id="icomoon-ignore">
</g>
<path fill="#f0f0f0" d="M1024 170.667h-1024v682.672h1024v-682.672z"></path>
<path fill="#d80027" d="M576 170.66h-128v277.332h-448v127.997h448v277.333h128v-277.333h448v-127.997h-448v-277.332z"></path>
<path fill="#0052b4" d="M787.61 630.716l236.43 131.351v-131.351h-236.43z"></path>
<path fill="#0052b4" d="M623.332 630.716l400.697 222.606v-62.948l-287.386-159.659h-113.311z"></path>
<path fill="#0052b4" d="M917.299 853.322l-293.968-163.328v163.328h293.968z"></path>
<path fill="#f0f0f0" d="M623.332 630.716l400.697 222.606v-62.948l-287.386-159.659h-113.311z"></path>
<path fill="#d80027" d="M623.332 630.716l400.697 222.606v-62.948l-287.386-159.659h-113.311z"></path>
<path fill="#0052b4" d="M180.682 630.71l-180.682 100.38v-100.38h180.682z"></path>
<path fill="#0052b4" d="M400.714 659.018v194.304h-349.714l349.714-194.304z"></path>
<path fill="#d80027" d="M287.386 630.716l-287.386 159.659v62.948l400.696-222.606h-113.31z"></path>
<path fill="#0052b4" d="M236.43 393.267l-236.43-131.352v131.352h236.43z"></path>
<path fill="#0052b4" d="M400.696 393.268l-400.696-222.608v62.948l287.386 159.66h113.31z"></path>
<path fill="#0052b4" d="M106.722 170.66l293.964 163.328v-163.328h-293.964z"></path>
<path fill="#f0f0f0" d="M400.696 393.268l-400.696-222.608v62.948l287.386 159.66h113.31z"></path>
<path fill="#d80027" d="M400.696 393.268l-400.696-222.608v62.948l287.386 159.66h113.31z"></path>
<path fill="#0052b4" d="M843.332 393.271l180.685-100.38v100.38h-180.685z"></path>
<path fill="#0052b4" d="M623.332 364.963v-194.302h349.713l-349.713 194.302z"></path>
<path fill="#d80027" d="M736.643 393.268l287.386-159.66v-62.948l-400.697 222.608h113.311z"></path>
</svg>
