<!-- Generated by IcoMoon.io -->
<svg version="1.1" xmlns="http://www.w3.org/2000/svg" width="1024" height="1024" viewBox="0 0 1024 1024">
<title></title>
<g id="icomoon-ignore">
</g>
<path d="M803.226 748.354l209.013-208.002c0.007-0.012 0.022-0.026 0.029-0.038 15.667-15.636 15.616-41.043 0-56.628-0.015-0.012-0.022-0.026-0.037-0.038l-209.006-208c-15.66-15.582-40.989-15.524-56.576 0.136-15.58 15.658-15.52 40.984 0.139 56.568l140.325 139.648h-847.114c-22.092 0-40 17.908-40 40s17.908 40 40 40h847.114l-140.325 139.648c-15.655 15.585-15.715 40.907-0.132 56.567 15.587 15.66 40.916 15.718 56.569 0.139z"></path>
</svg>
