<!-- Generated by IcoMoon.io -->
<svg version="1.1" xmlns="http://www.w3.org/2000/svg" width="1024" height="1024" viewBox="0 0 1024 1024">
<title></title>
<g id="icomoon-ignore">
</g>

<path fill="#fff" d="M759.441 649.374l-50.112 48.998c-52.715 51.597-190.306-7.3-311.566-131.162-121.26-123.981-174.466-262.811-124.353-314.409l50.112-48.999c18.436-18.065 49.741-17.694 70.405 0.742l72.262 73.87c25.737 26.356 14.848 70.529-19.179 80.675-23.51 7.548-39.472 33.408-31.924 56.918 12.498 54.938 82.16 123.61 134.128 137.221 23.386 5.444 49.617-7.3 57.783-30.686 10.765-33.779 55.185-43.802 81.045-17.323l72.141 73.745c18.065 18.423 17.818 49.741-0.742 70.409z"></path>
<path fill="#fff" d="M800.644 420.45c-2.103 8.909-11.631 14.477-20.416 12.126-8.538-2.351-13.734-11.26-11.755-19.797 3.588-14.848 5.321-30.191 5.321-45.658 0-109.134-88.845-197.975-197.978-197.975-5.073 0-10.27 0.124-15.343 0.619-9.033 0.619-16.951-6.187-17.694-15.219-0.619-9.156 6.187-17.076 15.219-17.694 5.939-0.495 11.878-0.742 17.818-0.742 127.322 0 231.014 103.69 231.014 231.013 0 17.941-2.103 35.883-6.187 53.329z"></path>
<path fill="#fff" d="M575.817 235.096c-4.949 0-9.899 0.247-14.724 0.866-9.033 0.99-17.199-5.568-18.189-14.601s5.568-17.199 14.601-18.189c6.063-0.742 12.25-0.99 18.313-0.99 90.944 0 164.941 73.993 164.941 164.938 0 6.063-0.247 12.25-0.99 18.313-0.99 8.909-9.28 15.59-18.189 14.601s-15.595-9.28-14.605-18.189c0.499-4.826 0.87-9.775 0.87-14.724 0-72.756-59.273-132.025-132.028-132.025z"></path>
<path fill="#fff" d="M674.803 367.121c0 9.033-7.548 16.457-16.58 16.457-8.909 0-16.457-7.424-16.457-16.457 0-36.378-29.572-65.951-65.95-65.951-9.156 0-16.58-7.424-16.58-16.58 0-9.033 7.424-16.457 16.58-16.457 54.566 0 98.987 44.421 98.987 98.988z"></path>
<path fill="#9b5de5" d="M629.764 0h-197.973c-191.047 0-346.458 155.411-346.458 346.457v148.48c0 134.255 77.334 255.885 197.975 313.173v165.431c0 14.353 17.941 21.777 28.088 11.631l143.78-143.654h174.588c191.049 0 346.458-155.409 346.458-346.581v-148.48c0-191.046-155.409-346.457-346.458-346.457zM759.441 649.374l-50.112 48.998c-52.715 51.597-190.306-7.3-311.566-131.162-121.26-123.981-174.466-262.811-124.353-314.409l50.112-48.999c18.436-18.065 49.741-17.694 70.405 0.742l72.262 73.87c25.737 26.356 14.848 70.529-19.179 80.675-23.51 7.548-39.472 33.408-31.924 56.918 12.498 54.938 82.16 123.61 134.128 137.221 23.386 5.444 49.617-7.3 57.783-30.686 10.765-33.779 55.185-43.802 81.045-17.323l72.141 73.745c18.065 18.423 17.818 49.741-0.742 70.409zM575.817 235.096c-4.949 0-9.899 0.247-14.724 0.866-9.033 0.99-17.199-5.568-18.189-14.601s5.568-17.199 14.601-18.189c6.063-0.742 12.25-0.99 18.313-0.99 90.944 0 164.941 73.993 164.941 164.938 0 6.063-0.247 12.25-0.99 18.313-0.99 8.909-9.28 15.59-18.189 14.601s-15.595-9.28-14.605-18.189c0.499-4.826 0.87-9.775 0.87-14.724 0-72.756-59.273-132.025-132.028-132.025zM674.803 367.121c0 9.033-7.548 16.457-16.58 16.457-8.909 0-16.457-7.424-16.457-16.457 0-36.378-29.572-65.951-65.95-65.951-9.156 0-16.58-7.424-16.58-16.58 0-9.033 7.424-16.457 16.58-16.457 54.566 0 98.987 44.421 98.987 98.988zM800.644 420.45c-2.103 8.909-11.631 14.477-20.416 12.126-8.538-2.351-13.734-11.26-11.755-19.797 3.588-14.848 5.321-30.191 5.321-45.658 0-109.134-88.845-197.975-197.978-197.975-5.073 0-10.27 0.124-15.343 0.619-9.033 0.619-16.951-6.187-17.694-15.219-0.619-9.156 6.187-17.076 15.219-17.694 5.939-0.495 11.878-0.742 17.818-0.742 127.322 0 231.014 103.69 231.014 231.013 0 17.941-2.103 35.883-6.187 53.329z"></path>
</svg>
