<!-- Generated by IcoMoon.io -->
<svg version="1.1" xmlns="http://www.w3.org/2000/svg" width="1024" height="1024" viewBox="0 0 1024 1024">
<title></title>
<g id="icomoon-ignore">
</g>
<path d="M109.92 752.631l3.346-0.742v-746.789h906.467v879.064c0 74.287-60.446 134.733-134.733 134.733h-746.001c-74.287 0-134.733-60.446-134.733-134.733 0-64.29 45.295-118.199 105.654-131.533zM968.269 60.833v-4.267h-803.535v692.865h720.267c28.429 0 54.801 8.87 76.57 23.966l6.699 4.642v-717.206zM774.229 807.595l4.646-6.694h-639.876c-45.916 0-83.267 37.35-83.267 83.264 0 45.918 37.35 83.268 83.267 83.268h639.876l-4.646-6.699c-15.091-21.764-23.962-48.141-23.962-76.57s8.87-54.801 23.962-76.57zM801.732 884.164c0 45.918 37.35 83.268 83.268 83.268s83.268-37.35 83.268-83.268c0-45.914-37.35-83.264-83.268-83.264s-83.268 37.35-83.268 83.264z"></path>
<path d="M284.934 125.1h51.466v51.967h-51.466v-51.967z"></path>
<path d="M455.599 125.1h51.469v51.967h-51.469v-51.967z"></path>
<path d="M626.266 125.1h51.469v51.967h-51.469v-51.967z"></path>
<path d="M796.932 125.1h51.469v51.967h-51.469v-51.967z"></path>
<path d="M284.934 632.073h51.466v51.968h-51.466v-51.968z"></path>
<path d="M455.599 632.073h51.469v51.968h-51.469v-51.968z"></path>
<path d="M626.266 632.073h51.469v51.968h-51.469v-51.968z"></path>
<path d="M796.932 632.073h51.469v51.968h-51.469v-51.968z"></path>
<path d="M370.267 248.433h51.466v51.966h-51.466v-51.966z"></path>
<path d="M540.932 248.433h51.469v51.966h-51.469v-51.966z"></path>
<path d="M711.599 248.433h51.469v51.966h-51.469v-51.966z"></path>
<path d="M284.934 372.433h51.466v51.966h-51.466v-51.966z"></path>
<path d="M455.599 372.433h51.469v51.966h-51.469v-51.966z"></path>
<path d="M626.266 372.433h51.469v51.966h-51.469v-51.966z"></path>
<path d="M796.932 372.433h51.469v51.966h-51.469v-51.966z"></path>
<path d="M370.267 505.766h51.466v51.968h-51.466v-51.968z"></path>
<path d="M540.932 505.766h51.469v51.968h-51.469v-51.968z"></path>
<path d="M711.599 505.766h51.469v51.968h-51.469v-51.968z"></path>
</svg>
