<!-- Generated by IcoMoon.io -->
<svg version="1.1" xmlns="http://www.w3.org/2000/svg" width="1024" height="1024" viewBox="0 0 1024 1024">
<title></title>
<g id="icomoon-ignore">
</g>
<path d="M938.671 528.563c-8.533 0-17.067 8.533-17.067 17.067 0 10.24 6.827 17.062 17.067 17.062s17.067-6.822 17.067-17.062c0-10.24-6.827-17.067-17.067-17.067z"></path>
<path d="M989.858 477.355c-8.533 0-17.067 8.533-17.067 17.067 0 10.24 6.827 17.062 17.067 17.062s17.067-6.822 17.067-17.062c0-10.24-6.827-17.067-17.067-17.067z"></path>
<path d="M887.462 477.355c-8.533 0-17.067 8.533-17.067 17.067 0 10.24 6.827 17.062 17.067 17.062s17.067-6.822 17.067-17.062c0-10.24-6.827-17.067-17.067-17.067z"></path>
<path d="M836.275 528.563c-8.533 0-17.067 8.533-17.067 17.067 0 10.24 6.827 17.062 17.067 17.062s17.067-6.822 17.067-17.062c0-10.24-6.827-17.067-17.067-17.067z"></path>
<path d="M733.879 528.563c-8.533 0-17.067 8.533-17.067 17.067 0 10.24 6.827 17.062 17.067 17.062s17.067-6.822 17.067-17.062c0-10.24-6.827-17.067-17.067-17.067z"></path>
<path d="M785.067 477.355c-8.533 0-17.067 8.533-17.067 17.067 0 10.24 6.827 17.062 17.067 17.062s17.067-6.822 17.067-17.062c0-10.24-6.827-17.067-17.067-17.067z"></path>
<path d="M682.671 477.355c-8.533 0-17.067 8.533-17.067 17.067 0 10.24 6.827 17.062 17.067 17.062s17.067-6.822 17.067-17.062c0-10.24-6.827-17.067-17.067-17.067z"></path>
<path d="M631.462 528.563c-8.533 0-17.067 8.533-17.067 17.067 0 10.24 6.827 17.062 17.067 17.062s17.067-6.822 17.067-17.062c0-10.24-6.827-17.067-17.067-17.067z"></path>
<path d="M529.067 528.563c-8.533 0-17.067 8.533-17.067 17.067 0 10.24 6.827 17.062 17.067 17.062s17.067-6.822 17.067-17.062c0-10.24-6.827-17.067-17.067-17.067z"></path>
<path d="M580.275 477.355c-8.533 0-17.067 8.533-17.067 17.067 0 10.24 6.827 17.062 17.067 17.062s17.067-6.822 17.067-17.062c0-10.24-6.827-17.067-17.067-17.067z"></path>
<path d="M938.671 426.146c-8.533-0.002-17.067 8.534-17.067 17.067 0 10.24 6.827 17.062 17.067 17.062s17.067-6.822 17.067-17.062c0-10.24-6.827-17.067-17.067-17.067z"></path>
<path d="M938.671 323.75c-8.533 0-17.067 8.532-17.067 17.066 0 10.24 6.827 17.066 17.067 17.066s17.067-6.826 17.067-17.066c0-10.24-6.827-17.066-17.067-17.066z"></path>
<path d="M989.858 374.959c-8.533 0-17.067 8.534-17.067 17.065 0 10.24 6.827 17.066 17.067 17.066s17.067-6.826 17.067-17.066c0-10.24-6.827-17.065-17.067-17.065z"></path>
<path d="M887.462 374.959c-8.533 0-17.067 8.534-17.067 17.065 0 10.24 6.827 17.066 17.067 17.066s17.067-6.826 17.067-17.066c0-10.24-6.827-17.065-17.067-17.065z"></path>
<path d="M836.275 426.146c-8.533-0.002-17.067 8.534-17.067 17.067 0 10.24 6.827 17.062 17.067 17.062s17.067-6.822 17.067-17.062c0-10.24-6.827-17.067-17.067-17.067z"></path>
<path d="M733.879 426.146c-8.533-0.002-17.067 8.534-17.067 17.067 0 10.24 6.827 17.062 17.067 17.062s17.067-6.822 17.067-17.062c0-10.24-6.827-17.067-17.067-17.067z"></path>
<path d="M836.275 323.75c-8.533 0-17.067 8.532-17.067 17.066 0 10.24 6.827 17.066 17.067 17.066s17.067-6.826 17.067-17.066c0-10.24-6.827-17.066-17.067-17.066z"></path>
<path d="M733.879 323.75c-8.533 0-17.067 8.532-17.067 17.066 0 10.24 6.827 17.066 17.067 17.066s17.067-6.826 17.067-17.066c0-10.24-6.827-17.066-17.067-17.066z"></path>
<path d="M785.067 374.959c-8.533 0-17.067 8.534-17.067 17.065 0 10.24 6.827 17.066 17.067 17.066s17.067-6.826 17.067-17.066c0-10.24-6.827-17.065-17.067-17.065z"></path>
<path d="M682.671 374.959c-8.533 0-17.067 8.534-17.067 17.065 0 10.24 6.827 17.066 17.067 17.066s17.067-6.826 17.067-17.066c0-10.24-6.827-17.065-17.067-17.065z"></path>
<path d="M631.462 426.146c-8.533-0.002-17.067 8.534-17.067 17.067 0 10.24 6.827 17.062 17.067 17.062s17.067-6.822 17.067-17.062c0-10.24-6.827-17.067-17.067-17.067z"></path>
<path d="M529.067 426.146c-8.533-0.002-17.067 8.534-17.067 17.067 0 10.24 6.827 17.062 17.067 17.062s17.067-6.822 17.067-17.062c0-10.24-6.827-17.067-17.067-17.067z"></path>
<path d="M631.462 323.75c-8.533 0-17.067 8.532-17.067 17.066 0 10.24 6.827 17.066 17.067 17.066s17.067-6.826 17.067-17.066c0-10.24-6.827-17.066-17.067-17.066z"></path>
<path d="M529.067 323.75c-8.533 0-17.067 8.532-17.067 17.066 0 10.24 6.827 17.066 17.067 17.066s17.067-6.826 17.067-17.066c0-10.24-6.827-17.066-17.067-17.066z"></path>
<path d="M580.275 374.959c-8.533 0-17.067 8.534-17.067 17.065 0 10.24 6.827 17.066 17.067 17.066s17.067-6.826 17.067-17.066c0-10.24-6.827-17.065-17.067-17.065z"></path>
<path d="M938.671 221.354c-8.533 0-17.067 8.534-17.067 17.066 0 10.24 6.827 17.066 17.067 17.066s17.067-6.826 17.067-17.066c0-10.24-6.827-17.066-17.067-17.066z"></path>
<path d="M989.858 272.562c-8.533-0.002-17.067 8.532-17.067 17.066 0 10.24 6.827 17.066 17.067 17.066s17.067-6.826 17.067-17.066c0-10.24-6.827-17.066-17.067-17.066z"></path>
<path d="M887.462 272.562c-8.533-0.002-17.067 8.532-17.067 17.066 0 10.24 6.827 17.066 17.067 17.066s17.067-6.826 17.067-17.066c0-10.24-6.827-17.066-17.067-17.066z"></path>
<path d="M989.858 170.146c-8.533 0-17.067 8.532-17.067 17.066 0 10.24 6.827 17.066 17.067 17.066s17.067-6.826 17.067-17.066c0-10.24-6.827-17.066-17.067-17.066z"></path>
<path d="M887.462 170.146c-8.533 0-17.067 8.532-17.067 17.066 0 10.24 6.827 17.066 17.067 17.066s17.067-6.826 17.067-17.066c0-10.24-6.827-17.066-17.067-17.066z"></path>
<path d="M836.275 221.354c-8.533 0-17.067 8.534-17.067 17.066 0 10.24 6.827 17.066 17.067 17.066s17.067-6.826 17.067-17.066c0-10.24-6.827-17.066-17.067-17.066z"></path>
<path d="M733.879 221.354c-8.533 0-17.067 8.534-17.067 17.066 0 10.24 6.827 17.066 17.067 17.066s17.067-6.826 17.067-17.066c0-10.24-6.827-17.066-17.067-17.066z"></path>
<path d="M785.067 272.562c-8.533-0.002-17.067 8.532-17.067 17.066 0 10.24 6.827 17.066 17.067 17.066s17.067-6.826 17.067-17.066c0-10.24-6.827-17.066-17.067-17.066z"></path>
<path d="M682.671 272.562c-8.533-0.002-17.067 8.532-17.067 17.066 0 10.24 6.827 17.066 17.067 17.066s17.067-6.826 17.067-17.066c0-10.24-6.827-17.066-17.067-17.066z"></path>
<path d="M785.067 170.146c-8.533 0-17.067 8.532-17.067 17.066 0 10.24 6.827 17.066 17.067 17.066s17.067-6.826 17.067-17.066c0-10.24-6.827-17.066-17.067-17.066z"></path>
<path d="M682.671 170.146c-8.533 0-17.067 8.532-17.067 17.066 0 10.24 6.827 17.066 17.067 17.066s17.067-6.826 17.067-17.066c0-10.24-6.827-17.066-17.067-17.066z"></path>
<path d="M631.462 221.354c-8.533 0-17.067 8.534-17.067 17.066 0 10.24 6.827 17.066 17.067 17.066s17.067-6.826 17.067-17.066c0-10.24-6.827-17.066-17.067-17.066z"></path>
<path d="M529.067 221.354c-8.533 0-17.067 8.534-17.067 17.066 0 10.24 6.827 17.066 17.067 17.066s17.067-6.826 17.067-17.066c0-10.24-6.827-17.066-17.067-17.066z"></path>
<path d="M580.275 272.562c-8.533-0.002-17.067 8.532-17.067 17.066 0 10.24 6.827 17.066 17.067 17.066s17.067-6.826 17.067-17.066c0-10.24-6.827-17.066-17.067-17.066z"></path>
<path d="M580.275 170.146c-8.533 0-17.067 8.532-17.067 17.066 0 10.24 6.827 17.066 17.067 17.066s17.067-6.826 17.067-17.066c0-10.24-6.827-17.066-17.067-17.066z"></path>
<path d="M938.671 118.959c-8.533-0.002-17.067 8.532-17.067 17.065 0 10.24 6.827 17.066 17.067 17.066s17.067-6.826 17.067-17.066c0-10.24-6.827-17.065-17.067-17.065z"></path>
<path d="M938.671 16.563c-8.533 0-17.067 8.532-17.067 17.066 0 10.24 6.827 17.066 17.067 17.066s17.067-6.826 17.067-17.066c0-10.24-6.827-17.066-17.067-17.066z"></path>
<path d="M989.858 67.75c-8.533 0-17.067 8.534-17.067 17.066 0 10.24 6.827 17.066 17.067 17.066s17.067-6.826 17.067-17.066c0-10.24-6.827-17.066-17.067-17.066z"></path>
<path d="M887.462 67.75c-8.533 0-17.067 8.534-17.067 17.066 0 10.24 6.827 17.066 17.067 17.066s17.067-6.826 17.067-17.066c0-10.24-6.827-17.066-17.067-17.066z"></path>
<path d="M836.275 118.959c-8.533-0.002-17.067 8.532-17.067 17.065 0 10.24 6.827 17.066 17.067 17.066s17.067-6.826 17.067-17.066c0-10.24-6.827-17.065-17.067-17.065z"></path>
<path d="M733.879 118.959c-8.533-0.002-17.067 8.532-17.067 17.065 0 10.24 6.827 17.066 17.067 17.066s17.067-6.826 17.067-17.066c0-10.24-6.827-17.065-17.067-17.065z"></path>
<path d="M836.275 16.563c-8.533 0-17.067 8.532-17.067 17.066 0 10.24 6.827 17.066 17.067 17.066s17.067-6.826 17.067-17.066c0-10.24-6.827-17.066-17.067-17.066z"></path>
<path d="M733.879 16.563c-8.533 0-17.067 8.532-17.067 17.066 0 10.24 6.827 17.066 17.067 17.066s17.067-6.826 17.067-17.066c0-10.24-6.827-17.066-17.067-17.066z"></path>
<path d="M785.067 67.75c-8.533 0-17.067 8.534-17.067 17.066 0 10.24 6.827 17.066 17.067 17.066s17.067-6.826 17.067-17.066c0-10.24-6.827-17.066-17.067-17.066z"></path>
<path d="M682.671 67.75c-8.533 0-17.067 8.534-17.067 17.066 0 10.24 6.827 17.066 17.067 17.066s17.067-6.826 17.067-17.066c0-10.24-6.827-17.066-17.067-17.066z"></path>
<path d="M631.462 118.959c-8.533-0.002-17.067 8.532-17.067 17.065 0 10.24 6.827 17.066 17.067 17.066s17.067-6.826 17.067-17.066c0-10.24-6.827-17.065-17.067-17.065z"></path>
<path d="M529.067 118.959c-8.533-0.002-17.067 8.532-17.067 17.065 0 10.24 6.827 17.066 17.067 17.066s17.067-6.826 17.067-17.066c0-10.24-6.827-17.065-17.067-17.065z"></path>
<path d="M631.462 16.563c-8.533 0-17.067 8.532-17.067 17.066 0 10.24 6.827 17.066 17.067 17.066s17.067-6.826 17.067-17.066c0-10.24-6.827-17.066-17.067-17.066z"></path>
<path d="M529.067 16.563c-8.533 0-17.067 8.532-17.067 17.066 0 10.24 6.827 17.066 17.067 17.066s17.067-6.826 17.067-17.066c0-10.24-6.827-17.066-17.067-17.066z"></path>
<path d="M580.275 67.75c-8.533 0-17.067 8.534-17.067 17.066 0 10.24 6.827 17.066 17.067 17.066s17.067-6.826 17.067-17.066c0-10.24-6.827-17.066-17.067-17.066z"></path>
<path d="M1024 17.066c0-10.24-6.827-17.066-17.067-17.066h-989.868c-10.24 0-17.066 6.826-17.066 17.066v989.868c0 10.24 6.826 17.067 17.066 17.067h494.934c10.24 0 17.067-6.827 17.067-17.071v-204.796h409.6c47.787 0 85.333-52.907 85.333-119.467 0 0 0 0 0 0v-665.601zM529.071 34.134h460.796v552.495c-4.659-4.847-9.702-9.015-15.053-12.454-0.781-0.508-1.566-1.011-2.359-1.481-0.495-0.29-0.994-0.559-1.493-0.841-0.666-0.371-1.335-0.747-2.010-1.097-0.631-0.329-1.271-0.636-1.911-0.947-0.508-0.239-1.011-0.482-1.523-0.708-0.768-0.35-1.54-0.687-2.321-1.003-0.311-0.128-0.627-0.247-0.943-0.371-3.981-1.562-8.090-2.735-12.305-3.49-0.422-0.077-0.845-0.154-1.267-0.222-0.755-0.119-1.506-0.226-2.27-0.32-0.683-0.085-1.365-0.149-2.052-0.213-0.576-0.051-1.152-0.107-1.732-0.145-1.318-0.085-2.637-0.137-3.959-0.137v0h-409.596v-529.066zM443.733 767.996c-16.213 0-31.223-13.837-40.743-34.726-6.513-14.293-10.458-31.885-10.458-50.603 0-10.082 1.143-19.836 3.215-28.924 7.401-32.452 26.649-56.41 47.986-56.41h68.22c0.017 0 0.030 0 0.047 0h366.558c-15.637 21.594-25.225 51.716-25.225 85.333s9.587 63.735 25.225 85.329h-434.825zM494.933 989.867h-460.8v-955.733h460.8v529.066h-51.2c-47.787 0-85.334 52.907-85.334 119.467s37.545 119.467 85.334 119.467v0h51.2v187.733zM938.667 767.996c-16.209 0-31.219-13.837-40.742-34.726-6.511-14.293-10.458-31.885-10.458-50.603 0-10.082 1.143-19.836 3.217-28.924 7.394-32.431 26.624-56.375 47.94-56.41h0.047c18.479 0 35.383 17.993 44.39 43.9 4.301 12.369 6.805 26.539 6.805 41.434 0 46.076-23.893 85.329-51.2 85.329z"></path>
</svg>
