<!-- Generated by IcoMoon.io -->
<svg version="1.1" xmlns="http://www.w3.org/2000/svg" width="1024" height="1024" viewBox="0 0 1024 1024">
<title></title>
<g id="icomoon-ignore">
</g>
<path d="M964.002 0h-560.002c-33.086 0-60 26.914-60 60v112h-112c-33.086 0-60 26.914-60 60v112h-112c-33.086 0-60 26.914-60 60v560.002c0 33.084 26.914 59.998 60 59.998h560c33.086 0 60-26.914 60-59.998v-112.002h112c33.086 0 60-26.914 60-60v-112h112.002c33.084 0 59.998-26.914 59.998-60v-560c0-33.086-26.914-60-59.998-60zM640 964.002c0 11.025-8.969 19.994-20 19.994h-560c-11.031 0-20-8.969-20-19.994v-560.002c0-11.032 8.969-20 20-20h560c11.032 0 20 8.969 20 20v560.002zM983.996 620c0 11.032-8.969 20-19.994 20h-112.002v-120c0-11.047-8.953-20-20-20s-20 8.952-20 20v272c0 11.031-8.969 20-20 20h-112v-407.999c0-33.086-26.914-60-60-60h-407.999v-112c0-11.031 8.969-20 20-20h560c11.031 0 20 8.969 20 20v108c0 11.046 8.953 20 20 20s20-8.953 20-20v-108c0-33.086-26.914-60-60-60h-408v-112c0-11.031 8.969-20 20-20h560.002c11.025 0 19.994 8.969 19.994 20v560z"></path>
<path d="M100.675 521.922c5.117 0 10.234-1.961 14.141-5.859l49.664-49.672c7.812-7.805 7.812-20.469 0-28.282s-20.477-7.812-28.289 0l-49.664 49.664c-7.813 7.813-7.813 20.477 0 28.29 3.906 3.898 9.023 5.859 14.148 5.859z"></path>
<path d="M114.807 576.061c-7.812-7.805-20.477-7.805-28.281 0-7.813 7.813-7.813 20.477 0 28.29l49.664 49.664c3.906 3.907 9.023 5.859 14.141 5.859s10.234-1.952 14.141-5.859c7.812-7.805 7.812-20.469 0-28.281l-49.664-49.673z"></path>
<path d="M136.19 713.984l-49.664 49.665c-7.813 7.812-7.813 20.476 0 28.289 3.906 3.906 9.023 5.859 14.141 5.859s10.234-1.953 14.141-5.859l49.664-49.672c7.812-7.805 7.812-20.469 0-28.282s-20.469-7.812-28.281 0z"></path>
<path d="M114.809 851.936c-7.812-7.805-20.477-7.805-28.289 0-7.805 7.814-7.805 20.477 0 28.285l49.672 49.664c3.907 3.908 9.023 5.862 14.141 5.862s10.235-1.954 14.141-5.862c7.812-7.808 7.812-20.471 0-28.279l-49.664-49.67z"></path>
<path d="M565.19 851.936l-49.664 49.67c-7.812 7.808-7.812 20.471 0 28.279 3.907 3.908 9.023 5.862 14.141 5.862s10.243-1.954 14.141-5.862l49.672-49.664c7.805-7.808 7.813-20.471 0-28.285-7.812-7.805-20.477-7.805-28.289 0z"></path>
<path d="M543.807 713.981c-7.812-7.805-20.477-7.812-28.281 0-7.812 7.805-7.812 20.469 0 28.281l49.664 49.672c3.907 3.907 9.024 5.86 14.141 5.86s10.243-1.953 14.141-5.86c7.813-7.812 7.813-20.477 0-28.289l-49.664-49.664z"></path>
<path d="M565.19 576.061l-49.664 49.673c-7.812 7.805-7.812 20.469 0 28.281 3.907 3.907 9.023 5.859 14.141 5.859s10.235-1.952 14.141-5.859l49.664-49.664c7.813-7.813 7.813-20.477 0-28.29-7.805-7.805-20.468-7.805-28.281 0z"></path>
<path d="M565.19 516.063c3.907 3.898 9.024 5.859 14.141 5.859s10.243-1.961 14.141-5.859c7.813-7.813 7.813-20.477 0-28.29l-49.664-49.664c-7.812-7.812-20.477-7.812-28.281 0-7.812 7.813-7.812 20.477 0 28.282l49.664 49.672z"></path>
<path d="M422.19 438.109l-49.664 49.664c-7.812 7.813-7.812 20.477 0 28.29 3.907 3.898 9.023 5.859 14.141 5.859s10.243-1.961 14.141-5.859l49.672-49.672c7.805-7.805 7.805-20.469 0-28.282-7.812-7.812-20.477-7.812-28.289 0z"></path>
<path d="M400.807 576.061c-7.805-7.805-20.469-7.805-28.281 0-7.812 7.813-7.812 20.477 0 28.29l49.664 49.664c3.907 3.907 9.023 5.859 14.141 5.859 5.125 0 10.243-1.952 14.148-5.859 7.805-7.805 7.812-20.469 0-28.281l-49.672-49.673z"></path>
<path d="M422.19 713.984l-49.664 49.665c-7.812 7.812-7.812 20.476 0 28.289 3.907 3.906 9.023 5.859 14.141 5.859s10.243-1.953 14.141-5.859l49.672-49.672c7.805-7.805 7.805-20.469 0-28.282-7.812-7.812-20.477-7.812-28.289 0z"></path>
<path d="M400.807 851.936c-7.805-7.805-20.469-7.805-28.281 0-7.812 7.814-7.812 20.477 0 28.285l49.664 49.664c3.907 3.908 9.023 5.862 14.141 5.862s10.243-1.954 14.141-5.862c7.812-7.808 7.812-20.471 0-28.279l-49.664-49.67z"></path>
<path d="M279.192 851.936l-49.672 49.67c-7.805 7.808-7.805 20.471 0 28.279 3.907 3.908 9.023 5.862 14.148 5.862 5.117 0 10.235-1.954 14.141-5.862l49.664-49.664c7.812-7.808 7.812-20.471 0-28.285-7.812-7.805-20.477-7.805-28.281 0z"></path>
<path d="M257.812 713.981c-7.813-7.805-20.477-7.812-28.29 0-7.805 7.805-7.812 20.469 0 28.281l49.673 49.672c3.906 3.907 9.023 5.86 14.141 5.86s10.234-1.953 14.141-5.86c7.812-7.812 7.812-20.477 0-28.289l-49.664-49.664z"></path>
<path d="M279.192 576.061l-49.672 49.673c-7.805 7.805-7.805 20.469 0 28.281 3.907 3.907 9.023 5.859 14.148 5.859 5.117 0 10.235-1.952 14.141-5.859l49.664-49.664c7.812-7.813 7.812-20.477 0-28.29-7.812-7.805-20.477-7.805-28.281 0z"></path>
<path d="M257.812 438.109c-7.813-7.812-20.477-7.812-28.29 0-7.805 7.813-7.812 20.477 0 28.282l49.673 49.672c3.906 3.906 9.023 5.859 14.141 5.859s10.234-1.953 14.141-5.859c7.812-7.813 7.812-20.477 0-28.281l-49.664-49.673z"></path>
<path d="M832 410c-5.257 0-10.422 2.14-14.141 5.859s-5.86 8.883-5.86 14.141c0 5.258 2.141 10.422 5.86 14.141s8.883 5.86 14.141 5.86c5.257 0 10.422-2.141 14.141-5.86s5.86-8.882 5.86-14.141c0-5.257-2.141-10.422-5.86-14.141s-8.883-5.859-14.141-5.859z"></path>
</svg>
