<!-- Generated by IcoMoon.io -->
<svg version="1.1" xmlns="http://www.w3.org/2000/svg" width="1024" height="1024" viewBox="0 0 1024 1024">
<title></title>
<g id="icomoon-ignore">
</g>
<path d="M364.248 160.742l-40.070-32.055-40.070 32.055-49.524-39.617 18.914-23.641 30.609 24.492 40.070-32.055 40.070 32.055 30.617-24.492 18.906 23.641-49.524 39.617z"></path>
<path d="M615.522 160.742l-49.523-39.617 18.906-23.641 30.618 24.492 40.073-32.055 40.068 32.055 30.618-24.492 18.906 23.641-49.523 39.617-40.068-32.055-40.073 32.055z"></path>
<path d="M364.248 529.382l-40.070-32.055-40.070 32.055-49.524-39.616 18.914-23.642 30.609 24.491 40.070-32.051 40.070 32.051 30.617-24.491 18.906 23.642-49.524 39.616z"></path>
<path d="M615.522 529.382l-49.523-39.616 18.906-23.642 30.618 24.491 40.073-32.051 40.068 32.051 30.618-24.491 18.906 23.642-49.523 39.616-40.068-32.055-40.073 32.055z"></path>
<path d="M905.719 803.964v-805.964h-255.556v30.273h161.173v353.509h30.276v-353.509h33.843v771.142c-0.307 0-0.593-0.021-0.9-0.021h-32.943v-369.536h-30.268v369.536h-642.907v-771.121h433.64v-30.273h-463.914v802.457c-54.234 7.403-96.164 54.007-96.164 110.242 0 61.372 49.93 111.305 111.305 111.305h160.274v-30.276h-160.274c-44.68 0-81.031-36.352-81.031-81.028 0-44.681 36.352-81.033 81.031-81.033h645.070c-21.594 20.314-35.123 49.118-35.123 81.033s13.525 60.719 35.123 81.028h-436.71v30.276h512.891c61.376 0 111.305-49.933 111.305-111.305 0-50.18-33.007-93.158-80.141-106.735zM874.556 991.727c-44.681 0-81.033-36.352-81.033-81.028 0-44.681 36.352-81.033 81.033-81.033 4.493 0 8.892 0.397 13.077 1.186l0.32 0.055c39.189 6.485 67.635 40.038 67.635 79.791 0 44.676-36.343 81.028-81.033 81.028z"></path>
<path d="M394.865 273.792l-30.617 24.492-40.070-32.055-40.070 32.055-30.609-24.492-18.914 23.641 49.524 39.617 40.070-32.055 40.070 32.055 49.524-39.617-18.906-23.641z"></path>
<path d="M655.595 304.995l40.068 32.055 49.523-39.617-18.906-23.641-30.618 24.492-40.068-32.055-40.073 32.055-30.618-24.492-18.906 23.641 49.523 39.617 40.073-32.055z"></path>
<path d="M253.498 642.432l-18.914 23.642 49.524 39.616 40.070-32.055 40.070 32.055 49.524-39.616-18.906-23.642-30.617 24.491-40.070-32.051-40.070 32.051-30.609-24.491z"></path>
<path d="M655.595 673.634l40.068 32.055 49.523-39.616-18.906-23.642-30.618 24.491-40.068-32.051-40.073 32.051-30.618-24.491-18.906 23.642 49.523 39.616 40.073-32.055z"></path>
</svg>
