<!-- Generated by IcoMoon.io -->
<svg version="1.1" xmlns="http://www.w3.org/2000/svg" width="1024" height="1024" viewBox="0 0 1024 1024">
<title></title>
<g id="icomoon-ignore">
</g>
<path d="M863.915 825.826v-805.826c0-11.046-8.96-20-20.002-20h-743.992c-11.046 0-20 8.954-20 20v903.917c0 0.026-0.004 0.051-0.004 0.077 0 55.142 44.86 100.006 100 100.006 0.058 0 0.118-0.004 0.176-0.004 0.004 0 0.008 0 0.012 0h663.607c0.128 0.004 0.26 0.004 0.393 0.004 55.138 0 99.998-44.864 99.998-100.006 0-48.644-34.569-89.267-80.188-98.167zM677.918 40h145.997v46.502h-145.997v-46.502zM677.918 126.502h145.997v697.498h-145.997v-697.498zM491.917 40h146.001v46.502h-16.077c-11.046 0-19.998 8.954-19.998 20s8.951 20 19.998 20h16.077v697.498h-146.001v-784zM305.917 40h146v784h-146v-784zM239.839 927.074c-1.606 31.59-27.806 56.853-59.782 56.926-0.004 0-0.008 0-0.012 0-0.042 0-0.086 0.004-0.128 0.004-33.066-0.004-59.972-26.893-60-59.959 0-0.017 0.004-0.034 0.004-0.051v-883.994h145.998v784h-85.816c-0.024 0-0.042 0-0.062 0-0.042 0-0.082 0-0.126 0-11.046 0-20 8.956-20 19.998 0 11.046 8.954 20.002 20 20.002 0.57 0 1.136 0.030 1.704 0.043 0.482 0.017 0.964 0.017 1.446 0.043 0.496 0.026 0.988 0.073 1.484 0.111 0.522 0.043 1.048 0.073 1.566 0.124 0.402 0.043 0.8 0.107 1.204 0.158 0.602 0.073 1.206 0.141 1.802 0.23 0.292 0.047 0.576 0.107 0.866 0.158 0.702 0.119 1.406 0.235 2.102 0.38 0.14 0.030 0.278 0.064 0.416 0.098 26.080 5.598 45.944 28.207 47.334 55.578 0.052 1.020 0.078 2.044 0.078 3.076s-0.026 2.057-0.078 3.076zM844.292 984c-0.124 0-0.252-0.004-0.375-0.004h-584.054c0.71-0.943 1.388-1.911 2.068-2.88 0.086-0.128 0.176-0.252 0.264-0.375 0.6-0.866 1.178-1.749 1.752-2.633 0.21-0.329 0.422-0.653 0.628-0.981 0.532-0.841 1.050-1.694 1.554-2.551 0.22-0.375 0.434-0.751 0.65-1.131 0.49-0.858 0.978-1.719 1.446-2.594 0.166-0.311 0.32-0.631 0.482-0.943 0.896-1.724 1.742-3.477 2.54-5.261 0.176-0.388 0.36-0.777 0.528-1.165 0.332-0.772 0.642-1.553 0.958-2.33 0.242-0.61 0.488-1.216 0.72-1.83 0.28-0.738 0.546-1.481 0.81-2.223 0.24-0.687 0.472-1.378 0.7-2.069 0.232-0.708 0.462-1.417 0.68-2.129 0.244-0.811 0.47-1.63 0.696-2.449 0.17-0.614 0.35-1.229 0.508-1.847 0.356-1.395 0.68-2.803 0.976-4.22 0.028-0.128 0.056-0.256 0.082-0.388h84.078c11.046 0 20-8.956 20-19.998 0-11.046-8.954-20.002-20-20.002h-84.078c-0.028-0.132-0.058-0.265-0.086-0.397-0.292-1.408-0.618-2.807-0.968-4.194-0.166-0.649-0.354-1.289-0.532-1.933-0.216-0.789-0.434-1.574-0.67-2.355-0.22-0.734-0.46-1.459-0.698-2.189-0.218-0.67-0.446-1.335-0.68-2.001-0.266-0.759-0.542-1.519-0.828-2.278-0.222-0.589-0.458-1.173-0.696-1.762-0.32-0.798-0.636-1.596-0.976-2.381-0.152-0.354-0.32-0.7-0.476-1.050-0.812-1.826-1.676-3.618-2.594-5.385-0.16-0.307-0.31-0.619-0.472-0.922-0.464-0.87-0.95-1.728-1.438-2.581-0.222-0.388-0.442-0.777-0.668-1.161-0.498-0.845-1.008-1.681-1.532-2.513-0.22-0.35-0.446-0.695-0.672-1.045-0.558-0.862-1.122-1.719-1.704-2.56-0.126-0.183-0.256-0.358-0.382-0.538-0.646-0.926-1.292-1.852-1.97-2.752h584.238c0.085 0 0.171 0 0.256 0l0.755-0.004c32.529 0 58.991 26.914 58.991 60.002 0 33.020-26.812 59.9-59.81 60.002z"></path>
<path d="M419.928 904.004h-0.47c-11.046 0-20 8.956-20 20.002s8.954 19.998 20 19.998h0.47c11.043 0 19.999-8.951 19.999-19.998s-8.951-20.002-19.999-20.002z"></path>
<path d="M564.39 86.505h-0.474c-11.046 0-20.002 8.954-20.002 20s8.956 20 20.002 20h0.474c11.046 0 19.998-8.954 19.998-20 0-11.044-8.951-20-19.998-20z"></path>
</svg>
