<!-- Generated by IcoMoon.io -->
<svg version="1.1" xmlns="http://www.w3.org/2000/svg" width="1024" height="1024" viewBox="0 0 1024 1024">
<title></title>
<g id="icomoon-ignore">
</g>
<path d="M1022.076 930.684l-29.952-57.028 29.952-57.024c2.615-4.975 2.615-10.918 0-15.893l-29.952-56.909 29.952-56.892c2.615-4.975 2.615-10.927 0-15.898l-29.952-56.883 29.952-56.909c2.615-4.975 2.615-10.927 0-15.902l-29.952-56.9 29.952-56.9c2.615-4.972 2.615-10.924 0-15.898l-29.952-56.876 29.952-56.834c3.482-6.634 2.249-14.758-3.051-20.042l-68.318-68.116c-5.299-5.284-13.397-6.5-19.985-3.026l-57.033 29.966-54.451-28.61v-191.044c0-9.426-7.633-17.066-17.062-17.066h-785.068c-9.432 0-17.066 7.642-17.066 17.066v785.063c0 9.429 7.634 17.067 17.066 17.067h190.88l28.77 54.635-29.95 56.832c-3.484 6.618-2.266 14.716 3.016 20.011l68.116 68.305c3.284 3.294 7.65 5.018 12.084 5.018 2.7 0 5.434-0.64 7.934-1.958l57.034-29.965 57.016 29.965c4.966 2.615 10.916 2.607 15.884-0.009l56.917-29.956 56.896 29.956c4.966 2.615 10.935 2.615 15.902 0l56.883-29.948 56.9 29.948c4.966 2.615 10.935 2.615 15.902 0l56.9-29.956 56.896 29.956c4.966 2.615 10.935 2.615 15.902 0l56.866-29.948 56.849 29.948c6.566 3.486 14.716 2.266 20.015-3.034l68.318-68.305c5.286-5.282 6.519-13.393 3.038-20.006zM206.809 427.857l29.95 56.909-29.95 56.9c-2.616 4.975-2.616 10.927 0 15.898l29.95 56.883-29.95 56.9c-2.616 4.975-2.616 10.927 0 15.902l29.95 56.909-21.532 40.905h-181.052v-750.928h750.934v180.882l-41.233 21.71-56.9-29.958c-4.966-2.616-10.935-2.616-15.902 0l-56.883 29.95-56.9-29.95c-4.966-2.616-10.935-2.616-15.902 0l-56.896 29.958-56.9-29.958c-4.968-2.616-10.935-2.616-15.902 0l-56.884 29.95-56.834-29.95c-6.55-3.484-14.716-2.276-20.016 3.034l-68.116 68.116c-5.284 5.284-6.516 13.392-3.034 20.008l29.95 57.016-29.95 57.026c-2.616 4.974-2.616 10.916 0.002 15.89zM957.739 492.399l29.952 56.9-29.952 56.909c-2.615 4.975-2.615 10.927 0 15.898l29.952 56.883-29.952 56.892c-2.615 4.975-2.615 10.927 0 15.902l29.952 56.917-29.952 57.015c-2.615 4.975-2.615 10.906 0 15.885l28.284 53.841-50.534 50.534-53.683-28.284c-4.966-2.615-10.931-2.615-15.898 0l-56.866 29.948-56.9-29.948c-4.966-2.615-10.935-2.615-15.902 0l-56.9 29.956-56.9-29.956c-4.962-2.615-10.931-2.615-15.898 0l-56.883 29.948-56.9-29.948c-4.966-2.615-10.935-2.615-15.902 0l-56.915 29.956-57.016-29.965c-2.484-1.31-5.2-1.958-7.934-1.958s-5.45 0.649-7.934 1.958l-53.834 28.292-50.366-50.509 28.284-53.675c2.616-4.983 2.616-10.935 0-15.906l-29.95-56.879 29.95-56.9c2.616-4.971 2.616-10.923 0-15.898l-29.95-56.909 29.95-56.9c2.616-4.975 2.616-10.927 0-15.898l-29.95-56.887 29.95-56.896c2.616-4.975 2.616-10.927 0-15.902l-29.95-56.916 29.95-57.016c2.616-4.974 2.616-10.908 0-15.884l-28.284-53.834 50.334-50.334 53.666 28.276c4.966 2.616 10.934 2.616 15.9 0l56.884-29.95 56.899 29.95c4.966 2.616 10.935 2.616 15.902 0l56.9-29.958 56.9 29.958c4.966 2.616 10.931 2.616 15.898 0l56.883-29.95 56.9 29.95c4.966 2.616 10.935 2.616 15.902 0l56.9-29.958 57.033 29.966c4.966 2.616 10.901 2.616 15.868 0l53.862-28.308 50.517 50.366-28.267 53.642c-2.615 4.984-2.615 10.934 0 15.908l29.952 56.876-29.952 56.9c-2.615 4.971-2.615 10.923 0 15.898z"></path>
</svg>
