<!-- Generated by IcoMoon.io -->
<svg version="1.1" xmlns="http://www.w3.org/2000/svg" width="1024" height="1024" viewBox="0 0 1024 1024">
<title></title>
<g id="icomoon-ignore">
</g>
<path d="M981.295 223.886c-0.265-16.7-7.262-32.585-19.413-44.047-6.4-5.784-10.172-13.923-10.449-22.546 0.311-8.632 4.075-16.777 10.449-22.606 17.557-16.212 23.757-41.326 15.77-63.846-4.309-11.408-13.316-20.411-24.725-24.711-22.515-7.986-47.62-1.791-63.834 15.752-5.803 6.443-13.995 10.221-22.665 10.452-8.64-0.226-16.802-4.008-22.562-10.452-11.477-11.966-27.345-18.731-43.925-18.731-16.585 0-32.448 6.765-43.925 18.731-5.777 6.494-14.050 10.21-22.741 10.21s-16.964-3.715-22.741-10.21c-11.473-11.974-27.341-18.744-43.925-18.744s-32.452 6.77-43.93 18.744c-5.743 6.496-13.995 10.217-22.665 10.217s-16.922-3.72-22.665-10.217c-11.477-11.974-27.341-18.744-43.93-18.744-16.585 0-32.448 6.77-43.925 18.744-5.743 6.496-13.995 10.217-22.665 10.217s-16.926-3.72-22.665-10.217c-11.477-11.974-27.344-18.744-43.929-18.744s-32.451 6.77-43.927 18.744c-5.781 6.461-14.041 10.154-22.71 10.154s-16.929-3.693-22.71-10.154c-11.474-12.066-27.396-18.896-44.047-18.896s-32.572 6.83-44.047 18.896c-5.763 6.412-13.978 10.074-22.598 10.074s-16.835-3.662-22.598-10.074c-16.197-17.547-41.288-23.759-63.8-15.797-11.439 4.337-20.461 13.382-24.771 24.83-7.939 22.502-1.722 47.571 15.812 63.756 6.473 5.825 10.255 14.064 10.452 22.769-0.226 8.64-4.008 16.803-10.452 22.561-12.347 11.268-19.381 27.212-19.381 43.927s7.034 32.659 19.381 43.927c6.431 5.856 10.204 14.076 10.452 22.77-0.304 8.651-4.070 16.817-10.452 22.665-12.347 11.268-19.381 27.212-19.381 43.927s7.034 32.659 19.381 43.927c6.418 5.821 10.191 14.004 10.452 22.665-0.304 8.652-4.070 16.818-10.452 22.664-12.347 11.268-19.381 27.213-19.381 43.93s7.034 32.657 19.381 43.925c6.382 5.85 10.147 14.016 10.452 22.665-0.26 8.661-4.033 16.845-10.452 22.669-12.347 11.268-19.381 27.209-19.381 43.925s7.034 32.661 19.381 43.93c6.382 5.845 10.147 14.012 10.452 22.665-0.256 8.67-4.029 16.862-10.452 22.694-12.422 11.277-19.505 27.273-19.505 44.045 0 16.777 7.084 32.772 19.505 44.049 6.402 5.781 10.175 13.922 10.452 22.545-0.311 8.631-4.078 16.777-10.452 22.605-16.43 15.138-23.037 38.182-17.126 59.725 4.178 15.548 16.443 27.622 32.057 31.552 3.687 0.849 7.459 1.276 11.243 1.267 16.824-0.695 32.869-7.279 45.331-18.603 6.013-6.349 14.308-10.039 23.049-10.253s17.206 3.068 23.521 9.118c11.482 11.959 27.346 18.722 43.927 18.722s32.445-6.763 43.927-18.722c5.772-6.498 14.048-10.219 22.74-10.219s16.968 3.721 22.74 10.219c11.476 11.972 27.342 18.743 43.927 18.743s32.452-6.771 43.929-18.743c5.743-6.494 13.995-10.21 22.665-10.21 8.666 0 16.922 3.716 22.665 10.21 11.477 11.972 27.341 18.743 43.925 18.743 16.589 0 32.452-6.771 43.93-18.743 5.743-6.494 13.995-10.21 22.665-10.21s16.922 3.716 22.665 10.21c11.477 11.972 27.345 18.743 43.93 18.743s32.448-6.771 43.925-18.743c5.777-6.451 14.025-10.138 22.682-10.138s16.905 3.686 22.682 10.138c11.477 12.058 27.396 18.88 44.045 18.88s32.567-6.822 44.045-18.88c5.764-6.413 13.978-10.074 22.601-10.074 8.619 0 16.836 3.661 22.596 10.074 16.196 17.545 41.289 23.757 63.804 15.795 11.422-4.322 20.442-13.333 24.768-24.755 7.936-22.507 1.711-47.573-15.825-63.757-6.601-5.67-10.394-13.939-10.394-22.643 0-8.7 3.793-16.969 10.394-22.643 12.348-11.268 19.379-27.209 19.379-43.925s-7.031-32.661-19.379-43.93c-6.669-5.67-10.509-13.986-10.509-22.737 0-8.755 3.84-17.067 10.509-22.741 12.348-11.268 19.379-27.213 19.379-43.925 0-16.717-7.031-32.661-19.379-43.93-6.434-5.841-10.202-14.054-10.436-22.741 0.303-8.649 4.066-16.815 10.449-22.665 12.348-11.268 19.383-27.209 19.383-43.925s-7.036-32.661-19.383-43.93c-6.383-5.845-10.146-14.012-10.449-22.664 0.26-8.661 4.032-16.844 10.449-22.665 12.348-11.268 19.383-27.212 19.383-43.927s-7.036-32.659-19.383-43.927c-6.383-5.848-10.146-14.014-10.449-22.665 0.247-8.681 4.019-16.887 10.449-22.725 12.207-11.409 19.217-27.311 19.413-44.017zM940.979 246.537c-12.356 11.313-19.388 27.295-19.388 44.047s7.031 32.733 19.388 44.047c6.404 5.799 10.18 13.954 10.453 22.591-0.307 8.651-4.070 16.817-10.453 22.665-12.348 11.268-19.383 27.212-19.383 43.927s7.036 32.66 19.383 43.929c6.652 5.649 10.483 13.935 10.483 22.665 0 8.725-3.831 17.015-10.483 22.665-12.348 11.268-19.383 27.213-19.383 43.925 0 16.717 7.036 32.661 19.383 43.93 6.383 5.85 10.146 14.016 10.453 22.665-0.26 8.661-4.036 16.845-10.453 22.665-12.343 11.328-19.362 27.315-19.345 44.066 0.017 16.755 7.070 32.73 19.435 44.028 6.379 5.807 10.116 13.956 10.364 22.575-0.32 8.623-4.083 16.759-10.453 22.579-12.369 11.281-19.418 27.251-19.418 43.994s7.049 32.713 19.418 43.994c9.186 7.893 12.629 20.591 8.691 32.043-1.267 3.307-3.878 5.922-7.185 7.198-11.477 3.93-24.196 0.469-32.098-8.738-11.482-11.964-27.345-18.731-43.93-18.731-16.58 0-32.448 6.767-43.925 18.731-5.76 6.468-14.003 10.163-22.66 10.163s-16.9-3.695-22.656-10.163c-11.507-11.981-27.401-18.756-44.011-18.756s-32.503 6.775-44.011 18.756c-5.739 6.498-13.995 10.219-22.665 10.219s-16.922-3.721-22.665-10.219c-11.477-11.972-27.341-18.743-43.925-18.743-16.589 0-32.452 6.771-43.93 18.743-5.764 6.46-14.007 10.15-22.665 10.15s-16.9-3.691-22.665-10.15c-11.477-11.972-27.345-18.743-43.93-18.743s-32.452 6.771-43.926 18.743c-5.739 6.498-13.99 10.219-22.658 10.219s-16.919-3.721-22.658-10.219c-11.514-12.002-27.433-18.778-44.066-18.761s-32.537 6.827-44.028 18.85c-5.767 6.391-13.97 10.035-22.576 10.035s-16.809-3.644-22.576-10.035c-23.621-24.35-57.664-24.815-86.735-1.195-8.094 8.277-19.483 12.476-31.012 11.426-5.045-1.506-8.897-5.598-10.093-10.722-2.865-11.004 0.744-22.677 9.317-30.148 12.128-11.426 19.127-27.264 19.41-43.925-0.217-16.674-7.227-32.538-19.41-43.925-6.382-5.85-10.147-14.016-10.452-22.669 0.252-8.657 4.027-16.836 10.452-22.647 12.148-11.482 19.148-27.379 19.41-44.092-0.283-16.661-7.283-32.499-19.41-43.93-6.418-5.82-10.191-14.003-10.452-22.665 0.296-8.661 4.063-16.841 10.452-22.694 12.12-11.422 19.119-27.247 19.41-43.9-0.283-16.657-7.283-32.499-19.41-43.925-6.65-5.649-10.484-13.939-10.484-22.665 0-8.73 3.833-17.015 10.484-22.665 12.128-11.43 19.127-27.268 19.41-43.929-0.291-16.65-7.29-32.477-19.41-43.897-6.389-5.856-10.156-14.034-10.452-22.695 0.257-8.658 4.032-16.837 10.452-22.65 12.126-11.435 19.124-27.278 19.41-43.942-0.246-16.738-7.247-32.666-19.41-44.166-6.41-5.79-10.185-13.942-10.452-22.576 0.316-8.622 4.082-16.756 10.452-22.576 12.169-11.373 19.177-27.213 19.41-43.868-0.201-16.735-7.209-32.666-19.41-44.121-9.186-7.886-12.634-20.576-8.705-32.027 1.269-3.32 3.892-5.943 7.212-7.212 3.033-1.135 6.243-1.726 9.481-1.747 8.64 0.261 16.799 4.036 22.591 10.452 11.476 11.974 27.343 18.744 43.927 18.744s32.451-6.77 43.927-18.744c5.757-6.465 14.001-10.162 22.658-10.162s16.901 3.697 22.658 10.162c11.513 11.995 27.421 18.776 44.047 18.776s32.533-6.781 44.047-18.776c5.742-6.491 13.992-10.208 22.658-10.208s16.916 3.717 22.658 10.208c11.476 11.974 27.344 18.744 43.928 18.744s32.452-6.77 43.925-18.744c5.764-6.457 14.012-10.148 22.665-10.148 8.657 0 16.9 3.692 22.669 10.148 11.473 11.974 27.341 18.744 43.925 18.744s32.452-6.77 43.925-18.744c5.747-6.492 13.999-10.209 22.669-10.209 8.666 0 16.922 3.717 22.665 10.209 11.516 12.003 27.43 18.781 44.066 18.764 16.631-0.017 32.538-6.828 44.028-18.854 5.764-6.392 13.969-10.041 22.575-10.041s16.811 3.649 22.575 10.041c11.345 12.186 27.162 19.227 43.81 19.5h0.119c16.7-0.227 32.597-7.233 44.032-19.41 7.876-9.179 20.561-12.613 31.996-8.66 3.268 1.254 5.854 3.837 7.108 7.107 4.023 11.46 0.61 24.215-8.602 32.132-12.126 11.427-19.127 27.267-19.409 43.927 0.213 16.675 7.228 32.54 19.409 43.927 6.383 5.848 10.146 14.014 10.453 22.665-0.256 8.659-4.028 16.84-10.453 22.65z"></path>
<path d="M264.598 206.714c8.246 0 14.931-6.685 14.931-14.931v-29.862c0-8.246-6.685-14.931-14.931-14.931s-14.931 6.685-14.931 14.931v29.862c0 8.246 6.685 14.931 14.931 14.931z"></path>
<path d="M294.431 236.576h29.862c8.246 0 14.931-6.685 14.931-14.931s-6.685-14.931-14.931-14.931h-29.862c-8.246 0-14.931 6.685-14.931 14.931s6.685 14.931 14.931 14.931z"></path>
<path d="M264.598 296.303c8.246 0 14.931-6.685 14.931-14.931v-29.862c0-8.246-6.685-14.931-14.931-14.931s-14.931 6.685-14.931 14.931v29.862c0 8.246 6.685 14.931 14.931 14.931z"></path>
<path d="M204.89 236.576h29.862c8.246 0 14.931-6.685 14.931-14.931s-6.685-14.931-14.931-14.931h-29.862c-8.246 0-14.931 6.685-14.931 14.931s6.685 14.931 14.931 14.931z"></path>
<path d="M533.346 206.714c8.247 0 14.933-6.685 14.933-14.931v-29.862c0-8.246-6.686-14.931-14.933-14.931-8.243 0-14.929 6.685-14.929 14.931v29.862c0 8.246 6.686 14.931 14.929 14.931z"></path>
<path d="M563.221 236.576h29.862c8.247 0 14.933-6.685 14.933-14.931s-6.686-14.931-14.933-14.931h-29.862c-8.243 0-14.929 6.685-14.929 14.931s6.686 14.931 14.929 14.931z"></path>
<path d="M533.346 296.303c8.247 0 14.933-6.685 14.933-14.931v-29.862c0-8.246-6.686-14.931-14.933-14.931-8.243 0-14.929 6.685-14.929 14.931v29.862c0 8.246 6.686 14.931 14.929 14.931z"></path>
<path d="M473.638 236.576h29.862c8.247 0 14.933-6.685 14.933-14.931s-6.686-14.931-14.933-14.931h-29.862c-8.243 0-14.929 6.685-14.929 14.931s6.686 14.931 14.929 14.931z"></path>
<path d="M802.099 206.714c8.243 0 14.929-6.685 14.929-14.931v-29.862c0-8.246-6.686-14.931-14.929-14.931-8.247 0-14.933 6.685-14.933 14.931v29.862c0 8.246 6.686 14.931 14.933 14.931z"></path>
<path d="M861.837 206.714h-29.862c-8.247 0-14.933 6.685-14.933 14.931s6.686 14.931 14.933 14.931h29.862c8.243 0 14.929-6.685 14.929-14.931s-6.686-14.931-14.929-14.931z"></path>
<path d="M817.028 251.509c0-8.246-6.686-14.931-14.929-14.931-8.247 0-14.933 6.685-14.933 14.931v29.862c0 8.246 6.686 14.931 14.933 14.931 8.243 0 14.929-6.685 14.929-14.931v-29.862z"></path>
<path d="M742.391 236.576h29.858c8.247 0 14.933-6.685 14.933-14.931s-6.686-14.931-14.933-14.931h-29.858c-8.247 0-14.933 6.685-14.933 14.931s6.686 14.931 14.933 14.931z"></path>
<path d="M279.529 430.682c0-8.247-6.685-14.932-14.931-14.932s-14.931 6.685-14.931 14.932v29.862c0 8.247 6.685 14.929 14.931 14.929s14.931-6.682 14.931-14.929v-29.862z"></path>
<path d="M294.431 505.335h29.862c8.246 0 14.931-6.686 14.931-14.929 0-8.247-6.685-14.933-14.931-14.933h-29.862c-8.246 0-14.931 6.686-14.931 14.933 0 8.243 6.685 14.929 14.931 14.929z"></path>
<path d="M279.529 520.269c0-8.247-6.685-14.929-14.931-14.929s-14.931 6.682-14.931 14.929v29.862c0 8.247 6.685 14.933 14.931 14.933s14.931-6.686 14.931-14.933v-29.862z"></path>
<path d="M204.89 505.335h29.862c8.246 0 14.931-6.686 14.931-14.929 0-8.247-6.685-14.933-14.931-14.933h-29.862c-8.246 0-14.931 6.686-14.931 14.933 0 8.243 6.685 14.929 14.931 14.929z"></path>
<path d="M548.279 430.682c0-8.247-6.686-14.932-14.933-14.932-8.243 0-14.929 6.685-14.929 14.932v29.862c0 8.247 6.686 14.929 14.929 14.929 8.247 0 14.933-6.682 14.933-14.929v-29.862z"></path>
<path d="M563.221 505.335h29.862c8.247 0 14.933-6.686 14.933-14.929 0-8.247-6.686-14.933-14.933-14.933h-29.862c-8.243 0-14.929 6.686-14.929 14.933 0 8.243 6.686 14.929 14.929 14.929z"></path>
<path d="M548.279 520.269c0-8.247-6.686-14.929-14.933-14.929-8.243 0-14.929 6.682-14.929 14.929v29.862c0 8.247 6.686 14.933 14.929 14.933 8.247 0 14.933-6.686 14.933-14.933v-29.862z"></path>
<path d="M503.501 475.473h-29.862c-8.243 0-14.929 6.686-14.929 14.933 0 8.243 6.686 14.929 14.929 14.929h29.862c8.247 0 14.933-6.686 14.933-14.929 0-8.247-6.686-14.933-14.933-14.933z"></path>
<path d="M817.028 430.682c0-8.247-6.686-14.932-14.929-14.932-8.247 0-14.933 6.685-14.933 14.932v29.862c0 8.247 6.686 14.929 14.933 14.929 8.243 0 14.929-6.682 14.929-14.929v-29.862z"></path>
<path d="M861.837 475.473h-29.862c-8.247 0-14.933 6.686-14.933 14.933 0 8.243 6.686 14.929 14.933 14.929h29.862c8.243 0 14.929-6.686 14.929-14.929 0-8.247-6.686-14.933-14.929-14.933z"></path>
<path d="M817.028 520.269c0-8.247-6.686-14.929-14.929-14.929-8.247 0-14.933 6.682-14.933 14.929v29.862c0 8.247 6.686 14.933 14.933 14.933 8.243 0 14.929-6.686 14.929-14.933v-29.862z"></path>
<path d="M772.25 475.473h-29.858c-8.247 0-14.933 6.686-14.933 14.933 0 8.243 6.686 14.929 14.933 14.929h29.858c8.247 0 14.933-6.686 14.933-14.929 0-8.247-6.686-14.933-14.933-14.933z"></path>
<path d="M264.598 684.51c-8.246 0-14.931 6.686-14.931 14.933v29.862c0 8.243 6.685 14.929 14.931 14.929s14.931-6.686 14.931-14.929v-29.862c0-8.247-6.685-14.933-14.931-14.933z"></path>
<path d="M324.294 744.235h-29.862c-8.246 0-14.931 6.686-14.931 14.929 0 8.247 6.685 14.933 14.931 14.933h29.862c8.246 0 14.931-6.686 14.931-14.933 0-8.243-6.685-14.929-14.931-14.929z"></path>
<path d="M264.598 774.093c-8.246 0-14.931 6.686-14.931 14.933v29.862c0 8.243 6.685 14.929 14.931 14.929s14.931-6.686 14.931-14.929v-29.862c0-8.247-6.685-14.933-14.931-14.933z"></path>
<path d="M234.752 744.235h-29.862c-8.246 0-14.931 6.686-14.931 14.929 0 8.247 6.685 14.933 14.931 14.933h29.862c8.246 0 14.931-6.686 14.931-14.933 0-8.243-6.685-14.929-14.931-14.929z"></path>
<path d="M533.346 744.235c8.247 0 14.933-6.686 14.933-14.929v-29.862c0-8.247-6.686-14.933-14.933-14.933-8.243 0-14.929 6.686-14.929 14.933v29.862c0 8.243 6.686 14.929 14.929 14.929z"></path>
<path d="M593.084 744.235h-29.862c-8.243 0-14.929 6.686-14.929 14.929 0 8.247 6.686 14.933 14.929 14.933h29.862c8.247 0 14.933-6.686 14.933-14.933 0-8.243-6.686-14.929-14.933-14.929z"></path>
<path d="M533.346 774.093c-8.243 0-14.929 6.686-14.929 14.933v29.862c0 8.243 6.686 14.929 14.929 14.929 8.247 0 14.933-6.686 14.933-14.929v-29.862c0-8.247-6.686-14.933-14.933-14.933z"></path>
<path d="M503.501 744.235h-29.862c-8.243 0-14.929 6.686-14.929 14.929 0 8.247 6.686 14.933 14.929 14.933h29.862c8.247 0 14.933-6.686 14.933-14.933 0-8.243-6.686-14.929-14.933-14.929z"></path>
<path d="M398.973 550.131c-8.246 0-14.931 6.686-14.931 14.929v29.862c0 8.247 6.685 14.933 14.931 14.933s14.931-6.686 14.931-14.933v-29.862c0-8.243-6.685-14.929-14.931-14.929z"></path>
<path d="M473.643 624.785c0-8.247-6.686-14.929-14.933-14.929h-29.862c-8.245 0-14.93 6.682-14.93 14.929s6.685 14.929 14.93 14.929h29.862c8.247 0 14.933-6.682 14.933-14.929z"></path>
<path d="M398.973 639.718c-8.246 0-14.931 6.686-14.931 14.933v29.862c0 8.243 6.685 14.929 14.931 14.929s14.931-6.686 14.931-14.929v-29.862c0-8.247-6.685-14.933-14.931-14.933z"></path>
<path d="M369.127 609.856h-29.862c-8.246 0-14.931 6.682-14.931 14.929s6.685 14.929 14.931 14.929h29.862c8.246 0 14.931-6.682 14.931-14.929s-6.685-14.929-14.931-14.929z"></path>
<path d="M667.763 550.131c-8.243 0-14.929 6.686-14.929 14.929v29.862c0 8.247 6.686 14.933 14.929 14.933 8.247 0 14.933-6.686 14.933-14.933v-29.862c0-8.243-6.686-14.929-14.933-14.929z"></path>
<path d="M742.391 624.785c0-8.247-6.686-14.929-14.933-14.929h-29.862c-8.243 0-14.929 6.682-14.929 14.929s6.686 14.929 14.929 14.929h29.862c8.247 0 14.933-6.682 14.933-14.929z"></path>
<path d="M667.763 639.718c-8.243 0-14.929 6.686-14.929 14.933v29.862c0 8.243 6.686 14.929 14.929 14.929 8.247 0 14.933-6.686 14.933-14.929v-29.862c0-8.247-6.686-14.933-14.933-14.933z"></path>
<path d="M637.875 609.856h-29.862c-8.243 0-14.929 6.682-14.929 14.929s6.686 14.929 14.929 14.929h29.862c8.247 0 14.933-6.682 14.933-14.929s-6.686-14.929-14.933-14.929z"></path>
<path d="M398.973 341.094c8.247 0 14.931-6.685 14.931-14.931v-29.862c0-8.246-6.685-14.931-14.931-14.931s-14.931 6.685-14.931 14.931v29.862c0 8.246 6.685 14.931 14.931 14.931z"></path>
<path d="M428.847 370.956h29.862c8.247 0 14.933-6.685 14.933-14.931s-6.686-14.931-14.933-14.931h-29.862c-8.245 0-14.93 6.685-14.93 14.931s6.685 14.931 14.93 14.931z"></path>
<path d="M413.904 385.889c0-8.246-6.685-14.931-14.931-14.931s-14.931 6.685-14.931 14.931v29.862c0 8.246 6.685 14.93 14.931 14.93s14.931-6.684 14.931-14.93v-29.862z"></path>
<path d="M324.333 356.025c0 8.246 6.685 14.931 14.931 14.931h29.862c8.246 0 14.931-6.685 14.931-14.931s-6.685-14.931-14.931-14.931h-29.862c-8.246 0-14.931 6.685-14.931 14.931z"></path>
<path d="M667.763 341.094c8.247 0 14.933-6.685 14.933-14.931v-29.862c0-8.246-6.686-14.931-14.933-14.931-8.243 0-14.929 6.685-14.929 14.931v29.862c0 8.246 6.686 14.931 14.929 14.931z"></path>
<path d="M697.596 370.956h29.862c8.247 0 14.933-6.685 14.933-14.931s-6.686-14.931-14.933-14.931h-29.862c-8.243 0-14.929 6.685-14.929 14.931s6.686 14.931 14.929 14.931z"></path>
<path d="M682.697 385.889c0-8.246-6.686-14.931-14.933-14.931-8.243 0-14.929 6.685-14.929 14.931v29.862c0 8.246 6.686 14.93 14.929 14.93 8.247 0 14.933-6.684 14.933-14.93v-29.862z"></path>
<path d="M593.084 356.025c0 8.246 6.686 14.931 14.929 14.931h29.862c8.247 0 14.933-6.685 14.933-14.931s-6.686-14.931-14.933-14.931h-29.862c-8.243 0-14.929 6.685-14.929 14.931z"></path>
<path d="M802.099 744.235c8.243 0 14.929-6.686 14.929-14.929v-29.862c0-8.247-6.686-14.933-14.929-14.933-8.247 0-14.933 6.686-14.933 14.933v29.862c0 8.243 6.686 14.929 14.933 14.929z"></path>
<path d="M861.837 744.235h-29.862c-8.247 0-14.933 6.686-14.933 14.929 0 8.247 6.686 14.933 14.933 14.933h29.862c8.243 0 14.929-6.686 14.929-14.933 0-8.243-6.686-14.929-14.929-14.929z"></path>
<path d="M802.099 774.093c-8.247 0-14.933 6.686-14.933 14.933v29.862c0 8.243 6.686 14.929 14.933 14.929 8.243 0 14.929-6.686 14.929-14.929v-29.862c0-8.247-6.686-14.933-14.929-14.933z"></path>
<path d="M772.25 744.235h-29.858c-8.247 0-14.933 6.686-14.933 14.929 0 8.247 6.686 14.933 14.933 14.933h29.858c8.247 0 14.933-6.686 14.933-14.933 0-8.243-6.686-14.929-14.933-14.929z"></path>
</svg>
