<!-- Generated by IcoMoon.io -->
<svg version="1.1" xmlns="http://www.w3.org/2000/svg" width="1024" height="1024" viewBox="0 0 1024 1024">
<title></title>
<g id="icomoon-ignore">
</g>
<path d="M1003.217 777.314c13.414-14.383 20.783-33.050 20.783-52.774v-617.821c0-43.406-35.311-78.719-78.72-78.719h-826.874c-0.18 0-0.367 0-0.547 0.008-67.226 0.172-117.859 31.453-117.859 72.898v825.524c0 41.553 50.898 72.9 118.398 72.9 67.508 0 118.422-31.347 118.422-72.9v-11.273h599.314c10.935 0 21.717-2.368 31.59-6.784 0.354-0.141 0.695-0.286 1.033-0.444 7.953-3.695 15.142-8.64 21.376-14.72 0.017-0.013 0.030-0.030 0.047-0.038 0.201-0.201 0.397-0.397 0.602-0.602 0.030-0.021 0.064-0.055 0.094-0.085 0.226-0.226 0.444-0.452 0.661-0.678l110.464-113.212c0.218-0.226 0.427-0.452 0.649-0.674 0.038-0.047 0.077-0.085 0.115-0.124 0.149-0.162 0.307-0.32 0.452-0.482zM118.398 68.008c26.234 0 47.563 6.133 61.313 13.828 10.953 6.141 17.101 13.265 17.101 19.078v0.203c-0.328 13.11-31.523 32.711-78.414 32.711-47.125 0-78.398-19.813-78.398-32.922 0-13.094 31.273-32.899 78.398-32.899zM236.82 875.157v-383.351c0-2.931-0.633-5.722-1.766-8.226-3.14-6.946-10.125-11.785-18.242-11.785-11.039 0-20 8.964-20 20.002v403.358c0 0.102 0.008 0.205 0.008 0.307v30.967c0 13.103-31.281 32.9-78.422 32.9-47.125 0-78.398-19.797-78.398-32.9v-769.977c20.586 10.922 47.789 17.375 78.398 17.375 30.625 0 57.828-6.453 78.414-17.375v175.344c0 2.938 0.633 5.727 1.774 8.234 3.133 6.945 10.117 11.773 18.234 11.773 11.047 0 20-8.953 20-20v-230.898c0-11.984-4.235-23.125-11.883-32.906h720.343c21.355 0 38.72 17.367 38.72 38.719v617.821c0 1.131-0.047 2.249-0.149 3.366h-74.005c-38.332 0-69.517 31.181-69.517 69.508v77.508c-1.382 0.154-2.79 0.235-4.194 0.235h-599.314zM943.040 781.743l-62.711 64.273v-48.602c0-16.273 13.244-29.517 29.517-29.517h46.703l-13.508 13.845z"></path>
<path d="M509.141 188.867c-31.074-5.109-55.39-29.429-60.497-60.5-1.737-10.547-10.761-18.211-21.444-18.211-10.69 0-19.713 7.664-21.447 18.211-5.117 31.078-29.43 55.39-60.508 60.508-10.547 1.734-18.203 10.75-18.203 21.437 0 10.695 7.656 19.711 18.203 21.445 31.078 5.117 55.391 29.43 60.508 60.516 1.742 10.547 10.758 18.195 21.447 18.195h0.004c10.688 0 19.703-7.656 21.44-18.203 5.107-31.078 29.427-55.391 60.497-60.508 10.556-1.734 18.214-10.75 18.214-21.445 0-10.688-7.659-19.711-18.214-21.446zM427.2 240.531c-8.064-11.891-18.33-22.148-30.221-30.219 11.891-8.063 22.156-18.328 30.221-30.219 8.060 11.89 18.325 22.156 30.217 30.219-11.891 8.062-22.157 18.328-30.217 30.219z"></path>
<path d="M509.141 450.133c-31.074-5.111-55.39-29.43-60.497-60.5-1.737-10.555-10.761-18.211-21.444-18.211-10.69 0-19.713 7.656-21.447 18.211-5.117 31.070-29.43 55.389-60.508 60.5-10.547 1.741-18.203 10.756-18.203 21.444 0 10.697 7.656 19.712 18.203 21.444 31.078 5.12 55.391 29.431 60.508 60.518 1.742 10.547 10.758 18.193 21.447 18.193h0.004c10.679 0 19.703-7.654 21.44-18.202 5.107-31.078 29.427-55.39 60.497-60.51 10.556-1.732 18.214-10.748 18.214-21.444 0-10.688-7.659-19.712-18.214-21.444zM427.2 501.798c-8.064-11.891-18.33-22.157-30.221-30.221 11.891-8.064 22.156-18.33 30.221-30.217 8.060 11.887 18.325 22.153 30.217 30.217-11.891 8.064-22.157 18.33-30.217 30.221z"></path>
<path d="M509.141 711.398c-31.074-5.116-55.39-29.431-60.497-60.51-1.737-10.543-10.761-18.202-21.444-18.202-10.69 0-19.713 7.659-21.447 18.202-5.117 31.078-29.43 55.398-60.508 60.51-10.547 1.737-18.203 10.756-18.203 21.444s7.656 19.712 18.203 21.444c31.078 5.111 55.391 29.431 60.508 60.518 1.742 10.547 10.758 18.193 21.447 18.193h0.004c10.679-0.004 19.703-7.654 21.44-18.202 5.107-31.078 29.427-55.398 60.497-60.51 10.556-1.732 18.214-10.756 18.214-21.444s-7.659-19.708-18.214-21.444zM427.2 763.063c-8.064-11.891-18.33-22.157-30.221-30.221 11.891-8.060 22.156-18.325 30.221-30.217 8.060 11.891 18.325 22.157 30.217 30.217-11.891 8.064-22.157 18.33-30.217 30.221z"></path>
<path d="M654.993 231.758c31.078 5.117 55.394 29.43 60.51 60.508 1.732 10.547 10.748 18.203 21.444 18.203 10.688 0 19.703-7.656 21.44-18.203 5.116-31.078 29.427-55.391 60.506-60.508 10.547-1.734 18.202-10.75 18.202-21.445 0-10.688-7.654-19.711-18.202-21.446-31.078-5.109-55.39-29.429-60.506-60.5-1.737-10.547-10.752-18.211-21.449-18.211-10.688 0-19.708 7.664-21.444 18.211-5.107 31.078-29.427 55.39-60.501 60.508-10.547 1.734-18.202 10.75-18.202 21.445 0 10.688 7.654 19.703 18.202 21.437zM736.947 180.094c8.064 11.89 18.33 22.156 30.212 30.219-11.883 8.062-22.148 18.328-30.212 30.219-8.068-11.891-18.325-22.148-30.217-30.219 11.891-8.063 22.157-18.328 30.217-30.219z"></path>
<path d="M818.893 450.133c-31.078-5.111-55.39-29.43-60.506-60.5-1.737-10.555-10.752-18.211-21.44-18.211-10.697 0-19.712 7.656-21.444 18.211-5.116 31.070-29.431 55.389-60.51 60.5-10.547 1.741-18.202 10.756-18.202 21.444 0 10.697 7.654 19.712 18.202 21.444 31.078 5.12 55.394 29.431 60.51 60.51 1.732 10.547 10.748 18.202 21.444 18.202 10.688 0 19.703-7.654 21.44-18.202 5.116-31.078 29.427-55.39 60.506-60.501 10.547-1.732 18.202-10.756 18.202-21.444 0-10.697-7.654-19.721-18.202-21.453zM736.947 501.798c-8.068-11.891-18.325-22.157-30.217-30.221 11.891-8.064 22.148-18.33 30.217-30.217 8.064 11.887 18.33 22.153 30.212 30.217-11.883 8.064-22.148 18.33-30.212 30.221z"></path>
<path d="M818.893 711.398c-31.078-5.116-55.39-29.431-60.506-60.51-1.737-10.543-10.752-18.202-21.44-18.202-10.697 0-19.712 7.659-21.444 18.202-5.116 31.078-29.431 55.398-60.51 60.51-10.547 1.737-18.202 10.756-18.202 21.444 0 10.697 7.654 19.712 18.202 21.444 31.078 5.12 55.394 29.431 60.51 60.51 1.732 10.547 10.748 18.202 21.444 18.202 10.688 0 19.703-7.654 21.44-18.202 5.116-31.078 29.427-55.39 60.506-60.51 10.547-1.732 18.202-10.748 18.202-21.436 0-10.697-7.654-19.716-18.202-21.453zM736.947 763.063c-8.068-11.891-18.325-22.157-30.217-30.221 11.891-8.060 22.148-18.325 30.217-30.217 8.064 11.891 18.33 22.157 30.212 30.217-11.883 8.064-22.148 18.33-30.212 30.221z"></path>
<path d="M216.833 391.823c-11.039 0-20 8.984-20 20.031s8.961 20.001 20 20.001c11.047 0 20-8.954 20-20.001v-0.055c0-11.047-8.953-19.977-20-19.977z"></path>
</svg>
