<!-- Generated by IcoMoon.io -->
<svg version="1.1" xmlns="http://www.w3.org/2000/svg" width="1024" height="1024" viewBox="0 0 1024 1024">
<title></title>
<g id="icomoon-ignore">
</g>
<path fill="#29a71a" d="M512 1024c282.769 0 512-229.231 512-512s-229.231-512-512-512c-282.77 0-512 229.23-512 512s229.23 512 512 512z"></path>
<path fill="#fff" d="M737.741 286.257c-53.269-53.801-124.011-86.795-199.467-93.031-75.452-6.237-150.65 14.696-212.030 59.021s-104.899 109.125-122.709 182.711c-17.81 73.587-8.738 151.117 25.58 218.603l-33.687 163.55c-0.349 1.626-0.36 3.307-0.029 4.941 0.33 1.63 0.994 3.179 1.949 4.54 1.399 2.069 3.397 3.665 5.725 4.57s4.878 1.075 7.307 0.495l160.291-37.995c67.298 33.451 144.277 41.937 217.245 23.957 72.969-17.984 137.19-61.269 181.239-122.159s65.067-135.428 59.315-210.359c-5.756-74.931-37.905-145.391-90.731-198.842zM687.761 685.15c-36.855 36.753-84.318 61.018-135.693 69.367s-104.077 0.367-150.677-22.822l-22.342-11.055-98.269 23.275 0.291-1.22 20.364-98.91-10.938-21.585c-23.81-46.763-32.21-99.861-23.995-151.689 8.215-51.83 32.622-99.729 69.726-136.836 46.621-46.607 109.844-72.789 175.768-72.789 65.92 0 129.143 26.182 175.765 72.789 0.397 0.456 0.828 0.883 1.28 1.28 46.046 46.727 71.748 109.76 71.509 175.36s-26.402 128.448-72.789 174.835z"></path>
<path fill="#fff" d="M679.027 612.595c-12.045 18.97-31.070 42.185-54.985 47.945-41.89 10.121-106.18 0.346-186.18-74.24l-0.99-0.875c-70.342-65.22-88.611-119.505-84.189-162.56 2.444-24.436 22.807-46.545 39.971-60.975 2.713-2.316 5.931-3.965 9.396-4.815s7.080-0.878 10.557-0.080c3.477 0.797 6.72 2.397 9.468 4.672s4.927 5.16 6.361 8.427l25.89 58.182c1.681 3.772 2.304 7.932 1.805 12.032-0.503 4.1-2.112 7.987-4.655 11.243l-13.090 16.986c-2.812 3.511-4.506 7.778-4.868 12.258s0.623 8.964 2.829 12.877c7.334 12.86 24.905 31.77 44.395 49.28 21.875 19.785 46.14 37.879 61.5 44.045 4.109 1.681 8.627 2.091 12.971 1.178 4.348-0.913 8.32-3.106 11.405-6.298l15.185-15.3c2.931-2.889 6.575-4.949 10.56-5.973 3.989-1.020 8.175-0.969 12.13 0.154l61.5 17.455c3.392 1.041 6.502 2.842 9.092 5.269s4.587 5.414 5.845 8.734c1.259 3.315 1.741 6.878 1.408 10.411-0.329 3.533-1.463 6.946-3.311 9.971z"></path>
</svg>
