<!-- Generated by IcoMoon.io -->
<svg version="1.1" xmlns="http://www.w3.org/2000/svg" width="1024" height="1024" viewBox="0 0 1024 1024">
<title></title>
<g id="icomoon-ignore">
</g>
<path d="M802.822 283.499l-288.648-153.807c-4.283-2.285-9.414-2.253-13.666 0.080l-280.661 153.807c-4.603 2.526-7.458 7.354-7.458 12.606v200.91c0.168 165.154 98.018 314.566 249.339 380.731l38.957 16.976c3.64 1.589 7.786 1.597 11.435 0.016l43.896-18.957c154.128-64.73 254.398-215.586 254.414-382.752v-196.925c0-5.309-2.926-10.194-7.61-12.686zM781.691 493.11c-0.032 155.643-93.414 296.082-236.925 356.314l-0.096 0.048-38.227 16.502-33.214-14.49c-140.856-61.587-231.946-200.654-232.106-354.389v-192.403l266.387-145.995 274.181 146.101v188.312z"></path>
<path d="M401.493 487.779c-5.157-6.038-14.227-6.752-20.266-1.595-6.037 5.147-6.752 14.226-1.595 20.256l75.909 88.891c5.069 5.934 13.946 6.744 19.992 1.821l176.789-143.83c6.158-5.005 7.090-14.058 2.077-20.216-5.003-6.15-14.058-7.090-20.216-2.077l-165.899 134.962-66.79-78.211z"></path>
</svg>
