<!-- Generated by IcoMoon.io -->
<svg version="1.1" xmlns="http://www.w3.org/2000/svg" width="1024" height="1024" viewBox="0 0 1024 1024">
<title></title>
<g id="icomoon-ignore">
</g>
<path d="M807.998 892.802h-591.997c-46.778 0-84.802-38.024-84.802-84.802v-528c0-46.778 38.024-84.797 84.802-84.797h591.997c46.778 0 84.802 38.019 84.802 84.797v528c0 46.778-38.024 84.802-84.802 84.802zM216.002 236.803c-23.814 0-43.202 19.381-43.202 43.197v528c0 23.816 19.386 43.202 43.202 43.202h591.997c23.816 0 43.202-19.386 43.202-43.202v-528c0-23.816-19.387-43.197-43.202-43.197h-591.997z"></path>
<path d="M872 428.803h-720c-11.481 0-20.8-9.318-20.8-20.8 0-11.48 9.319-20.8 20.8-20.8h720c11.48 0 20.8 9.32 20.8 20.8 0 11.482-9.32 20.8-20.8 20.8z"></path>
<path d="M312 316.8c-11.48 0-20.8-9.32-20.8-20.8v-144c0-11.481 9.32-20.8 20.8-20.8s20.8 9.319 20.8 20.8v144c0 11.48-9.32 20.8-20.8 20.8z"></path>
<path d="M712 316.8c-11.48 0-20.8-9.32-20.8-20.8v-144c0-11.481 9.32-20.8 20.8-20.8s20.8 9.319 20.8 20.8v144c0 11.48-9.32 20.8-20.8 20.8z"></path>
<path d="M344 747.758c1.094-20.235 5.25-37.845 12.469-52.829 7.328-14.984 21.547-28.602 42.656-40.851l31.501-18.211c14.109-8.203 24.008-15.203 29.694-21 8.97-9.078 13.453-19.469 13.453-31.171 0-13.672-4.101-24.501-12.304-32.485-8.203-8.094-19.141-12.141-32.813-12.141-20.234 0-34.234 7.656-42 22.968-4.157 8.203-6.453 19.579-6.89 34.126h-30.024c0.328-20.454 4.101-37.133 11.32-50.040 12.797-22.75 35.382-34.125 67.758-34.125 26.906 0 46.539 7.274 58.898 21.821 12.469 14.546 18.704 30.734 18.704 48.562 0 18.813-6.618 34.891-19.853 48.235-7.656 7.765-21.382 17.171-41.179 28.218l-22.477 12.469c-10.718 5.907-19.141 11.539-25.266 16.899-10.938 9.515-17.827 20.070-20.672 31.664h128.298v27.891h-161.274z"></path>
<path d="M611.422 512.821c30.406 0 52.39 12.523 65.952 37.57 10.501 19.36 15.75 45.883 15.75 79.571 0 31.938-4.758 58.35-14.274 79.242-13.781 29.968-36.312 44.954-67.594 44.954-28.219 0-49.219-12.251-63-36.75-11.485-20.453-17.226-47.906-17.226-82.36 0-26.686 3.445-49.602 10.334-68.742 12.907-35.656 36.259-53.483 70.056-53.483zM611.094 727.25c15.312 0 27.507-6.781 36.586-20.344 9.078-13.562 13.618-38.827 13.618-75.797 0-26.686-3.282-48.616-9.845-65.789-6.562-17.282-19.304-25.922-38.226-25.922-17.392 0-30.133 8.203-38.227 24.61-7.984 16.296-11.976 40.358-11.976 72.187 0 23.954 2.57 43.203 7.71 57.75 7.875 22.203 21.328 33.304 40.36 33.304z"></path>
</svg>
