<!-- Generated by IcoMoon.io -->
<svg version="1.1" xmlns="http://www.w3.org/2000/svg" width="1024" height="1024" viewBox="0 0 1024 1024">
<title></title>
<g id="icomoon-ignore">
</g>
<path d="M774.717 390.714c0-145.093-117.622-262.714-262.715-262.714s-262.714 117.621-262.714 262.714c-37.509 4.67-72.976 29.19-72.976 86.112v137.195c0 64.219 44.954 87.571 87.571 87.571h42.326c8.061 0 14.595-6.536 14.595-14.595v-282.563c0-8.061-6.534-14.595-14.595-14.595h-27.731c0-128.971 104.554-233.524 233.523-233.524 128.971 0 233.525 104.552 233.525 233.524h-27.731c-8.061 0-14.595 6.534-14.595 14.595v282.125c0 8.061 6.534 14.595 14.595 14.595h27.731c-4.088 100.269-52.251 123.768-148.434 128v-9.779c0-16.122-13.069-29.19-29.19-29.19h-91.805c-16.122 0-29.19 13.069-29.19 29.19v47.435c0 16.122 13.069 29.19 29.19 29.19h92.096c16.123 0 29.19-13.069 29.19-29.19v-8.466c92.534-4.232 172.515-23.352 177.333-158.066 37.509-4.67 72.976-29.19 72.976-86.112v-137.195c0-57.213-35.322-81.587-72.976-86.258zM291.614 418.006v253.957h-28.461c-21.6 0-58.381-7.589-58.381-58.381v-137.195c0-50.354 36.342-58.381 58.381-58.381h28.461zM568.194 844.771v22.184h-92.096v-47.434h92.096v25.25zM818.502 614.021c0 50.354-36.342 58.381-58.381 58.381h-27.731v-253.373h28.461c21.6 0 58.381 7.589 58.381 58.381l-0.73 136.611z"></path>
</svg>
