<!-- Generated by IcoMoon.io -->
<svg version="1.1" xmlns="http://www.w3.org/2000/svg" width="1024" height="1024" viewBox="0 0 1024 1024">
<title></title>
<g id="icomoon-ignore">
</g>
<path fill="#fff" d="M768 531.328c0 41.44-5.12 82.88-5.12 82.88s-4.992 35.264-20.352 50.816c-19.456 20.384-41.28 20.48-51.296 21.664-71.648 5.184-179.232 5.344-179.232 5.344s-133.12-1.216-174.080-5.12c-11.392-2.144-36.992-1.504-56.448-21.888-15.36-15.552-20.352-50.816-20.352-50.816s-5.12-41.44-5.12-82.88v-38.848c0-41.44 5.12-82.848 5.12-82.848s4.992-35.296 20.352-50.848c19.456-20.384 41.28-20.48 51.296-21.664 71.648-5.184 179.136-5.184 179.136-5.184h0.192c0 0 107.488 0 179.136 5.184 10.016 1.184 31.84 1.28 51.296 21.664 15.36 15.552 20.352 50.848 20.352 50.848s5.12 41.408 5.12 82.848v38.848z"></path>
<path fill="#ea412c" d="M768 531.328c0 41.44-5.12 82.88-5.12 82.88s-4.992 35.264-20.352 50.816c-19.456 20.384-41.28 20.48-51.296 21.664-71.648 5.184-179.232 5.344-179.232 5.344s-133.12-1.216-174.080-5.12c-11.392-2.144-36.992-1.504-56.448-21.888-15.36-15.552-20.352-50.816-20.352-50.816s-5.12-41.44-5.12-82.88v-38.848c0-41.44 5.12-82.848 5.12-82.848s4.992-35.296 20.352-50.848c19.456-20.384 41.28-20.48 51.296-21.664 71.648-5.184 179.136-5.184 179.136-5.184h0.192c0 0 107.488 0 179.136 5.184 10.016 1.184 31.84 1.28 51.296 21.664 15.36 15.552 20.352 50.848 20.352 50.848s5.12 41.408 5.12 82.848v38.848zM512 0c-282.784 0-512 229.216-512 512 0 282.752 229.216 512 512 512s512-229.248 512-512c0-282.784-229.216-512-512-512z"></path>
<path fill="#ea412c" d="M459.142 578.403l138.336-71.68-138.368-72.192 0.032 143.872z"></path>
</svg>
